<svg xmlns="http://www.w3.org/2000/svg" width="660.0" height="70.0" viewBox="0 0 660.0 70.0">
<rect x="0" y="0" width="660.0" height="70.0" rx="0" ry="0" fill="#ffffff" />
<defs>
<clipPath id="grid-clip-live-light"><rect x="0" y="10" width="660.0" height="50.0" rx="0" ry="0" /></clipPath>
</defs>
<rect x="0.0" y="10.0" width="10" height="5" rx="1" ry="1" fill="#ebedf0" />
<rect x="12.5" y="10.0" width="10" height="5" rx="1" ry="1" fill="#ebedf0" />
<rect x="25.0" y="10.0" width="10" height="5" rx="1" ry="1" fill="#ebedf0" />
<rect x="37.5" y="10.0" width="10" height="5" rx="1" ry="1" fill="#ebedf0" />
<rect x="50.0" y="10.0" width="10" height="5" rx="1" ry="1" fill="#ebedf0" />
<rect x="62.5" y="10.0" width="10" height="5" rx="1" ry="1" fill="#ebedf0" />
<rect x="75.0" y="10.0" width="10" height="5" rx="1" ry="1" fill="#ebedf0" />
<rect x="87.5" y="10.0" width="10" height="5" rx="1" ry="1" fill="#ebedf0" />
<rect x="100.0" y="10.0" width="10" height="5" rx="1" ry="1" fill="#ebedf0" />
<rect x="112.5" y="10.0" width="10" height="5" rx="1" ry="1" fill="#ebedf0" />
<rect x="125.0" y="10.0" width="10" height="5" rx="1" ry="1" fill="#ebedf0" />
<rect x="137.5" y="10.0" width="10" height="5" rx="1" ry="1" fill="#ebedf0" />
<rect x="150.0" y="10.0" width="10" height="5" rx="1" ry="1" fill="#ebedf0" />
<rect x="162.5" y="10.0" width="10" height="5" rx="1" ry="1" fill="#ebedf0" />
<rect x="175.0" y="10.0" width="10" height="5" rx="1" ry="1" fill="#ebedf0" />
<rect x="187.5" y="10.0" width="10" height="5" rx="1" ry="1" fill="#ebedf0" />
<rect x="200.0" y="10.0" width="10" height="5" rx="1" ry="1" fill="#ebedf0" />
<rect x="212.5" y="10.0" width="10" height="5" rx="1" ry="1" fill="#ebedf0" />
<rect x="225.0" y="10.0" width="10" height="5" rx="1" ry="1" fill="#ebedf0" />
<rect x="237.5" y="10.0" width="10" height="5" rx="1" ry="1" fill="#ebedf0" />
<rect x="250.0" y="10.0" width="10" height="5" rx="1" ry="1" fill="#ebedf0" />
<rect x="262.5" y="10.0" width="10" height="5" rx="1" ry="1" fill="#ebedf0" />
<rect x="275.0" y="10.0" width="10" height="5" rx="1" ry="1" fill="#ebedf0" />
<rect x="287.5" y="10.0" width="10" height="5" rx="1" ry="1" fill="#ebedf0" />
<rect x="300.0" y="10.0" width="10" height="5" rx="1" ry="1" fill="#ebedf0" />
<rect x="312.5" y="10.0" width="10" height="5" rx="1" ry="1" fill="#ebedf0" />
<rect x="325.0" y="10.0" width="10" height="5" rx="1" ry="1" fill="#ebedf0" />
<rect x="337.5" y="10.0" width="10" height="5" rx="1" ry="1" fill="#ebedf0" />
<rect x="350.0" y="10.0" width="10" height="5" rx="1" ry="1" fill="#ebedf0" />
<rect x="362.5" y="10.0" width="10" height="5" rx="1" ry="1" fill="#ebedf0" />
<rect x="375.0" y="10.0" width="10" height="5" rx="1" ry="1" fill="#ebedf0" />
<rect x="387.5" y="10.0" width="10" height="5" rx="1" ry="1" fill="#ebedf0" />
<rect x="400.0" y="10.0" width="10" height="5" rx="1" ry="1" fill="#ebedf0" />
<rect x="412.5" y="10.0" width="10" height="5" rx="1" ry="1" fill="#ebedf0" />
<rect x="425.0" y="10.0" width="10" height="5" rx="1" ry="1" fill="#ebedf0" />
<rect x="437.5" y="10.0" width="10" height="5" rx="1" ry="1" fill="#ebedf0" />
<rect x="450.0" y="10.0" width="10" height="5" rx="1" ry="1" fill="#ebedf0" />
<rect x="462.5" y="10.0" width="10" height="5" rx="1" ry="1" fill="#ebedf0" />
<rect x="475.0" y="10.0" width="10" height="5" rx="1" ry="1" fill="#ebedf0" />
<rect x="487.5" y="10.0" width="10" height="5" rx="1" ry="1" fill="#ebedf0" />
<rect x="500.0" y="10.0" width="10" height="5" rx="1" ry="1" fill="#ebedf0" />
<rect x="512.5" y="10.0" width="10" height="5" rx="1" ry="1" fill="#ebedf0" />
<rect x="525.0" y="10.0" width="10" height="5" rx="1" ry="1" fill="#ebedf0" />
<rect x="537.5" y="10.0" width="10" height="5" rx="1" ry="1" fill="#ebedf0" />
<rect x="550.0" y="10.0" width="10" height="5" rx="1" ry="1" fill="#ebedf0" />
<rect x="562.5" y="10.0" width="10" height="5" rx="1" ry="1" fill="#ebedf0" />
<rect x="575.0" y="10.0" width="10" height="5" rx="1" ry="1" fill="#ebedf0" />
<rect x="587.5" y="10.0" width="10" height="5" rx="1" ry="1" fill="#ebedf0" />
<rect x="600.0" y="10.0" width="10" height="5" rx="1" ry="1" fill="#ebedf0" />
<rect x="612.5" y="10.0" width="10" height="5" rx="1" ry="1" fill="#ebedf0" />
<rect x="625.0" y="10.0" width="10" height="5" rx="1" ry="1" fill="#ebedf0" />
<rect x="637.5" y="10.0" width="10" height="5" rx="1" ry="1" fill="#ebedf0" />
<rect x="650.0" y="10.0" width="10" height="5" rx="1" ry="1" fill="#ebedf0" />
<rect x="0.0" y="17.5" width="10" height="5" rx="1" ry="1" fill="#ebedf0" />
<rect x="12.5" y="17.5" width="10" height="5" rx="1" ry="1" fill="#ebedf0" />
<rect x="25.0" y="17.5" width="10" height="5" rx="1" ry="1" fill="#ebedf0" />
<rect x="37.5" y="17.5" width="10" height="5" rx="1" ry="1" fill="#ebedf0" />
<rect x="50.0" y="17.5" width="10" height="5" rx="1" ry="1" fill="#ebedf0" />
<rect x="62.5" y="17.5" width="10" height="5" rx="1" ry="1" fill="#ebedf0" />
<rect x="75.0" y="17.5" width="10" height="5" rx="1" ry="1" fill="#ebedf0" />
<rect x="87.5" y="17.5" width="10" height="5" rx="1" ry="1" fill="#ebedf0" />
<rect x="100.0" y="17.5" width="10" height="5" rx="1" ry="1" fill="#ebedf0" />
<rect x="112.5" y="17.5" width="10" height="5" rx="1" ry="1" fill="#ebedf0" />
<rect x="125.0" y="17.5" width="10" height="5" rx="1" ry="1" fill="#ebedf0" />
<rect x="137.5" y="17.5" width="10" height="5" rx="1" ry="1" fill="#ebedf0" />
<rect x="150.0" y="17.5" width="10" height="5" rx="1" ry="1" fill="#ebedf0" />
<rect x="162.5" y="17.5" width="10" height="5" rx="1" ry="1" fill="#ebedf0" />
<rect x="175.0" y="17.5" width="10" height="5" rx="1" ry="1" fill="#ebedf0" />
<rect x="187.5" y="17.5" width="10" height="5" rx="1" ry="1" fill="#ebedf0" />
<rect x="200.0" y="17.5" width="10" height="5" rx="1" ry="1" fill="#ebedf0" />
<rect x="212.5" y="17.5" width="10" height="5" rx="1" ry="1" fill="#ebedf0" />
<rect x="225.0" y="17.5" width="10" height="5" rx="1" ry="1" fill="#ebedf0" />
<rect x="237.5" y="17.5" width="10" height="5" rx="1" ry="1" fill="#ebedf0" />
<rect x="250.0" y="17.5" width="10" height="5" rx="1" ry="1" fill="#ebedf0" />
<rect x="262.5" y="17.5" width="10" height="5" rx="1" ry="1" fill="#ebedf0" />
<rect x="275.0" y="17.5" width="10" height="5" rx="1" ry="1" fill="#ebedf0" />
<rect x="287.5" y="17.5" width="10" height="5" rx="1" ry="1" fill="#ebedf0" />
<rect x="300.0" y="17.5" width="10" height="5" rx="1" ry="1" fill="#ebedf0" />
<rect x="312.5" y="17.5" width="10" height="5" rx="1" ry="1" fill="#ebedf0" />
<rect x="325.0" y="17.5" width="10" height="5" rx="1" ry="1" fill="#ebedf0" />
<rect x="337.5" y="17.5" width="10" height="5" rx="1" ry="1" fill="#ebedf0" />
<rect x="350.0" y="17.5" width="10" height="5" rx="1" ry="1" fill="#ebedf0" />
<rect x="362.5" y="17.5" width="10" height="5" rx="1" ry="1" fill="#ebedf0" />
<rect x="375.0" y="17.5" width="10" height="5" rx="1" ry="1" fill="#ebedf0" />
<rect x="387.5" y="17.5" width="10" height="5" rx="1" ry="1" fill="#ebedf0" />
<rect x="400.0" y="17.5" width="10" height="5" rx="1" ry="1" fill="#ebedf0" />
<rect x="412.5" y="17.5" width="10" height="5" rx="1" ry="1" fill="#ebedf0" />
<rect x="425.0" y="17.5" width="10" height="5" rx="1" ry="1" fill="#ebedf0" />
<rect x="437.5" y="17.5" width="10" height="5" rx="1" ry="1" fill="#ebedf0" />
<rect x="450.0" y="17.5" width="10" height="5" rx="1" ry="1" fill="#ebedf0" />
<rect x="462.5" y="17.5" width="10" height="5" rx="1" ry="1" fill="#ebedf0" />
<rect x="475.0" y="17.5" width="10" height="5" rx="1" ry="1" fill="#ebedf0" />
<rect x="487.5" y="17.5" width="10" height="5" rx="1" ry="1" fill="#ebedf0" />
<rect x="500.0" y="17.5" width="10" height="5" rx="1" ry="1" fill="#ebedf0" />
<rect x="512.5" y="17.5" width="10" height="5" rx="1" ry="1" fill="#ebedf0" />
<rect x="525.0" y="17.5" width="10" height="5" rx="1" ry="1" fill="#ebedf0" />
<rect x="537.5" y="17.5" width="10" height="5" rx="1" ry="1" fill="#ebedf0" />
<rect x="550.0" y="17.5" width="10" height="5" rx="1" ry="1" fill="#ebedf0" />
<rect x="562.5" y="17.5" width="10" height="5" rx="1" ry="1" fill="#ebedf0" />
<rect x="575.0" y="17.5" width="10" height="5" rx="1" ry="1" fill="#ebedf0" />
<rect x="587.5" y="17.5" width="10" height="5" rx="1" ry="1" fill="#ebedf0" />
<rect x="600.0" y="17.5" width="10" height="5" rx="1" ry="1" fill="#ebedf0" />
<rect x="612.5" y="17.5" width="10" height="5" rx="1" ry="1" fill="#ebedf0" />
<rect x="625.0" y="17.5" width="10" height="5" rx="1" ry="1" fill="#ebedf0" />
<rect x="637.5" y="17.5" width="10" height="5" rx="1" ry="1" fill="#ebedf0" />
<rect x="650.0" y="17.5" width="10" height="5" rx="1" ry="1" fill="#ebedf0" />
<rect x="0.0" y="25.0" width="10" height="5" rx="1" ry="1" fill="#ebedf0" />
<rect x="12.5" y="25.0" width="10" height="5" rx="1" ry="1" fill="#ebedf0" />
<rect x="25.0" y="25.0" width="10" height="5" rx="1" ry="1" fill="#ebedf0" />
<rect x="37.5" y="25.0" width="10" height="5" rx="1" ry="1" fill="#ebedf0" />
<rect x="50.0" y="25.0" width="10" height="5" rx="1" ry="1" fill="#ebedf0" />
<rect x="62.5" y="25.0" width="10" height="5" rx="1" ry="1" fill="#ebedf0" />
<rect x="75.0" y="25.0" width="10" height="5" rx="1" ry="1" fill="#ebedf0" />
<rect x="87.5" y="25.0" width="10" height="5" rx="1" ry="1" fill="#ebedf0" />
<rect x="100.0" y="25.0" width="10" height="5" rx="1" ry="1" fill="#ebedf0" />
<rect x="112.5" y="25.0" width="10" height="5" rx="1" ry="1" fill="#ebedf0" />
<rect x="125.0" y="25.0" width="10" height="5" rx="1" ry="1" fill="#ebedf0" />
<rect x="137.5" y="25.0" width="10" height="5" rx="1" ry="1" fill="#ebedf0" />
<rect x="150.0" y="25.0" width="10" height="5" rx="1" ry="1" fill="#ebedf0" />
<rect x="162.5" y="25.0" width="10" height="5" rx="1" ry="1" fill="#ebedf0" />
<rect x="175.0" y="25.0" width="10" height="5" rx="1" ry="1" fill="#ebedf0" />
<rect x="187.5" y="25.0" width="10" height="5" rx="1" ry="1" fill="#ebedf0" />
<rect x="200.0" y="25.0" width="10" height="5" rx="1" ry="1" fill="#ebedf0" />
<rect x="212.5" y="25.0" width="10" height="5" rx="1" ry="1" fill="#ebedf0" />
<rect x="225.0" y="25.0" width="10" height="5" rx="1" ry="1" fill="#ebedf0" />
<rect x="237.5" y="25.0" width="10" height="5" rx="1" ry="1" fill="#ebedf0" />
<rect x="250.0" y="25.0" width="10" height="5" rx="1" ry="1" fill="#ebedf0" />
<rect x="262.5" y="25.0" width="10" height="5" rx="1" ry="1" fill="#ebedf0" />
<rect x="275.0" y="25.0" width="10" height="5" rx="1" ry="1" fill="#ebedf0" />
<rect x="287.5" y="25.0" width="10" height="5" rx="1" ry="1" fill="#ebedf0" />
<rect x="300.0" y="25.0" width="10" height="5" rx="1" ry="1" fill="#ebedf0" />
<rect x="312.5" y="25.0" width="10" height="5" rx="1" ry="1" fill="#ebedf0" />
<rect x="325.0" y="25.0" width="10" height="5" rx="1" ry="1" fill="#ebedf0" />
<rect x="337.5" y="25.0" width="10" height="5" rx="1" ry="1" fill="#ebedf0" />
<rect x="350.0" y="25.0" width="10" height="5" rx="1" ry="1" fill="#ebedf0" />
<rect x="362.5" y="25.0" width="10" height="5" rx="1" ry="1" fill="#ebedf0" />
<rect x="375.0" y="25.0" width="10" height="5" rx="1" ry="1" fill="#ebedf0" />
<rect x="387.5" y="25.0" width="10" height="5" rx="1" ry="1" fill="#ebedf0" />
<rect x="400.0" y="25.0" width="10" height="5" rx="1" ry="1" fill="#ebedf0" />
<rect x="412.5" y="25.0" width="10" height="5" rx="1" ry="1" fill="#ebedf0" />
<rect x="425.0" y="25.0" width="10" height="5" rx="1" ry="1" fill="#ebedf0" />
<rect x="437.5" y="25.0" width="10" height="5" rx="1" ry="1" fill="#ebedf0" />
<rect x="450.0" y="25.0" width="10" height="5" rx="1" ry="1" fill="#ebedf0" />
<rect x="462.5" y="25.0" width="10" height="5" rx="1" ry="1" fill="#ebedf0" />
<rect x="475.0" y="25.0" width="10" height="5" rx="1" ry="1" fill="#ebedf0" />
<rect x="487.5" y="25.0" width="10" height="5" rx="1" ry="1" fill="#ebedf0" />
<rect x="500.0" y="25.0" width="10" height="5" rx="1" ry="1" fill="#ebedf0" />
<rect x="512.5" y="25.0" width="10" height="5" rx="1" ry="1" fill="#ebedf0" />
<rect x="525.0" y="25.0" width="10" height="5" rx="1" ry="1" fill="#ebedf0" />
<rect x="537.5" y="25.0" width="10" height="5" rx="1" ry="1" fill="#ebedf0" />
<rect x="550.0" y="25.0" width="10" height="5" rx="1" ry="1" fill="#ebedf0" />
<rect x="562.5" y="25.0" width="10" height="5" rx="1" ry="1" fill="#ebedf0" />
<rect x="575.0" y="25.0" width="10" height="5" rx="1" ry="1" fill="#ebedf0" />
<rect x="587.5" y="25.0" width="10" height="5" rx="1" ry="1" fill="#ebedf0" />
<rect x="600.0" y="25.0" width="10" height="5" rx="1" ry="1" fill="#ebedf0" />
<rect x="612.5" y="25.0" width="10" height="5" rx="1" ry="1" fill="#ebedf0" />
<rect x="625.0" y="25.0" width="10" height="5" rx="1" ry="1" fill="#ebedf0" />
<rect x="637.5" y="25.0" width="10" height="5" rx="1" ry="1" fill="#ebedf0" />
<rect x="650.0" y="25.0" width="10" height="5" rx="1" ry="1" fill="#ebedf0" />
<rect x="0.0" y="32.5" width="10" height="5" rx="1" ry="1" fill="#ebedf0" />
<rect x="12.5" y="32.5" width="10" height="5" rx="1" ry="1" fill="#ebedf0" />
<rect x="25.0" y="32.5" width="10" height="5" rx="1" ry="1" fill="#ebedf0" />
<rect x="37.5" y="32.5" width="10" height="5" rx="1" ry="1" fill="#ebedf0" />
<rect x="50.0" y="32.5" width="10" height="5" rx="1" ry="1" fill="#ebedf0" />
<rect x="62.5" y="32.5" width="10" height="5" rx="1" ry="1" fill="#ebedf0" />
<rect x="75.0" y="32.5" width="10" height="5" rx="1" ry="1" fill="#ebedf0" />
<rect x="87.5" y="32.5" width="10" height="5" rx="1" ry="1" fill="#ebedf0" />
<rect x="100.0" y="32.5" width="10" height="5" rx="1" ry="1" fill="#ebedf0" />
<rect x="112.5" y="32.5" width="10" height="5" rx="1" ry="1" fill="#ebedf0" />
<rect x="125.0" y="32.5" width="10" height="5" rx="1" ry="1" fill="#ebedf0" />
<rect x="137.5" y="32.5" width="10" height="5" rx="1" ry="1" fill="#ebedf0" />
<rect x="150.0" y="32.5" width="10" height="5" rx="1" ry="1" fill="#ebedf0" />
<rect x="162.5" y="32.5" width="10" height="5" rx="1" ry="1" fill="#ebedf0" />
<rect x="175.0" y="32.5" width="10" height="5" rx="1" ry="1" fill="#ebedf0" />
<rect x="187.5" y="32.5" width="10" height="5" rx="1" ry="1" fill="#ebedf0" />
<rect x="200.0" y="32.5" width="10" height="5" rx="1" ry="1" fill="#ebedf0" />
<rect x="212.5" y="32.5" width="10" height="5" rx="1" ry="1" fill="#ebedf0" />
<rect x="225.0" y="32.5" width="10" height="5" rx="1" ry="1" fill="#ebedf0" />
<rect x="237.5" y="32.5" width="10" height="5" rx="1" ry="1" fill="#ebedf0" />
<rect x="250.0" y="32.5" width="10" height="5" rx="1" ry="1" fill="#ebedf0" />
<rect x="262.5" y="32.5" width="10" height="5" rx="1" ry="1" fill="#ebedf0" />
<rect x="275.0" y="32.5" width="10" height="5" rx="1" ry="1" fill="#ebedf0" />
<rect x="287.5" y="32.5" width="10" height="5" rx="1" ry="1" fill="#ebedf0" />
<rect x="300.0" y="32.5" width="10" height="5" rx="1" ry="1" fill="#ebedf0" />
<rect x="312.5" y="32.5" width="10" height="5" rx="1" ry="1" fill="#ebedf0" />
<rect x="325.0" y="32.5" width="10" height="5" rx="1" ry="1" fill="#ebedf0" />
<rect x="337.5" y="32.5" width="10" height="5" rx="1" ry="1" fill="#ebedf0" />
<rect x="350.0" y="32.5" width="10" height="5" rx="1" ry="1" fill="#ebedf0" />
<rect x="362.5" y="32.5" width="10" height="5" rx="1" ry="1" fill="#ebedf0" />
<rect x="375.0" y="32.5" width="10" height="5" rx="1" ry="1" fill="#ebedf0" />
<rect x="387.5" y="32.5" width="10" height="5" rx="1" ry="1" fill="#ebedf0" />
<rect x="400.0" y="32.5" width="10" height="5" rx="1" ry="1" fill="#ebedf0" />
<rect x="412.5" y="32.5" width="10" height="5" rx="1" ry="1" fill="#ebedf0" />
<rect x="425.0" y="32.5" width="10" height="5" rx="1" ry="1" fill="#ebedf0" />
<rect x="437.5" y="32.5" width="10" height="5" rx="1" ry="1" fill="#ebedf0" />
<rect x="450.0" y="32.5" width="10" height="5" rx="1" ry="1" fill="#ebedf0" />
<rect x="462.5" y="32.5" width="10" height="5" rx="1" ry="1" fill="#ebedf0" />
<rect x="475.0" y="32.5" width="10" height="5" rx="1" ry="1" fill="#ebedf0" />
<rect x="487.5" y="32.5" width="10" height="5" rx="1" ry="1" fill="#ebedf0" />
<rect x="500.0" y="32.5" width="10" height="5" rx="1" ry="1" fill="#ebedf0" />
<rect x="512.5" y="32.5" width="10" height="5" rx="1" ry="1" fill="#ebedf0" />
<rect x="525.0" y="32.5" width="10" height="5" rx="1" ry="1" fill="#ebedf0" />
<rect x="537.5" y="32.5" width="10" height="5" rx="1" ry="1" fill="#ebedf0" />
<rect x="550.0" y="32.5" width="10" height="5" rx="1" ry="1" fill="#ebedf0" />
<rect x="562.5" y="32.5" width="10" height="5" rx="1" ry="1" fill="#ebedf0" />
<rect x="575.0" y="32.5" width="10" height="5" rx="1" ry="1" fill="#ebedf0" />
<rect x="587.5" y="32.5" width="10" height="5" rx="1" ry="1" fill="#ebedf0" />
<rect x="600.0" y="32.5" width="10" height="5" rx="1" ry="1" fill="#ebedf0" />
<rect x="612.5" y="32.5" width="10" height="5" rx="1" ry="1" fill="#ebedf0" />
<rect x="625.0" y="32.5" width="10" height="5" rx="1" ry="1" fill="#ebedf0" />
<rect x="637.5" y="32.5" width="10" height="5" rx="1" ry="1" fill="#ebedf0" />
<rect x="650.0" y="32.5" width="10" height="5" rx="1" ry="1" fill="#ebedf0" />
<rect x="0.0" y="40.0" width="10" height="5" rx="1" ry="1" fill="#ebedf0" />
<rect x="12.5" y="40.0" width="10" height="5" rx="1" ry="1" fill="#ebedf0" />
<rect x="25.0" y="40.0" width="10" height="5" rx="1" ry="1" fill="#ebedf0" />
<rect x="37.5" y="40.0" width="10" height="5" rx="1" ry="1" fill="#ebedf0" />
<rect x="50.0" y="40.0" width="10" height="5" rx="1" ry="1" fill="#ebedf0" />
<rect x="62.5" y="40.0" width="10" height="5" rx="1" ry="1" fill="#ebedf0" />
<rect x="75.0" y="40.0" width="10" height="5" rx="1" ry="1" fill="#ebedf0" />
<rect x="87.5" y="40.0" width="10" height="5" rx="1" ry="1" fill="#ebedf0" />
<rect x="100.0" y="40.0" width="10" height="5" rx="1" ry="1" fill="#ebedf0" />
<rect x="112.5" y="40.0" width="10" height="5" rx="1" ry="1" fill="#ebedf0" />
<rect x="125.0" y="40.0" width="10" height="5" rx="1" ry="1" fill="#ebedf0" />
<rect x="137.5" y="40.0" width="10" height="5" rx="1" ry="1" fill="#ebedf0" />
<rect x="150.0" y="40.0" width="10" height="5" rx="1" ry="1" fill="#ebedf0" />
<rect x="162.5" y="40.0" width="10" height="5" rx="1" ry="1" fill="#ebedf0" />
<rect x="175.0" y="40.0" width="10" height="5" rx="1" ry="1" fill="#ebedf0" />
<rect x="187.5" y="40.0" width="10" height="5" rx="1" ry="1" fill="#ebedf0" />
<rect x="200.0" y="40.0" width="10" height="5" rx="1" ry="1" fill="#ebedf0" />
<rect x="212.5" y="40.0" width="10" height="5" rx="1" ry="1" fill="#ebedf0" />
<rect x="225.0" y="40.0" width="10" height="5" rx="1" ry="1" fill="#ebedf0" />
<rect x="237.5" y="40.0" width="10" height="5" rx="1" ry="1" fill="#ebedf0" />
<rect x="250.0" y="40.0" width="10" height="5" rx="1" ry="1" fill="#ebedf0" />
<rect x="262.5" y="40.0" width="10" height="5" rx="1" ry="1" fill="#ebedf0" />
<rect x="275.0" y="40.0" width="10" height="5" rx="1" ry="1" fill="#ebedf0" />
<rect x="287.5" y="40.0" width="10" height="5" rx="1" ry="1" fill="#ebedf0" />
<rect x="300.0" y="40.0" width="10" height="5" rx="1" ry="1" fill="#ebedf0" />
<rect x="312.5" y="40.0" width="10" height="5" rx="1" ry="1" fill="#ebedf0" />
<rect x="325.0" y="40.0" width="10" height="5" rx="1" ry="1" fill="#ebedf0" />
<rect x="337.5" y="40.0" width="10" height="5" rx="1" ry="1" fill="#ebedf0" />
<rect x="350.0" y="40.0" width="10" height="5" rx="1" ry="1" fill="#ebedf0" />
<rect x="362.5" y="40.0" width="10" height="5" rx="1" ry="1" fill="#ebedf0" />
<rect x="375.0" y="40.0" width="10" height="5" rx="1" ry="1" fill="#ebedf0" />
<rect x="387.5" y="40.0" width="10" height="5" rx="1" ry="1" fill="#ebedf0" />
<rect x="400.0" y="40.0" width="10" height="5" rx="1" ry="1" fill="#ebedf0" />
<rect x="412.5" y="40.0" width="10" height="5" rx="1" ry="1" fill="#ebedf0" />
<rect x="425.0" y="40.0" width="10" height="5" rx="1" ry="1" fill="#ebedf0" />
<rect x="437.5" y="40.0" width="10" height="5" rx="1" ry="1" fill="#ebedf0" />
<rect x="450.0" y="40.0" width="10" height="5" rx="1" ry="1" fill="#ebedf0" />
<rect x="462.5" y="40.0" width="10" height="5" rx="1" ry="1" fill="#ebedf0" />
<rect x="475.0" y="40.0" width="10" height="5" rx="1" ry="1" fill="#ebedf0" />
<rect x="487.5" y="40.0" width="10" height="5" rx="1" ry="1" fill="#ebedf0" />
<rect x="500.0" y="40.0" width="10" height="5" rx="1" ry="1" fill="#ebedf0" />
<rect x="512.5" y="40.0" width="10" height="5" rx="1" ry="1" fill="#ebedf0" />
<rect x="525.0" y="40.0" width="10" height="5" rx="1" ry="1" fill="#ebedf0" />
<rect x="537.5" y="40.0" width="10" height="5" rx="1" ry="1" fill="#ebedf0" />
<rect x="550.0" y="40.0" width="10" height="5" rx="1" ry="1" fill="#ebedf0" />
<rect x="562.5" y="40.0" width="10" height="5" rx="1" ry="1" fill="#ebedf0" />
<rect x="575.0" y="40.0" width="10" height="5" rx="1" ry="1" fill="#ebedf0" />
<rect x="587.5" y="40.0" width="10" height="5" rx="1" ry="1" fill="#ebedf0" />
<rect x="600.0" y="40.0" width="10" height="5" rx="1" ry="1" fill="#ebedf0" />
<rect x="612.5" y="40.0" width="10" height="5" rx="1" ry="1" fill="#ebedf0" />
<rect x="625.0" y="40.0" width="10" height="5" rx="1" ry="1" fill="#ebedf0" />
<rect x="637.5" y="40.0" width="10" height="5" rx="1" ry="1" fill="#ebedf0" />
<rect x="650.0" y="40.0" width="10" height="5" rx="1" ry="1" fill="#ebedf0" />
<rect x="0.0" y="47.5" width="10" height="5" rx="1" ry="1" fill="#ebedf0" />
<rect x="12.5" y="47.5" width="10" height="5" rx="1" ry="1" fill="#ebedf0" />
<rect x="25.0" y="47.5" width="10" height="5" rx="1" ry="1" fill="#ebedf0" />
<rect x="37.5" y="47.5" width="10" height="5" rx="1" ry="1" fill="#ebedf0" />
<rect x="50.0" y="47.5" width="10" height="5" rx="1" ry="1" fill="#ebedf0" />
<rect x="62.5" y="47.5" width="10" height="5" rx="1" ry="1" fill="#ebedf0" />
<rect x="75.0" y="47.5" width="10" height="5" rx="1" ry="1" fill="#ebedf0" />
<rect x="87.5" y="47.5" width="10" height="5" rx="1" ry="1" fill="#ebedf0" />
<rect x="100.0" y="47.5" width="10" height="5" rx="1" ry="1" fill="#ebedf0" />
<rect x="112.5" y="47.5" width="10" height="5" rx="1" ry="1" fill="#ebedf0" />
<rect x="125.0" y="47.5" width="10" height="5" rx="1" ry="1" fill="#ebedf0" />
<rect x="137.5" y="47.5" width="10" height="5" rx="1" ry="1" fill="#ebedf0" />
<rect x="150.0" y="47.5" width="10" height="5" rx="1" ry="1" fill="#ebedf0" />
<rect x="162.5" y="47.5" width="10" height="5" rx="1" ry="1" fill="#ebedf0" />
<rect x="175.0" y="47.5" width="10" height="5" rx="1" ry="1" fill="#ebedf0" />
<rect x="187.5" y="47.5" width="10" height="5" rx="1" ry="1" fill="#ebedf0" />
<rect x="200.0" y="47.5" width="10" height="5" rx="1" ry="1" fill="#ebedf0" />
<rect x="212.5" y="47.5" width="10" height="5" rx="1" ry="1" fill="#ebedf0" />
<rect x="225.0" y="47.5" width="10" height="5" rx="1" ry="1" fill="#ebedf0" />
<rect x="237.5" y="47.5" width="10" height="5" rx="1" ry="1" fill="#ebedf0" />
<rect x="250.0" y="47.5" width="10" height="5" rx="1" ry="1" fill="#ebedf0" />
<rect x="262.5" y="47.5" width="10" height="5" rx="1" ry="1" fill="#ebedf0" />
<rect x="275.0" y="47.5" width="10" height="5" rx="1" ry="1" fill="#ebedf0" />
<rect x="287.5" y="47.5" width="10" height="5" rx="1" ry="1" fill="#ebedf0" />
<rect x="300.0" y="47.5" width="10" height="5" rx="1" ry="1" fill="#ebedf0" />
<rect x="312.5" y="47.5" width="10" height="5" rx="1" ry="1" fill="#ebedf0" />
<rect x="325.0" y="47.5" width="10" height="5" rx="1" ry="1" fill="#ebedf0" />
<rect x="337.5" y="47.5" width="10" height="5" rx="1" ry="1" fill="#ebedf0" />
<rect x="350.0" y="47.5" width="10" height="5" rx="1" ry="1" fill="#ebedf0" />
<rect x="362.5" y="47.5" width="10" height="5" rx="1" ry="1" fill="#ebedf0" />
<rect x="375.0" y="47.5" width="10" height="5" rx="1" ry="1" fill="#ebedf0" />
<rect x="387.5" y="47.5" width="10" height="5" rx="1" ry="1" fill="#ebedf0" />
<rect x="400.0" y="47.5" width="10" height="5" rx="1" ry="1" fill="#ebedf0" />
<rect x="412.5" y="47.5" width="10" height="5" rx="1" ry="1" fill="#ebedf0" />
<rect x="425.0" y="47.5" width="10" height="5" rx="1" ry="1" fill="#ebedf0" />
<rect x="437.5" y="47.5" width="10" height="5" rx="1" ry="1" fill="#ebedf0" />
<rect x="450.0" y="47.5" width="10" height="5" rx="1" ry="1" fill="#ebedf0" />
<rect x="462.5" y="47.5" width="10" height="5" rx="1" ry="1" fill="#ebedf0" />
<rect x="475.0" y="47.5" width="10" height="5" rx="1" ry="1" fill="#ebedf0" />
<rect x="487.5" y="47.5" width="10" height="5" rx="1" ry="1" fill="#ebedf0" />
<rect x="500.0" y="47.5" width="10" height="5" rx="1" ry="1" fill="#ebedf0" />
<rect x="512.5" y="47.5" width="10" height="5" rx="1" ry="1" fill="#ebedf0" />
<rect x="525.0" y="47.5" width="10" height="5" rx="1" ry="1" fill="#ebedf0" />
<rect x="537.5" y="47.5" width="10" height="5" rx="1" ry="1" fill="#ebedf0" />
<rect x="550.0" y="47.5" width="10" height="5" rx="1" ry="1" fill="#ebedf0" />
<rect x="562.5" y="47.5" width="10" height="5" rx="1" ry="1" fill="#ebedf0" />
<rect x="575.0" y="47.5" width="10" height="5" rx="1" ry="1" fill="#ebedf0" />
<rect x="587.5" y="47.5" width="10" height="5" rx="1" ry="1" fill="#ebedf0" />
<rect x="600.0" y="47.5" width="10" height="5" rx="1" ry="1" fill="#ebedf0" />
<rect x="612.5" y="47.5" width="10" height="5" rx="1" ry="1" fill="#ebedf0" />
<rect x="625.0" y="47.5" width="10" height="5" rx="1" ry="1" fill="#ebedf0" />
<rect x="637.5" y="47.5" width="10" height="5" rx="1" ry="1" fill="#ebedf0" />
<rect x="650.0" y="47.5" width="10" height="5" rx="1" ry="1" fill="#ebedf0" />
<rect x="0.0" y="55.0" width="10" height="5" rx="1" ry="1" fill="#ebedf0" />
<rect x="12.5" y="55.0" width="10" height="5" rx="1" ry="1" fill="#ebedf0" />
<rect x="25.0" y="55.0" width="10" height="5" rx="1" ry="1" fill="#ebedf0" />
<rect x="37.5" y="55.0" width="10" height="5" rx="1" ry="1" fill="#ebedf0" />
<rect x="50.0" y="55.0" width="10" height="5" rx="1" ry="1" fill="#ebedf0" />
<rect x="62.5" y="55.0" width="10" height="5" rx="1" ry="1" fill="#ebedf0" />
<rect x="75.0" y="55.0" width="10" height="5" rx="1" ry="1" fill="#ebedf0" />
<rect x="87.5" y="55.0" width="10" height="5" rx="1" ry="1" fill="#ebedf0" />
<rect x="100.0" y="55.0" width="10" height="5" rx="1" ry="1" fill="#ebedf0" />
<rect x="112.5" y="55.0" width="10" height="5" rx="1" ry="1" fill="#ebedf0" />
<rect x="125.0" y="55.0" width="10" height="5" rx="1" ry="1" fill="#ebedf0" />
<rect x="137.5" y="55.0" width="10" height="5" rx="1" ry="1" fill="#ebedf0" />
<rect x="150.0" y="55.0" width="10" height="5" rx="1" ry="1" fill="#ebedf0" />
<rect x="162.5" y="55.0" width="10" height="5" rx="1" ry="1" fill="#ebedf0" />
<rect x="175.0" y="55.0" width="10" height="5" rx="1" ry="1" fill="#ebedf0" />
<rect x="187.5" y="55.0" width="10" height="5" rx="1" ry="1" fill="#ebedf0" />
<rect x="200.0" y="55.0" width="10" height="5" rx="1" ry="1" fill="#ebedf0" />
<rect x="212.5" y="55.0" width="10" height="5" rx="1" ry="1" fill="#ebedf0" />
<rect x="225.0" y="55.0" width="10" height="5" rx="1" ry="1" fill="#ebedf0" />
<rect x="237.5" y="55.0" width="10" height="5" rx="1" ry="1" fill="#ebedf0" />
<rect x="250.0" y="55.0" width="10" height="5" rx="1" ry="1" fill="#ebedf0" />
<rect x="262.5" y="55.0" width="10" height="5" rx="1" ry="1" fill="#ebedf0" />
<rect x="275.0" y="55.0" width="10" height="5" rx="1" ry="1" fill="#ebedf0" />
<rect x="287.5" y="55.0" width="10" height="5" rx="1" ry="1" fill="#ebedf0" />
<rect x="300.0" y="55.0" width="10" height="5" rx="1" ry="1" fill="#ebedf0" />
<rect x="312.5" y="55.0" width="10" height="5" rx="1" ry="1" fill="#ebedf0" />
<rect x="325.0" y="55.0" width="10" height="5" rx="1" ry="1" fill="#ebedf0" />
<rect x="337.5" y="55.0" width="10" height="5" rx="1" ry="1" fill="#ebedf0" />
<rect x="350.0" y="55.0" width="10" height="5" rx="1" ry="1" fill="#ebedf0" />
<rect x="362.5" y="55.0" width="10" height="5" rx="1" ry="1" fill="#ebedf0" />
<rect x="375.0" y="55.0" width="10" height="5" rx="1" ry="1" fill="#ebedf0" />
<rect x="387.5" y="55.0" width="10" height="5" rx="1" ry="1" fill="#ebedf0" />
<rect x="400.0" y="55.0" width="10" height="5" rx="1" ry="1" fill="#ebedf0" />
<rect x="412.5" y="55.0" width="10" height="5" rx="1" ry="1" fill="#ebedf0" />
<rect x="425.0" y="55.0" width="10" height="5" rx="1" ry="1" fill="#ebedf0" />
<rect x="437.5" y="55.0" width="10" height="5" rx="1" ry="1" fill="#ebedf0" />
<rect x="450.0" y="55.0" width="10" height="5" rx="1" ry="1" fill="#ebedf0" />
<rect x="462.5" y="55.0" width="10" height="5" rx="1" ry="1" fill="#ebedf0" />
<rect x="475.0" y="55.0" width="10" height="5" rx="1" ry="1" fill="#ebedf0" />
<rect x="487.5" y="55.0" width="10" height="5" rx="1" ry="1" fill="#ebedf0" />
<rect x="500.0" y="55.0" width="10" height="5" rx="1" ry="1" fill="#ebedf0" />
<rect x="512.5" y="55.0" width="10" height="5" rx="1" ry="1" fill="#ebedf0" />
<rect x="525.0" y="55.0" width="10" height="5" rx="1" ry="1" fill="#ebedf0" />
<rect x="537.5" y="55.0" width="10" height="5" rx="1" ry="1" fill="#ebedf0" />
<rect x="550.0" y="55.0" width="10" height="5" rx="1" ry="1" fill="#ebedf0" />
<rect x="562.5" y="55.0" width="10" height="5" rx="1" ry="1" fill="#ebedf0" />
<rect x="575.0" y="55.0" width="10" height="5" rx="1" ry="1" fill="#ebedf0" />
<rect x="587.5" y="55.0" width="10" height="5" rx="1" ry="1" fill="#ebedf0" />
<rect x="600.0" y="55.0" width="10" height="5" rx="1" ry="1" fill="#ebedf0" />
<rect x="612.5" y="55.0" width="10" height="5" rx="1" ry="1" fill="#ebedf0" />
<rect x="625.0" y="55.0" width="10" height="5" rx="1" ry="1" fill="#ebedf0" />
<rect x="637.5" y="55.0" width="10" height="5" rx="1" ry="1" fill="#ebedf0" />
<rect x="650.0" y="55.0" width="10" height="5" rx="1" ry="1" fill="#ebedf0" />
<g clip-path="url(#grid-clip-live-light)">
<g transform="translate(412.5 10.0)">
<animateTransform attributeName="transform" type="translate" additive="sum" dur="15.408s" repeatCount="indefinite" calcMode="linear" values="25.0 -22.5;25.0 -22.5;0.0 -15.0;0 0;0 0;0 67.0;0 67.0" keyTimes="0;0.011682;0.020314;0.036344;0.928610;0.987020;1" />
<rect x="0.0" y="0.0" width="10" height="5" rx="1" ry="1" fill="#6dafc5" />
</g>
<g transform="translate(525.0 10.0)">
<animateTransform attributeName="transform" type="translate" additive="sum" dur="15.408s" repeatCount="indefinite" calcMode="linear" values="-25.0 -22.5;-25.0 -22.5;0.0 -15.0;0 0;0 0;0 67.0;0 67.0" keyTimes="0;0.041536;0.050167;0.066198;0.928610;0.987020;1" />
<rect x="0.0" y="0.0" width="10" height="5" rx="1" ry="1" fill="#d02632" />
<rect x="12.5" y="0.0" width="10" height="5" rx="1" ry="1" fill="#e0a0a6" />
<rect x="25.0" y="0.0" width="10" height="5" rx="1" ry="1" fill="#e0a0a6" />
<rect x="25.0" y="7.5" width="10" height="5" rx="1" ry="1" fill="#e0a0a6" />
</g>
<g transform="translate(562.5 10.0)">
<animateTransform attributeName="transform" type="translate" additive="sum" dur="15.408s" repeatCount="indefinite" calcMode="linear" values="37.5 -22.5;37.5 -22.5;0.0 -15.0;0 0;0 0;0 67.0;0 67.0" keyTimes="0;0.071390;0.080021;0.096052;0.928610;0.987020;1" />
<rect x="0.0" y="0.0" width="10" height="5" rx="1" ry="1" fill="#95bbe8" />
<rect x="0.0" y="7.5" width="10" height="5" rx="1" ry="1" fill="#95bbe8" />
<rect x="12.5" y="0.0" width="10" height="5" rx="1" ry="1" fill="#6ca3e4" />
</g>
<g transform="translate(600.0 10.0)">
<animateTransform attributeName="transform" type="translate" additive="sum" dur="15.408s" repeatCount="indefinite" calcMode="linear" values="25.0 -22.5;25.0 -22.5;0.0 -15.0;0 0;0 0;0 67.0;0 67.0" keyTimes="0;0.101243;0.109875;0.125905;0.928610;0.987020;1" />
<rect x="0.0" y="0.0" width="10" height="5" rx="1" ry="1" fill="#9cc3aa" />
<rect x="0.0" y="7.5" width="10" height="5" rx="1" ry="1" fill="#9cc3aa" />
</g>
<g transform="translate(625.0 10.0)">
<animateTransform attributeName="transform" type="translate" additive="sum" dur="15.408s" repeatCount="indefinite" calcMode="linear" values="0.0 -22.5;0.0 -22.5;0.0 -15.0;0 0;0 0;0 67.0;0 67.0" keyTimes="0;0.131097;0.139729;0.155759;0.928610;0.987020;1" />
<rect x="0.0" y="0.0" width="10" height="5" rx="1" ry="1" fill="#c7733a" />
<rect x="12.5" y="0.0" width="10" height="5" rx="1" ry="1" fill="#d9b095" />
<rect x="12.5" y="7.5" width="10" height="5" rx="1" ry="1" fill="#d1936a" />
<rect x="25.0" y="0.0" width="10" height="5" rx="1" ry="1" fill="#d9b095" />
</g>
<g transform="translate(437.5 25.0)">
<animateTransform attributeName="transform" type="translate" additive="sum" dur="15.408s" repeatCount="indefinite" calcMode="linear" values="-25.0 -37.5;-25.0 -37.5;0.0 -22.5;0 0;0 0;0 67.0;0 67.0" keyTimes="0;0.160951;0.171445;0.190935;0.928610;0.987020;1" />
<rect x="0.0" y="0.0" width="10" height="5" rx="1" ry="1" fill="#c07d3a" />
</g>
<g transform="translate(475.0 25.0)">
<animateTransform attributeName="transform" type="translate" additive="sum" dur="15.408s" repeatCount="indefinite" calcMode="linear" values="0.0 -37.5;0.0 -37.5;0.0 -22.5;0 0;0 0;0 67.0;0 67.0" keyTimes="0;0.196127;0.206621;0.226110;0.928610;0.987020;1" />
<rect x="0.0" y="0.0" width="10" height="5" rx="1" ry="1" fill="#e0a0a6" />
</g>
<g transform="translate(512.5 10.0)">
<animateTransform attributeName="transform" type="translate" additive="sum" dur="15.408s" repeatCount="indefinite" calcMode="linear" values="0.0 -37.5;0.0 -37.5;0.0 -15.0;0 0;0 0;0 67.0;0 67.0" keyTimes="0;0.231302;0.241797;0.261286;0.928610;0.987020;1" />
<rect x="0.0" y="0.0" width="10" height="5" rx="1" ry="1" fill="#9cc3aa" />
<rect x="0.0" y="7.5" width="10" height="5" rx="1" ry="1" fill="#76af88" />
<rect x="0.0" y="15.0" width="10" height="5" rx="1" ry="1" fill="#9cc3aa" />
<rect x="12.5" y="7.5" width="10" height="5" rx="1" ry="1" fill="#9cc3aa" />
</g>
<g transform="translate(625.0 17.5)">
<animateTransform attributeName="transform" type="translate" additive="sum" dur="15.408s" repeatCount="indefinite" calcMode="linear" values="-25.0 -30.0;-25.0 -30.0;0.0 -15.0;0 0;0 0;0 67.0;0 67.0" keyTimes="0;0.266478;0.275110;0.291140;0.928610;0.987020;1" />
<rect x="0.0" y="0.0" width="10" height="5" rx="1" ry="1" fill="#b095e6" />
<rect x="0.0" y="7.5" width="10" height="5" rx="1" ry="1" fill="#b095e6" />
<rect x="12.5" y="7.5" width="10" height="5" rx="1" ry="1" fill="#9b76e3" />
</g>
<g transform="translate(475.0 32.5)">
<animateTransform attributeName="transform" type="translate" additive="sum" dur="15.408s" repeatCount="indefinite" calcMode="linear" values="-25.0 -52.5;-25.0 -52.5;0.0 -30.0;0 0;0 0;0 67.0;0 67.0" keyTimes="0;0.296332;0.311024;0.338309;0.928610;0.987020;1" />
<rect x="0.0" y="7.5" width="10" height="5" rx="1" ry="1" fill="#e0a0a6" />
<rect x="12.5" y="0.0" width="10" height="5" rx="1" ry="1" fill="#e0a0a6" />
<rect x="12.5" y="7.5" width="10" height="5" rx="1" ry="1" fill="#e0a0a6" />
</g>
<g transform="translate(562.5 25.0)">
<animateTransform attributeName="transform" type="translate" additive="sum" dur="15.408s" repeatCount="indefinite" calcMode="linear" values="37.5 -45.0;37.5 -45.0;0.0 -22.5;0 0;0 0;0 67.0;0 67.0" keyTimes="0;0.343501;0.356094;0.379481;0.928610;0.987020;1" />
<rect x="0.0" y="7.5" width="10" height="5" rx="1" ry="1" fill="#ccba95" />
<rect x="12.5" y="0.0" width="10" height="5" rx="1" ry="1" fill="#ccba95" />
<rect x="12.5" y="7.5" width="10" height="5" rx="1" ry="1" fill="#ccba95" />
<rect x="12.5" y="15.0" width="10" height="5" rx="1" ry="1" fill="#ccba95" />
</g>
<g transform="translate(625.0 32.5)">
<animateTransform attributeName="transform" type="translate" additive="sum" dur="15.408s" repeatCount="indefinite" calcMode="linear" values="12.5 -45.0;12.5 -45.0;0.0 -30.0;0 0;0 0;0 67.0;0 67.0" keyTimes="0;0.384673;0.397266;0.420654;0.928610;0.987020;1" />
<rect x="0.0" y="0.0" width="10" height="5" rx="1" ry="1" fill="#6ca3e4" />
<rect x="0.0" y="7.5" width="10" height="5" rx="1" ry="1" fill="#0e6cda" />
<rect x="12.5" y="0.0" width="10" height="5" rx="1" ry="1" fill="#95bbe8" />
<rect x="12.5" y="7.5" width="10" height="5" rx="1" ry="1" fill="#95bbe8" />
</g>
<g transform="translate(537.5 40.0)">
<animateTransform attributeName="transform" type="translate" additive="sum" dur="15.408s" repeatCount="indefinite" calcMode="linear" values="37.5 -52.5;37.5 -52.5;0.0 -37.5;0 0;0 0;0 67.0;0 67.0" keyTimes="0;0.425846;0.440538;0.467823;0.928610;0.987020;1" />
<rect x="0.0" y="0.0" width="10" height="5" rx="1" ry="1" fill="#ccba95" />
<rect x="0.0" y="7.5" width="10" height="5" rx="1" ry="1" fill="#ccba95" />
</g>
<g transform="translate(562.5 40.0)">
<animateTransform attributeName="transform" type="translate" additive="sum" dur="15.408s" repeatCount="indefinite" calcMode="linear" values="-25.0 -52.5;-25.0 -52.5;0.0 -37.5;0 0;0 0;0 67.0;0 67.0" keyTimes="0;0.473015;0.487707;0.514992;0.928610;0.987020;1" />
<rect x="0.0" y="0.0" width="10" height="5" rx="1" ry="1" fill="#96c3d3" />
<rect x="0.0" y="7.5" width="10" height="5" rx="1" ry="1" fill="#96c3d3" />
<rect x="12.5" y="7.5" width="10" height="5" rx="1" ry="1" fill="#96c3d3" />
<rect x="25.0" y="7.5" width="10" height="5" rx="1" ry="1" fill="#96c3d3" />
</g>
<g transform="translate(400.0 55.0)">
<animateTransform attributeName="transform" type="translate" additive="sum" dur="15.408s" repeatCount="indefinite" calcMode="linear" values="-25.0 -67.5;-25.0 -67.5;0.0 -52.5;0 0;0 0;0 67.0;0 67.0" keyTimes="0;0.520184;0.539073;0.574154;0.928610;0.987020;1" />
<rect x="0.0" y="0.0" width="10" height="5" rx="1" ry="1" fill="#0e6cda" />
</g>
<g transform="translate(475.0 47.5)">
<animateTransform attributeName="transform" type="translate" additive="sum" dur="15.408s" repeatCount="indefinite" calcMode="linear" values="-25.0 -67.5;-25.0 -67.5;0.0 -45.0;0 0;0 0;0 67.0;0 67.0" keyTimes="0;0.579346;0.598236;0.633317;0.928610;0.987020;1" />
<rect x="0.0" y="0.0" width="10" height="5" rx="1" ry="1" fill="#c3b1ea" />
<rect x="0.0" y="7.5" width="10" height="5" rx="1" ry="1" fill="#c3b1ea" />
</g>
<g transform="translate(500.0 47.5)">
<animateTransform attributeName="transform" type="translate" additive="sum" dur="15.408s" repeatCount="indefinite" calcMode="linear" values="-37.5 -60.0;-37.5 -60.0;0.0 -45.0;0 0;0 0;0 67.0;0 67.0" keyTimes="0;0.638509;0.655300;0.686483;0.928610;0.987020;1" />
<rect x="0.0" y="0.0" width="10" height="5" rx="1" ry="1" fill="#d9b095" />
<rect x="12.5" y="0.0" width="10" height="5" rx="1" ry="1" fill="#d9b095" />
<rect x="12.5" y="7.5" width="10" height="5" rx="1" ry="1" fill="#bd4f05" />
</g>
<g transform="translate(550.0 55.0)">
<animateTransform attributeName="transform" type="translate" additive="sum" dur="15.408s" repeatCount="indefinite" calcMode="linear" values="37.5 -67.5;37.5 -67.5;0.0 -52.5;0 0;0 0;0 67.0;0 67.0" keyTimes="0;0.691675;0.710564;0.745645;0.928610;0.987020;1" />
<rect x="0.0" y="0.0" width="10" height="5" rx="1" ry="1" fill="#c3b1ea" />
</g>
<g transform="translate(612.5 47.5)">
<animateTransform attributeName="transform" type="translate" additive="sum" dur="15.408s" repeatCount="indefinite" calcMode="linear" values="12.5 -60.0;12.5 -60.0;0.0 -45.0;0 0;0 0;0 67.0;0 67.0" keyTimes="0;0.750837;0.767628;0.798811;0.928610;0.987020;1" />
<rect x="0.0" y="7.5" width="10" height="5" rx="1" ry="1" fill="#b45c05" />
<rect x="12.5" y="0.0" width="10" height="5" rx="1" ry="1" fill="#cc9a6a" />
<rect x="12.5" y="7.5" width="10" height="5" rx="1" ry="1" fill="#cc9a6a" />
<rect x="25.0" y="7.5" width="10" height="5" rx="1" ry="1" fill="#d6b595" />
</g>
</g>
<metadata>{"username": "Treenixie", "active_cells": 51, "mode": "live-animation"}</metadata>
</svg>