<svg xmlns="http://www.w3.org/2000/svg" width="660.0" height="70.0" viewBox="0 0 660.0 70.0">
<rect x="0" y="0" width="660.0" height="70.0" rx="0" ry="0" fill="#0d1117" />
<defs>
<clipPath id="grid-clip-live-dark"><rect x="0" y="10" width="660.0" height="50.0" rx="0" ry="0" /></clipPath>
</defs>
<rect x="0.0" y="10.0" width="10" height="5" rx="1" ry="1" fill="#161b22" />
<rect x="12.5" y="10.0" width="10" height="5" rx="1" ry="1" fill="#161b22" />
<rect x="25.0" y="10.0" width="10" height="5" rx="1" ry="1" fill="#161b22" />
<rect x="37.5" y="10.0" width="10" height="5" rx="1" ry="1" fill="#161b22" />
<rect x="50.0" y="10.0" width="10" height="5" rx="1" ry="1" fill="#161b22" />
<rect x="62.5" y="10.0" width="10" height="5" rx="1" ry="1" fill="#161b22" />
<rect x="75.0" y="10.0" width="10" height="5" rx="1" ry="1" fill="#161b22" />
<rect x="87.5" y="10.0" width="10" height="5" rx="1" ry="1" fill="#161b22" />
<rect x="100.0" y="10.0" width="10" height="5" rx="1" ry="1" fill="#161b22" />
<rect x="112.5" y="10.0" width="10" height="5" rx="1" ry="1" fill="#161b22" />
<rect x="125.0" y="10.0" width="10" height="5" rx="1" ry="1" fill="#161b22" />
<rect x="137.5" y="10.0" width="10" height="5" rx="1" ry="1" fill="#161b22" />
<rect x="150.0" y="10.0" width="10" height="5" rx="1" ry="1" fill="#161b22" />
<rect x="162.5" y="10.0" width="10" height="5" rx="1" ry="1" fill="#161b22" />
<rect x="175.0" y="10.0" width="10" height="5" rx="1" ry="1" fill="#161b22" />
<rect x="187.5" y="10.0" width="10" height="5" rx="1" ry="1" fill="#161b22" />
<rect x="200.0" y="10.0" width="10" height="5" rx="1" ry="1" fill="#161b22" />
<rect x="212.5" y="10.0" width="10" height="5" rx="1" ry="1" fill="#161b22" />
<rect x="225.0" y="10.0" width="10" height="5" rx="1" ry="1" fill="#161b22" />
<rect x="237.5" y="10.0" width="10" height="5" rx="1" ry="1" fill="#161b22" />
<rect x="250.0" y="10.0" width="10" height="5" rx="1" ry="1" fill="#161b22" />
<rect x="262.5" y="10.0" width="10" height="5" rx="1" ry="1" fill="#161b22" />
<rect x="275.0" y="10.0" width="10" height="5" rx="1" ry="1" fill="#161b22" />
<rect x="287.5" y="10.0" width="10" height="5" rx="1" ry="1" fill="#161b22" />
<rect x="300.0" y="10.0" width="10" height="5" rx="1" ry="1" fill="#161b22" />
<rect x="312.5" y="10.0" width="10" height="5" rx="1" ry="1" fill="#161b22" />
<rect x="325.0" y="10.0" width="10" height="5" rx="1" ry="1" fill="#161b22" />
<rect x="337.5" y="10.0" width="10" height="5" rx="1" ry="1" fill="#161b22" />
<rect x="350.0" y="10.0" width="10" height="5" rx="1" ry="1" fill="#161b22" />
<rect x="362.5" y="10.0" width="10" height="5" rx="1" ry="1" fill="#161b22" />
<rect x="375.0" y="10.0" width="10" height="5" rx="1" ry="1" fill="#161b22" />
<rect x="387.5" y="10.0" width="10" height="5" rx="1" ry="1" fill="#161b22" />
<rect x="400.0" y="10.0" width="10" height="5" rx="1" ry="1" fill="#161b22" />
<rect x="412.5" y="10.0" width="10" height="5" rx="1" ry="1" fill="#161b22" />
<rect x="425.0" y="10.0" width="10" height="5" rx="1" ry="1" fill="#161b22" />
<rect x="437.5" y="10.0" width="10" height="5" rx="1" ry="1" fill="#161b22" />
<rect x="450.0" y="10.0" width="10" height="5" rx="1" ry="1" fill="#161b22" />
<rect x="462.5" y="10.0" width="10" height="5" rx="1" ry="1" fill="#161b22" />
<rect x="475.0" y="10.0" width="10" height="5" rx="1" ry="1" fill="#161b22" />
<rect x="487.5" y="10.0" width="10" height="5" rx="1" ry="1" fill="#161b22" />
<rect x="500.0" y="10.0" width="10" height="5" rx="1" ry="1" fill="#161b22" />
<rect x="512.5" y="10.0" width="10" height="5" rx="1" ry="1" fill="#161b22" />
<rect x="525.0" y="10.0" width="10" height="5" rx="1" ry="1" fill="#161b22" />
<rect x="537.5" y="10.0" width="10" height="5" rx="1" ry="1" fill="#161b22" />
<rect x="550.0" y="10.0" width="10" height="5" rx="1" ry="1" fill="#161b22" />
<rect x="562.5" y="10.0" width="10" height="5" rx="1" ry="1" fill="#161b22" />
<rect x="575.0" y="10.0" width="10" height="5" rx="1" ry="1" fill="#161b22" />
<rect x="587.5" y="10.0" width="10" height="5" rx="1" ry="1" fill="#161b22" />
<rect x="600.0" y="10.0" width="10" height="5" rx="1" ry="1" fill="#161b22" />
<rect x="612.5" y="10.0" width="10" height="5" rx="1" ry="1" fill="#161b22" />
<rect x="625.0" y="10.0" width="10" height="5" rx="1" ry="1" fill="#161b22" />
<rect x="637.5" y="10.0" width="10" height="5" rx="1" ry="1" fill="#161b22" />
<rect x="650.0" y="10.0" width="10" height="5" rx="1" ry="1" fill="#161b22" />
<rect x="0.0" y="17.5" width="10" height="5" rx="1" ry="1" fill="#161b22" />
<rect x="12.5" y="17.5" width="10" height="5" rx="1" ry="1" fill="#161b22" />
<rect x="25.0" y="17.5" width="10" height="5" rx="1" ry="1" fill="#161b22" />
<rect x="37.5" y="17.5" width="10" height="5" rx="1" ry="1" fill="#161b22" />
<rect x="50.0" y="17.5" width="10" height="5" rx="1" ry="1" fill="#161b22" />
<rect x="62.5" y="17.5" width="10" height="5" rx="1" ry="1" fill="#161b22" />
<rect x="75.0" y="17.5" width="10" height="5" rx="1" ry="1" fill="#161b22" />
<rect x="87.5" y="17.5" width="10" height="5" rx="1" ry="1" fill="#161b22" />
<rect x="100.0" y="17.5" width="10" height="5" rx="1" ry="1" fill="#161b22" />
<rect x="112.5" y="17.5" width="10" height="5" rx="1" ry="1" fill="#161b22" />
<rect x="125.0" y="17.5" width="10" height="5" rx="1" ry="1" fill="#161b22" />
<rect x="137.5" y="17.5" width="10" height="5" rx="1" ry="1" fill="#161b22" />
<rect x="150.0" y="17.5" width="10" height="5" rx="1" ry="1" fill="#161b22" />
<rect x="162.5" y="17.5" width="10" height="5" rx="1" ry="1" fill="#161b22" />
<rect x="175.0" y="17.5" width="10" height="5" rx="1" ry="1" fill="#161b22" />
<rect x="187.5" y="17.5" width="10" height="5" rx="1" ry="1" fill="#161b22" />
<rect x="200.0" y="17.5" width="10" height="5" rx="1" ry="1" fill="#161b22" />
<rect x="212.5" y="17.5" width="10" height="5" rx="1" ry="1" fill="#161b22" />
<rect x="225.0" y="17.5" width="10" height="5" rx="1" ry="1" fill="#161b22" />
<rect x="237.5" y="17.5" width="10" height="5" rx="1" ry="1" fill="#161b22" />
<rect x="250.0" y="17.5" width="10" height="5" rx="1" ry="1" fill="#161b22" />
<rect x="262.5" y="17.5" width="10" height="5" rx="1" ry="1" fill="#161b22" />
<rect x="275.0" y="17.5" width="10" height="5" rx="1" ry="1" fill="#161b22" />
<rect x="287.5" y="17.5" width="10" height="5" rx="1" ry="1" fill="#161b22" />
<rect x="300.0" y="17.5" width="10" height="5" rx="1" ry="1" fill="#161b22" />
<rect x="312.5" y="17.5" width="10" height="5" rx="1" ry="1" fill="#161b22" />
<rect x="325.0" y="17.5" width="10" height="5" rx="1" ry="1" fill="#161b22" />
<rect x="337.5" y="17.5" width="10" height="5" rx="1" ry="1" fill="#161b22" />
<rect x="350.0" y="17.5" width="10" height="5" rx="1" ry="1" fill="#161b22" />
<rect x="362.5" y="17.5" width="10" height="5" rx="1" ry="1" fill="#161b22" />
<rect x="375.0" y="17.5" width="10" height="5" rx="1" ry="1" fill="#161b22" />
<rect x="387.5" y="17.5" width="10" height="5" rx="1" ry="1" fill="#161b22" />
<rect x="400.0" y="17.5" width="10" height="5" rx="1" ry="1" fill="#161b22" />
<rect x="412.5" y="17.5" width="10" height="5" rx="1" ry="1" fill="#161b22" />
<rect x="425.0" y="17.5" width="10" height="5" rx="1" ry="1" fill="#161b22" />
<rect x="437.5" y="17.5" width="10" height="5" rx="1" ry="1" fill="#161b22" />
<rect x="450.0" y="17.5" width="10" height="5" rx="1" ry="1" fill="#161b22" />
<rect x="462.5" y="17.5" width="10" height="5" rx="1" ry="1" fill="#161b22" />
<rect x="475.0" y="17.5" width="10" height="5" rx="1" ry="1" fill="#161b22" />
<rect x="487.5" y="17.5" width="10" height="5" rx="1" ry="1" fill="#161b22" />
<rect x="500.0" y="17.5" width="10" height="5" rx="1" ry="1" fill="#161b22" />
<rect x="512.5" y="17.5" width="10" height="5" rx="1" ry="1" fill="#161b22" />
<rect x="525.0" y="17.5" width="10" height="5" rx="1" ry="1" fill="#161b22" />
<rect x="537.5" y="17.5" width="10" height="5" rx="1" ry="1" fill="#161b22" />
<rect x="550.0" y="17.5" width="10" height="5" rx="1" ry="1" fill="#161b22" />
<rect x="562.5" y="17.5" width="10" height="5" rx="1" ry="1" fill="#161b22" />
<rect x="575.0" y="17.5" width="10" height="5" rx="1" ry="1" fill="#161b22" />
<rect x="587.5" y="17.5" width="10" height="5" rx="1" ry="1" fill="#161b22" />
<rect x="600.0" y="17.5" width="10" height="5" rx="1" ry="1" fill="#161b22" />
<rect x="612.5" y="17.5" width="10" height="5" rx="1" ry="1" fill="#161b22" />
<rect x="625.0" y="17.5" width="10" height="5" rx="1" ry="1" fill="#161b22" />
<rect x="637.5" y="17.5" width="10" height="5" rx="1" ry="1" fill="#161b22" />
<rect x="650.0" y="17.5" width="10" height="5" rx="1" ry="1" fill="#161b22" />
<rect x="0.0" y="25.0" width="10" height="5" rx="1" ry="1" fill="#161b22" />
<rect x="12.5" y="25.0" width="10" height="5" rx="1" ry="1" fill="#161b22" />
<rect x="25.0" y="25.0" width="10" height="5" rx="1" ry="1" fill="#161b22" />
<rect x="37.5" y="25.0" width="10" height="5" rx="1" ry="1" fill="#161b22" />
<rect x="50.0" y="25.0" width="10" height="5" rx="1" ry="1" fill="#161b22" />
<rect x="62.5" y="25.0" width="10" height="5" rx="1" ry="1" fill="#161b22" />
<rect x="75.0" y="25.0" width="10" height="5" rx="1" ry="1" fill="#161b22" />
<rect x="87.5" y="25.0" width="10" height="5" rx="1" ry="1" fill="#161b22" />
<rect x="100.0" y="25.0" width="10" height="5" rx="1" ry="1" fill="#161b22" />
<rect x="112.5" y="25.0" width="10" height="5" rx="1" ry="1" fill="#161b22" />
<rect x="125.0" y="25.0" width="10" height="5" rx="1" ry="1" fill="#161b22" />
<rect x="137.5" y="25.0" width="10" height="5" rx="1" ry="1" fill="#161b22" />
<rect x="150.0" y="25.0" width="10" height="5" rx="1" ry="1" fill="#161b22" />
<rect x="162.5" y="25.0" width="10" height="5" rx="1" ry="1" fill="#161b22" />
<rect x="175.0" y="25.0" width="10" height="5" rx="1" ry="1" fill="#161b22" />
<rect x="187.5" y="25.0" width="10" height="5" rx="1" ry="1" fill="#161b22" />
<rect x="200.0" y="25.0" width="10" height="5" rx="1" ry="1" fill="#161b22" />
<rect x="212.5" y="25.0" width="10" height="5" rx="1" ry="1" fill="#161b22" />
<rect x="225.0" y="25.0" width="10" height="5" rx="1" ry="1" fill="#161b22" />
<rect x="237.5" y="25.0" width="10" height="5" rx="1" ry="1" fill="#161b22" />
<rect x="250.0" y="25.0" width="10" height="5" rx="1" ry="1" fill="#161b22" />
<rect x="262.5" y="25.0" width="10" height="5" rx="1" ry="1" fill="#161b22" />
<rect x="275.0" y="25.0" width="10" height="5" rx="1" ry="1" fill="#161b22" />
<rect x="287.5" y="25.0" width="10" height="5" rx="1" ry="1" fill="#161b22" />
<rect x="300.0" y="25.0" width="10" height="5" rx="1" ry="1" fill="#161b22" />
<rect x="312.5" y="25.0" width="10" height="5" rx="1" ry="1" fill="#161b22" />
<rect x="325.0" y="25.0" width="10" height="5" rx="1" ry="1" fill="#161b22" />
<rect x="337.5" y="25.0" width="10" height="5" rx="1" ry="1" fill="#161b22" />
<rect x="350.0" y="25.0" width="10" height="5" rx="1" ry="1" fill="#161b22" />
<rect x="362.5" y="25.0" width="10" height="5" rx="1" ry="1" fill="#161b22" />
<rect x="375.0" y="25.0" width="10" height="5" rx="1" ry="1" fill="#161b22" />
<rect x="387.5" y="25.0" width="10" height="5" rx="1" ry="1" fill="#161b22" />
<rect x="400.0" y="25.0" width="10" height="5" rx="1" ry="1" fill="#161b22" />
<rect x="412.5" y="25.0" width="10" height="5" rx="1" ry="1" fill="#161b22" />
<rect x="425.0" y="25.0" width="10" height="5" rx="1" ry="1" fill="#161b22" />
<rect x="437.5" y="25.0" width="10" height="5" rx="1" ry="1" fill="#161b22" />
<rect x="450.0" y="25.0" width="10" height="5" rx="1" ry="1" fill="#161b22" />
<rect x="462.5" y="25.0" width="10" height="5" rx="1" ry="1" fill="#161b22" />
<rect x="475.0" y="25.0" width="10" height="5" rx="1" ry="1" fill="#161b22" />
<rect x="487.5" y="25.0" width="10" height="5" rx="1" ry="1" fill="#161b22" />
<rect x="500.0" y="25.0" width="10" height="5" rx="1" ry="1" fill="#161b22" />
<rect x="512.5" y="25.0" width="10" height="5" rx="1" ry="1" fill="#161b22" />
<rect x="525.0" y="25.0" width="10" height="5" rx="1" ry="1" fill="#161b22" />
<rect x="537.5" y="25.0" width="10" height="5" rx="1" ry="1" fill="#161b22" />
<rect x="550.0" y="25.0" width="10" height="5" rx="1" ry="1" fill="#161b22" />
<rect x="562.5" y="25.0" width="10" height="5" rx="1" ry="1" fill="#161b22" />
<rect x="575.0" y="25.0" width="10" height="5" rx="1" ry="1" fill="#161b22" />
<rect x="587.5" y="25.0" width="10" height="5" rx="1" ry="1" fill="#161b22" />
<rect x="600.0" y="25.0" width="10" height="5" rx="1" ry="1" fill="#161b22" />
<rect x="612.5" y="25.0" width="10" height="5" rx="1" ry="1" fill="#161b22" />
<rect x="625.0" y="25.0" width="10" height="5" rx="1" ry="1" fill="#161b22" />
<rect x="637.5" y="25.0" width="10" height="5" rx="1" ry="1" fill="#161b22" />
<rect x="650.0" y="25.0" width="10" height="5" rx="1" ry="1" fill="#161b22" />
<rect x="0.0" y="32.5" width="10" height="5" rx="1" ry="1" fill="#161b22" />
<rect x="12.5" y="32.5" width="10" height="5" rx="1" ry="1" fill="#161b22" />
<rect x="25.0" y="32.5" width="10" height="5" rx="1" ry="1" fill="#161b22" />
<rect x="37.5" y="32.5" width="10" height="5" rx="1" ry="1" fill="#161b22" />
<rect x="50.0" y="32.5" width="10" height="5" rx="1" ry="1" fill="#161b22" />
<rect x="62.5" y="32.5" width="10" height="5" rx="1" ry="1" fill="#161b22" />
<rect x="75.0" y="32.5" width="10" height="5" rx="1" ry="1" fill="#161b22" />
<rect x="87.5" y="32.5" width="10" height="5" rx="1" ry="1" fill="#161b22" />
<rect x="100.0" y="32.5" width="10" height="5" rx="1" ry="1" fill="#161b22" />
<rect x="112.5" y="32.5" width="10" height="5" rx="1" ry="1" fill="#161b22" />
<rect x="125.0" y="32.5" width="10" height="5" rx="1" ry="1" fill="#161b22" />
<rect x="137.5" y="32.5" width="10" height="5" rx="1" ry="1" fill="#161b22" />
<rect x="150.0" y="32.5" width="10" height="5" rx="1" ry="1" fill="#161b22" />
<rect x="162.5" y="32.5" width="10" height="5" rx="1" ry="1" fill="#161b22" />
<rect x="175.0" y="32.5" width="10" height="5" rx="1" ry="1" fill="#161b22" />
<rect x="187.5" y="32.5" width="10" height="5" rx="1" ry="1" fill="#161b22" />
<rect x="200.0" y="32.5" width="10" height="5" rx="1" ry="1" fill="#161b22" />
<rect x="212.5" y="32.5" width="10" height="5" rx="1" ry="1" fill="#161b22" />
<rect x="225.0" y="32.5" width="10" height="5" rx="1" ry="1" fill="#161b22" />
<rect x="237.5" y="32.5" width="10" height="5" rx="1" ry="1" fill="#161b22" />
<rect x="250.0" y="32.5" width="10" height="5" rx="1" ry="1" fill="#161b22" />
<rect x="262.5" y="32.5" width="10" height="5" rx="1" ry="1" fill="#161b22" />
<rect x="275.0" y="32.5" width="10" height="5" rx="1" ry="1" fill="#161b22" />
<rect x="287.5" y="32.5" width="10" height="5" rx="1" ry="1" fill="#161b22" />
<rect x="300.0" y="32.5" width="10" height="5" rx="1" ry="1" fill="#161b22" />
<rect x="312.5" y="32.5" width="10" height="5" rx="1" ry="1" fill="#161b22" />
<rect x="325.0" y="32.5" width="10" height="5" rx="1" ry="1" fill="#161b22" />
<rect x="337.5" y="32.5" width="10" height="5" rx="1" ry="1" fill="#161b22" />
<rect x="350.0" y="32.5" width="10" height="5" rx="1" ry="1" fill="#161b22" />
<rect x="362.5" y="32.5" width="10" height="5" rx="1" ry="1" fill="#161b22" />
<rect x="375.0" y="32.5" width="10" height="5" rx="1" ry="1" fill="#161b22" />
<rect x="387.5" y="32.5" width="10" height="5" rx="1" ry="1" fill="#161b22" />
<rect x="400.0" y="32.5" width="10" height="5" rx="1" ry="1" fill="#161b22" />
<rect x="412.5" y="32.5" width="10" height="5" rx="1" ry="1" fill="#161b22" />
<rect x="425.0" y="32.5" width="10" height="5" rx="1" ry="1" fill="#161b22" />
<rect x="437.5" y="32.5" width="10" height="5" rx="1" ry="1" fill="#161b22" />
<rect x="450.0" y="32.5" width="10" height="5" rx="1" ry="1" fill="#161b22" />
<rect x="462.5" y="32.5" width="10" height="5" rx="1" ry="1" fill="#161b22" />
<rect x="475.0" y="32.5" width="10" height="5" rx="1" ry="1" fill="#161b22" />
<rect x="487.5" y="32.5" width="10" height="5" rx="1" ry="1" fill="#161b22" />
<rect x="500.0" y="32.5" width="10" height="5" rx="1" ry="1" fill="#161b22" />
<rect x="512.5" y="32.5" width="10" height="5" rx="1" ry="1" fill="#161b22" />
<rect x="525.0" y="32.5" width="10" height="5" rx="1" ry="1" fill="#161b22" />
<rect x="537.5" y="32.5" width="10" height="5" rx="1" ry="1" fill="#161b22" />
<rect x="550.0" y="32.5" width="10" height="5" rx="1" ry="1" fill="#161b22" />
<rect x="562.5" y="32.5" width="10" height="5" rx="1" ry="1" fill="#161b22" />
<rect x="575.0" y="32.5" width="10" height="5" rx="1" ry="1" fill="#161b22" />
<rect x="587.5" y="32.5" width="10" height="5" rx="1" ry="1" fill="#161b22" />
<rect x="600.0" y="32.5" width="10" height="5" rx="1" ry="1" fill="#161b22" />
<rect x="612.5" y="32.5" width="10" height="5" rx="1" ry="1" fill="#161b22" />
<rect x="625.0" y="32.5" width="10" height="5" rx="1" ry="1" fill="#161b22" />
<rect x="637.5" y="32.5" width="10" height="5" rx="1" ry="1" fill="#161b22" />
<rect x="650.0" y="32.5" width="10" height="5" rx="1" ry="1" fill="#161b22" />
<rect x="0.0" y="40.0" width="10" height="5" rx="1" ry="1" fill="#161b22" />
<rect x="12.5" y="40.0" width="10" height="5" rx="1" ry="1" fill="#161b22" />
<rect x="25.0" y="40.0" width="10" height="5" rx="1" ry="1" fill="#161b22" />
<rect x="37.5" y="40.0" width="10" height="5" rx="1" ry="1" fill="#161b22" />
<rect x="50.0" y="40.0" width="10" height="5" rx="1" ry="1" fill="#161b22" />
<rect x="62.5" y="40.0" width="10" height="5" rx="1" ry="1" fill="#161b22" />
<rect x="75.0" y="40.0" width="10" height="5" rx="1" ry="1" fill="#161b22" />
<rect x="87.5" y="40.0" width="10" height="5" rx="1" ry="1" fill="#161b22" />
<rect x="100.0" y="40.0" width="10" height="5" rx="1" ry="1" fill="#161b22" />
<rect x="112.5" y="40.0" width="10" height="5" rx="1" ry="1" fill="#161b22" />
<rect x="125.0" y="40.0" width="10" height="5" rx="1" ry="1" fill="#161b22" />
<rect x="137.5" y="40.0" width="10" height="5" rx="1" ry="1" fill="#161b22" />
<rect x="150.0" y="40.0" width="10" height="5" rx="1" ry="1" fill="#161b22" />
<rect x="162.5" y="40.0" width="10" height="5" rx="1" ry="1" fill="#161b22" />
<rect x="175.0" y="40.0" width="10" height="5" rx="1" ry="1" fill="#161b22" />
<rect x="187.5" y="40.0" width="10" height="5" rx="1" ry="1" fill="#161b22" />
<rect x="200.0" y="40.0" width="10" height="5" rx="1" ry="1" fill="#161b22" />
<rect x="212.5" y="40.0" width="10" height="5" rx="1" ry="1" fill="#161b22" />
<rect x="225.0" y="40.0" width="10" height="5" rx="1" ry="1" fill="#161b22" />
<rect x="237.5" y="40.0" width="10" height="5" rx="1" ry="1" fill="#161b22" />
<rect x="250.0" y="40.0" width="10" height="5" rx="1" ry="1" fill="#161b22" />
<rect x="262.5" y="40.0" width="10" height="5" rx="1" ry="1" fill="#161b22" />
<rect x="275.0" y="40.0" width="10" height="5" rx="1" ry="1" fill="#161b22" />
<rect x="287.5" y="40.0" width="10" height="5" rx="1" ry="1" fill="#161b22" />
<rect x="300.0" y="40.0" width="10" height="5" rx="1" ry="1" fill="#161b22" />
<rect x="312.5" y="40.0" width="10" height="5" rx="1" ry="1" fill="#161b22" />
<rect x="325.0" y="40.0" width="10" height="5" rx="1" ry="1" fill="#161b22" />
<rect x="337.5" y="40.0" width="10" height="5" rx="1" ry="1" fill="#161b22" />
<rect x="350.0" y="40.0" width="10" height="5" rx="1" ry="1" fill="#161b22" />
<rect x="362.5" y="40.0" width="10" height="5" rx="1" ry="1" fill="#161b22" />
<rect x="375.0" y="40.0" width="10" height="5" rx="1" ry="1" fill="#161b22" />
<rect x="387.5" y="40.0" width="10" height="5" rx="1" ry="1" fill="#161b22" />
<rect x="400.0" y="40.0" width="10" height="5" rx="1" ry="1" fill="#161b22" />
<rect x="412.5" y="40.0" width="10" height="5" rx="1" ry="1" fill="#161b22" />
<rect x="425.0" y="40.0" width="10" height="5" rx="1" ry="1" fill="#161b22" />
<rect x="437.5" y="40.0" width="10" height="5" rx="1" ry="1" fill="#161b22" />
<rect x="450.0" y="40.0" width="10" height="5" rx="1" ry="1" fill="#161b22" />
<rect x="462.5" y="40.0" width="10" height="5" rx="1" ry="1" fill="#161b22" />
<rect x="475.0" y="40.0" width="10" height="5" rx="1" ry="1" fill="#161b22" />
<rect x="487.5" y="40.0" width="10" height="5" rx="1" ry="1" fill="#161b22" />
<rect x="500.0" y="40.0" width="10" height="5" rx="1" ry="1" fill="#161b22" />
<rect x="512.5" y="40.0" width="10" height="5" rx="1" ry="1" fill="#161b22" />
<rect x="525.0" y="40.0" width="10" height="5" rx="1" ry="1" fill="#161b22" />
<rect x="537.5" y="40.0" width="10" height="5" rx="1" ry="1" fill="#161b22" />
<rect x="550.0" y="40.0" width="10" height="5" rx="1" ry="1" fill="#161b22" />
<rect x="562.5" y="40.0" width="10" height="5" rx="1" ry="1" fill="#161b22" />
<rect x="575.0" y="40.0" width="10" height="5" rx="1" ry="1" fill="#161b22" />
<rect x="587.5" y="40.0" width="10" height="5" rx="1" ry="1" fill="#161b22" />
<rect x="600.0" y="40.0" width="10" height="5" rx="1" ry="1" fill="#161b22" />
<rect x="612.5" y="40.0" width="10" height="5" rx="1" ry="1" fill="#161b22" />
<rect x="625.0" y="40.0" width="10" height="5" rx="1" ry="1" fill="#161b22" />
<rect x="637.5" y="40.0" width="10" height="5" rx="1" ry="1" fill="#161b22" />
<rect x="650.0" y="40.0" width="10" height="5" rx="1" ry="1" fill="#161b22" />
<rect x="0.0" y="47.5" width="10" height="5" rx="1" ry="1" fill="#161b22" />
<rect x="12.5" y="47.5" width="10" height="5" rx="1" ry="1" fill="#161b22" />
<rect x="25.0" y="47.5" width="10" height="5" rx="1" ry="1" fill="#161b22" />
<rect x="37.5" y="47.5" width="10" height="5" rx="1" ry="1" fill="#161b22" />
<rect x="50.0" y="47.5" width="10" height="5" rx="1" ry="1" fill="#161b22" />
<rect x="62.5" y="47.5" width="10" height="5" rx="1" ry="1" fill="#161b22" />
<rect x="75.0" y="47.5" width="10" height="5" rx="1" ry="1" fill="#161b22" />
<rect x="87.5" y="47.5" width="10" height="5" rx="1" ry="1" fill="#161b22" />
<rect x="100.0" y="47.5" width="10" height="5" rx="1" ry="1" fill="#161b22" />
<rect x="112.5" y="47.5" width="10" height="5" rx="1" ry="1" fill="#161b22" />
<rect x="125.0" y="47.5" width="10" height="5" rx="1" ry="1" fill="#161b22" />
<rect x="137.5" y="47.5" width="10" height="5" rx="1" ry="1" fill="#161b22" />
<rect x="150.0" y="47.5" width="10" height="5" rx="1" ry="1" fill="#161b22" />
<rect x="162.5" y="47.5" width="10" height="5" rx="1" ry="1" fill="#161b22" />
<rect x="175.0" y="47.5" width="10" height="5" rx="1" ry="1" fill="#161b22" />
<rect x="187.5" y="47.5" width="10" height="5" rx="1" ry="1" fill="#161b22" />
<rect x="200.0" y="47.5" width="10" height="5" rx="1" ry="1" fill="#161b22" />
<rect x="212.5" y="47.5" width="10" height="5" rx="1" ry="1" fill="#161b22" />
<rect x="225.0" y="47.5" width="10" height="5" rx="1" ry="1" fill="#161b22" />
<rect x="237.5" y="47.5" width="10" height="5" rx="1" ry="1" fill="#161b22" />
<rect x="250.0" y="47.5" width="10" height="5" rx="1" ry="1" fill="#161b22" />
<rect x="262.5" y="47.5" width="10" height="5" rx="1" ry="1" fill="#161b22" />
<rect x="275.0" y="47.5" width="10" height="5" rx="1" ry="1" fill="#161b22" />
<rect x="287.5" y="47.5" width="10" height="5" rx="1" ry="1" fill="#161b22" />
<rect x="300.0" y="47.5" width="10" height="5" rx="1" ry="1" fill="#161b22" />
<rect x="312.5" y="47.5" width="10" height="5" rx="1" ry="1" fill="#161b22" />
<rect x="325.0" y="47.5" width="10" height="5" rx="1" ry="1" fill="#161b22" />
<rect x="337.5" y="47.5" width="10" height="5" rx="1" ry="1" fill="#161b22" />
<rect x="350.0" y="47.5" width="10" height="5" rx="1" ry="1" fill="#161b22" />
<rect x="362.5" y="47.5" width="10" height="5" rx="1" ry="1" fill="#161b22" />
<rect x="375.0" y="47.5" width="10" height="5" rx="1" ry="1" fill="#161b22" />
<rect x="387.5" y="47.5" width="10" height="5" rx="1" ry="1" fill="#161b22" />
<rect x="400.0" y="47.5" width="10" height="5" rx="1" ry="1" fill="#161b22" />
<rect x="412.5" y="47.5" width="10" height="5" rx="1" ry="1" fill="#161b22" />
<rect x="425.0" y="47.5" width="10" height="5" rx="1" ry="1" fill="#161b22" />
<rect x="437.5" y="47.5" width="10" height="5" rx="1" ry="1" fill="#161b22" />
<rect x="450.0" y="47.5" width="10" height="5" rx="1" ry="1" fill="#161b22" />
<rect x="462.5" y="47.5" width="10" height="5" rx="1" ry="1" fill="#161b22" />
<rect x="475.0" y="47.5" width="10" height="5" rx="1" ry="1" fill="#161b22" />
<rect x="487.5" y="47.5" width="10" height="5" rx="1" ry="1" fill="#161b22" />
<rect x="500.0" y="47.5" width="10" height="5" rx="1" ry="1" fill="#161b22" />
<rect x="512.5" y="47.5" width="10" height="5" rx="1" ry="1" fill="#161b22" />
<rect x="525.0" y="47.5" width="10" height="5" rx="1" ry="1" fill="#161b22" />
<rect x="537.5" y="47.5" width="10" height="5" rx="1" ry="1" fill="#161b22" />
<rect x="550.0" y="47.5" width="10" height="5" rx="1" ry="1" fill="#161b22" />
<rect x="562.5" y="47.5" width="10" height="5" rx="1" ry="1" fill="#161b22" />
<rect x="575.0" y="47.5" width="10" height="5" rx="1" ry="1" fill="#161b22" />
<rect x="587.5" y="47.5" width="10" height="5" rx="1" ry="1" fill="#161b22" />
<rect x="600.0" y="47.5" width="10" height="5" rx="1" ry="1" fill="#161b22" />
<rect x="612.5" y="47.5" width="10" height="5" rx="1" ry="1" fill="#161b22" />
<rect x="625.0" y="47.5" width="10" height="5" rx="1" ry="1" fill="#161b22" />
<rect x="637.5" y="47.5" width="10" height="5" rx="1" ry="1" fill="#161b22" />
<rect x="650.0" y="47.5" width="10" height="5" rx="1" ry="1" fill="#161b22" />
<rect x="0.0" y="55.0" width="10" height="5" rx="1" ry="1" fill="#161b22" />
<rect x="12.5" y="55.0" width="10" height="5" rx="1" ry="1" fill="#161b22" />
<rect x="25.0" y="55.0" width="10" height="5" rx="1" ry="1" fill="#161b22" />
<rect x="37.5" y="55.0" width="10" height="5" rx="1" ry="1" fill="#161b22" />
<rect x="50.0" y="55.0" width="10" height="5" rx="1" ry="1" fill="#161b22" />
<rect x="62.5" y="55.0" width="10" height="5" rx="1" ry="1" fill="#161b22" />
<rect x="75.0" y="55.0" width="10" height="5" rx="1" ry="1" fill="#161b22" />
<rect x="87.5" y="55.0" width="10" height="5" rx="1" ry="1" fill="#161b22" />
<rect x="100.0" y="55.0" width="10" height="5" rx="1" ry="1" fill="#161b22" />
<rect x="112.5" y="55.0" width="10" height="5" rx="1" ry="1" fill="#161b22" />
<rect x="125.0" y="55.0" width="10" height="5" rx="1" ry="1" fill="#161b22" />
<rect x="137.5" y="55.0" width="10" height="5" rx="1" ry="1" fill="#161b22" />
<rect x="150.0" y="55.0" width="10" height="5" rx="1" ry="1" fill="#161b22" />
<rect x="162.5" y="55.0" width="10" height="5" rx="1" ry="1" fill="#161b22" />
<rect x="175.0" y="55.0" width="10" height="5" rx="1" ry="1" fill="#161b22" />
<rect x="187.5" y="55.0" width="10" height="5" rx="1" ry="1" fill="#161b22" />
<rect x="200.0" y="55.0" width="10" height="5" rx="1" ry="1" fill="#161b22" />
<rect x="212.5" y="55.0" width="10" height="5" rx="1" ry="1" fill="#161b22" />
<rect x="225.0" y="55.0" width="10" height="5" rx="1" ry="1" fill="#161b22" />
<rect x="237.5" y="55.0" width="10" height="5" rx="1" ry="1" fill="#161b22" />
<rect x="250.0" y="55.0" width="10" height="5" rx="1" ry="1" fill="#161b22" />
<rect x="262.5" y="55.0" width="10" height="5" rx="1" ry="1" fill="#161b22" />
<rect x="275.0" y="55.0" width="10" height="5" rx="1" ry="1" fill="#161b22" />
<rect x="287.5" y="55.0" width="10" height="5" rx="1" ry="1" fill="#161b22" />
<rect x="300.0" y="55.0" width="10" height="5" rx="1" ry="1" fill="#161b22" />
<rect x="312.5" y="55.0" width="10" height="5" rx="1" ry="1" fill="#161b22" />
<rect x="325.0" y="55.0" width="10" height="5" rx="1" ry="1" fill="#161b22" />
<rect x="337.5" y="55.0" width="10" height="5" rx="1" ry="1" fill="#161b22" />
<rect x="350.0" y="55.0" width="10" height="5" rx="1" ry="1" fill="#161b22" />
<rect x="362.5" y="55.0" width="10" height="5" rx="1" ry="1" fill="#161b22" />
<rect x="375.0" y="55.0" width="10" height="5" rx="1" ry="1" fill="#161b22" />
<rect x="387.5" y="55.0" width="10" height="5" rx="1" ry="1" fill="#161b22" />
<rect x="400.0" y="55.0" width="10" height="5" rx="1" ry="1" fill="#161b22" />
<rect x="412.5" y="55.0" width="10" height="5" rx="1" ry="1" fill="#161b22" />
<rect x="425.0" y="55.0" width="10" height="5" rx="1" ry="1" fill="#161b22" />
<rect x="437.5" y="55.0" width="10" height="5" rx="1" ry="1" fill="#161b22" />
<rect x="450.0" y="55.0" width="10" height="5" rx="1" ry="1" fill="#161b22" />
<rect x="462.5" y="55.0" width="10" height="5" rx="1" ry="1" fill="#161b22" />
<rect x="475.0" y="55.0" width="10" height="5" rx="1" ry="1" fill="#161b22" />
<rect x="487.5" y="55.0" width="10" height="5" rx="1" ry="1" fill="#161b22" />
<rect x="500.0" y="55.0" width="10" height="5" rx="1" ry="1" fill="#161b22" />
<rect x="512.5" y="55.0" width="10" height="5" rx="1" ry="1" fill="#161b22" />
<rect x="525.0" y="55.0" width="10" height="5" rx="1" ry="1" fill="#161b22" />
<rect x="537.5" y="55.0" width="10" height="5" rx="1" ry="1" fill="#161b22" />
<rect x="550.0" y="55.0" width="10" height="5" rx="1" ry="1" fill="#161b22" />
<rect x="562.5" y="55.0" width="10" height="5" rx="1" ry="1" fill="#161b22" />
<rect x="575.0" y="55.0" width="10" height="5" rx="1" ry="1" fill="#161b22" />
<rect x="587.5" y="55.0" width="10" height="5" rx="1" ry="1" fill="#161b22" />
<rect x="600.0" y="55.0" width="10" height="5" rx="1" ry="1" fill="#161b22" />
<rect x="612.5" y="55.0" width="10" height="5" rx="1" ry="1" fill="#161b22" />
<rect x="625.0" y="55.0" width="10" height="5" rx="1" ry="1" fill="#161b22" />
<rect x="637.5" y="55.0" width="10" height="5" rx="1" ry="1" fill="#161b22" />
<rect x="650.0" y="55.0" width="10" height="5" rx="1" ry="1" fill="#161b22" />
<g clip-path="url(#grid-clip-live-dark)">
<g transform="translate(225.0 10.0)">
<animateTransform attributeName="transform" type="translate" additive="sum" dur="26.155s" repeatCount="indefinite" calcMode="linear" values="0.0 -22.5;0.0 -22.5;0.0 -15.0;0 0;0 0;0 67.0;0 67.0" keyTimes="0;0.006882;0.011967;0.021411;0.957943;0.992353;1" />
<rect x="0.0" y="0.0" width="10" height="5" rx="1" ry="1" fill="#3a838b" />
</g>
<g transform="translate(525.0 10.0)">
<animateTransform attributeName="transform" type="translate" additive="sum" dur="26.155s" repeatCount="indefinite" calcMode="linear" values="25.0 -22.5;25.0 -22.5;0.0 -15.0;0 0;0 0;0 67.0;0 67.0" keyTimes="0;0.024470;0.029555;0.038999;0.957943;0.992353;1" />
<rect x="0.0" y="0.0" width="10" height="5" rx="1" ry="1" fill="#6f3f40" />
<rect x="12.5" y="0.0" width="10" height="5" rx="1" ry="1" fill="#98514f" />
</g>
<g transform="translate(337.5 10.0)">
<animateTransform attributeName="transform" type="translate" additive="sum" dur="26.155s" repeatCount="indefinite" calcMode="linear" values="-25.0 -22.5;-25.0 -22.5;0.0 -15.0;0 0;0 0;0 67.0;0 67.0" keyTimes="0;0.042057;0.047142;0.056586;0.957943;0.992353;1" />
<rect x="0.0" y="0.0" width="10" height="5" rx="1" ry="1" fill="#47a8b0" />
<rect x="0.0" y="7.5" width="10" height="5" rx="1" ry="1" fill="#2e6169" />
<rect x="12.5" y="0.0" width="10" height="5" rx="1" ry="1" fill="#2e6169" />
</g>
<g transform="translate(362.5 10.0)">
<animateTransform attributeName="transform" type="translate" additive="sum" dur="26.155s" repeatCount="indefinite" calcMode="linear" values="0.0 -22.5;0.0 -22.5;0.0 -15.0;0 0;0 0;0 67.0;0 67.0" keyTimes="0;0.059645;0.064730;0.074174;0.957943;0.992353;1" />
<rect x="0.0" y="0.0" width="10" height="5" rx="1" ry="1" fill="#6f3f40" />
<rect x="12.5" y="0.0" width="10" height="5" rx="1" ry="1" fill="#6f3f40" />
<rect x="12.5" y="7.5" width="10" height="5" rx="1" ry="1" fill="#6f3f40" />
<rect x="25.0" y="0.0" width="10" height="5" rx="1" ry="1" fill="#6f3f40" />
</g>
<g transform="translate(412.5 10.0)">
<animateTransform attributeName="transform" type="translate" additive="sum" dur="26.155s" repeatCount="indefinite" calcMode="linear" values="37.5 -22.5;37.5 -22.5;0.0 -15.0;0 0;0 0;0 67.0;0 67.0" keyTimes="0;0.077232;0.082318;0.091761;0.957943;0.992353;1" />
<rect x="0.0" y="0.0" width="10" height="5" rx="1" ry="1" fill="#5d5176" />
<rect x="0.0" y="7.5" width="10" height="5" rx="1" ry="1" fill="#5d5176" />
</g>
<g transform="translate(462.5 10.0)">
<animateTransform attributeName="transform" type="translate" additive="sum" dur="26.155s" repeatCount="indefinite" calcMode="linear" values="37.5 -22.5;37.5 -22.5;0.0 -15.0;0 0;0 0;0 67.0;0 67.0" keyTimes="0;0.094820;0.099905;0.109349;0.957943;0.992353;1" />
<rect x="0.0" y="0.0" width="10" height="5" rx="1" ry="1" fill="#6a5e3a" />
<rect x="0.0" y="7.5" width="10" height="5" rx="1" ry="1" fill="#917e45" />
<rect x="12.5" y="7.5" width="10" height="5" rx="1" ry="1" fill="#eec85f" />
<rect x="25.0" y="7.5" width="10" height="5" rx="1" ry="1" fill="#917e45" />
</g>
<g transform="translate(475.0 10.0)">
<animateTransform attributeName="transform" type="translate" additive="sum" dur="26.155s" repeatCount="indefinite" calcMode="linear" values="25.0 -30.0;25.0 -30.0;0.0 -15.0;0 0;0 0;0 67.0;0 67.0" keyTimes="0;0.112408;0.117493;0.126937;0.957943;0.992353;1" />
<rect x="0.0" y="0.0" width="10" height="5" rx="1" ry="1" fill="#c7645f" />
<rect x="12.5" y="0.0" width="10" height="5" rx="1" ry="1" fill="#6f3f40" />
<rect x="25.0" y="0.0" width="10" height="5" rx="1" ry="1" fill="#6f3f40" />
<rect x="25.0" y="7.5" width="10" height="5" rx="1" ry="1" fill="#98514f" />
</g>
<g transform="translate(612.5 10.0)">
<animateTransform attributeName="transform" type="translate" additive="sum" dur="26.155s" repeatCount="indefinite" calcMode="linear" values="0.0 -22.5;0.0 -22.5;0.0 -15.0;0 0;0 0;0 67.0;0 67.0" keyTimes="0;0.129995;0.135080;0.144524;0.957943;0.992353;1" />
<rect x="0.0" y="0.0" width="10" height="5" rx="1" ry="1" fill="#6f5036" />
<rect x="0.0" y="7.5" width="10" height="5" rx="1" ry="1" fill="#6f5036" />
</g>
<g transform="translate(250.0 25.0)">
<animateTransform attributeName="transform" type="translate" additive="sum" dur="26.155s" repeatCount="indefinite" calcMode="linear" values="-37.5 -30.0;-37.5 -30.0;0.0 -22.5;0 0;0 0;0 67.0;0 67.0" keyTimes="0;0.147583;0.152668;0.162112;0.957943;0.992353;1" />
<rect x="0.0" y="0.0" width="10" height="5" rx="1" ry="1" fill="#6a5e3a" />
</g>
<g transform="translate(325.0 10.0)">
<animateTransform attributeName="transform" type="translate" additive="sum" dur="26.155s" repeatCount="indefinite" calcMode="linear" values="0.0 -37.5;0.0 -37.5;0.0 -15.0;0 0;0 0;0 67.0;0 67.0" keyTimes="0;0.165170;0.171353;0.182835;0.957943;0.992353;1" />
<rect x="0.0" y="0.0" width="10" height="5" rx="1" ry="1" fill="#6a5e3a" />
<rect x="0.0" y="7.5" width="10" height="5" rx="1" ry="1" fill="#917e45" />
<rect x="0.0" y="15.0" width="10" height="5" rx="1" ry="1" fill="#6a5e3a" />
</g>
<g transform="translate(437.5 10.0)">
<animateTransform attributeName="transform" type="translate" additive="sum" dur="26.155s" repeatCount="indefinite" calcMode="linear" values="-37.5 -37.5;-37.5 -37.5;0.0 -15.0;0 0;0 0;0 67.0;0 67.0" keyTimes="0;0.185893;0.192076;0.203557;0.957943;0.992353;1" />
<rect x="0.0" y="0.0" width="10" height="5" rx="1" ry="1" fill="#a586ca" />
<rect x="12.5" y="0.0" width="10" height="5" rx="1" ry="1" fill="#5d5176" />
<rect x="12.5" y="7.5" width="10" height="5" rx="1" ry="1" fill="#7f6a9e" />
<rect x="12.5" y="15.0" width="10" height="5" rx="1" ry="1" fill="#a586ca" />
</g>
<g transform="translate(512.5 17.5)">
<animateTransform attributeName="transform" type="translate" additive="sum" dur="26.155s" repeatCount="indefinite" calcMode="linear" values="0.0 -30.0;0.0 -30.0;0.0 -15.0;0 0;0 0;0 67.0;0 67.0" keyTimes="0;0.206616;0.211701;0.221145;0.957943;0.992353;1" />
<rect x="0.0" y="0.0" width="10" height="5" rx="1" ry="1" fill="#6f5036" />
<rect x="12.5" y="0.0" width="10" height="5" rx="1" ry="1" fill="#986940" />
<rect x="12.5" y="7.5" width="10" height="5" rx="1" ry="1" fill="#6f5036" />
<rect x="25.0" y="0.0" width="10" height="5" rx="1" ry="1" fill="#986940" />
</g>
<g transform="translate(562.5 10.0)">
<animateTransform attributeName="transform" type="translate" additive="sum" dur="26.155s" repeatCount="indefinite" calcMode="linear" values="-37.5 -37.5;-37.5 -37.5;0.0 -15.0;0 0;0 0;0 67.0;0 67.0" keyTimes="0;0.224204;0.230386;0.241868;0.957943;0.992353;1" />
<rect x="0.0" y="0.0" width="10" height="5" rx="1" ry="1" fill="#3c5a76" />
<rect x="0.0" y="7.5" width="10" height="5" rx="1" ry="1" fill="#4d779e" />
<rect x="0.0" y="15.0" width="10" height="5" rx="1" ry="1" fill="#3c5a76" />
<rect x="12.5" y="15.0" width="10" height="5" rx="1" ry="1" fill="#3c5a76" />
</g>
<g transform="translate(437.5 17.5)">
<animateTransform attributeName="transform" type="translate" additive="sum" dur="26.155s" repeatCount="indefinite" calcMode="linear" values="0.0 -37.5;0.0 -37.5;0.0 -15.0;0 0;0 0;0 67.0;0 67.0" keyTimes="0;0.244926;0.251109;0.262590;0.957943;0.992353;1" />
<rect x="0.0" y="0.0" width="10" height="5" rx="1" ry="1" fill="#43644a" />
<rect x="0.0" y="7.5" width="10" height="5" rx="1" ry="1" fill="#59875d" />
<rect x="0.0" y="15.0" width="10" height="5" rx="1" ry="1" fill="#59875d" />
<rect x="12.5" y="15.0" width="10" height="5" rx="1" ry="1" fill="#43644a" />
</g>
<g transform="translate(462.5 32.5)">
<animateTransform attributeName="transform" type="translate" additive="sum" dur="26.155s" repeatCount="indefinite" calcMode="linear" values="37.5 -45.0;37.5 -45.0;0.0 -30.0;0 0;0 0;0 67.0;0 67.0" keyTimes="0;0.265649;0.273068;0.286846;0.957943;0.992353;1" />
<rect x="0.0" y="0.0" width="10" height="5" rx="1" ry="1" fill="#b28f3a" />
</g>
<g transform="translate(462.5 25.0)">
<animateTransform attributeName="transform" type="translate" additive="sum" dur="26.155s" repeatCount="indefinite" calcMode="linear" values="0.0 -45.0;0.0 -45.0;0.0 -22.5;0 0;0 0;0 67.0;0 67.0" keyTimes="0;0.289905;0.297324;0.311102;0.957943;0.992353;1" />
<rect x="0.0" y="0.0" width="10" height="5" rx="1" ry="1" fill="#77bdfb" />
<rect x="12.5" y="0.0" width="10" height="5" rx="1" ry="1" fill="#3c5a76" />
<rect x="25.0" y="0.0" width="10" height="5" rx="1" ry="1" fill="#3c5a76" />
<rect x="25.0" y="7.5" width="10" height="5" rx="1" ry="1" fill="#3c5a76" />
</g>
<g transform="translate(300.0 40.0)">
<animateTransform attributeName="transform" type="translate" additive="sum" dur="26.155s" repeatCount="indefinite" calcMode="linear" values="0.0 -52.5;0.0 -52.5;0.0 -37.5;0 0;0 0;0 67.0;0 67.0" keyTimes="0;0.314160;0.322816;0.338890;0.957943;0.992353;1" />
<rect x="0.0" y="0.0" width="10" height="5" rx="1" ry="1" fill="#6f3f40" />
</g>
<g transform="translate(350.0 40.0)">
<animateTransform attributeName="transform" type="translate" additive="sum" dur="26.155s" repeatCount="indefinite" calcMode="linear" values="25.0 -52.5;25.0 -52.5;0.0 -37.5;0 0;0 0;0 67.0;0 67.0" keyTimes="0;0.341949;0.350604;0.366678;0.957943;0.992353;1" />
<rect x="0.0" y="0.0" width="10" height="5" rx="1" ry="1" fill="#3c5a76" />
</g>
<g transform="translate(375.0 25.0)">
<animateTransform attributeName="transform" type="translate" additive="sum" dur="26.155s" repeatCount="indefinite" calcMode="linear" values="0.0 -52.5;0.0 -52.5;0.0 -22.5;0 0;0 0;0 67.0;0 67.0" keyTimes="0;0.369737;0.378392;0.394467;0.957943;0.992353;1" />
<rect x="0.0" y="7.5" width="10" height="5" rx="1" ry="1" fill="#5d5176" />
<rect x="12.5" y="0.0" width="10" height="5" rx="1" ry="1" fill="#5d5176" />
<rect x="12.5" y="7.5" width="10" height="5" rx="1" ry="1" fill="#5d5176" />
<rect x="12.5" y="15.0" width="10" height="5" rx="1" ry="1" fill="#5d5176" />
</g>
<g transform="translate(450.0 32.5)">
<animateTransform attributeName="transform" type="translate" additive="sum" dur="26.155s" repeatCount="indefinite" calcMode="linear" values="-37.5 -52.5;-37.5 -52.5;0.0 -30.0;0 0;0 0;0 67.0;0 67.0" keyTimes="0;0.397526;0.406181;0.422255;0.957943;0.992353;1" />
<rect x="0.0" y="7.5" width="10" height="5" rx="1" ry="1" fill="#6f3f40" />
<rect x="12.5" y="7.5" width="10" height="5" rx="1" ry="1" fill="#98514f" />
<rect x="25.0" y="0.0" width="10" height="5" rx="1" ry="1" fill="#98514f" />
<rect x="25.0" y="7.5" width="10" height="5" rx="1" ry="1" fill="#6f3f40" />
</g>
<g transform="translate(487.5 25.0)">
<animateTransform attributeName="transform" type="translate" additive="sum" dur="26.155s" repeatCount="indefinite" calcMode="linear" values="25.0 -45.0;25.0 -45.0;0.0 -22.5;0 0;0 0;0 67.0;0 67.0" keyTimes="0;0.425314;0.432733;0.446511;0.957943;0.992353;1" />
<rect x="0.0" y="15.0" width="10" height="5" rx="1" ry="1" fill="#a586ca" />
<rect x="12.5" y="0.0" width="10" height="5" rx="1" ry="1" fill="#5d5176" />
<rect x="12.5" y="7.5" width="10" height="5" rx="1" ry="1" fill="#5d5176" />
<rect x="12.5" y="15.0" width="10" height="5" rx="1" ry="1" fill="#5d5176" />
</g>
<g transform="translate(537.5 25.0)">
<animateTransform attributeName="transform" type="translate" additive="sum" dur="26.155s" repeatCount="indefinite" calcMode="linear" values="25.0 -45.0;25.0 -45.0;0.0 -22.5;0 0;0 0;0 67.0;0 67.0" keyTimes="0;0.449569;0.456988;0.470766;0.957943;0.992353;1" />
<rect x="0.0" y="0.0" width="10" height="5" rx="1" ry="1" fill="#917e45" />
<rect x="0.0" y="7.5" width="10" height="5" rx="1" ry="1" fill="#917e45" />
<rect x="0.0" y="15.0" width="10" height="5" rx="1" ry="1" fill="#917e45" />
</g>
<g transform="translate(650.0 17.5)">
<animateTransform attributeName="transform" type="translate" additive="sum" dur="26.155s" repeatCount="indefinite" calcMode="linear" values="0.0 -45.0;0.0 -45.0;0.0 -15.0;0 0;0 0;0 67.0;0 67.0" keyTimes="0;0.473825;0.481244;0.495022;0.957943;0.992353;1" />
<rect x="0.0" y="0.0" width="10" height="5" rx="1" ry="1" fill="#6f5036" />
<rect x="0.0" y="7.5" width="10" height="5" rx="1" ry="1" fill="#986940" />
<rect x="0.0" y="15.0" width="10" height="5" rx="1" ry="1" fill="#986940" />
<rect x="0.0" y="22.5" width="10" height="5" rx="1" ry="1" fill="#6f5036" />
</g>
<g transform="translate(375.0 40.0)">
<animateTransform attributeName="transform" type="translate" additive="sum" dur="26.155s" repeatCount="indefinite" calcMode="linear" values="0.0 -52.5;0.0 -52.5;0.0 -37.5;0 0;0 0;0 67.0;0 67.0" keyTimes="0;0.498081;0.506736;0.522810;0.957943;0.992353;1" />
<rect x="0.0" y="0.0" width="10" height="5" rx="1" ry="1" fill="#43644a" />
<rect x="0.0" y="7.5" width="10" height="5" rx="1" ry="1" fill="#43644a" />
<rect x="12.5" y="7.5" width="10" height="5" rx="1" ry="1" fill="#43644a" />
<rect x="25.0" y="7.5" width="10" height="5" rx="1" ry="1" fill="#43644a" />
</g>
<g transform="translate(512.5 32.5)">
<animateTransform attributeName="transform" type="translate" additive="sum" dur="26.155s" repeatCount="indefinite" calcMode="linear" values="-25.0 -52.5;-25.0 -52.5;0.0 -30.0;0 0;0 0;0 67.0;0 67.0" keyTimes="0;0.525869;0.534524;0.550599;0.957943;0.992353;1" />
<rect x="0.0" y="0.0" width="10" height="5" rx="1" ry="1" fill="#64552e" />
<rect x="12.5" y="0.0" width="10" height="5" rx="1" ry="1" fill="#64552e" />
<rect x="12.5" y="7.5" width="10" height="5" rx="1" ry="1" fill="#897033" />
<rect x="12.5" y="15.0" width="10" height="5" rx="1" ry="1" fill="#897033" />
</g>
<g transform="translate(562.5 32.5)">
<animateTransform attributeName="transform" type="translate" additive="sum" dur="26.155s" repeatCount="indefinite" calcMode="linear" values="0.0 -52.5;0.0 -52.5;0.0 -30.0;0 0;0 0;0 67.0;0 67.0" keyTimes="0;0.553657;0.562313;0.578387;0.957943;0.992353;1" />
<rect x="0.0" y="0.0" width="10" height="5" rx="1" ry="1" fill="#64552e" />
<rect x="12.5" y="0.0" width="10" height="5" rx="1" ry="1" fill="#897033" />
<rect x="12.5" y="7.5" width="10" height="5" rx="1" ry="1" fill="#64552e" />
<rect x="12.5" y="15.0" width="10" height="5" rx="1" ry="1" fill="#64552e" />
</g>
<g transform="translate(600.0 40.0)">
<animateTransform attributeName="transform" type="translate" additive="sum" dur="26.155s" repeatCount="indefinite" calcMode="linear" values="25.0 -60.0;25.0 -60.0;0.0 -37.5;0 0;0 0;0 67.0;0 67.0" keyTimes="0;0.581446;0.591338;0.609708;0.957943;0.992353;1" />
<rect x="0.0" y="0.0" width="10" height="5" rx="1" ry="1" fill="#43644a" />
<rect x="0.0" y="7.5" width="10" height="5" rx="1" ry="1" fill="#43644a" />
</g>
<g transform="translate(212.5 55.0)">
<animateTransform attributeName="transform" type="translate" additive="sum" dur="26.155s" repeatCount="indefinite" calcMode="linear" values="37.5 -60.0;37.5 -60.0;0.0 -52.5;0 0;0 0;0 67.0;0 67.0" keyTimes="0;0.612767;0.622659;0.641030;0.957943;0.992353;1" />
<rect x="0.0" y="0.0" width="10" height="5" rx="1" ry="1" fill="#cea5fb" />
</g>
<g transform="translate(312.5 47.5)">
<animateTransform attributeName="transform" type="translate" additive="sum" dur="26.155s" repeatCount="indefinite" calcMode="linear" values="0.0 -67.5;0.0 -67.5;0.0 -45.0;0 0;0 0;0 67.0;0 67.0" keyTimes="0;0.644088;0.655217;0.675884;0.957943;0.992353;1" />
<rect x="0.0" y="0.0" width="10" height="5" rx="1" ry="1" fill="#3c5a76" />
<rect x="12.5" y="0.0" width="10" height="5" rx="1" ry="1" fill="#3c5a76" />
<rect x="12.5" y="7.5" width="10" height="5" rx="1" ry="1" fill="#77bdfb" />
</g>
<g transform="translate(425.0 40.0)">
<animateTransform attributeName="transform" type="translate" additive="sum" dur="26.155s" repeatCount="indefinite" calcMode="linear" values="37.5 -67.5;37.5 -67.5;0.0 -37.5;0 0;0 0;0 67.0;0 67.0" keyTimes="0;0.678942;0.690071;0.710738;0.957943;0.992353;1" />
<rect x="0.0" y="15.0" width="10" height="5" rx="1" ry="1" fill="#77bdfb" />
<rect x="12.5" y="0.0" width="10" height="5" rx="1" ry="1" fill="#77bdfb" />
<rect x="12.5" y="7.5" width="10" height="5" rx="1" ry="1" fill="#4d779e" />
<rect x="12.5" y="15.0" width="10" height="5" rx="1" ry="1" fill="#4d779e" />
</g>
<g transform="translate(450.0 47.5)">
<animateTransform attributeName="transform" type="translate" additive="sum" dur="26.155s" repeatCount="indefinite" calcMode="linear" values="37.5 -67.5;37.5 -67.5;0.0 -45.0;0 0;0 0;0 67.0;0 67.0" keyTimes="0;0.713796;0.724925;0.745592;0.957943;0.992353;1" />
<rect x="0.0" y="7.5" width="10" height="5" rx="1" ry="1" fill="#6f5036" />
<rect x="12.5" y="0.0" width="10" height="5" rx="1" ry="1" fill="#faa356" />
<rect x="12.5" y="7.5" width="10" height="5" rx="1" ry="1" fill="#986940" />
<rect x="25.0" y="7.5" width="10" height="5" rx="1" ry="1" fill="#6f5036" />
</g>
<g transform="translate(475.0 47.5)">
<animateTransform attributeName="transform" type="translate" additive="sum" dur="26.155s" repeatCount="indefinite" calcMode="linear" values="0.0 -67.5;0.0 -67.5;0.0 -45.0;0 0;0 0;0 67.0;0 67.0" keyTimes="0;0.748650;0.759779;0.780446;0.957943;0.992353;1" />
<rect x="0.0" y="0.0" width="10" height="5" rx="1" ry="1" fill="#2e6169" />
<rect x="12.5" y="0.0" width="10" height="5" rx="1" ry="1" fill="#2e6169" />
<rect x="12.5" y="7.5" width="10" height="5" rx="1" ry="1" fill="#2e6169" />
<rect x="25.0" y="0.0" width="10" height="5" rx="1" ry="1" fill="#2e6169" />
</g>
<g transform="translate(500.0 47.5)">
<animateTransform attributeName="transform" type="translate" additive="sum" dur="26.155s" repeatCount="indefinite" calcMode="linear" values="0.0 -67.5;0.0 -67.5;0.0 -45.0;0 0;0 0;0 67.0;0 67.0" keyTimes="0;0.783504;0.794633;0.815300;0.957943;0.992353;1" />
<rect x="0.0" y="7.5" width="10" height="5" rx="1" ry="1" fill="#43644a" />
<rect x="12.5" y="0.0" width="10" height="5" rx="1" ry="1" fill="#43644a" />
<rect x="12.5" y="7.5" width="10" height="5" rx="1" ry="1" fill="#70ad73" />
<rect x="25.0" y="7.5" width="10" height="5" rx="1" ry="1" fill="#59875d" />
</g>
<g transform="translate(550.0 47.5)">
<animateTransform attributeName="transform" type="translate" additive="sum" dur="26.155s" repeatCount="indefinite" calcMode="linear" values="-25.0 -60.0;-25.0 -60.0;0.0 -45.0;0 0;0 0;0 67.0;0 67.0" keyTimes="0;0.818358;0.828250;0.846621;0.957943;0.992353;1" />
<rect x="0.0" y="0.0" width="10" height="5" rx="1" ry="1" fill="#64552e" />
<rect x="0.0" y="7.5" width="10" height="5" rx="1" ry="1" fill="#64552e" />
</g>
<g transform="translate(637.5 47.5)">
<animateTransform attributeName="transform" type="translate" additive="sum" dur="26.155s" repeatCount="indefinite" calcMode="linear" values="0.0 -67.5;0.0 -67.5;0.0 -45.0;0 0;0 0;0 67.0;0 67.0" keyTimes="0;0.849680;0.860808;0.881475;0.957943;0.992353;1" />
<rect x="0.0" y="7.5" width="10" height="5" rx="1" ry="1" fill="#2e6169" />
<rect x="12.5" y="0.0" width="10" height="5" rx="1" ry="1" fill="#3a838b" />
<rect x="12.5" y="7.5" width="10" height="5" rx="1" ry="1" fill="#2e6169" />
</g>
</g>
<metadata>{"username": "Treenixie", "active_cells": 107, "mode": "live-animation"}</metadata>
</svg>