<svg xmlns="http://www.w3.org/2000/svg" width="767" height="196" viewBox="0 0 767 196">
<rect x="0" y="0" width="767" height="196" rx="0" ry="0" fill="#ffffff" />
<rect x="8" y="8" width="751" height="180" rx="6" ry="6" fill="#ffffff" stroke="#d0d7de" stroke-width="1"/>
<text x="16" y="31" fill="#24292f" font-family="-apple-system,BlinkMacSystemFont,'Segoe UI',Helvetica,Arial,sans-serif,'Apple Color Emoji','Segoe UI Emoji'" font-size="14" font-weight="600" text-anchor="start" dominant-baseline="alphabetic">120 contributions in the last year</text>
<text x="743" y="31" fill="#57606a" font-family="-apple-system,BlinkMacSystemFont,'Segoe UI',Helvetica,Arial,sans-serif,'Apple Color Emoji','Segoe UI Emoji'" font-size="11" font-weight="400" text-anchor="end" dominant-baseline="alphabetic">Contribution settings ▾</text>
<line x1="9" y1="40" x2="758" y2="40" stroke="#d8dee4" stroke-width="1"/>
<text x="69" y="56" fill="#24292f" font-family="-apple-system,BlinkMacSystemFont,'Segoe UI',Helvetica,Arial,sans-serif,'Apple Color Emoji','Segoe UI Emoji'" font-size="11" font-weight="400" text-anchor="start" dominant-baseline="alphabetic">Mar</text>
<text x="121" y="56" fill="#24292f" font-family="-apple-system,BlinkMacSystemFont,'Segoe UI',Helvetica,Arial,sans-serif,'Apple Color Emoji','Segoe UI Emoji'" font-size="11" font-weight="400" text-anchor="start" dominant-baseline="alphabetic">Apr</text>
<text x="173" y="56" fill="#24292f" font-family="-apple-system,BlinkMacSystemFont,'Segoe UI',Helvetica,Arial,sans-serif,'Apple Color Emoji','Segoe UI Emoji'" font-size="11" font-weight="400" text-anchor="start" dominant-baseline="alphabetic">May</text>
<text x="225" y="56" fill="#24292f" font-family="-apple-system,BlinkMacSystemFont,'Segoe UI',Helvetica,Arial,sans-serif,'Apple Color Emoji','Segoe UI Emoji'" font-size="11" font-weight="400" text-anchor="start" dominant-baseline="alphabetic">Jun</text>
<text x="290" y="56" fill="#24292f" font-family="-apple-system,BlinkMacSystemFont,'Segoe UI',Helvetica,Arial,sans-serif,'Apple Color Emoji','Segoe UI Emoji'" font-size="11" font-weight="400" text-anchor="start" dominant-baseline="alphabetic">Jul</text>
<text x="342" y="56" fill="#24292f" font-family="-apple-system,BlinkMacSystemFont,'Segoe UI',Helvetica,Arial,sans-serif,'Apple Color Emoji','Segoe UI Emoji'" font-size="11" font-weight="400" text-anchor="start" dominant-baseline="alphabetic">Aug</text>
<text x="407" y="56" fill="#24292f" font-family="-apple-system,BlinkMacSystemFont,'Segoe UI',Helvetica,Arial,sans-serif,'Apple Color Emoji','Segoe UI Emoji'" font-size="11" font-weight="400" text-anchor="start" dominant-baseline="alphabetic">Sep</text>
<text x="459" y="56" fill="#24292f" font-family="-apple-system,BlinkMacSystemFont,'Segoe UI',Helvetica,Arial,sans-serif,'Apple Color Emoji','Segoe UI Emoji'" font-size="11" font-weight="400" text-anchor="start" dominant-baseline="alphabetic">Oct</text>
<text x="511" y="56" fill="#24292f" font-family="-apple-system,BlinkMacSystemFont,'Segoe UI',Helvetica,Arial,sans-serif,'Apple Color Emoji','Segoe UI Emoji'" font-size="11" font-weight="400" text-anchor="start" dominant-baseline="alphabetic">Nov</text>
<text x="576" y="56" fill="#24292f" font-family="-apple-system,BlinkMacSystemFont,'Segoe UI',Helvetica,Arial,sans-serif,'Apple Color Emoji','Segoe UI Emoji'" font-size="11" font-weight="400" text-anchor="start" dominant-baseline="alphabetic">Dec</text>
<text x="628" y="56" fill="#24292f" font-family="-apple-system,BlinkMacSystemFont,'Segoe UI',Helvetica,Arial,sans-serif,'Apple Color Emoji','Segoe UI Emoji'" font-size="11" font-weight="400" text-anchor="start" dominant-baseline="alphabetic">Jan</text>
<text x="680" y="56" fill="#24292f" font-family="-apple-system,BlinkMacSystemFont,'Segoe UI',Helvetica,Arial,sans-serif,'Apple Color Emoji','Segoe UI Emoji'" font-size="11" font-weight="400" text-anchor="start" dominant-baseline="alphabetic">Feb</text>
<text x="732" y="56" fill="#24292f" font-family="-apple-system,BlinkMacSystemFont,'Segoe UI',Helvetica,Arial,sans-serif,'Apple Color Emoji','Segoe UI Emoji'" font-size="11" font-weight="400" text-anchor="start" dominant-baseline="alphabetic">Mar</text>
<text x="51" y="85" fill="#24292f" font-family="-apple-system,BlinkMacSystemFont,'Segoe UI',Helvetica,Arial,sans-serif,'Apple Color Emoji','Segoe UI Emoji'" font-size="11" font-weight="400" text-anchor="end" dominant-baseline="alphabetic">Mon</text>
<text x="51" y="111" fill="#24292f" font-family="-apple-system,BlinkMacSystemFont,'Segoe UI',Helvetica,Arial,sans-serif,'Apple Color Emoji','Segoe UI Emoji'" font-size="11" font-weight="400" text-anchor="end" dominant-baseline="alphabetic">Wed</text>
<text x="51" y="137" fill="#24292f" font-family="-apple-system,BlinkMacSystemFont,'Segoe UI',Helvetica,Arial,sans-serif,'Apple Color Emoji','Segoe UI Emoji'" font-size="11" font-weight="400" text-anchor="end" dominant-baseline="alphabetic">Fri</text>
<rect x="69" y="66" width="10" height="10" rx="2" ry="2" fill="#ebedf0" />
<rect x="82" y="66" width="10" height="10" rx="2" ry="2" fill="#ebedf0" />
<rect x="95" y="66" width="10" height="10" rx="2" ry="2" fill="#ebedf0" />
<rect x="108" y="66" width="10" height="10" rx="2" ry="2" fill="#ebedf0" />
<rect x="121" y="66" width="10" height="10" rx="2" ry="2" fill="#ebedf0" />
<rect x="134" y="66" width="10" height="10" rx="2" ry="2" fill="#ebedf0" />
<rect x="147" y="66" width="10" height="10" rx="2" ry="2" fill="#ebedf0" />
<rect x="160" y="66" width="10" height="10" rx="2" ry="2" fill="#ebedf0" />
<rect x="173" y="66" width="10" height="10" rx="2" ry="2" fill="#ebedf0" />
<rect x="186" y="66" width="10" height="10" rx="2" ry="2" fill="#ebedf0" />
<rect x="199" y="66" width="10" height="10" rx="2" ry="2" fill="#ebedf0" />
<rect x="212" y="66" width="10" height="10" rx="2" ry="2" fill="#ebedf0" />
<rect x="225" y="66" width="10" height="10" rx="2" ry="2" fill="#ebedf0" />
<rect x="238" y="66" width="10" height="10" rx="2" ry="2" fill="#ebedf0" />
<rect x="251" y="66" width="10" height="10" rx="2" ry="2" fill="#ebedf0" />
<rect x="264" y="66" width="10" height="10" rx="2" ry="2" fill="#ebedf0" />
<rect x="277" y="66" width="10" height="10" rx="2" ry="2" fill="#ebedf0" />
<rect x="290" y="66" width="10" height="10" rx="2" ry="2" fill="#ebedf0" />
<rect x="303" y="66" width="10" height="10" rx="2" ry="2" fill="#ebedf0" />
<rect x="316" y="66" width="10" height="10" rx="2" ry="2" fill="#ebedf0" />
<rect x="329" y="66" width="10" height="10" rx="2" ry="2" fill="#ebedf0" />
<rect x="342" y="66" width="10" height="10" rx="2" ry="2" fill="#ebedf0" />
<rect x="355" y="66" width="10" height="10" rx="2" ry="2" fill="#ebedf0" />
<rect x="368" y="66" width="10" height="10" rx="2" ry="2" fill="#ebedf0" />
<rect x="381" y="66" width="10" height="10" rx="2" ry="2" fill="#ebedf0" />
<rect x="394" y="66" width="10" height="10" rx="2" ry="2" fill="#ebedf0" />
<rect x="407" y="66" width="10" height="10" rx="2" ry="2" fill="#ebedf0" />
<rect x="420" y="66" width="10" height="10" rx="2" ry="2" fill="#ebedf0" />
<rect x="433" y="66" width="10" height="10" rx="2" ry="2" fill="#ebedf0" />
<rect x="446" y="66" width="10" height="10" rx="2" ry="2" fill="#ebedf0" />
<rect x="459" y="66" width="10" height="10" rx="2" ry="2" fill="#ebedf0" />
<rect x="472" y="66" width="10" height="10" rx="2" ry="2" fill="#ebedf0" />
<rect x="485" y="66" width="10" height="10" rx="2" ry="2" fill="#ebedf0" />
<rect x="498" y="66" width="10" height="10" rx="2" ry="2" fill="#ebedf0" />
<rect x="511" y="66" width="10" height="10" rx="2" ry="2" fill="#ebedf0" />
<rect x="524" y="66" width="10" height="10" rx="2" ry="2" fill="#ebedf0" />
<rect x="537" y="66" width="10" height="10" rx="2" ry="2" fill="#ebedf0" />
<rect x="550" y="66" width="10" height="10" rx="2" ry="2" fill="#ebedf0" />
<rect x="563" y="66" width="10" height="10" rx="2" ry="2" fill="#ebedf0" />
<rect x="576" y="66" width="10" height="10" rx="2" ry="2" fill="#ebedf0" />
<rect x="589" y="66" width="10" height="10" rx="2" ry="2" fill="#ebedf0" />
<rect x="602" y="66" width="10" height="10" rx="2" ry="2" fill="#ebedf0" />
<rect x="615" y="66" width="10" height="10" rx="2" ry="2" fill="#ebedf0" />
<rect x="628" y="66" width="10" height="10" rx="2" ry="2" fill="#ebedf0" />
<rect x="641" y="66" width="10" height="10" rx="2" ry="2" fill="#30a14e" />
<rect x="654" y="66" width="10" height="10" rx="2" ry="2" fill="#ebedf0" />
<rect x="667" y="66" width="10" height="10" rx="2" ry="2" fill="#ebedf0" />
<rect x="680" y="66" width="10" height="10" rx="2" ry="2" fill="#ebedf0" />
<rect x="693" y="66" width="10" height="10" rx="2" ry="2" fill="#ebedf0" />
<rect x="706" y="66" width="10" height="10" rx="2" ry="2" fill="#ebedf0" />
<rect x="719" y="66" width="10" height="10" rx="2" ry="2" fill="#ebedf0" />
<rect x="732" y="66" width="10" height="10" rx="2" ry="2" fill="#ebedf0" />
<rect x="745" y="66" width="10" height="10" rx="2" ry="2" fill="#9be9a8" />
<rect x="69" y="79" width="10" height="10" rx="2" ry="2" fill="#ebedf0" />
<rect x="82" y="79" width="10" height="10" rx="2" ry="2" fill="#ebedf0" />
<rect x="95" y="79" width="10" height="10" rx="2" ry="2" fill="#ebedf0" />
<rect x="108" y="79" width="10" height="10" rx="2" ry="2" fill="#ebedf0" />
<rect x="121" y="79" width="10" height="10" rx="2" ry="2" fill="#ebedf0" />
<rect x="134" y="79" width="10" height="10" rx="2" ry="2" fill="#ebedf0" />
<rect x="147" y="79" width="10" height="10" rx="2" ry="2" fill="#ebedf0" />
<rect x="160" y="79" width="10" height="10" rx="2" ry="2" fill="#ebedf0" />
<rect x="173" y="79" width="10" height="10" rx="2" ry="2" fill="#ebedf0" />
<rect x="186" y="79" width="10" height="10" rx="2" ry="2" fill="#ebedf0" />
<rect x="199" y="79" width="10" height="10" rx="2" ry="2" fill="#ebedf0" />
<rect x="212" y="79" width="10" height="10" rx="2" ry="2" fill="#ebedf0" />
<rect x="225" y="79" width="10" height="10" rx="2" ry="2" fill="#ebedf0" />
<rect x="238" y="79" width="10" height="10" rx="2" ry="2" fill="#ebedf0" />
<rect x="251" y="79" width="10" height="10" rx="2" ry="2" fill="#ebedf0" />
<rect x="264" y="79" width="10" height="10" rx="2" ry="2" fill="#ebedf0" />
<rect x="277" y="79" width="10" height="10" rx="2" ry="2" fill="#ebedf0" />
<rect x="290" y="79" width="10" height="10" rx="2" ry="2" fill="#ebedf0" />
<rect x="303" y="79" width="10" height="10" rx="2" ry="2" fill="#ebedf0" />
<rect x="316" y="79" width="10" height="10" rx="2" ry="2" fill="#ebedf0" />
<rect x="329" y="79" width="10" height="10" rx="2" ry="2" fill="#ebedf0" />
<rect x="342" y="79" width="10" height="10" rx="2" ry="2" fill="#ebedf0" />
<rect x="355" y="79" width="10" height="10" rx="2" ry="2" fill="#ebedf0" />
<rect x="368" y="79" width="10" height="10" rx="2" ry="2" fill="#ebedf0" />
<rect x="381" y="79" width="10" height="10" rx="2" ry="2" fill="#ebedf0" />
<rect x="394" y="79" width="10" height="10" rx="2" ry="2" fill="#ebedf0" />
<rect x="407" y="79" width="10" height="10" rx="2" ry="2" fill="#ebedf0" />
<rect x="420" y="79" width="10" height="10" rx="2" ry="2" fill="#ebedf0" />
<rect x="433" y="79" width="10" height="10" rx="2" ry="2" fill="#ebedf0" />
<rect x="446" y="79" width="10" height="10" rx="2" ry="2" fill="#ebedf0" />
<rect x="459" y="79" width="10" height="10" rx="2" ry="2" fill="#ebedf0" />
<rect x="472" y="79" width="10" height="10" rx="2" ry="2" fill="#ebedf0" />
<rect x="485" y="79" width="10" height="10" rx="2" ry="2" fill="#ebedf0" />
<rect x="498" y="79" width="10" height="10" rx="2" ry="2" fill="#ebedf0" />
<rect x="511" y="79" width="10" height="10" rx="2" ry="2" fill="#ebedf0" />
<rect x="524" y="79" width="10" height="10" rx="2" ry="2" fill="#ebedf0" />
<rect x="537" y="79" width="10" height="10" rx="2" ry="2" fill="#ebedf0" />
<rect x="550" y="79" width="10" height="10" rx="2" ry="2" fill="#ebedf0" />
<rect x="563" y="79" width="10" height="10" rx="2" ry="2" fill="#ebedf0" />
<rect x="576" y="79" width="10" height="10" rx="2" ry="2" fill="#ebedf0" />
<rect x="589" y="79" width="10" height="10" rx="2" ry="2" fill="#ebedf0" />
<rect x="602" y="79" width="10" height="10" rx="2" ry="2" fill="#ebedf0" />
<rect x="615" y="79" width="10" height="10" rx="2" ry="2" fill="#ebedf0" />
<rect x="628" y="79" width="10" height="10" rx="2" ry="2" fill="#ebedf0" />
<rect x="641" y="79" width="10" height="10" rx="2" ry="2" fill="#ebedf0" />
<rect x="654" y="79" width="10" height="10" rx="2" ry="2" fill="#ebedf0" />
<rect x="667" y="79" width="10" height="10" rx="2" ry="2" fill="#ebedf0" />
<rect x="680" y="79" width="10" height="10" rx="2" ry="2" fill="#ebedf0" />
<rect x="693" y="79" width="10" height="10" rx="2" ry="2" fill="#ebedf0" />
<rect x="706" y="79" width="10" height="10" rx="2" ry="2" fill="#ebedf0" />
<rect x="719" y="79" width="10" height="10" rx="2" ry="2" fill="#ebedf0" />
<rect x="732" y="79" width="10" height="10" rx="2" ry="2" fill="#ebedf0" />
<rect x="745" y="79" width="10" height="10" rx="2" ry="2" fill="#30a14e" />
<rect x="69" y="92" width="10" height="10" rx="2" ry="2" fill="#ebedf0" />
<rect x="82" y="92" width="10" height="10" rx="2" ry="2" fill="#ebedf0" />
<rect x="95" y="92" width="10" height="10" rx="2" ry="2" fill="#ebedf0" />
<rect x="108" y="92" width="10" height="10" rx="2" ry="2" fill="#ebedf0" />
<rect x="121" y="92" width="10" height="10" rx="2" ry="2" fill="#ebedf0" />
<rect x="134" y="92" width="10" height="10" rx="2" ry="2" fill="#ebedf0" />
<rect x="147" y="92" width="10" height="10" rx="2" ry="2" fill="#ebedf0" />
<rect x="160" y="92" width="10" height="10" rx="2" ry="2" fill="#ebedf0" />
<rect x="173" y="92" width="10" height="10" rx="2" ry="2" fill="#ebedf0" />
<rect x="186" y="92" width="10" height="10" rx="2" ry="2" fill="#ebedf0" />
<rect x="199" y="92" width="10" height="10" rx="2" ry="2" fill="#ebedf0" />
<rect x="212" y="92" width="10" height="10" rx="2" ry="2" fill="#ebedf0" />
<rect x="225" y="92" width="10" height="10" rx="2" ry="2" fill="#ebedf0" />
<rect x="238" y="92" width="10" height="10" rx="2" ry="2" fill="#ebedf0" />
<rect x="251" y="92" width="10" height="10" rx="2" ry="2" fill="#ebedf0" />
<rect x="264" y="92" width="10" height="10" rx="2" ry="2" fill="#ebedf0" />
<rect x="277" y="92" width="10" height="10" rx="2" ry="2" fill="#ebedf0" />
<rect x="290" y="92" width="10" height="10" rx="2" ry="2" fill="#ebedf0" />
<rect x="303" y="92" width="10" height="10" rx="2" ry="2" fill="#ebedf0" />
<rect x="316" y="92" width="10" height="10" rx="2" ry="2" fill="#ebedf0" />
<rect x="329" y="92" width="10" height="10" rx="2" ry="2" fill="#ebedf0" />
<rect x="342" y="92" width="10" height="10" rx="2" ry="2" fill="#ebedf0" />
<rect x="355" y="92" width="10" height="10" rx="2" ry="2" fill="#ebedf0" />
<rect x="368" y="92" width="10" height="10" rx="2" ry="2" fill="#ebedf0" />
<rect x="381" y="92" width="10" height="10" rx="2" ry="2" fill="#ebedf0" />
<rect x="394" y="92" width="10" height="10" rx="2" ry="2" fill="#ebedf0" />
<rect x="407" y="92" width="10" height="10" rx="2" ry="2" fill="#ebedf0" />
<rect x="420" y="92" width="10" height="10" rx="2" ry="2" fill="#ebedf0" />
<rect x="433" y="92" width="10" height="10" rx="2" ry="2" fill="#ebedf0" />
<rect x="446" y="92" width="10" height="10" rx="2" ry="2" fill="#ebedf0" />
<rect x="459" y="92" width="10" height="10" rx="2" ry="2" fill="#ebedf0" />
<rect x="472" y="92" width="10" height="10" rx="2" ry="2" fill="#ebedf0" />
<rect x="485" y="92" width="10" height="10" rx="2" ry="2" fill="#ebedf0" />
<rect x="498" y="92" width="10" height="10" rx="2" ry="2" fill="#ebedf0" />
<rect x="511" y="92" width="10" height="10" rx="2" ry="2" fill="#ebedf0" />
<rect x="524" y="92" width="10" height="10" rx="2" ry="2" fill="#ebedf0" />
<rect x="537" y="92" width="10" height="10" rx="2" ry="2" fill="#ebedf0" />
<rect x="550" y="92" width="10" height="10" rx="2" ry="2" fill="#ebedf0" />
<rect x="563" y="92" width="10" height="10" rx="2" ry="2" fill="#ebedf0" />
<rect x="576" y="92" width="10" height="10" rx="2" ry="2" fill="#ebedf0" />
<rect x="589" y="92" width="10" height="10" rx="2" ry="2" fill="#ebedf0" />
<rect x="602" y="92" width="10" height="10" rx="2" ry="2" fill="#ebedf0" />
<rect x="615" y="92" width="10" height="10" rx="2" ry="2" fill="#ebedf0" />
<rect x="628" y="92" width="10" height="10" rx="2" ry="2" fill="#ebedf0" />
<rect x="641" y="92" width="10" height="10" rx="2" ry="2" fill="#ebedf0" />
<rect x="654" y="92" width="10" height="10" rx="2" ry="2" fill="#ebedf0" />
<rect x="667" y="92" width="10" height="10" rx="2" ry="2" fill="#216e39" />
<rect x="680" y="92" width="10" height="10" rx="2" ry="2" fill="#ebedf0" />
<rect x="693" y="92" width="10" height="10" rx="2" ry="2" fill="#ebedf0" />
<rect x="706" y="92" width="10" height="10" rx="2" ry="2" fill="#9be9a8" />
<rect x="719" y="92" width="10" height="10" rx="2" ry="2" fill="#ebedf0" />
<rect x="732" y="92" width="10" height="10" rx="2" ry="2" fill="#ebedf0" />
<rect x="745" y="92" width="10" height="10" rx="2" ry="2" fill="#40c463" />
<rect x="69" y="105" width="10" height="10" rx="2" ry="2" fill="#ebedf0" />
<rect x="82" y="105" width="10" height="10" rx="2" ry="2" fill="#ebedf0" />
<rect x="95" y="105" width="10" height="10" rx="2" ry="2" fill="#ebedf0" />
<rect x="108" y="105" width="10" height="10" rx="2" ry="2" fill="#ebedf0" />
<rect x="121" y="105" width="10" height="10" rx="2" ry="2" fill="#ebedf0" />
<rect x="134" y="105" width="10" height="10" rx="2" ry="2" fill="#ebedf0" />
<rect x="147" y="105" width="10" height="10" rx="2" ry="2" fill="#ebedf0" />
<rect x="160" y="105" width="10" height="10" rx="2" ry="2" fill="#ebedf0" />
<rect x="173" y="105" width="10" height="10" rx="2" ry="2" fill="#ebedf0" />
<rect x="186" y="105" width="10" height="10" rx="2" ry="2" fill="#ebedf0" />
<rect x="199" y="105" width="10" height="10" rx="2" ry="2" fill="#ebedf0" />
<rect x="212" y="105" width="10" height="10" rx="2" ry="2" fill="#ebedf0" />
<rect x="225" y="105" width="10" height="10" rx="2" ry="2" fill="#ebedf0" />
<rect x="238" y="105" width="10" height="10" rx="2" ry="2" fill="#ebedf0" />
<rect x="251" y="105" width="10" height="10" rx="2" ry="2" fill="#ebedf0" />
<rect x="264" y="105" width="10" height="10" rx="2" ry="2" fill="#ebedf0" />
<rect x="277" y="105" width="10" height="10" rx="2" ry="2" fill="#ebedf0" />
<rect x="290" y="105" width="10" height="10" rx="2" ry="2" fill="#ebedf0" />
<rect x="303" y="105" width="10" height="10" rx="2" ry="2" fill="#ebedf0" />
<rect x="316" y="105" width="10" height="10" rx="2" ry="2" fill="#ebedf0" />
<rect x="329" y="105" width="10" height="10" rx="2" ry="2" fill="#ebedf0" />
<rect x="342" y="105" width="10" height="10" rx="2" ry="2" fill="#ebedf0" />
<rect x="355" y="105" width="10" height="10" rx="2" ry="2" fill="#ebedf0" />
<rect x="368" y="105" width="10" height="10" rx="2" ry="2" fill="#ebedf0" />
<rect x="381" y="105" width="10" height="10" rx="2" ry="2" fill="#ebedf0" />
<rect x="394" y="105" width="10" height="10" rx="2" ry="2" fill="#ebedf0" />
<rect x="407" y="105" width="10" height="10" rx="2" ry="2" fill="#ebedf0" />
<rect x="420" y="105" width="10" height="10" rx="2" ry="2" fill="#ebedf0" />
<rect x="433" y="105" width="10" height="10" rx="2" ry="2" fill="#ebedf0" />
<rect x="446" y="105" width="10" height="10" rx="2" ry="2" fill="#ebedf0" />
<rect x="459" y="105" width="10" height="10" rx="2" ry="2" fill="#ebedf0" />
<rect x="472" y="105" width="10" height="10" rx="2" ry="2" fill="#ebedf0" />
<rect x="485" y="105" width="10" height="10" rx="2" ry="2" fill="#ebedf0" />
<rect x="498" y="105" width="10" height="10" rx="2" ry="2" fill="#ebedf0" />
<rect x="511" y="105" width="10" height="10" rx="2" ry="2" fill="#ebedf0" />
<rect x="524" y="105" width="10" height="10" rx="2" ry="2" fill="#ebedf0" />
<rect x="537" y="105" width="10" height="10" rx="2" ry="2" fill="#ebedf0" />
<rect x="550" y="105" width="10" height="10" rx="2" ry="2" fill="#ebedf0" />
<rect x="563" y="105" width="10" height="10" rx="2" ry="2" fill="#ebedf0" />
<rect x="576" y="105" width="10" height="10" rx="2" ry="2" fill="#ebedf0" />
<rect x="589" y="105" width="10" height="10" rx="2" ry="2" fill="#ebedf0" />
<rect x="602" y="105" width="10" height="10" rx="2" ry="2" fill="#ebedf0" />
<rect x="615" y="105" width="10" height="10" rx="2" ry="2" fill="#ebedf0" />
<rect x="628" y="105" width="10" height="10" rx="2" ry="2" fill="#ebedf0" />
<rect x="641" y="105" width="10" height="10" rx="2" ry="2" fill="#ebedf0" />
<rect x="654" y="105" width="10" height="10" rx="2" ry="2" fill="#ebedf0" />
<rect x="667" y="105" width="10" height="10" rx="2" ry="2" fill="#ebedf0" />
<rect x="680" y="105" width="10" height="10" rx="2" ry="2" fill="#ebedf0" />
<rect x="693" y="105" width="10" height="10" rx="2" ry="2" fill="#ebedf0" />
<rect x="706" y="105" width="10" height="10" rx="2" ry="2" fill="#ebedf0" />
<rect x="719" y="105" width="10" height="10" rx="2" ry="2" fill="#9be9a8" />
<rect x="732" y="105" width="10" height="10" rx="2" ry="2" fill="#ebedf0" />
<rect x="745" y="105" width="10" height="10" rx="2" ry="2" fill="#ebedf0" />
<rect x="69" y="118" width="10" height="10" rx="2" ry="2" fill="#ebedf0" />
<rect x="82" y="118" width="10" height="10" rx="2" ry="2" fill="#9be9a8" />
<rect x="95" y="118" width="10" height="10" rx="2" ry="2" fill="#ebedf0" />
<rect x="108" y="118" width="10" height="10" rx="2" ry="2" fill="#ebedf0" />
<rect x="121" y="118" width="10" height="10" rx="2" ry="2" fill="#ebedf0" />
<rect x="134" y="118" width="10" height="10" rx="2" ry="2" fill="#ebedf0" />
<rect x="147" y="118" width="10" height="10" rx="2" ry="2" fill="#ebedf0" />
<rect x="160" y="118" width="10" height="10" rx="2" ry="2" fill="#ebedf0" />
<rect x="173" y="118" width="10" height="10" rx="2" ry="2" fill="#ebedf0" />
<rect x="186" y="118" width="10" height="10" rx="2" ry="2" fill="#ebedf0" />
<rect x="199" y="118" width="10" height="10" rx="2" ry="2" fill="#ebedf0" />
<rect x="212" y="118" width="10" height="10" rx="2" ry="2" fill="#ebedf0" />
<rect x="225" y="118" width="10" height="10" rx="2" ry="2" fill="#ebedf0" />
<rect x="238" y="118" width="10" height="10" rx="2" ry="2" fill="#ebedf0" />
<rect x="251" y="118" width="10" height="10" rx="2" ry="2" fill="#ebedf0" />
<rect x="264" y="118" width="10" height="10" rx="2" ry="2" fill="#ebedf0" />
<rect x="277" y="118" width="10" height="10" rx="2" ry="2" fill="#ebedf0" />
<rect x="290" y="118" width="10" height="10" rx="2" ry="2" fill="#ebedf0" />
<rect x="303" y="118" width="10" height="10" rx="2" ry="2" fill="#ebedf0" />
<rect x="316" y="118" width="10" height="10" rx="2" ry="2" fill="#ebedf0" />
<rect x="329" y="118" width="10" height="10" rx="2" ry="2" fill="#ebedf0" />
<rect x="342" y="118" width="10" height="10" rx="2" ry="2" fill="#ebedf0" />
<rect x="355" y="118" width="10" height="10" rx="2" ry="2" fill="#ebedf0" />
<rect x="368" y="118" width="10" height="10" rx="2" ry="2" fill="#ebedf0" />
<rect x="381" y="118" width="10" height="10" rx="2" ry="2" fill="#ebedf0" />
<rect x="394" y="118" width="10" height="10" rx="2" ry="2" fill="#ebedf0" />
<rect x="407" y="118" width="10" height="10" rx="2" ry="2" fill="#ebedf0" />
<rect x="420" y="118" width="10" height="10" rx="2" ry="2" fill="#ebedf0" />
<rect x="433" y="118" width="10" height="10" rx="2" ry="2" fill="#ebedf0" />
<rect x="446" y="118" width="10" height="10" rx="2" ry="2" fill="#ebedf0" />
<rect x="459" y="118" width="10" height="10" rx="2" ry="2" fill="#ebedf0" />
<rect x="472" y="118" width="10" height="10" rx="2" ry="2" fill="#ebedf0" />
<rect x="485" y="118" width="10" height="10" rx="2" ry="2" fill="#ebedf0" />
<rect x="498" y="118" width="10" height="10" rx="2" ry="2" fill="#ebedf0" />
<rect x="511" y="118" width="10" height="10" rx="2" ry="2" fill="#ebedf0" />
<rect x="524" y="118" width="10" height="10" rx="2" ry="2" fill="#ebedf0" />
<rect x="537" y="118" width="10" height="10" rx="2" ry="2" fill="#ebedf0" />
<rect x="550" y="118" width="10" height="10" rx="2" ry="2" fill="#ebedf0" />
<rect x="563" y="118" width="10" height="10" rx="2" ry="2" fill="#ebedf0" />
<rect x="576" y="118" width="10" height="10" rx="2" ry="2" fill="#ebedf0" />
<rect x="589" y="118" width="10" height="10" rx="2" ry="2" fill="#ebedf0" />
<rect x="602" y="118" width="10" height="10" rx="2" ry="2" fill="#ebedf0" />
<rect x="615" y="118" width="10" height="10" rx="2" ry="2" fill="#ebedf0" />
<rect x="628" y="118" width="10" height="10" rx="2" ry="2" fill="#ebedf0" />
<rect x="641" y="118" width="10" height="10" rx="2" ry="2" fill="#ebedf0" />
<rect x="654" y="118" width="10" height="10" rx="2" ry="2" fill="#ebedf0" />
<rect x="667" y="118" width="10" height="10" rx="2" ry="2" fill="#ebedf0" />
<rect x="680" y="118" width="10" height="10" rx="2" ry="2" fill="#ebedf0" />
<rect x="693" y="118" width="10" height="10" rx="2" ry="2" fill="#ebedf0" />
<rect x="706" y="118" width="10" height="10" rx="2" ry="2" fill="#9be9a8" />
<rect x="719" y="118" width="10" height="10" rx="2" ry="2" fill="#9be9a8" />
<rect x="732" y="118" width="10" height="10" rx="2" ry="2" fill="#ebedf0" />
<rect x="745" y="118" width="10" height="10" rx="2" ry="2" fill="#ebedf0" />
<rect x="69" y="131" width="10" height="10" rx="2" ry="2" fill="#ebedf0" />
<rect x="82" y="131" width="10" height="10" rx="2" ry="2" fill="#ebedf0" />
<rect x="95" y="131" width="10" height="10" rx="2" ry="2" fill="#ebedf0" />
<rect x="108" y="131" width="10" height="10" rx="2" ry="2" fill="#ebedf0" />
<rect x="121" y="131" width="10" height="10" rx="2" ry="2" fill="#ebedf0" />
<rect x="134" y="131" width="10" height="10" rx="2" ry="2" fill="#ebedf0" />
<rect x="147" y="131" width="10" height="10" rx="2" ry="2" fill="#ebedf0" />
<rect x="160" y="131" width="10" height="10" rx="2" ry="2" fill="#ebedf0" />
<rect x="173" y="131" width="10" height="10" rx="2" ry="2" fill="#ebedf0" />
<rect x="186" y="131" width="10" height="10" rx="2" ry="2" fill="#ebedf0" />
<rect x="199" y="131" width="10" height="10" rx="2" ry="2" fill="#ebedf0" />
<rect x="212" y="131" width="10" height="10" rx="2" ry="2" fill="#ebedf0" />
<rect x="225" y="131" width="10" height="10" rx="2" ry="2" fill="#ebedf0" />
<rect x="238" y="131" width="10" height="10" rx="2" ry="2" fill="#ebedf0" />
<rect x="251" y="131" width="10" height="10" rx="2" ry="2" fill="#ebedf0" />
<rect x="264" y="131" width="10" height="10" rx="2" ry="2" fill="#ebedf0" />
<rect x="277" y="131" width="10" height="10" rx="2" ry="2" fill="#ebedf0" />
<rect x="290" y="131" width="10" height="10" rx="2" ry="2" fill="#ebedf0" />
<rect x="303" y="131" width="10" height="10" rx="2" ry="2" fill="#ebedf0" />
<rect x="316" y="131" width="10" height="10" rx="2" ry="2" fill="#ebedf0" />
<rect x="329" y="131" width="10" height="10" rx="2" ry="2" fill="#ebedf0" />
<rect x="342" y="131" width="10" height="10" rx="2" ry="2" fill="#ebedf0" />
<rect x="355" y="131" width="10" height="10" rx="2" ry="2" fill="#ebedf0" />
<rect x="368" y="131" width="10" height="10" rx="2" ry="2" fill="#ebedf0" />
<rect x="381" y="131" width="10" height="10" rx="2" ry="2" fill="#ebedf0" />
<rect x="394" y="131" width="10" height="10" rx="2" ry="2" fill="#ebedf0" />
<rect x="407" y="131" width="10" height="10" rx="2" ry="2" fill="#ebedf0" />
<rect x="420" y="131" width="10" height="10" rx="2" ry="2" fill="#ebedf0" />
<rect x="433" y="131" width="10" height="10" rx="2" ry="2" fill="#ebedf0" />
<rect x="446" y="131" width="10" height="10" rx="2" ry="2" fill="#ebedf0" />
<rect x="459" y="131" width="10" height="10" rx="2" ry="2" fill="#ebedf0" />
<rect x="472" y="131" width="10" height="10" rx="2" ry="2" fill="#ebedf0" />
<rect x="485" y="131" width="10" height="10" rx="2" ry="2" fill="#ebedf0" />
<rect x="498" y="131" width="10" height="10" rx="2" ry="2" fill="#ebedf0" />
<rect x="511" y="131" width="10" height="10" rx="2" ry="2" fill="#ebedf0" />
<rect x="524" y="131" width="10" height="10" rx="2" ry="2" fill="#ebedf0" />
<rect x="537" y="131" width="10" height="10" rx="2" ry="2" fill="#ebedf0" />
<rect x="550" y="131" width="10" height="10" rx="2" ry="2" fill="#ebedf0" />
<rect x="563" y="131" width="10" height="10" rx="2" ry="2" fill="#ebedf0" />
<rect x="576" y="131" width="10" height="10" rx="2" ry="2" fill="#ebedf0" />
<rect x="589" y="131" width="10" height="10" rx="2" ry="2" fill="#ebedf0" />
<rect x="602" y="131" width="10" height="10" rx="2" ry="2" fill="#ebedf0" />
<rect x="615" y="131" width="10" height="10" rx="2" ry="2" fill="#ebedf0" />
<rect x="628" y="131" width="10" height="10" rx="2" ry="2" fill="#ebedf0" />
<rect x="641" y="131" width="10" height="10" rx="2" ry="2" fill="#ebedf0" />
<rect x="654" y="131" width="10" height="10" rx="2" ry="2" fill="#ebedf0" />
<rect x="667" y="131" width="10" height="10" rx="2" ry="2" fill="#ebedf0" />
<rect x="680" y="131" width="10" height="10" rx="2" ry="2" fill="#ebedf0" />
<rect x="693" y="131" width="10" height="10" rx="2" ry="2" fill="#ebedf0" />
<rect x="706" y="131" width="10" height="10" rx="2" ry="2" fill="#9be9a8" />
<rect x="719" y="131" width="10" height="10" rx="2" ry="2" fill="#ebedf0" />
<rect x="732" y="131" width="10" height="10" rx="2" ry="2" fill="#9be9a8" />
<rect x="745" y="131" width="10" height="10" rx="2" ry="2" fill="#9be9a8" />
<rect x="69" y="144" width="10" height="10" rx="2" ry="2" fill="#ebedf0" />
<rect x="82" y="144" width="10" height="10" rx="2" ry="2" fill="#ebedf0" />
<rect x="95" y="144" width="10" height="10" rx="2" ry="2" fill="#ebedf0" />
<rect x="108" y="144" width="10" height="10" rx="2" ry="2" fill="#ebedf0" />
<rect x="121" y="144" width="10" height="10" rx="2" ry="2" fill="#ebedf0" />
<rect x="134" y="144" width="10" height="10" rx="2" ry="2" fill="#ebedf0" />
<rect x="147" y="144" width="10" height="10" rx="2" ry="2" fill="#ebedf0" />
<rect x="160" y="144" width="10" height="10" rx="2" ry="2" fill="#ebedf0" />
<rect x="173" y="144" width="10" height="10" rx="2" ry="2" fill="#ebedf0" />
<rect x="186" y="144" width="10" height="10" rx="2" ry="2" fill="#ebedf0" />
<rect x="199" y="144" width="10" height="10" rx="2" ry="2" fill="#ebedf0" />
<rect x="212" y="144" width="10" height="10" rx="2" ry="2" fill="#ebedf0" />
<rect x="225" y="144" width="10" height="10" rx="2" ry="2" fill="#ebedf0" />
<rect x="238" y="144" width="10" height="10" rx="2" ry="2" fill="#ebedf0" />
<rect x="251" y="144" width="10" height="10" rx="2" ry="2" fill="#ebedf0" />
<rect x="264" y="144" width="10" height="10" rx="2" ry="2" fill="#ebedf0" />
<rect x="277" y="144" width="10" height="10" rx="2" ry="2" fill="#ebedf0" />
<rect x="290" y="144" width="10" height="10" rx="2" ry="2" fill="#ebedf0" />
<rect x="303" y="144" width="10" height="10" rx="2" ry="2" fill="#ebedf0" />
<rect x="316" y="144" width="10" height="10" rx="2" ry="2" fill="#ebedf0" />
<rect x="329" y="144" width="10" height="10" rx="2" ry="2" fill="#ebedf0" />
<rect x="342" y="144" width="10" height="10" rx="2" ry="2" fill="#ebedf0" />
<rect x="355" y="144" width="10" height="10" rx="2" ry="2" fill="#ebedf0" />
<rect x="368" y="144" width="10" height="10" rx="2" ry="2" fill="#ebedf0" />
<rect x="381" y="144" width="10" height="10" rx="2" ry="2" fill="#ebedf0" />
<rect x="394" y="144" width="10" height="10" rx="2" ry="2" fill="#ebedf0" />
<rect x="407" y="144" width="10" height="10" rx="2" ry="2" fill="#ebedf0" />
<rect x="420" y="144" width="10" height="10" rx="2" ry="2" fill="#ebedf0" />
<rect x="433" y="144" width="10" height="10" rx="2" ry="2" fill="#ebedf0" />
<rect x="446" y="144" width="10" height="10" rx="2" ry="2" fill="#ebedf0" />
<rect x="459" y="144" width="10" height="10" rx="2" ry="2" fill="#ebedf0" />
<rect x="472" y="144" width="10" height="10" rx="2" ry="2" fill="#ebedf0" />
<rect x="485" y="144" width="10" height="10" rx="2" ry="2" fill="#ebedf0" />
<rect x="498" y="144" width="10" height="10" rx="2" ry="2" fill="#ebedf0" />
<rect x="511" y="144" width="10" height="10" rx="2" ry="2" fill="#ebedf0" />
<rect x="524" y="144" width="10" height="10" rx="2" ry="2" fill="#ebedf0" />
<rect x="537" y="144" width="10" height="10" rx="2" ry="2" fill="#ebedf0" />
<rect x="550" y="144" width="10" height="10" rx="2" ry="2" fill="#ebedf0" />
<rect x="563" y="144" width="10" height="10" rx="2" ry="2" fill="#ebedf0" />
<rect x="576" y="144" width="10" height="10" rx="2" ry="2" fill="#ebedf0" />
<rect x="589" y="144" width="10" height="10" rx="2" ry="2" fill="#ebedf0" />
<rect x="602" y="144" width="10" height="10" rx="2" ry="2" fill="#ebedf0" />
<rect x="615" y="144" width="10" height="10" rx="2" ry="2" fill="#ebedf0" />
<rect x="628" y="144" width="10" height="10" rx="2" ry="2" fill="#216e39" />
<rect x="641" y="144" width="10" height="10" rx="2" ry="2" fill="#ebedf0" />
<rect x="654" y="144" width="10" height="10" rx="2" ry="2" fill="#ebedf0" />
<rect x="667" y="144" width="10" height="10" rx="2" ry="2" fill="#ebedf0" />
<rect x="680" y="144" width="10" height="10" rx="2" ry="2" fill="#ebedf0" />
<rect x="693" y="144" width="10" height="10" rx="2" ry="2" fill="#ebedf0" />
<rect x="706" y="144" width="10" height="10" rx="2" ry="2" fill="#9be9a8" />
<rect x="719" y="144" width="10" height="10" rx="2" ry="2" fill="#ebedf0" />
<rect x="732" y="144" width="10" height="10" rx="2" ry="2" fill="#ebedf0" />
<rect x="745" y="144" width="10" height="10" rx="2" ry="2" fill="#216e39" />
<g opacity="0">
<set attributeName="opacity" to="1" begin="0.150s" dur="0.001s" fill="freeze" />
<set attributeName="opacity" to="0" begin="0.700s" dur="0.001s" fill="freeze" />
<animateTransform attributeName="transform" type="translate" begin="0.150s" dur="0.550s" fill="freeze" values="693 40; 641 40; 641 66" keyTimes="0;0.35;1" calcMode="linear" />
<rect x="0" y="0" width="10" height="10" rx="2" ry="2" fill="#0969da" />
</g>
<g opacity="0">
<set attributeName="opacity" to="1" begin="0.800s" dur="0.001s" fill="freeze" />
<set attributeName="opacity" to="0" begin="1.350s" dur="0.001s" fill="freeze" />
<animateTransform attributeName="transform" type="translate" begin="0.800s" dur="0.550s" fill="freeze" values="693 40; 745 40; 745 66" keyTimes="0;0.35;1" calcMode="linear" />
<rect x="0" y="0" width="10" height="10" rx="2" ry="2" fill="#8250df" />
</g>
<g opacity="0">
<set attributeName="opacity" to="1" begin="1.450s" dur="0.001s" fill="freeze" />
<set attributeName="opacity" to="0" begin="2.000s" dur="0.001s" fill="freeze" />
<animateTransform attributeName="transform" type="translate" begin="1.450s" dur="0.550s" fill="freeze" values="693 40; 745 40; 745 79" keyTimes="0;0.35;1" calcMode="linear" />
<rect x="0" y="0" width="10" height="10" rx="2" ry="2" fill="#bc4c00" />
</g>
<g opacity="0">
<set attributeName="opacity" to="1" begin="2.100s" dur="0.001s" fill="freeze" />
<set attributeName="opacity" to="0" begin="2.650s" dur="0.001s" fill="freeze" />
<animateTransform attributeName="transform" type="translate" begin="2.100s" dur="0.550s" fill="freeze" values="719 40; 667 40; 667 92" keyTimes="0;0.35;1" calcMode="linear" />
<rect x="0" y="0" width="10" height="10" rx="2" ry="2" fill="#cf222e" />
</g>
<g opacity="0">
<set attributeName="opacity" to="1" begin="2.750s" dur="0.001s" fill="freeze" />
<set attributeName="opacity" to="0" begin="3.300s" dur="0.001s" fill="freeze" />
<animateTransform attributeName="transform" type="translate" begin="2.750s" dur="0.550s" fill="freeze" values="745 40; 706 40; 706 92" keyTimes="0;0.35;1" calcMode="linear" />
<rect x="0" y="0" width="10" height="10" rx="2" ry="2" fill="#218bff" />
</g>
<g opacity="0">
<set attributeName="opacity" to="1" begin="3.400s" dur="0.001s" fill="freeze" />
<set attributeName="opacity" to="0" begin="3.950s" dur="0.001s" fill="freeze" />
<animateTransform attributeName="transform" type="translate" begin="3.400s" dur="0.550s" fill="freeze" values="745 40; 745 40; 745 92" keyTimes="0;0.35;1" calcMode="linear" />
<rect x="0" y="0" width="10" height="10" rx="2" ry="2" fill="#bf3989" />
</g>
<g opacity="0">
<set attributeName="opacity" to="1" begin="4.050s" dur="0.001s" fill="freeze" />
<set attributeName="opacity" to="0" begin="4.600s" dur="0.001s" fill="freeze" />
<animateTransform attributeName="transform" type="translate" begin="4.050s" dur="0.550s" fill="freeze" values="745 40; 719 40; 719 105" keyTimes="0;0.35;1" calcMode="linear" />
<rect x="0" y="0" width="10" height="10" rx="2" ry="2" fill="#9a6700" />
</g>
<g opacity="0">
<set attributeName="opacity" to="1" begin="4.700s" dur="0.001s" fill="freeze" />
<set attributeName="opacity" to="0" begin="5.250s" dur="0.001s" fill="freeze" />
<animateTransform attributeName="transform" type="translate" begin="4.700s" dur="0.550s" fill="freeze" values="69 40; 82 40; 82 118" keyTimes="0;0.35;1" calcMode="linear" />
<rect x="0" y="0" width="10" height="10" rx="2" ry="2" fill="#1a7f37" />
</g>
<g opacity="0">
<set attributeName="opacity" to="1" begin="5.350s" dur="0.001s" fill="freeze" />
<set attributeName="opacity" to="0" begin="5.900s" dur="0.001s" fill="freeze" />
<animateTransform attributeName="transform" type="translate" begin="5.350s" dur="0.550s" fill="freeze" values="680 40; 732 40; 732 131" keyTimes="0;0.35;1" calcMode="linear" />
<rect x="0" y="0" width="10" height="10" rx="2" ry="2" fill="#0969da" />
</g>
<g opacity="0">
<set attributeName="opacity" to="1" begin="6.000s" dur="0.001s" fill="freeze" />
<set attributeName="opacity" to="0" begin="6.550s" dur="0.001s" fill="freeze" />
<animateTransform attributeName="transform" type="translate" begin="6.000s" dur="0.550s" fill="freeze" values="745 40; 745 40; 745 131" keyTimes="0;0.35;1" calcMode="linear" />
<rect x="0" y="0" width="10" height="10" rx="2" ry="2" fill="#8250df" />
</g>
<g opacity="0">
<set attributeName="opacity" to="1" begin="6.650s" dur="0.001s" fill="freeze" />
<set attributeName="opacity" to="0" begin="7.200s" dur="0.001s" fill="freeze" />
<animateTransform attributeName="transform" type="translate" begin="6.650s" dur="0.550s" fill="freeze" values="576 40; 628 40; 628 144" keyTimes="0;0.35;1" calcMode="linear" />
<rect x="0" y="0" width="10" height="10" rx="2" ry="2" fill="#bc4c00" />
</g>
<g opacity="0">
<set attributeName="opacity" to="1" begin="7.300s" dur="0.001s" fill="freeze" />
<set attributeName="opacity" to="0" begin="7.850s" dur="0.001s" fill="freeze" />
<animateTransform attributeName="transform" type="translate" begin="7.300s" dur="0.550s" fill="freeze" values="706 14; 706 14; 706 118" keyTimes="0;0.35;1" calcMode="linear" />
<rect x="0" y="0" width="10" height="10" rx="2" ry="2" fill="#cf222e" />
<rect x="0" y="13" width="10" height="10" rx="2" ry="2" fill="#cf222e" />
<rect x="0" y="26" width="10" height="10" rx="2" ry="2" fill="#cf222e" />
<rect x="13" y="0" width="10" height="10" rx="2" ry="2" fill="#cf222e" />
</g>
<g opacity="0">
<set attributeName="opacity" to="1" begin="7.950s" dur="0.001s" fill="freeze" />
<set attributeName="opacity" to="0" begin="8.500s" dur="0.001s" fill="freeze" />
<animateTransform attributeName="transform" type="translate" begin="7.950s" dur="0.550s" fill="freeze" values="693 40; 745 40; 745 144" keyTimes="0;0.35;1" calcMode="linear" />
<rect x="0" y="0" width="10" height="10" rx="2" ry="2" fill="#218bff" />
</g>
<text x="66" y="176" fill="#57606a" font-family="-apple-system,BlinkMacSystemFont,'Segoe UI',Helvetica,Arial,sans-serif,'Apple Color Emoji','Segoe UI Emoji'" font-size="11" font-weight="400" text-anchor="start" dominant-baseline="alphabetic">Learn how we count contributions</text>
<text x="633" y="176" fill="#24292f" font-family="-apple-system,BlinkMacSystemFont,'Segoe UI',Helvetica,Arial,sans-serif,'Apple Color Emoji','Segoe UI Emoji'" font-size="11" font-weight="400" text-anchor="end" dominant-baseline="alphabetic">Less</text>
<rect x="641" y="166" width="10" height="10" rx="2" ry="2" fill="#ebedf0" />
<rect x="654" y="166" width="10" height="10" rx="2" ry="2" fill="#9be9a8" />
<rect x="667" y="166" width="10" height="10" rx="2" ry="2" fill="#40c463" />
<rect x="680" y="166" width="10" height="10" rx="2" ry="2" fill="#30a14e" />
<rect x="693" y="166" width="10" height="10" rx="2" ry="2" fill="#216e39" />
<text x="710" y="176" fill="#24292f" font-family="-apple-system,BlinkMacSystemFont,'Segoe UI',Helvetica,Arial,sans-serif,'Apple Color Emoji','Segoe UI Emoji'" font-size="11" font-weight="400" text-anchor="start" dominant-baseline="alphabetic">More</text>
<metadata>{"username":"Treenixie","active_cells":16,"pieces":13,"timeline":8.850}</metadata>
</svg>