<svg xmlns="http://www.w3.org/2000/svg" width="660.0" height="70.0" viewBox="0 0 660.0 70.0">
<rect x="0" y="0" width="660.0" height="70.0" rx="0" ry="0" fill="#0d1117" />
<defs>
<clipPath id="grid-clip-live-dark"><rect x="0" y="10" width="660.0" height="50.0" rx="0" ry="0" /></clipPath>
</defs>
<rect x="0.0" y="10.0" width="10" height="5" rx="1" ry="1" fill="#161b22" />
<rect x="12.5" y="10.0" width="10" height="5" rx="1" ry="1" fill="#161b22" />
<rect x="25.0" y="10.0" width="10" height="5" rx="1" ry="1" fill="#161b22" />
<rect x="37.5" y="10.0" width="10" height="5" rx="1" ry="1" fill="#161b22" />
<rect x="50.0" y="10.0" width="10" height="5" rx="1" ry="1" fill="#161b22" />
<rect x="62.5" y="10.0" width="10" height="5" rx="1" ry="1" fill="#161b22" />
<rect x="75.0" y="10.0" width="10" height="5" rx="1" ry="1" fill="#161b22" />
<rect x="87.5" y="10.0" width="10" height="5" rx="1" ry="1" fill="#161b22" />
<rect x="100.0" y="10.0" width="10" height="5" rx="1" ry="1" fill="#161b22" />
<rect x="112.5" y="10.0" width="10" height="5" rx="1" ry="1" fill="#161b22" />
<rect x="125.0" y="10.0" width="10" height="5" rx="1" ry="1" fill="#161b22" />
<rect x="137.5" y="10.0" width="10" height="5" rx="1" ry="1" fill="#161b22" />
<rect x="150.0" y="10.0" width="10" height="5" rx="1" ry="1" fill="#161b22" />
<rect x="162.5" y="10.0" width="10" height="5" rx="1" ry="1" fill="#161b22" />
<rect x="175.0" y="10.0" width="10" height="5" rx="1" ry="1" fill="#161b22" />
<rect x="187.5" y="10.0" width="10" height="5" rx="1" ry="1" fill="#161b22" />
<rect x="200.0" y="10.0" width="10" height="5" rx="1" ry="1" fill="#161b22" />
<rect x="212.5" y="10.0" width="10" height="5" rx="1" ry="1" fill="#161b22" />
<rect x="225.0" y="10.0" width="10" height="5" rx="1" ry="1" fill="#161b22" />
<rect x="237.5" y="10.0" width="10" height="5" rx="1" ry="1" fill="#161b22" />
<rect x="250.0" y="10.0" width="10" height="5" rx="1" ry="1" fill="#161b22" />
<rect x="262.5" y="10.0" width="10" height="5" rx="1" ry="1" fill="#161b22" />
<rect x="275.0" y="10.0" width="10" height="5" rx="1" ry="1" fill="#161b22" />
<rect x="287.5" y="10.0" width="10" height="5" rx="1" ry="1" fill="#161b22" />
<rect x="300.0" y="10.0" width="10" height="5" rx="1" ry="1" fill="#161b22" />
<rect x="312.5" y="10.0" width="10" height="5" rx="1" ry="1" fill="#161b22" />
<rect x="325.0" y="10.0" width="10" height="5" rx="1" ry="1" fill="#161b22" />
<rect x="337.5" y="10.0" width="10" height="5" rx="1" ry="1" fill="#161b22" />
<rect x="350.0" y="10.0" width="10" height="5" rx="1" ry="1" fill="#161b22" />
<rect x="362.5" y="10.0" width="10" height="5" rx="1" ry="1" fill="#161b22" />
<rect x="375.0" y="10.0" width="10" height="5" rx="1" ry="1" fill="#161b22" />
<rect x="387.5" y="10.0" width="10" height="5" rx="1" ry="1" fill="#161b22" />
<rect x="400.0" y="10.0" width="10" height="5" rx="1" ry="1" fill="#161b22" />
<rect x="412.5" y="10.0" width="10" height="5" rx="1" ry="1" fill="#161b22" />
<rect x="425.0" y="10.0" width="10" height="5" rx="1" ry="1" fill="#161b22" />
<rect x="437.5" y="10.0" width="10" height="5" rx="1" ry="1" fill="#161b22" />
<rect x="450.0" y="10.0" width="10" height="5" rx="1" ry="1" fill="#161b22" />
<rect x="462.5" y="10.0" width="10" height="5" rx="1" ry="1" fill="#161b22" />
<rect x="475.0" y="10.0" width="10" height="5" rx="1" ry="1" fill="#161b22" />
<rect x="487.5" y="10.0" width="10" height="5" rx="1" ry="1" fill="#161b22" />
<rect x="500.0" y="10.0" width="10" height="5" rx="1" ry="1" fill="#161b22" />
<rect x="512.5" y="10.0" width="10" height="5" rx="1" ry="1" fill="#161b22" />
<rect x="525.0" y="10.0" width="10" height="5" rx="1" ry="1" fill="#161b22" />
<rect x="537.5" y="10.0" width="10" height="5" rx="1" ry="1" fill="#161b22" />
<rect x="550.0" y="10.0" width="10" height="5" rx="1" ry="1" fill="#161b22" />
<rect x="562.5" y="10.0" width="10" height="5" rx="1" ry="1" fill="#161b22" />
<rect x="575.0" y="10.0" width="10" height="5" rx="1" ry="1" fill="#161b22" />
<rect x="587.5" y="10.0" width="10" height="5" rx="1" ry="1" fill="#161b22" />
<rect x="600.0" y="10.0" width="10" height="5" rx="1" ry="1" fill="#161b22" />
<rect x="612.5" y="10.0" width="10" height="5" rx="1" ry="1" fill="#161b22" />
<rect x="625.0" y="10.0" width="10" height="5" rx="1" ry="1" fill="#161b22" />
<rect x="637.5" y="10.0" width="10" height="5" rx="1" ry="1" fill="#161b22" />
<rect x="650.0" y="10.0" width="10" height="5" rx="1" ry="1" fill="#161b22" />
<rect x="0.0" y="17.5" width="10" height="5" rx="1" ry="1" fill="#161b22" />
<rect x="12.5" y="17.5" width="10" height="5" rx="1" ry="1" fill="#161b22" />
<rect x="25.0" y="17.5" width="10" height="5" rx="1" ry="1" fill="#161b22" />
<rect x="37.5" y="17.5" width="10" height="5" rx="1" ry="1" fill="#161b22" />
<rect x="50.0" y="17.5" width="10" height="5" rx="1" ry="1" fill="#161b22" />
<rect x="62.5" y="17.5" width="10" height="5" rx="1" ry="1" fill="#161b22" />
<rect x="75.0" y="17.5" width="10" height="5" rx="1" ry="1" fill="#161b22" />
<rect x="87.5" y="17.5" width="10" height="5" rx="1" ry="1" fill="#161b22" />
<rect x="100.0" y="17.5" width="10" height="5" rx="1" ry="1" fill="#161b22" />
<rect x="112.5" y="17.5" width="10" height="5" rx="1" ry="1" fill="#161b22" />
<rect x="125.0" y="17.5" width="10" height="5" rx="1" ry="1" fill="#161b22" />
<rect x="137.5" y="17.5" width="10" height="5" rx="1" ry="1" fill="#161b22" />
<rect x="150.0" y="17.5" width="10" height="5" rx="1" ry="1" fill="#161b22" />
<rect x="162.5" y="17.5" width="10" height="5" rx="1" ry="1" fill="#161b22" />
<rect x="175.0" y="17.5" width="10" height="5" rx="1" ry="1" fill="#161b22" />
<rect x="187.5" y="17.5" width="10" height="5" rx="1" ry="1" fill="#161b22" />
<rect x="200.0" y="17.5" width="10" height="5" rx="1" ry="1" fill="#161b22" />
<rect x="212.5" y="17.5" width="10" height="5" rx="1" ry="1" fill="#161b22" />
<rect x="225.0" y="17.5" width="10" height="5" rx="1" ry="1" fill="#161b22" />
<rect x="237.5" y="17.5" width="10" height="5" rx="1" ry="1" fill="#161b22" />
<rect x="250.0" y="17.5" width="10" height="5" rx="1" ry="1" fill="#161b22" />
<rect x="262.5" y="17.5" width="10" height="5" rx="1" ry="1" fill="#161b22" />
<rect x="275.0" y="17.5" width="10" height="5" rx="1" ry="1" fill="#161b22" />
<rect x="287.5" y="17.5" width="10" height="5" rx="1" ry="1" fill="#161b22" />
<rect x="300.0" y="17.5" width="10" height="5" rx="1" ry="1" fill="#161b22" />
<rect x="312.5" y="17.5" width="10" height="5" rx="1" ry="1" fill="#161b22" />
<rect x="325.0" y="17.5" width="10" height="5" rx="1" ry="1" fill="#161b22" />
<rect x="337.5" y="17.5" width="10" height="5" rx="1" ry="1" fill="#161b22" />
<rect x="350.0" y="17.5" width="10" height="5" rx="1" ry="1" fill="#161b22" />
<rect x="362.5" y="17.5" width="10" height="5" rx="1" ry="1" fill="#161b22" />
<rect x="375.0" y="17.5" width="10" height="5" rx="1" ry="1" fill="#161b22" />
<rect x="387.5" y="17.5" width="10" height="5" rx="1" ry="1" fill="#161b22" />
<rect x="400.0" y="17.5" width="10" height="5" rx="1" ry="1" fill="#161b22" />
<rect x="412.5" y="17.5" width="10" height="5" rx="1" ry="1" fill="#161b22" />
<rect x="425.0" y="17.5" width="10" height="5" rx="1" ry="1" fill="#161b22" />
<rect x="437.5" y="17.5" width="10" height="5" rx="1" ry="1" fill="#161b22" />
<rect x="450.0" y="17.5" width="10" height="5" rx="1" ry="1" fill="#161b22" />
<rect x="462.5" y="17.5" width="10" height="5" rx="1" ry="1" fill="#161b22" />
<rect x="475.0" y="17.5" width="10" height="5" rx="1" ry="1" fill="#161b22" />
<rect x="487.5" y="17.5" width="10" height="5" rx="1" ry="1" fill="#161b22" />
<rect x="500.0" y="17.5" width="10" height="5" rx="1" ry="1" fill="#161b22" />
<rect x="512.5" y="17.5" width="10" height="5" rx="1" ry="1" fill="#161b22" />
<rect x="525.0" y="17.5" width="10" height="5" rx="1" ry="1" fill="#161b22" />
<rect x="537.5" y="17.5" width="10" height="5" rx="1" ry="1" fill="#161b22" />
<rect x="550.0" y="17.5" width="10" height="5" rx="1" ry="1" fill="#161b22" />
<rect x="562.5" y="17.5" width="10" height="5" rx="1" ry="1" fill="#161b22" />
<rect x="575.0" y="17.5" width="10" height="5" rx="1" ry="1" fill="#161b22" />
<rect x="587.5" y="17.5" width="10" height="5" rx="1" ry="1" fill="#161b22" />
<rect x="600.0" y="17.5" width="10" height="5" rx="1" ry="1" fill="#161b22" />
<rect x="612.5" y="17.5" width="10" height="5" rx="1" ry="1" fill="#161b22" />
<rect x="625.0" y="17.5" width="10" height="5" rx="1" ry="1" fill="#161b22" />
<rect x="637.5" y="17.5" width="10" height="5" rx="1" ry="1" fill="#161b22" />
<rect x="650.0" y="17.5" width="10" height="5" rx="1" ry="1" fill="#161b22" />
<rect x="0.0" y="25.0" width="10" height="5" rx="1" ry="1" fill="#161b22" />
<rect x="12.5" y="25.0" width="10" height="5" rx="1" ry="1" fill="#161b22" />
<rect x="25.0" y="25.0" width="10" height="5" rx="1" ry="1" fill="#161b22" />
<rect x="37.5" y="25.0" width="10" height="5" rx="1" ry="1" fill="#161b22" />
<rect x="50.0" y="25.0" width="10" height="5" rx="1" ry="1" fill="#161b22" />
<rect x="62.5" y="25.0" width="10" height="5" rx="1" ry="1" fill="#161b22" />
<rect x="75.0" y="25.0" width="10" height="5" rx="1" ry="1" fill="#161b22" />
<rect x="87.5" y="25.0" width="10" height="5" rx="1" ry="1" fill="#161b22" />
<rect x="100.0" y="25.0" width="10" height="5" rx="1" ry="1" fill="#161b22" />
<rect x="112.5" y="25.0" width="10" height="5" rx="1" ry="1" fill="#161b22" />
<rect x="125.0" y="25.0" width="10" height="5" rx="1" ry="1" fill="#161b22" />
<rect x="137.5" y="25.0" width="10" height="5" rx="1" ry="1" fill="#161b22" />
<rect x="150.0" y="25.0" width="10" height="5" rx="1" ry="1" fill="#161b22" />
<rect x="162.5" y="25.0" width="10" height="5" rx="1" ry="1" fill="#161b22" />
<rect x="175.0" y="25.0" width="10" height="5" rx="1" ry="1" fill="#161b22" />
<rect x="187.5" y="25.0" width="10" height="5" rx="1" ry="1" fill="#161b22" />
<rect x="200.0" y="25.0" width="10" height="5" rx="1" ry="1" fill="#161b22" />
<rect x="212.5" y="25.0" width="10" height="5" rx="1" ry="1" fill="#161b22" />
<rect x="225.0" y="25.0" width="10" height="5" rx="1" ry="1" fill="#161b22" />
<rect x="237.5" y="25.0" width="10" height="5" rx="1" ry="1" fill="#161b22" />
<rect x="250.0" y="25.0" width="10" height="5" rx="1" ry="1" fill="#161b22" />
<rect x="262.5" y="25.0" width="10" height="5" rx="1" ry="1" fill="#161b22" />
<rect x="275.0" y="25.0" width="10" height="5" rx="1" ry="1" fill="#161b22" />
<rect x="287.5" y="25.0" width="10" height="5" rx="1" ry="1" fill="#161b22" />
<rect x="300.0" y="25.0" width="10" height="5" rx="1" ry="1" fill="#161b22" />
<rect x="312.5" y="25.0" width="10" height="5" rx="1" ry="1" fill="#161b22" />
<rect x="325.0" y="25.0" width="10" height="5" rx="1" ry="1" fill="#161b22" />
<rect x="337.5" y="25.0" width="10" height="5" rx="1" ry="1" fill="#161b22" />
<rect x="350.0" y="25.0" width="10" height="5" rx="1" ry="1" fill="#161b22" />
<rect x="362.5" y="25.0" width="10" height="5" rx="1" ry="1" fill="#161b22" />
<rect x="375.0" y="25.0" width="10" height="5" rx="1" ry="1" fill="#161b22" />
<rect x="387.5" y="25.0" width="10" height="5" rx="1" ry="1" fill="#161b22" />
<rect x="400.0" y="25.0" width="10" height="5" rx="1" ry="1" fill="#161b22" />
<rect x="412.5" y="25.0" width="10" height="5" rx="1" ry="1" fill="#161b22" />
<rect x="425.0" y="25.0" width="10" height="5" rx="1" ry="1" fill="#161b22" />
<rect x="437.5" y="25.0" width="10" height="5" rx="1" ry="1" fill="#161b22" />
<rect x="450.0" y="25.0" width="10" height="5" rx="1" ry="1" fill="#161b22" />
<rect x="462.5" y="25.0" width="10" height="5" rx="1" ry="1" fill="#161b22" />
<rect x="475.0" y="25.0" width="10" height="5" rx="1" ry="1" fill="#161b22" />
<rect x="487.5" y="25.0" width="10" height="5" rx="1" ry="1" fill="#161b22" />
<rect x="500.0" y="25.0" width="10" height="5" rx="1" ry="1" fill="#161b22" />
<rect x="512.5" y="25.0" width="10" height="5" rx="1" ry="1" fill="#161b22" />
<rect x="525.0" y="25.0" width="10" height="5" rx="1" ry="1" fill="#161b22" />
<rect x="537.5" y="25.0" width="10" height="5" rx="1" ry="1" fill="#161b22" />
<rect x="550.0" y="25.0" width="10" height="5" rx="1" ry="1" fill="#161b22" />
<rect x="562.5" y="25.0" width="10" height="5" rx="1" ry="1" fill="#161b22" />
<rect x="575.0" y="25.0" width="10" height="5" rx="1" ry="1" fill="#161b22" />
<rect x="587.5" y="25.0" width="10" height="5" rx="1" ry="1" fill="#161b22" />
<rect x="600.0" y="25.0" width="10" height="5" rx="1" ry="1" fill="#161b22" />
<rect x="612.5" y="25.0" width="10" height="5" rx="1" ry="1" fill="#161b22" />
<rect x="625.0" y="25.0" width="10" height="5" rx="1" ry="1" fill="#161b22" />
<rect x="637.5" y="25.0" width="10" height="5" rx="1" ry="1" fill="#161b22" />
<rect x="650.0" y="25.0" width="10" height="5" rx="1" ry="1" fill="#161b22" />
<rect x="0.0" y="32.5" width="10" height="5" rx="1" ry="1" fill="#161b22" />
<rect x="12.5" y="32.5" width="10" height="5" rx="1" ry="1" fill="#161b22" />
<rect x="25.0" y="32.5" width="10" height="5" rx="1" ry="1" fill="#161b22" />
<rect x="37.5" y="32.5" width="10" height="5" rx="1" ry="1" fill="#161b22" />
<rect x="50.0" y="32.5" width="10" height="5" rx="1" ry="1" fill="#161b22" />
<rect x="62.5" y="32.5" width="10" height="5" rx="1" ry="1" fill="#161b22" />
<rect x="75.0" y="32.5" width="10" height="5" rx="1" ry="1" fill="#161b22" />
<rect x="87.5" y="32.5" width="10" height="5" rx="1" ry="1" fill="#161b22" />
<rect x="100.0" y="32.5" width="10" height="5" rx="1" ry="1" fill="#161b22" />
<rect x="112.5" y="32.5" width="10" height="5" rx="1" ry="1" fill="#161b22" />
<rect x="125.0" y="32.5" width="10" height="5" rx="1" ry="1" fill="#161b22" />
<rect x="137.5" y="32.5" width="10" height="5" rx="1" ry="1" fill="#161b22" />
<rect x="150.0" y="32.5" width="10" height="5" rx="1" ry="1" fill="#161b22" />
<rect x="162.5" y="32.5" width="10" height="5" rx="1" ry="1" fill="#161b22" />
<rect x="175.0" y="32.5" width="10" height="5" rx="1" ry="1" fill="#161b22" />
<rect x="187.5" y="32.5" width="10" height="5" rx="1" ry="1" fill="#161b22" />
<rect x="200.0" y="32.5" width="10" height="5" rx="1" ry="1" fill="#161b22" />
<rect x="212.5" y="32.5" width="10" height="5" rx="1" ry="1" fill="#161b22" />
<rect x="225.0" y="32.5" width="10" height="5" rx="1" ry="1" fill="#161b22" />
<rect x="237.5" y="32.5" width="10" height="5" rx="1" ry="1" fill="#161b22" />
<rect x="250.0" y="32.5" width="10" height="5" rx="1" ry="1" fill="#161b22" />
<rect x="262.5" y="32.5" width="10" height="5" rx="1" ry="1" fill="#161b22" />
<rect x="275.0" y="32.5" width="10" height="5" rx="1" ry="1" fill="#161b22" />
<rect x="287.5" y="32.5" width="10" height="5" rx="1" ry="1" fill="#161b22" />
<rect x="300.0" y="32.5" width="10" height="5" rx="1" ry="1" fill="#161b22" />
<rect x="312.5" y="32.5" width="10" height="5" rx="1" ry="1" fill="#161b22" />
<rect x="325.0" y="32.5" width="10" height="5" rx="1" ry="1" fill="#161b22" />
<rect x="337.5" y="32.5" width="10" height="5" rx="1" ry="1" fill="#161b22" />
<rect x="350.0" y="32.5" width="10" height="5" rx="1" ry="1" fill="#161b22" />
<rect x="362.5" y="32.5" width="10" height="5" rx="1" ry="1" fill="#161b22" />
<rect x="375.0" y="32.5" width="10" height="5" rx="1" ry="1" fill="#161b22" />
<rect x="387.5" y="32.5" width="10" height="5" rx="1" ry="1" fill="#161b22" />
<rect x="400.0" y="32.5" width="10" height="5" rx="1" ry="1" fill="#161b22" />
<rect x="412.5" y="32.5" width="10" height="5" rx="1" ry="1" fill="#161b22" />
<rect x="425.0" y="32.5" width="10" height="5" rx="1" ry="1" fill="#161b22" />
<rect x="437.5" y="32.5" width="10" height="5" rx="1" ry="1" fill="#161b22" />
<rect x="450.0" y="32.5" width="10" height="5" rx="1" ry="1" fill="#161b22" />
<rect x="462.5" y="32.5" width="10" height="5" rx="1" ry="1" fill="#161b22" />
<rect x="475.0" y="32.5" width="10" height="5" rx="1" ry="1" fill="#161b22" />
<rect x="487.5" y="32.5" width="10" height="5" rx="1" ry="1" fill="#161b22" />
<rect x="500.0" y="32.5" width="10" height="5" rx="1" ry="1" fill="#161b22" />
<rect x="512.5" y="32.5" width="10" height="5" rx="1" ry="1" fill="#161b22" />
<rect x="525.0" y="32.5" width="10" height="5" rx="1" ry="1" fill="#161b22" />
<rect x="537.5" y="32.5" width="10" height="5" rx="1" ry="1" fill="#161b22" />
<rect x="550.0" y="32.5" width="10" height="5" rx="1" ry="1" fill="#161b22" />
<rect x="562.5" y="32.5" width="10" height="5" rx="1" ry="1" fill="#161b22" />
<rect x="575.0" y="32.5" width="10" height="5" rx="1" ry="1" fill="#161b22" />
<rect x="587.5" y="32.5" width="10" height="5" rx="1" ry="1" fill="#161b22" />
<rect x="600.0" y="32.5" width="10" height="5" rx="1" ry="1" fill="#161b22" />
<rect x="612.5" y="32.5" width="10" height="5" rx="1" ry="1" fill="#161b22" />
<rect x="625.0" y="32.5" width="10" height="5" rx="1" ry="1" fill="#161b22" />
<rect x="637.5" y="32.5" width="10" height="5" rx="1" ry="1" fill="#161b22" />
<rect x="650.0" y="32.5" width="10" height="5" rx="1" ry="1" fill="#161b22" />
<rect x="0.0" y="40.0" width="10" height="5" rx="1" ry="1" fill="#161b22" />
<rect x="12.5" y="40.0" width="10" height="5" rx="1" ry="1" fill="#161b22" />
<rect x="25.0" y="40.0" width="10" height="5" rx="1" ry="1" fill="#161b22" />
<rect x="37.5" y="40.0" width="10" height="5" rx="1" ry="1" fill="#161b22" />
<rect x="50.0" y="40.0" width="10" height="5" rx="1" ry="1" fill="#161b22" />
<rect x="62.5" y="40.0" width="10" height="5" rx="1" ry="1" fill="#161b22" />
<rect x="75.0" y="40.0" width="10" height="5" rx="1" ry="1" fill="#161b22" />
<rect x="87.5" y="40.0" width="10" height="5" rx="1" ry="1" fill="#161b22" />
<rect x="100.0" y="40.0" width="10" height="5" rx="1" ry="1" fill="#161b22" />
<rect x="112.5" y="40.0" width="10" height="5" rx="1" ry="1" fill="#161b22" />
<rect x="125.0" y="40.0" width="10" height="5" rx="1" ry="1" fill="#161b22" />
<rect x="137.5" y="40.0" width="10" height="5" rx="1" ry="1" fill="#161b22" />
<rect x="150.0" y="40.0" width="10" height="5" rx="1" ry="1" fill="#161b22" />
<rect x="162.5" y="40.0" width="10" height="5" rx="1" ry="1" fill="#161b22" />
<rect x="175.0" y="40.0" width="10" height="5" rx="1" ry="1" fill="#161b22" />
<rect x="187.5" y="40.0" width="10" height="5" rx="1" ry="1" fill="#161b22" />
<rect x="200.0" y="40.0" width="10" height="5" rx="1" ry="1" fill="#161b22" />
<rect x="212.5" y="40.0" width="10" height="5" rx="1" ry="1" fill="#161b22" />
<rect x="225.0" y="40.0" width="10" height="5" rx="1" ry="1" fill="#161b22" />
<rect x="237.5" y="40.0" width="10" height="5" rx="1" ry="1" fill="#161b22" />
<rect x="250.0" y="40.0" width="10" height="5" rx="1" ry="1" fill="#161b22" />
<rect x="262.5" y="40.0" width="10" height="5" rx="1" ry="1" fill="#161b22" />
<rect x="275.0" y="40.0" width="10" height="5" rx="1" ry="1" fill="#161b22" />
<rect x="287.5" y="40.0" width="10" height="5" rx="1" ry="1" fill="#161b22" />
<rect x="300.0" y="40.0" width="10" height="5" rx="1" ry="1" fill="#161b22" />
<rect x="312.5" y="40.0" width="10" height="5" rx="1" ry="1" fill="#161b22" />
<rect x="325.0" y="40.0" width="10" height="5" rx="1" ry="1" fill="#161b22" />
<rect x="337.5" y="40.0" width="10" height="5" rx="1" ry="1" fill="#161b22" />
<rect x="350.0" y="40.0" width="10" height="5" rx="1" ry="1" fill="#161b22" />
<rect x="362.5" y="40.0" width="10" height="5" rx="1" ry="1" fill="#161b22" />
<rect x="375.0" y="40.0" width="10" height="5" rx="1" ry="1" fill="#161b22" />
<rect x="387.5" y="40.0" width="10" height="5" rx="1" ry="1" fill="#161b22" />
<rect x="400.0" y="40.0" width="10" height="5" rx="1" ry="1" fill="#161b22" />
<rect x="412.5" y="40.0" width="10" height="5" rx="1" ry="1" fill="#161b22" />
<rect x="425.0" y="40.0" width="10" height="5" rx="1" ry="1" fill="#161b22" />
<rect x="437.5" y="40.0" width="10" height="5" rx="1" ry="1" fill="#161b22" />
<rect x="450.0" y="40.0" width="10" height="5" rx="1" ry="1" fill="#161b22" />
<rect x="462.5" y="40.0" width="10" height="5" rx="1" ry="1" fill="#161b22" />
<rect x="475.0" y="40.0" width="10" height="5" rx="1" ry="1" fill="#161b22" />
<rect x="487.5" y="40.0" width="10" height="5" rx="1" ry="1" fill="#161b22" />
<rect x="500.0" y="40.0" width="10" height="5" rx="1" ry="1" fill="#161b22" />
<rect x="512.5" y="40.0" width="10" height="5" rx="1" ry="1" fill="#161b22" />
<rect x="525.0" y="40.0" width="10" height="5" rx="1" ry="1" fill="#161b22" />
<rect x="537.5" y="40.0" width="10" height="5" rx="1" ry="1" fill="#161b22" />
<rect x="550.0" y="40.0" width="10" height="5" rx="1" ry="1" fill="#161b22" />
<rect x="562.5" y="40.0" width="10" height="5" rx="1" ry="1" fill="#161b22" />
<rect x="575.0" y="40.0" width="10" height="5" rx="1" ry="1" fill="#161b22" />
<rect x="587.5" y="40.0" width="10" height="5" rx="1" ry="1" fill="#161b22" />
<rect x="600.0" y="40.0" width="10" height="5" rx="1" ry="1" fill="#161b22" />
<rect x="612.5" y="40.0" width="10" height="5" rx="1" ry="1" fill="#161b22" />
<rect x="625.0" y="40.0" width="10" height="5" rx="1" ry="1" fill="#161b22" />
<rect x="637.5" y="40.0" width="10" height="5" rx="1" ry="1" fill="#161b22" />
<rect x="650.0" y="40.0" width="10" height="5" rx="1" ry="1" fill="#161b22" />
<rect x="0.0" y="47.5" width="10" height="5" rx="1" ry="1" fill="#161b22" />
<rect x="12.5" y="47.5" width="10" height="5" rx="1" ry="1" fill="#161b22" />
<rect x="25.0" y="47.5" width="10" height="5" rx="1" ry="1" fill="#161b22" />
<rect x="37.5" y="47.5" width="10" height="5" rx="1" ry="1" fill="#161b22" />
<rect x="50.0" y="47.5" width="10" height="5" rx="1" ry="1" fill="#161b22" />
<rect x="62.5" y="47.5" width="10" height="5" rx="1" ry="1" fill="#161b22" />
<rect x="75.0" y="47.5" width="10" height="5" rx="1" ry="1" fill="#161b22" />
<rect x="87.5" y="47.5" width="10" height="5" rx="1" ry="1" fill="#161b22" />
<rect x="100.0" y="47.5" width="10" height="5" rx="1" ry="1" fill="#161b22" />
<rect x="112.5" y="47.5" width="10" height="5" rx="1" ry="1" fill="#161b22" />
<rect x="125.0" y="47.5" width="10" height="5" rx="1" ry="1" fill="#161b22" />
<rect x="137.5" y="47.5" width="10" height="5" rx="1" ry="1" fill="#161b22" />
<rect x="150.0" y="47.5" width="10" height="5" rx="1" ry="1" fill="#161b22" />
<rect x="162.5" y="47.5" width="10" height="5" rx="1" ry="1" fill="#161b22" />
<rect x="175.0" y="47.5" width="10" height="5" rx="1" ry="1" fill="#161b22" />
<rect x="187.5" y="47.5" width="10" height="5" rx="1" ry="1" fill="#161b22" />
<rect x="200.0" y="47.5" width="10" height="5" rx="1" ry="1" fill="#161b22" />
<rect x="212.5" y="47.5" width="10" height="5" rx="1" ry="1" fill="#161b22" />
<rect x="225.0" y="47.5" width="10" height="5" rx="1" ry="1" fill="#161b22" />
<rect x="237.5" y="47.5" width="10" height="5" rx="1" ry="1" fill="#161b22" />
<rect x="250.0" y="47.5" width="10" height="5" rx="1" ry="1" fill="#161b22" />
<rect x="262.5" y="47.5" width="10" height="5" rx="1" ry="1" fill="#161b22" />
<rect x="275.0" y="47.5" width="10" height="5" rx="1" ry="1" fill="#161b22" />
<rect x="287.5" y="47.5" width="10" height="5" rx="1" ry="1" fill="#161b22" />
<rect x="300.0" y="47.5" width="10" height="5" rx="1" ry="1" fill="#161b22" />
<rect x="312.5" y="47.5" width="10" height="5" rx="1" ry="1" fill="#161b22" />
<rect x="325.0" y="47.5" width="10" height="5" rx="1" ry="1" fill="#161b22" />
<rect x="337.5" y="47.5" width="10" height="5" rx="1" ry="1" fill="#161b22" />
<rect x="350.0" y="47.5" width="10" height="5" rx="1" ry="1" fill="#161b22" />
<rect x="362.5" y="47.5" width="10" height="5" rx="1" ry="1" fill="#161b22" />
<rect x="375.0" y="47.5" width="10" height="5" rx="1" ry="1" fill="#161b22" />
<rect x="387.5" y="47.5" width="10" height="5" rx="1" ry="1" fill="#161b22" />
<rect x="400.0" y="47.5" width="10" height="5" rx="1" ry="1" fill="#161b22" />
<rect x="412.5" y="47.5" width="10" height="5" rx="1" ry="1" fill="#161b22" />
<rect x="425.0" y="47.5" width="10" height="5" rx="1" ry="1" fill="#161b22" />
<rect x="437.5" y="47.5" width="10" height="5" rx="1" ry="1" fill="#161b22" />
<rect x="450.0" y="47.5" width="10" height="5" rx="1" ry="1" fill="#161b22" />
<rect x="462.5" y="47.5" width="10" height="5" rx="1" ry="1" fill="#161b22" />
<rect x="475.0" y="47.5" width="10" height="5" rx="1" ry="1" fill="#161b22" />
<rect x="487.5" y="47.5" width="10" height="5" rx="1" ry="1" fill="#161b22" />
<rect x="500.0" y="47.5" width="10" height="5" rx="1" ry="1" fill="#161b22" />
<rect x="512.5" y="47.5" width="10" height="5" rx="1" ry="1" fill="#161b22" />
<rect x="525.0" y="47.5" width="10" height="5" rx="1" ry="1" fill="#161b22" />
<rect x="537.5" y="47.5" width="10" height="5" rx="1" ry="1" fill="#161b22" />
<rect x="550.0" y="47.5" width="10" height="5" rx="1" ry="1" fill="#161b22" />
<rect x="562.5" y="47.5" width="10" height="5" rx="1" ry="1" fill="#161b22" />
<rect x="575.0" y="47.5" width="10" height="5" rx="1" ry="1" fill="#161b22" />
<rect x="587.5" y="47.5" width="10" height="5" rx="1" ry="1" fill="#161b22" />
<rect x="600.0" y="47.5" width="10" height="5" rx="1" ry="1" fill="#161b22" />
<rect x="612.5" y="47.5" width="10" height="5" rx="1" ry="1" fill="#161b22" />
<rect x="625.0" y="47.5" width="10" height="5" rx="1" ry="1" fill="#161b22" />
<rect x="637.5" y="47.5" width="10" height="5" rx="1" ry="1" fill="#161b22" />
<rect x="650.0" y="47.5" width="10" height="5" rx="1" ry="1" fill="#161b22" />
<rect x="0.0" y="55.0" width="10" height="5" rx="1" ry="1" fill="#161b22" />
<rect x="12.5" y="55.0" width="10" height="5" rx="1" ry="1" fill="#161b22" />
<rect x="25.0" y="55.0" width="10" height="5" rx="1" ry="1" fill="#161b22" />
<rect x="37.5" y="55.0" width="10" height="5" rx="1" ry="1" fill="#161b22" />
<rect x="50.0" y="55.0" width="10" height="5" rx="1" ry="1" fill="#161b22" />
<rect x="62.5" y="55.0" width="10" height="5" rx="1" ry="1" fill="#161b22" />
<rect x="75.0" y="55.0" width="10" height="5" rx="1" ry="1" fill="#161b22" />
<rect x="87.5" y="55.0" width="10" height="5" rx="1" ry="1" fill="#161b22" />
<rect x="100.0" y="55.0" width="10" height="5" rx="1" ry="1" fill="#161b22" />
<rect x="112.5" y="55.0" width="10" height="5" rx="1" ry="1" fill="#161b22" />
<rect x="125.0" y="55.0" width="10" height="5" rx="1" ry="1" fill="#161b22" />
<rect x="137.5" y="55.0" width="10" height="5" rx="1" ry="1" fill="#161b22" />
<rect x="150.0" y="55.0" width="10" height="5" rx="1" ry="1" fill="#161b22" />
<rect x="162.5" y="55.0" width="10" height="5" rx="1" ry="1" fill="#161b22" />
<rect x="175.0" y="55.0" width="10" height="5" rx="1" ry="1" fill="#161b22" />
<rect x="187.5" y="55.0" width="10" height="5" rx="1" ry="1" fill="#161b22" />
<rect x="200.0" y="55.0" width="10" height="5" rx="1" ry="1" fill="#161b22" />
<rect x="212.5" y="55.0" width="10" height="5" rx="1" ry="1" fill="#161b22" />
<rect x="225.0" y="55.0" width="10" height="5" rx="1" ry="1" fill="#161b22" />
<rect x="237.5" y="55.0" width="10" height="5" rx="1" ry="1" fill="#161b22" />
<rect x="250.0" y="55.0" width="10" height="5" rx="1" ry="1" fill="#161b22" />
<rect x="262.5" y="55.0" width="10" height="5" rx="1" ry="1" fill="#161b22" />
<rect x="275.0" y="55.0" width="10" height="5" rx="1" ry="1" fill="#161b22" />
<rect x="287.5" y="55.0" width="10" height="5" rx="1" ry="1" fill="#161b22" />
<rect x="300.0" y="55.0" width="10" height="5" rx="1" ry="1" fill="#161b22" />
<rect x="312.5" y="55.0" width="10" height="5" rx="1" ry="1" fill="#161b22" />
<rect x="325.0" y="55.0" width="10" height="5" rx="1" ry="1" fill="#161b22" />
<rect x="337.5" y="55.0" width="10" height="5" rx="1" ry="1" fill="#161b22" />
<rect x="350.0" y="55.0" width="10" height="5" rx="1" ry="1" fill="#161b22" />
<rect x="362.5" y="55.0" width="10" height="5" rx="1" ry="1" fill="#161b22" />
<rect x="375.0" y="55.0" width="10" height="5" rx="1" ry="1" fill="#161b22" />
<rect x="387.5" y="55.0" width="10" height="5" rx="1" ry="1" fill="#161b22" />
<rect x="400.0" y="55.0" width="10" height="5" rx="1" ry="1" fill="#161b22" />
<rect x="412.5" y="55.0" width="10" height="5" rx="1" ry="1" fill="#161b22" />
<rect x="425.0" y="55.0" width="10" height="5" rx="1" ry="1" fill="#161b22" />
<rect x="437.5" y="55.0" width="10" height="5" rx="1" ry="1" fill="#161b22" />
<rect x="450.0" y="55.0" width="10" height="5" rx="1" ry="1" fill="#161b22" />
<rect x="462.5" y="55.0" width="10" height="5" rx="1" ry="1" fill="#161b22" />
<rect x="475.0" y="55.0" width="10" height="5" rx="1" ry="1" fill="#161b22" />
<rect x="487.5" y="55.0" width="10" height="5" rx="1" ry="1" fill="#161b22" />
<rect x="500.0" y="55.0" width="10" height="5" rx="1" ry="1" fill="#161b22" />
<rect x="512.5" y="55.0" width="10" height="5" rx="1" ry="1" fill="#161b22" />
<rect x="525.0" y="55.0" width="10" height="5" rx="1" ry="1" fill="#161b22" />
<rect x="537.5" y="55.0" width="10" height="5" rx="1" ry="1" fill="#161b22" />
<rect x="550.0" y="55.0" width="10" height="5" rx="1" ry="1" fill="#161b22" />
<rect x="562.5" y="55.0" width="10" height="5" rx="1" ry="1" fill="#161b22" />
<rect x="575.0" y="55.0" width="10" height="5" rx="1" ry="1" fill="#161b22" />
<rect x="587.5" y="55.0" width="10" height="5" rx="1" ry="1" fill="#161b22" />
<rect x="600.0" y="55.0" width="10" height="5" rx="1" ry="1" fill="#161b22" />
<rect x="612.5" y="55.0" width="10" height="5" rx="1" ry="1" fill="#161b22" />
<rect x="625.0" y="55.0" width="10" height="5" rx="1" ry="1" fill="#161b22" />
<rect x="637.5" y="55.0" width="10" height="5" rx="1" ry="1" fill="#161b22" />
<rect x="650.0" y="55.0" width="10" height="5" rx="1" ry="1" fill="#161b22" />
<g clip-path="url(#grid-clip-live-dark)">
<g transform="translate(300.0 10.0)">
<animateTransform attributeName="transform" type="translate" additive="sum" dur="22.693s" repeatCount="indefinite" calcMode="linear" values="0.0 -15.0;0.0 -15.0;0.0 -15.0;0 0;0 0;0 67.0;0 67.0" keyTimes="0;0.007932;0.013793;0.024677;0.951527;0.991187;1" />
<rect x="0.0" y="0.0" width="10" height="5" rx="1" ry="1" fill="#7f6a9e" />
</g>
<g transform="translate(600.0 10.0)">
<animateTransform attributeName="transform" type="translate" additive="sum" dur="22.693s" repeatCount="indefinite" calcMode="linear" values="0.0 -22.5;0.0 -22.5;0.0 -15.0;0 0;0 0;0 67.0;0 67.0" keyTimes="0;0.028202;0.034063;0.044947;0.951527;0.991187;1" />
<rect x="0.0" y="0.0" width="10" height="5" rx="1" ry="1" fill="#64552e" />
<rect x="12.5" y="0.0" width="10" height="5" rx="1" ry="1" fill="#897033" />
</g>
<g transform="translate(412.5 10.0)">
<animateTransform attributeName="transform" type="translate" additive="sum" dur="22.693s" repeatCount="indefinite" calcMode="linear" values="-37.5 -30.0;-37.5 -30.0;0.0 -15.0;0 0;0 0;0 67.0;0 67.0" keyTimes="0;0.048473;0.054333;0.065218;0.951527;0.991187;1" />
<rect x="0.0" y="0.0" width="10" height="5" rx="1" ry="1" fill="#47a8b0" />
<rect x="0.0" y="7.5" width="10" height="5" rx="1" ry="1" fill="#2e6169" />
<rect x="12.5" y="0.0" width="10" height="5" rx="1" ry="1" fill="#2e6169" />
</g>
<g transform="translate(437.5 10.0)">
<animateTransform attributeName="transform" type="translate" additive="sum" dur="22.693s" repeatCount="indefinite" calcMode="linear" values="37.5 -30.0;37.5 -30.0;0.0 -15.0;0 0;0 0;0 67.0;0 67.0" keyTimes="0;0.068743;0.074604;0.085488;0.951527;0.991187;1" />
<rect x="0.0" y="0.0" width="10" height="5" rx="1" ry="1" fill="#6f3f40" />
<rect x="12.5" y="0.0" width="10" height="5" rx="1" ry="1" fill="#6f3f40" />
<rect x="12.5" y="7.5" width="10" height="5" rx="1" ry="1" fill="#6f3f40" />
<rect x="25.0" y="0.0" width="10" height="5" rx="1" ry="1" fill="#6f3f40" />
</g>
<g transform="translate(487.5 10.0)">
<animateTransform attributeName="transform" type="translate" additive="sum" dur="22.693s" repeatCount="indefinite" calcMode="linear" values="-37.5 -22.5;-37.5 -22.5;0.0 -15.0;0 0;0 0;0 67.0;0 67.0" keyTimes="0;0.089013;0.094874;0.105759;0.951527;0.991187;1" />
<rect x="0.0" y="0.0" width="10" height="5" rx="1" ry="1" fill="#6f3f40" />
<rect x="0.0" y="7.5" width="10" height="5" rx="1" ry="1" fill="#6f3f40" />
</g>
<g transform="translate(537.5 10.0)">
<animateTransform attributeName="transform" type="translate" additive="sum" dur="22.693s" repeatCount="indefinite" calcMode="linear" values="0.0 -22.5;0.0 -22.5;0.0 -15.0;0 0;0 0;0 67.0;0 67.0" keyTimes="0;0.109284;0.115145;0.126029;0.951527;0.991187;1" />
<rect x="0.0" y="0.0" width="10" height="5" rx="1" ry="1" fill="#6a5e3a" />
<rect x="0.0" y="7.5" width="10" height="5" rx="1" ry="1" fill="#917e45" />
<rect x="12.5" y="7.5" width="10" height="5" rx="1" ry="1" fill="#eec85f" />
<rect x="25.0" y="7.5" width="10" height="5" rx="1" ry="1" fill="#917e45" />
</g>
<g transform="translate(550.0 10.0)">
<animateTransform attributeName="transform" type="translate" additive="sum" dur="22.693s" repeatCount="indefinite" calcMode="linear" values="-37.5 -22.5;-37.5 -22.5;0.0 -15.0;0 0;0 0;0 67.0;0 67.0" keyTimes="0;0.129554;0.135415;0.146299;0.951527;0.991187;1" />
<rect x="0.0" y="0.0" width="10" height="5" rx="1" ry="1" fill="#c7645f" />
<rect x="12.5" y="0.0" width="10" height="5" rx="1" ry="1" fill="#6f3f40" />
<rect x="25.0" y="0.0" width="10" height="5" rx="1" ry="1" fill="#6f3f40" />
<rect x="25.0" y="7.5" width="10" height="5" rx="1" ry="1" fill="#98514f" />
</g>
<g transform="translate(637.5 10.0)">
<animateTransform attributeName="transform" type="translate" additive="sum" dur="22.693s" repeatCount="indefinite" calcMode="linear" values="12.5 -30.0;12.5 -30.0;0.0 -15.0;0 0;0 0;0 67.0;0 67.0" keyTimes="0;0.149825;0.155685;0.166570;0.951527;0.991187;1" />
<rect x="0.0" y="0.0" width="10" height="5" rx="1" ry="1" fill="#2e6169" />
<rect x="0.0" y="7.5" width="10" height="5" rx="1" ry="1" fill="#3a838b" />
</g>
<g transform="translate(325.0 25.0)">
<animateTransform attributeName="transform" type="translate" additive="sum" dur="22.693s" repeatCount="indefinite" calcMode="linear" values="37.5 -37.5;37.5 -37.5;0.0 -22.5;0 0;0 0;0 67.0;0 67.0" keyTimes="0;0.170095;0.177220;0.190454;0.951527;0.991187;1" />
<rect x="0.0" y="0.0" width="10" height="5" rx="1" ry="1" fill="#6f5036" />
</g>
<g transform="translate(400.0 10.0)">
<animateTransform attributeName="transform" type="translate" additive="sum" dur="22.693s" repeatCount="indefinite" calcMode="linear" values="37.5 -37.5;37.5 -37.5;0.0 -15.0;0 0;0 0;0 67.0;0 67.0" keyTimes="0;0.193979;0.201104;0.214337;0.951527;0.991187;1" />
<rect x="0.0" y="0.0" width="10" height="5" rx="1" ry="1" fill="#43644a" />
<rect x="0.0" y="7.5" width="10" height="5" rx="1" ry="1" fill="#59875d" />
<rect x="0.0" y="15.0" width="10" height="5" rx="1" ry="1" fill="#43644a" />
</g>
<g transform="translate(512.5 10.0)">
<animateTransform attributeName="transform" type="translate" additive="sum" dur="22.693s" repeatCount="indefinite" calcMode="linear" values="-37.5 -30.0;-37.5 -30.0;0.0 -15.0;0 0;0 0;0 67.0;0 67.0" keyTimes="0;0.217863;0.223723;0.234608;0.951527;0.991187;1" />
<rect x="0.0" y="0.0" width="10" height="5" rx="1" ry="1" fill="#a586ca" />
<rect x="12.5" y="0.0" width="10" height="5" rx="1" ry="1" fill="#5d5176" />
<rect x="12.5" y="7.5" width="10" height="5" rx="1" ry="1" fill="#7f6a9e" />
<rect x="12.5" y="15.0" width="10" height="5" rx="1" ry="1" fill="#a586ca" />
</g>
<g transform="translate(587.5 17.5)">
<animateTransform attributeName="transform" type="translate" additive="sum" dur="22.693s" repeatCount="indefinite" calcMode="linear" values="37.5 -30.0;37.5 -30.0;0.0 -15.0;0 0;0 0;0 67.0;0 67.0" keyTimes="0;0.238133;0.243994;0.254878;0.951527;0.991187;1" />
<rect x="0.0" y="0.0" width="10" height="5" rx="1" ry="1" fill="#6f5036" />
<rect x="12.5" y="0.0" width="10" height="5" rx="1" ry="1" fill="#986940" />
<rect x="12.5" y="7.5" width="10" height="5" rx="1" ry="1" fill="#6f5036" />
<rect x="25.0" y="0.0" width="10" height="5" rx="1" ry="1" fill="#986940" />
</g>
<g transform="translate(512.5 17.5)">
<animateTransform attributeName="transform" type="translate" additive="sum" dur="22.693s" repeatCount="indefinite" calcMode="linear" values="-37.5 -37.5;-37.5 -37.5;0.0 -15.0;0 0;0 0;0 67.0;0 67.0" keyTimes="0;0.258403;0.265529;0.278762;0.951527;0.991187;1" />
<rect x="0.0" y="0.0" width="10" height="5" rx="1" ry="1" fill="#43644a" />
<rect x="0.0" y="7.5" width="10" height="5" rx="1" ry="1" fill="#59875d" />
<rect x="0.0" y="15.0" width="10" height="5" rx="1" ry="1" fill="#59875d" />
<rect x="12.5" y="15.0" width="10" height="5" rx="1" ry="1" fill="#43644a" />
</g>
<g transform="translate(537.5 32.5)">
<animateTransform attributeName="transform" type="translate" additive="sum" dur="22.693s" repeatCount="indefinite" calcMode="linear" values="37.5 -37.5;37.5 -37.5;0.0 -30.0;0 0;0 0;0 67.0;0 67.0" keyTimes="0;0.282287;0.289413;0.302646;0.951527;0.991187;1" />
<rect x="0.0" y="0.0" width="10" height="5" rx="1" ry="1" fill="#b28f3a" />
</g>
<g transform="translate(537.5 25.0)">
<animateTransform attributeName="transform" type="translate" additive="sum" dur="22.693s" repeatCount="indefinite" calcMode="linear" values="25.0 -37.5;25.0 -37.5;0.0 -22.5;0 0;0 0;0 67.0;0 67.0" keyTimes="0;0.306171;0.313296;0.326530;0.951527;0.991187;1" />
<rect x="0.0" y="0.0" width="10" height="5" rx="1" ry="1" fill="#77bdfb" />
<rect x="12.5" y="0.0" width="10" height="5" rx="1" ry="1" fill="#3c5a76" />
<rect x="25.0" y="0.0" width="10" height="5" rx="1" ry="1" fill="#3c5a76" />
<rect x="25.0" y="7.5" width="10" height="5" rx="1" ry="1" fill="#3c5a76" />
</g>
<g transform="translate(637.5 25.0)">
<animateTransform attributeName="transform" type="translate" additive="sum" dur="22.693s" repeatCount="indefinite" calcMode="linear" values="-25.0 -37.5;-25.0 -37.5;0.0 -22.5;0 0;0 0;0 67.0;0 67.0" keyTimes="0;0.330055;0.337180;0.350413;0.951527;0.991187;1" />
<rect x="0.0" y="0.0" width="10" height="5" rx="1" ry="1" fill="#3c5a76" />
<rect x="0.0" y="7.5" width="10" height="5" rx="1" ry="1" fill="#3c5a76" />
<rect x="12.5" y="0.0" width="10" height="5" rx="1" ry="1" fill="#3c5a76" />
<rect x="12.5" y="7.5" width="10" height="5" rx="1" ry="1" fill="#3c5a76" />
</g>
<g transform="translate(375.0 40.0)">
<animateTransform attributeName="transform" type="translate" additive="sum" dur="22.693s" repeatCount="indefinite" calcMode="linear" values="-37.5 -52.5;-37.5 -52.5;0.0 -37.5;0 0;0 0;0 67.0;0 67.0" keyTimes="0;0.353939;0.363914;0.382441;0.951527;0.991187;1" />
<rect x="0.0" y="0.0" width="10" height="5" rx="1" ry="1" fill="#43644a" />
</g>
<g transform="translate(425.0 40.0)">
<animateTransform attributeName="transform" type="translate" additive="sum" dur="22.693s" repeatCount="indefinite" calcMode="linear" values="37.5 -52.5;37.5 -52.5;0.0 -37.5;0 0;0 0;0 67.0;0 67.0" keyTimes="0;0.385966;0.395942;0.414468;0.951527;0.991187;1" />
<rect x="0.0" y="0.0" width="10" height="5" rx="1" ry="1" fill="#64552e" />
</g>
<g transform="translate(450.0 25.0)">
<animateTransform attributeName="transform" type="translate" additive="sum" dur="22.693s" repeatCount="indefinite" calcMode="linear" values="-37.5 -45.0;-37.5 -45.0;0.0 -22.5;0 0;0 0;0 67.0;0 67.0" keyTimes="0;0.417993;0.426544;0.442423;0.951527;0.991187;1" />
<rect x="0.0" y="7.5" width="10" height="5" rx="1" ry="1" fill="#5d5176" />
<rect x="12.5" y="0.0" width="10" height="5" rx="1" ry="1" fill="#5d5176" />
<rect x="12.5" y="7.5" width="10" height="5" rx="1" ry="1" fill="#5d5176" />
<rect x="12.5" y="15.0" width="10" height="5" rx="1" ry="1" fill="#5d5176" />
</g>
<g transform="translate(525.0 32.5)">
<animateTransform attributeName="transform" type="translate" additive="sum" dur="22.693s" repeatCount="indefinite" calcMode="linear" values="0.0 -45.0;0.0 -45.0;0.0 -30.0;0 0;0 0;0 67.0;0 67.0" keyTimes="0;0.445949;0.454499;0.470379;0.951527;0.991187;1" />
<rect x="0.0" y="7.5" width="10" height="5" rx="1" ry="1" fill="#6f3f40" />
<rect x="12.5" y="7.5" width="10" height="5" rx="1" ry="1" fill="#98514f" />
<rect x="25.0" y="0.0" width="10" height="5" rx="1" ry="1" fill="#98514f" />
<rect x="25.0" y="7.5" width="10" height="5" rx="1" ry="1" fill="#6f3f40" />
</g>
<g transform="translate(562.5 25.0)">
<animateTransform attributeName="transform" type="translate" additive="sum" dur="22.693s" repeatCount="indefinite" calcMode="linear" values="-25.0 -45.0;-25.0 -45.0;0.0 -22.5;0 0;0 0;0 67.0;0 67.0" keyTimes="0;0.473904;0.482455;0.498334;0.951527;0.991187;1" />
<rect x="0.0" y="15.0" width="10" height="5" rx="1" ry="1" fill="#a586ca" />
<rect x="12.5" y="0.0" width="10" height="5" rx="1" ry="1" fill="#5d5176" />
<rect x="12.5" y="7.5" width="10" height="5" rx="1" ry="1" fill="#5d5176" />
<rect x="12.5" y="15.0" width="10" height="5" rx="1" ry="1" fill="#5d5176" />
</g>
<g transform="translate(612.5 25.0)">
<animateTransform attributeName="transform" type="translate" additive="sum" dur="22.693s" repeatCount="indefinite" calcMode="linear" values="37.5 -45.0;37.5 -45.0;0.0 -22.5;0 0;0 0;0 67.0;0 67.0" keyTimes="0;0.501860;0.510410;0.526290;0.951527;0.991187;1" />
<rect x="0.0" y="0.0" width="10" height="5" rx="1" ry="1" fill="#917e45" />
<rect x="0.0" y="7.5" width="10" height="5" rx="1" ry="1" fill="#917e45" />
<rect x="0.0" y="15.0" width="10" height="5" rx="1" ry="1" fill="#917e45" />
</g>
<g transform="translate(450.0 40.0)">
<animateTransform attributeName="transform" type="translate" additive="sum" dur="22.693s" repeatCount="indefinite" calcMode="linear" values="0.0 -60.0;0.0 -60.0;0.0 -37.5;0 0;0 0;0 67.0;0 67.0" keyTimes="0;0.529815;0.541216;0.562389;0.951527;0.991187;1" />
<rect x="0.0" y="0.0" width="10" height="5" rx="1" ry="1" fill="#6f5036" />
<rect x="0.0" y="7.5" width="10" height="5" rx="1" ry="1" fill="#6f5036" />
<rect x="12.5" y="7.5" width="10" height="5" rx="1" ry="1" fill="#6f5036" />
<rect x="25.0" y="7.5" width="10" height="5" rx="1" ry="1" fill="#6f5036" />
</g>
<g transform="translate(587.5 32.5)">
<animateTransform attributeName="transform" type="translate" additive="sum" dur="22.693s" repeatCount="indefinite" calcMode="linear" values="25.0 -60.0;25.0 -60.0;0.0 -30.0;0 0;0 0;0 67.0;0 67.0" keyTimes="0;0.565914;0.577315;0.598488;0.951527;0.991187;1" />
<rect x="0.0" y="0.0" width="10" height="5" rx="1" ry="1" fill="#64552e" />
<rect x="12.5" y="0.0" width="10" height="5" rx="1" ry="1" fill="#64552e" />
<rect x="12.5" y="7.5" width="10" height="5" rx="1" ry="1" fill="#897033" />
<rect x="12.5" y="15.0" width="10" height="5" rx="1" ry="1" fill="#897033" />
</g>
<g transform="translate(287.5 55.0)">
<animateTransform attributeName="transform" type="translate" additive="sum" dur="22.693s" repeatCount="indefinite" calcMode="linear" values="25.0 -67.5;25.0 -67.5;0.0 -52.5;0 0;0 0;0 67.0;0 67.0" keyTimes="0;0.602013;0.614839;0.638658;0.951527;0.991187;1" />
<rect x="0.0" y="0.0" width="10" height="5" rx="1" ry="1" fill="#55d0d9" />
</g>
<g transform="translate(387.5 47.5)">
<animateTransform attributeName="transform" type="translate" additive="sum" dur="22.693s" repeatCount="indefinite" calcMode="linear" values="0.0 -60.0;0.0 -60.0;0.0 -45.0;0 0;0 0;0 67.0;0 67.0" keyTimes="0;0.642184;0.653584;0.674757;0.951527;0.991187;1" />
<rect x="0.0" y="0.0" width="10" height="5" rx="1" ry="1" fill="#6a5e3a" />
<rect x="12.5" y="0.0" width="10" height="5" rx="1" ry="1" fill="#6a5e3a" />
<rect x="12.5" y="7.5" width="10" height="5" rx="1" ry="1" fill="#eec85f" />
</g>
<g transform="translate(500.0 40.0)">
<animateTransform attributeName="transform" type="translate" additive="sum" dur="22.693s" repeatCount="indefinite" calcMode="linear" values="25.0 -67.5;25.0 -67.5;0.0 -37.5;0 0;0 0;0 67.0;0 67.0" keyTimes="0;0.678282;0.691108;0.714928;0.951527;0.991187;1" />
<rect x="0.0" y="15.0" width="10" height="5" rx="1" ry="1" fill="#77bdfb" />
<rect x="12.5" y="0.0" width="10" height="5" rx="1" ry="1" fill="#77bdfb" />
<rect x="12.5" y="7.5" width="10" height="5" rx="1" ry="1" fill="#4d779e" />
<rect x="12.5" y="15.0" width="10" height="5" rx="1" ry="1" fill="#4d779e" />
</g>
<g transform="translate(525.0 47.5)">
<animateTransform attributeName="transform" type="translate" additive="sum" dur="22.693s" repeatCount="indefinite" calcMode="linear" values="37.5 -60.0;37.5 -60.0;0.0 -45.0;0 0;0 0;0 67.0;0 67.0" keyTimes="0;0.718453;0.729854;0.751027;0.951527;0.991187;1" />
<rect x="0.0" y="7.5" width="10" height="5" rx="1" ry="1" fill="#6f5036" />
<rect x="12.5" y="0.0" width="10" height="5" rx="1" ry="1" fill="#faa356" />
<rect x="12.5" y="7.5" width="10" height="5" rx="1" ry="1" fill="#986940" />
<rect x="25.0" y="7.5" width="10" height="5" rx="1" ry="1" fill="#6f5036" />
</g>
<g transform="translate(550.0 47.5)">
<animateTransform attributeName="transform" type="translate" additive="sum" dur="22.693s" repeatCount="indefinite" calcMode="linear" values="37.5 -67.5;37.5 -67.5;0.0 -45.0;0 0;0 0;0 67.0;0 67.0" keyTimes="0;0.754552;0.767378;0.791197;0.951527;0.991187;1" />
<rect x="0.0" y="0.0" width="10" height="5" rx="1" ry="1" fill="#2e6169" />
<rect x="12.5" y="0.0" width="10" height="5" rx="1" ry="1" fill="#2e6169" />
<rect x="12.5" y="7.5" width="10" height="5" rx="1" ry="1" fill="#2e6169" />
<rect x="25.0" y="0.0" width="10" height="5" rx="1" ry="1" fill="#2e6169" />
</g>
<g transform="translate(575.0 47.5)">
<animateTransform attributeName="transform" type="translate" additive="sum" dur="22.693s" repeatCount="indefinite" calcMode="linear" values="0.0 -60.0;0.0 -60.0;0.0 -45.0;0 0;0 0;0 67.0;0 67.0" keyTimes="0;0.794723;0.806123;0.827296;0.951527;0.991187;1" />
<rect x="0.0" y="7.5" width="10" height="5" rx="1" ry="1" fill="#43644a" />
<rect x="12.5" y="0.0" width="10" height="5" rx="1" ry="1" fill="#43644a" />
<rect x="12.5" y="7.5" width="10" height="5" rx="1" ry="1" fill="#70ad73" />
<rect x="25.0" y="7.5" width="10" height="5" rx="1" ry="1" fill="#59875d" />
</g>
<g transform="translate(625.0 47.5)">
<animateTransform attributeName="transform" type="translate" additive="sum" dur="22.693s" repeatCount="indefinite" calcMode="linear" values="0.0 -60.0;0.0 -60.0;0.0 -45.0;0 0;0 0;0 67.0;0 67.0" keyTimes="0;0.830822;0.842222;0.863395;0.951527;0.991187;1" />
<rect x="0.0" y="0.0" width="10" height="5" rx="1" ry="1" fill="#3c5a76" />
<rect x="0.0" y="7.5" width="10" height="5" rx="1" ry="1" fill="#3c5a76" />
</g>
</g>
<metadata>{"username": "Treenixie", "active_cells": 94, "mode": "live-animation"}</metadata>
</svg>