<svg xmlns="http://www.w3.org/2000/svg" width="660.0" height="70.0" viewBox="0 0 660.0 70.0">
<rect x="0" y="0" width="660.0" height="70.0" rx="0" ry="0" fill="#ffffff" />
<defs>
<clipPath id="grid-clip-live-light"><rect x="0" y="10" width="660.0" height="50.0" rx="0" ry="0" /></clipPath>
</defs>
<rect x="0.0" y="10.0" width="10" height="5" rx="1" ry="1" fill="#ebedf0" />
<rect x="12.5" y="10.0" width="10" height="5" rx="1" ry="1" fill="#ebedf0" />
<rect x="25.0" y="10.0" width="10" height="5" rx="1" ry="1" fill="#ebedf0" />
<rect x="37.5" y="10.0" width="10" height="5" rx="1" ry="1" fill="#ebedf0" />
<rect x="50.0" y="10.0" width="10" height="5" rx="1" ry="1" fill="#ebedf0" />
<rect x="62.5" y="10.0" width="10" height="5" rx="1" ry="1" fill="#ebedf0" />
<rect x="75.0" y="10.0" width="10" height="5" rx="1" ry="1" fill="#ebedf0" />
<rect x="87.5" y="10.0" width="10" height="5" rx="1" ry="1" fill="#ebedf0" />
<rect x="100.0" y="10.0" width="10" height="5" rx="1" ry="1" fill="#ebedf0" />
<rect x="112.5" y="10.0" width="10" height="5" rx="1" ry="1" fill="#ebedf0" />
<rect x="125.0" y="10.0" width="10" height="5" rx="1" ry="1" fill="#ebedf0" />
<rect x="137.5" y="10.0" width="10" height="5" rx="1" ry="1" fill="#ebedf0" />
<rect x="150.0" y="10.0" width="10" height="5" rx="1" ry="1" fill="#ebedf0" />
<rect x="162.5" y="10.0" width="10" height="5" rx="1" ry="1" fill="#ebedf0" />
<rect x="175.0" y="10.0" width="10" height="5" rx="1" ry="1" fill="#ebedf0" />
<rect x="187.5" y="10.0" width="10" height="5" rx="1" ry="1" fill="#ebedf0" />
<rect x="200.0" y="10.0" width="10" height="5" rx="1" ry="1" fill="#ebedf0" />
<rect x="212.5" y="10.0" width="10" height="5" rx="1" ry="1" fill="#ebedf0" />
<rect x="225.0" y="10.0" width="10" height="5" rx="1" ry="1" fill="#ebedf0" />
<rect x="237.5" y="10.0" width="10" height="5" rx="1" ry="1" fill="#ebedf0" />
<rect x="250.0" y="10.0" width="10" height="5" rx="1" ry="1" fill="#ebedf0" />
<rect x="262.5" y="10.0" width="10" height="5" rx="1" ry="1" fill="#ebedf0" />
<rect x="275.0" y="10.0" width="10" height="5" rx="1" ry="1" fill="#ebedf0" />
<rect x="287.5" y="10.0" width="10" height="5" rx="1" ry="1" fill="#ebedf0" />
<rect x="300.0" y="10.0" width="10" height="5" rx="1" ry="1" fill="#ebedf0" />
<rect x="312.5" y="10.0" width="10" height="5" rx="1" ry="1" fill="#ebedf0" />
<rect x="325.0" y="10.0" width="10" height="5" rx="1" ry="1" fill="#ebedf0" />
<rect x="337.5" y="10.0" width="10" height="5" rx="1" ry="1" fill="#ebedf0" />
<rect x="350.0" y="10.0" width="10" height="5" rx="1" ry="1" fill="#ebedf0" />
<rect x="362.5" y="10.0" width="10" height="5" rx="1" ry="1" fill="#ebedf0" />
<rect x="375.0" y="10.0" width="10" height="5" rx="1" ry="1" fill="#ebedf0" />
<rect x="387.5" y="10.0" width="10" height="5" rx="1" ry="1" fill="#ebedf0" />
<rect x="400.0" y="10.0" width="10" height="5" rx="1" ry="1" fill="#ebedf0" />
<rect x="412.5" y="10.0" width="10" height="5" rx="1" ry="1" fill="#ebedf0" />
<rect x="425.0" y="10.0" width="10" height="5" rx="1" ry="1" fill="#ebedf0" />
<rect x="437.5" y="10.0" width="10" height="5" rx="1" ry="1" fill="#ebedf0" />
<rect x="450.0" y="10.0" width="10" height="5" rx="1" ry="1" fill="#ebedf0" />
<rect x="462.5" y="10.0" width="10" height="5" rx="1" ry="1" fill="#ebedf0" />
<rect x="475.0" y="10.0" width="10" height="5" rx="1" ry="1" fill="#ebedf0" />
<rect x="487.5" y="10.0" width="10" height="5" rx="1" ry="1" fill="#ebedf0" />
<rect x="500.0" y="10.0" width="10" height="5" rx="1" ry="1" fill="#ebedf0" />
<rect x="512.5" y="10.0" width="10" height="5" rx="1" ry="1" fill="#ebedf0" />
<rect x="525.0" y="10.0" width="10" height="5" rx="1" ry="1" fill="#ebedf0" />
<rect x="537.5" y="10.0" width="10" height="5" rx="1" ry="1" fill="#ebedf0" />
<rect x="550.0" y="10.0" width="10" height="5" rx="1" ry="1" fill="#ebedf0" />
<rect x="562.5" y="10.0" width="10" height="5" rx="1" ry="1" fill="#ebedf0" />
<rect x="575.0" y="10.0" width="10" height="5" rx="1" ry="1" fill="#ebedf0" />
<rect x="587.5" y="10.0" width="10" height="5" rx="1" ry="1" fill="#ebedf0" />
<rect x="600.0" y="10.0" width="10" height="5" rx="1" ry="1" fill="#ebedf0" />
<rect x="612.5" y="10.0" width="10" height="5" rx="1" ry="1" fill="#ebedf0" />
<rect x="625.0" y="10.0" width="10" height="5" rx="1" ry="1" fill="#ebedf0" />
<rect x="637.5" y="10.0" width="10" height="5" rx="1" ry="1" fill="#ebedf0" />
<rect x="650.0" y="10.0" width="10" height="5" rx="1" ry="1" fill="#ebedf0" />
<rect x="0.0" y="17.5" width="10" height="5" rx="1" ry="1" fill="#ebedf0" />
<rect x="12.5" y="17.5" width="10" height="5" rx="1" ry="1" fill="#ebedf0" />
<rect x="25.0" y="17.5" width="10" height="5" rx="1" ry="1" fill="#ebedf0" />
<rect x="37.5" y="17.5" width="10" height="5" rx="1" ry="1" fill="#ebedf0" />
<rect x="50.0" y="17.5" width="10" height="5" rx="1" ry="1" fill="#ebedf0" />
<rect x="62.5" y="17.5" width="10" height="5" rx="1" ry="1" fill="#ebedf0" />
<rect x="75.0" y="17.5" width="10" height="5" rx="1" ry="1" fill="#ebedf0" />
<rect x="87.5" y="17.5" width="10" height="5" rx="1" ry="1" fill="#ebedf0" />
<rect x="100.0" y="17.5" width="10" height="5" rx="1" ry="1" fill="#ebedf0" />
<rect x="112.5" y="17.5" width="10" height="5" rx="1" ry="1" fill="#ebedf0" />
<rect x="125.0" y="17.5" width="10" height="5" rx="1" ry="1" fill="#ebedf0" />
<rect x="137.5" y="17.5" width="10" height="5" rx="1" ry="1" fill="#ebedf0" />
<rect x="150.0" y="17.5" width="10" height="5" rx="1" ry="1" fill="#ebedf0" />
<rect x="162.5" y="17.5" width="10" height="5" rx="1" ry="1" fill="#ebedf0" />
<rect x="175.0" y="17.5" width="10" height="5" rx="1" ry="1" fill="#ebedf0" />
<rect x="187.5" y="17.5" width="10" height="5" rx="1" ry="1" fill="#ebedf0" />
<rect x="200.0" y="17.5" width="10" height="5" rx="1" ry="1" fill="#ebedf0" />
<rect x="212.5" y="17.5" width="10" height="5" rx="1" ry="1" fill="#ebedf0" />
<rect x="225.0" y="17.5" width="10" height="5" rx="1" ry="1" fill="#ebedf0" />
<rect x="237.5" y="17.5" width="10" height="5" rx="1" ry="1" fill="#ebedf0" />
<rect x="250.0" y="17.5" width="10" height="5" rx="1" ry="1" fill="#ebedf0" />
<rect x="262.5" y="17.5" width="10" height="5" rx="1" ry="1" fill="#ebedf0" />
<rect x="275.0" y="17.5" width="10" height="5" rx="1" ry="1" fill="#ebedf0" />
<rect x="287.5" y="17.5" width="10" height="5" rx="1" ry="1" fill="#ebedf0" />
<rect x="300.0" y="17.5" width="10" height="5" rx="1" ry="1" fill="#ebedf0" />
<rect x="312.5" y="17.5" width="10" height="5" rx="1" ry="1" fill="#ebedf0" />
<rect x="325.0" y="17.5" width="10" height="5" rx="1" ry="1" fill="#ebedf0" />
<rect x="337.5" y="17.5" width="10" height="5" rx="1" ry="1" fill="#ebedf0" />
<rect x="350.0" y="17.5" width="10" height="5" rx="1" ry="1" fill="#ebedf0" />
<rect x="362.5" y="17.5" width="10" height="5" rx="1" ry="1" fill="#ebedf0" />
<rect x="375.0" y="17.5" width="10" height="5" rx="1" ry="1" fill="#ebedf0" />
<rect x="387.5" y="17.5" width="10" height="5" rx="1" ry="1" fill="#ebedf0" />
<rect x="400.0" y="17.5" width="10" height="5" rx="1" ry="1" fill="#ebedf0" />
<rect x="412.5" y="17.5" width="10" height="5" rx="1" ry="1" fill="#ebedf0" />
<rect x="425.0" y="17.5" width="10" height="5" rx="1" ry="1" fill="#ebedf0" />
<rect x="437.5" y="17.5" width="10" height="5" rx="1" ry="1" fill="#ebedf0" />
<rect x="450.0" y="17.5" width="10" height="5" rx="1" ry="1" fill="#ebedf0" />
<rect x="462.5" y="17.5" width="10" height="5" rx="1" ry="1" fill="#ebedf0" />
<rect x="475.0" y="17.5" width="10" height="5" rx="1" ry="1" fill="#ebedf0" />
<rect x="487.5" y="17.5" width="10" height="5" rx="1" ry="1" fill="#ebedf0" />
<rect x="500.0" y="17.5" width="10" height="5" rx="1" ry="1" fill="#ebedf0" />
<rect x="512.5" y="17.5" width="10" height="5" rx="1" ry="1" fill="#ebedf0" />
<rect x="525.0" y="17.5" width="10" height="5" rx="1" ry="1" fill="#ebedf0" />
<rect x="537.5" y="17.5" width="10" height="5" rx="1" ry="1" fill="#ebedf0" />
<rect x="550.0" y="17.5" width="10" height="5" rx="1" ry="1" fill="#ebedf0" />
<rect x="562.5" y="17.5" width="10" height="5" rx="1" ry="1" fill="#ebedf0" />
<rect x="575.0" y="17.5" width="10" height="5" rx="1" ry="1" fill="#ebedf0" />
<rect x="587.5" y="17.5" width="10" height="5" rx="1" ry="1" fill="#ebedf0" />
<rect x="600.0" y="17.5" width="10" height="5" rx="1" ry="1" fill="#ebedf0" />
<rect x="612.5" y="17.5" width="10" height="5" rx="1" ry="1" fill="#ebedf0" />
<rect x="625.0" y="17.5" width="10" height="5" rx="1" ry="1" fill="#ebedf0" />
<rect x="637.5" y="17.5" width="10" height="5" rx="1" ry="1" fill="#ebedf0" />
<rect x="650.0" y="17.5" width="10" height="5" rx="1" ry="1" fill="#ebedf0" />
<rect x="0.0" y="25.0" width="10" height="5" rx="1" ry="1" fill="#ebedf0" />
<rect x="12.5" y="25.0" width="10" height="5" rx="1" ry="1" fill="#ebedf0" />
<rect x="25.0" y="25.0" width="10" height="5" rx="1" ry="1" fill="#ebedf0" />
<rect x="37.5" y="25.0" width="10" height="5" rx="1" ry="1" fill="#ebedf0" />
<rect x="50.0" y="25.0" width="10" height="5" rx="1" ry="1" fill="#ebedf0" />
<rect x="62.5" y="25.0" width="10" height="5" rx="1" ry="1" fill="#ebedf0" />
<rect x="75.0" y="25.0" width="10" height="5" rx="1" ry="1" fill="#ebedf0" />
<rect x="87.5" y="25.0" width="10" height="5" rx="1" ry="1" fill="#ebedf0" />
<rect x="100.0" y="25.0" width="10" height="5" rx="1" ry="1" fill="#ebedf0" />
<rect x="112.5" y="25.0" width="10" height="5" rx="1" ry="1" fill="#ebedf0" />
<rect x="125.0" y="25.0" width="10" height="5" rx="1" ry="1" fill="#ebedf0" />
<rect x="137.5" y="25.0" width="10" height="5" rx="1" ry="1" fill="#ebedf0" />
<rect x="150.0" y="25.0" width="10" height="5" rx="1" ry="1" fill="#ebedf0" />
<rect x="162.5" y="25.0" width="10" height="5" rx="1" ry="1" fill="#ebedf0" />
<rect x="175.0" y="25.0" width="10" height="5" rx="1" ry="1" fill="#ebedf0" />
<rect x="187.5" y="25.0" width="10" height="5" rx="1" ry="1" fill="#ebedf0" />
<rect x="200.0" y="25.0" width="10" height="5" rx="1" ry="1" fill="#ebedf0" />
<rect x="212.5" y="25.0" width="10" height="5" rx="1" ry="1" fill="#ebedf0" />
<rect x="225.0" y="25.0" width="10" height="5" rx="1" ry="1" fill="#ebedf0" />
<rect x="237.5" y="25.0" width="10" height="5" rx="1" ry="1" fill="#ebedf0" />
<rect x="250.0" y="25.0" width="10" height="5" rx="1" ry="1" fill="#ebedf0" />
<rect x="262.5" y="25.0" width="10" height="5" rx="1" ry="1" fill="#ebedf0" />
<rect x="275.0" y="25.0" width="10" height="5" rx="1" ry="1" fill="#ebedf0" />
<rect x="287.5" y="25.0" width="10" height="5" rx="1" ry="1" fill="#ebedf0" />
<rect x="300.0" y="25.0" width="10" height="5" rx="1" ry="1" fill="#ebedf0" />
<rect x="312.5" y="25.0" width="10" height="5" rx="1" ry="1" fill="#ebedf0" />
<rect x="325.0" y="25.0" width="10" height="5" rx="1" ry="1" fill="#ebedf0" />
<rect x="337.5" y="25.0" width="10" height="5" rx="1" ry="1" fill="#ebedf0" />
<rect x="350.0" y="25.0" width="10" height="5" rx="1" ry="1" fill="#ebedf0" />
<rect x="362.5" y="25.0" width="10" height="5" rx="1" ry="1" fill="#ebedf0" />
<rect x="375.0" y="25.0" width="10" height="5" rx="1" ry="1" fill="#ebedf0" />
<rect x="387.5" y="25.0" width="10" height="5" rx="1" ry="1" fill="#ebedf0" />
<rect x="400.0" y="25.0" width="10" height="5" rx="1" ry="1" fill="#ebedf0" />
<rect x="412.5" y="25.0" width="10" height="5" rx="1" ry="1" fill="#ebedf0" />
<rect x="425.0" y="25.0" width="10" height="5" rx="1" ry="1" fill="#ebedf0" />
<rect x="437.5" y="25.0" width="10" height="5" rx="1" ry="1" fill="#ebedf0" />
<rect x="450.0" y="25.0" width="10" height="5" rx="1" ry="1" fill="#ebedf0" />
<rect x="462.5" y="25.0" width="10" height="5" rx="1" ry="1" fill="#ebedf0" />
<rect x="475.0" y="25.0" width="10" height="5" rx="1" ry="1" fill="#ebedf0" />
<rect x="487.5" y="25.0" width="10" height="5" rx="1" ry="1" fill="#ebedf0" />
<rect x="500.0" y="25.0" width="10" height="5" rx="1" ry="1" fill="#ebedf0" />
<rect x="512.5" y="25.0" width="10" height="5" rx="1" ry="1" fill="#ebedf0" />
<rect x="525.0" y="25.0" width="10" height="5" rx="1" ry="1" fill="#ebedf0" />
<rect x="537.5" y="25.0" width="10" height="5" rx="1" ry="1" fill="#ebedf0" />
<rect x="550.0" y="25.0" width="10" height="5" rx="1" ry="1" fill="#ebedf0" />
<rect x="562.5" y="25.0" width="10" height="5" rx="1" ry="1" fill="#ebedf0" />
<rect x="575.0" y="25.0" width="10" height="5" rx="1" ry="1" fill="#ebedf0" />
<rect x="587.5" y="25.0" width="10" height="5" rx="1" ry="1" fill="#ebedf0" />
<rect x="600.0" y="25.0" width="10" height="5" rx="1" ry="1" fill="#ebedf0" />
<rect x="612.5" y="25.0" width="10" height="5" rx="1" ry="1" fill="#ebedf0" />
<rect x="625.0" y="25.0" width="10" height="5" rx="1" ry="1" fill="#ebedf0" />
<rect x="637.5" y="25.0" width="10" height="5" rx="1" ry="1" fill="#ebedf0" />
<rect x="650.0" y="25.0" width="10" height="5" rx="1" ry="1" fill="#ebedf0" />
<rect x="0.0" y="32.5" width="10" height="5" rx="1" ry="1" fill="#ebedf0" />
<rect x="12.5" y="32.5" width="10" height="5" rx="1" ry="1" fill="#ebedf0" />
<rect x="25.0" y="32.5" width="10" height="5" rx="1" ry="1" fill="#ebedf0" />
<rect x="37.5" y="32.5" width="10" height="5" rx="1" ry="1" fill="#ebedf0" />
<rect x="50.0" y="32.5" width="10" height="5" rx="1" ry="1" fill="#ebedf0" />
<rect x="62.5" y="32.5" width="10" height="5" rx="1" ry="1" fill="#ebedf0" />
<rect x="75.0" y="32.5" width="10" height="5" rx="1" ry="1" fill="#ebedf0" />
<rect x="87.5" y="32.5" width="10" height="5" rx="1" ry="1" fill="#ebedf0" />
<rect x="100.0" y="32.5" width="10" height="5" rx="1" ry="1" fill="#ebedf0" />
<rect x="112.5" y="32.5" width="10" height="5" rx="1" ry="1" fill="#ebedf0" />
<rect x="125.0" y="32.5" width="10" height="5" rx="1" ry="1" fill="#ebedf0" />
<rect x="137.5" y="32.5" width="10" height="5" rx="1" ry="1" fill="#ebedf0" />
<rect x="150.0" y="32.5" width="10" height="5" rx="1" ry="1" fill="#ebedf0" />
<rect x="162.5" y="32.5" width="10" height="5" rx="1" ry="1" fill="#ebedf0" />
<rect x="175.0" y="32.5" width="10" height="5" rx="1" ry="1" fill="#ebedf0" />
<rect x="187.5" y="32.5" width="10" height="5" rx="1" ry="1" fill="#ebedf0" />
<rect x="200.0" y="32.5" width="10" height="5" rx="1" ry="1" fill="#ebedf0" />
<rect x="212.5" y="32.5" width="10" height="5" rx="1" ry="1" fill="#ebedf0" />
<rect x="225.0" y="32.5" width="10" height="5" rx="1" ry="1" fill="#ebedf0" />
<rect x="237.5" y="32.5" width="10" height="5" rx="1" ry="1" fill="#ebedf0" />
<rect x="250.0" y="32.5" width="10" height="5" rx="1" ry="1" fill="#ebedf0" />
<rect x="262.5" y="32.5" width="10" height="5" rx="1" ry="1" fill="#ebedf0" />
<rect x="275.0" y="32.5" width="10" height="5" rx="1" ry="1" fill="#ebedf0" />
<rect x="287.5" y="32.5" width="10" height="5" rx="1" ry="1" fill="#ebedf0" />
<rect x="300.0" y="32.5" width="10" height="5" rx="1" ry="1" fill="#ebedf0" />
<rect x="312.5" y="32.5" width="10" height="5" rx="1" ry="1" fill="#ebedf0" />
<rect x="325.0" y="32.5" width="10" height="5" rx="1" ry="1" fill="#ebedf0" />
<rect x="337.5" y="32.5" width="10" height="5" rx="1" ry="1" fill="#ebedf0" />
<rect x="350.0" y="32.5" width="10" height="5" rx="1" ry="1" fill="#ebedf0" />
<rect x="362.5" y="32.5" width="10" height="5" rx="1" ry="1" fill="#ebedf0" />
<rect x="375.0" y="32.5" width="10" height="5" rx="1" ry="1" fill="#ebedf0" />
<rect x="387.5" y="32.5" width="10" height="5" rx="1" ry="1" fill="#ebedf0" />
<rect x="400.0" y="32.5" width="10" height="5" rx="1" ry="1" fill="#ebedf0" />
<rect x="412.5" y="32.5" width="10" height="5" rx="1" ry="1" fill="#ebedf0" />
<rect x="425.0" y="32.5" width="10" height="5" rx="1" ry="1" fill="#ebedf0" />
<rect x="437.5" y="32.5" width="10" height="5" rx="1" ry="1" fill="#ebedf0" />
<rect x="450.0" y="32.5" width="10" height="5" rx="1" ry="1" fill="#ebedf0" />
<rect x="462.5" y="32.5" width="10" height="5" rx="1" ry="1" fill="#ebedf0" />
<rect x="475.0" y="32.5" width="10" height="5" rx="1" ry="1" fill="#ebedf0" />
<rect x="487.5" y="32.5" width="10" height="5" rx="1" ry="1" fill="#ebedf0" />
<rect x="500.0" y="32.5" width="10" height="5" rx="1" ry="1" fill="#ebedf0" />
<rect x="512.5" y="32.5" width="10" height="5" rx="1" ry="1" fill="#ebedf0" />
<rect x="525.0" y="32.5" width="10" height="5" rx="1" ry="1" fill="#ebedf0" />
<rect x="537.5" y="32.5" width="10" height="5" rx="1" ry="1" fill="#ebedf0" />
<rect x="550.0" y="32.5" width="10" height="5" rx="1" ry="1" fill="#ebedf0" />
<rect x="562.5" y="32.5" width="10" height="5" rx="1" ry="1" fill="#ebedf0" />
<rect x="575.0" y="32.5" width="10" height="5" rx="1" ry="1" fill="#ebedf0" />
<rect x="587.5" y="32.5" width="10" height="5" rx="1" ry="1" fill="#ebedf0" />
<rect x="600.0" y="32.5" width="10" height="5" rx="1" ry="1" fill="#ebedf0" />
<rect x="612.5" y="32.5" width="10" height="5" rx="1" ry="1" fill="#ebedf0" />
<rect x="625.0" y="32.5" width="10" height="5" rx="1" ry="1" fill="#ebedf0" />
<rect x="637.5" y="32.5" width="10" height="5" rx="1" ry="1" fill="#ebedf0" />
<rect x="650.0" y="32.5" width="10" height="5" rx="1" ry="1" fill="#ebedf0" />
<rect x="0.0" y="40.0" width="10" height="5" rx="1" ry="1" fill="#ebedf0" />
<rect x="12.5" y="40.0" width="10" height="5" rx="1" ry="1" fill="#ebedf0" />
<rect x="25.0" y="40.0" width="10" height="5" rx="1" ry="1" fill="#ebedf0" />
<rect x="37.5" y="40.0" width="10" height="5" rx="1" ry="1" fill="#ebedf0" />
<rect x="50.0" y="40.0" width="10" height="5" rx="1" ry="1" fill="#ebedf0" />
<rect x="62.5" y="40.0" width="10" height="5" rx="1" ry="1" fill="#ebedf0" />
<rect x="75.0" y="40.0" width="10" height="5" rx="1" ry="1" fill="#ebedf0" />
<rect x="87.5" y="40.0" width="10" height="5" rx="1" ry="1" fill="#ebedf0" />
<rect x="100.0" y="40.0" width="10" height="5" rx="1" ry="1" fill="#ebedf0" />
<rect x="112.5" y="40.0" width="10" height="5" rx="1" ry="1" fill="#ebedf0" />
<rect x="125.0" y="40.0" width="10" height="5" rx="1" ry="1" fill="#ebedf0" />
<rect x="137.5" y="40.0" width="10" height="5" rx="1" ry="1" fill="#ebedf0" />
<rect x="150.0" y="40.0" width="10" height="5" rx="1" ry="1" fill="#ebedf0" />
<rect x="162.5" y="40.0" width="10" height="5" rx="1" ry="1" fill="#ebedf0" />
<rect x="175.0" y="40.0" width="10" height="5" rx="1" ry="1" fill="#ebedf0" />
<rect x="187.5" y="40.0" width="10" height="5" rx="1" ry="1" fill="#ebedf0" />
<rect x="200.0" y="40.0" width="10" height="5" rx="1" ry="1" fill="#ebedf0" />
<rect x="212.5" y="40.0" width="10" height="5" rx="1" ry="1" fill="#ebedf0" />
<rect x="225.0" y="40.0" width="10" height="5" rx="1" ry="1" fill="#ebedf0" />
<rect x="237.5" y="40.0" width="10" height="5" rx="1" ry="1" fill="#ebedf0" />
<rect x="250.0" y="40.0" width="10" height="5" rx="1" ry="1" fill="#ebedf0" />
<rect x="262.5" y="40.0" width="10" height="5" rx="1" ry="1" fill="#ebedf0" />
<rect x="275.0" y="40.0" width="10" height="5" rx="1" ry="1" fill="#ebedf0" />
<rect x="287.5" y="40.0" width="10" height="5" rx="1" ry="1" fill="#ebedf0" />
<rect x="300.0" y="40.0" width="10" height="5" rx="1" ry="1" fill="#ebedf0" />
<rect x="312.5" y="40.0" width="10" height="5" rx="1" ry="1" fill="#ebedf0" />
<rect x="325.0" y="40.0" width="10" height="5" rx="1" ry="1" fill="#ebedf0" />
<rect x="337.5" y="40.0" width="10" height="5" rx="1" ry="1" fill="#ebedf0" />
<rect x="350.0" y="40.0" width="10" height="5" rx="1" ry="1" fill="#ebedf0" />
<rect x="362.5" y="40.0" width="10" height="5" rx="1" ry="1" fill="#ebedf0" />
<rect x="375.0" y="40.0" width="10" height="5" rx="1" ry="1" fill="#ebedf0" />
<rect x="387.5" y="40.0" width="10" height="5" rx="1" ry="1" fill="#ebedf0" />
<rect x="400.0" y="40.0" width="10" height="5" rx="1" ry="1" fill="#ebedf0" />
<rect x="412.5" y="40.0" width="10" height="5" rx="1" ry="1" fill="#ebedf0" />
<rect x="425.0" y="40.0" width="10" height="5" rx="1" ry="1" fill="#ebedf0" />
<rect x="437.5" y="40.0" width="10" height="5" rx="1" ry="1" fill="#ebedf0" />
<rect x="450.0" y="40.0" width="10" height="5" rx="1" ry="1" fill="#ebedf0" />
<rect x="462.5" y="40.0" width="10" height="5" rx="1" ry="1" fill="#ebedf0" />
<rect x="475.0" y="40.0" width="10" height="5" rx="1" ry="1" fill="#ebedf0" />
<rect x="487.5" y="40.0" width="10" height="5" rx="1" ry="1" fill="#ebedf0" />
<rect x="500.0" y="40.0" width="10" height="5" rx="1" ry="1" fill="#ebedf0" />
<rect x="512.5" y="40.0" width="10" height="5" rx="1" ry="1" fill="#ebedf0" />
<rect x="525.0" y="40.0" width="10" height="5" rx="1" ry="1" fill="#ebedf0" />
<rect x="537.5" y="40.0" width="10" height="5" rx="1" ry="1" fill="#ebedf0" />
<rect x="550.0" y="40.0" width="10" height="5" rx="1" ry="1" fill="#ebedf0" />
<rect x="562.5" y="40.0" width="10" height="5" rx="1" ry="1" fill="#ebedf0" />
<rect x="575.0" y="40.0" width="10" height="5" rx="1" ry="1" fill="#ebedf0" />
<rect x="587.5" y="40.0" width="10" height="5" rx="1" ry="1" fill="#ebedf0" />
<rect x="600.0" y="40.0" width="10" height="5" rx="1" ry="1" fill="#ebedf0" />
<rect x="612.5" y="40.0" width="10" height="5" rx="1" ry="1" fill="#ebedf0" />
<rect x="625.0" y="40.0" width="10" height="5" rx="1" ry="1" fill="#ebedf0" />
<rect x="637.5" y="40.0" width="10" height="5" rx="1" ry="1" fill="#ebedf0" />
<rect x="650.0" y="40.0" width="10" height="5" rx="1" ry="1" fill="#ebedf0" />
<rect x="0.0" y="47.5" width="10" height="5" rx="1" ry="1" fill="#ebedf0" />
<rect x="12.5" y="47.5" width="10" height="5" rx="1" ry="1" fill="#ebedf0" />
<rect x="25.0" y="47.5" width="10" height="5" rx="1" ry="1" fill="#ebedf0" />
<rect x="37.5" y="47.5" width="10" height="5" rx="1" ry="1" fill="#ebedf0" />
<rect x="50.0" y="47.5" width="10" height="5" rx="1" ry="1" fill="#ebedf0" />
<rect x="62.5" y="47.5" width="10" height="5" rx="1" ry="1" fill="#ebedf0" />
<rect x="75.0" y="47.5" width="10" height="5" rx="1" ry="1" fill="#ebedf0" />
<rect x="87.5" y="47.5" width="10" height="5" rx="1" ry="1" fill="#ebedf0" />
<rect x="100.0" y="47.5" width="10" height="5" rx="1" ry="1" fill="#ebedf0" />
<rect x="112.5" y="47.5" width="10" height="5" rx="1" ry="1" fill="#ebedf0" />
<rect x="125.0" y="47.5" width="10" height="5" rx="1" ry="1" fill="#ebedf0" />
<rect x="137.5" y="47.5" width="10" height="5" rx="1" ry="1" fill="#ebedf0" />
<rect x="150.0" y="47.5" width="10" height="5" rx="1" ry="1" fill="#ebedf0" />
<rect x="162.5" y="47.5" width="10" height="5" rx="1" ry="1" fill="#ebedf0" />
<rect x="175.0" y="47.5" width="10" height="5" rx="1" ry="1" fill="#ebedf0" />
<rect x="187.5" y="47.5" width="10" height="5" rx="1" ry="1" fill="#ebedf0" />
<rect x="200.0" y="47.5" width="10" height="5" rx="1" ry="1" fill="#ebedf0" />
<rect x="212.5" y="47.5" width="10" height="5" rx="1" ry="1" fill="#ebedf0" />
<rect x="225.0" y="47.5" width="10" height="5" rx="1" ry="1" fill="#ebedf0" />
<rect x="237.5" y="47.5" width="10" height="5" rx="1" ry="1" fill="#ebedf0" />
<rect x="250.0" y="47.5" width="10" height="5" rx="1" ry="1" fill="#ebedf0" />
<rect x="262.5" y="47.5" width="10" height="5" rx="1" ry="1" fill="#ebedf0" />
<rect x="275.0" y="47.5" width="10" height="5" rx="1" ry="1" fill="#ebedf0" />
<rect x="287.5" y="47.5" width="10" height="5" rx="1" ry="1" fill="#ebedf0" />
<rect x="300.0" y="47.5" width="10" height="5" rx="1" ry="1" fill="#ebedf0" />
<rect x="312.5" y="47.5" width="10" height="5" rx="1" ry="1" fill="#ebedf0" />
<rect x="325.0" y="47.5" width="10" height="5" rx="1" ry="1" fill="#ebedf0" />
<rect x="337.5" y="47.5" width="10" height="5" rx="1" ry="1" fill="#ebedf0" />
<rect x="350.0" y="47.5" width="10" height="5" rx="1" ry="1" fill="#ebedf0" />
<rect x="362.5" y="47.5" width="10" height="5" rx="1" ry="1" fill="#ebedf0" />
<rect x="375.0" y="47.5" width="10" height="5" rx="1" ry="1" fill="#ebedf0" />
<rect x="387.5" y="47.5" width="10" height="5" rx="1" ry="1" fill="#ebedf0" />
<rect x="400.0" y="47.5" width="10" height="5" rx="1" ry="1" fill="#ebedf0" />
<rect x="412.5" y="47.5" width="10" height="5" rx="1" ry="1" fill="#ebedf0" />
<rect x="425.0" y="47.5" width="10" height="5" rx="1" ry="1" fill="#ebedf0" />
<rect x="437.5" y="47.5" width="10" height="5" rx="1" ry="1" fill="#ebedf0" />
<rect x="450.0" y="47.5" width="10" height="5" rx="1" ry="1" fill="#ebedf0" />
<rect x="462.5" y="47.5" width="10" height="5" rx="1" ry="1" fill="#ebedf0" />
<rect x="475.0" y="47.5" width="10" height="5" rx="1" ry="1" fill="#ebedf0" />
<rect x="487.5" y="47.5" width="10" height="5" rx="1" ry="1" fill="#ebedf0" />
<rect x="500.0" y="47.5" width="10" height="5" rx="1" ry="1" fill="#ebedf0" />
<rect x="512.5" y="47.5" width="10" height="5" rx="1" ry="1" fill="#ebedf0" />
<rect x="525.0" y="47.5" width="10" height="5" rx="1" ry="1" fill="#ebedf0" />
<rect x="537.5" y="47.5" width="10" height="5" rx="1" ry="1" fill="#ebedf0" />
<rect x="550.0" y="47.5" width="10" height="5" rx="1" ry="1" fill="#ebedf0" />
<rect x="562.5" y="47.5" width="10" height="5" rx="1" ry="1" fill="#ebedf0" />
<rect x="575.0" y="47.5" width="10" height="5" rx="1" ry="1" fill="#ebedf0" />
<rect x="587.5" y="47.5" width="10" height="5" rx="1" ry="1" fill="#ebedf0" />
<rect x="600.0" y="47.5" width="10" height="5" rx="1" ry="1" fill="#ebedf0" />
<rect x="612.5" y="47.5" width="10" height="5" rx="1" ry="1" fill="#ebedf0" />
<rect x="625.0" y="47.5" width="10" height="5" rx="1" ry="1" fill="#ebedf0" />
<rect x="637.5" y="47.5" width="10" height="5" rx="1" ry="1" fill="#ebedf0" />
<rect x="650.0" y="47.5" width="10" height="5" rx="1" ry="1" fill="#ebedf0" />
<rect x="0.0" y="55.0" width="10" height="5" rx="1" ry="1" fill="#ebedf0" />
<rect x="12.5" y="55.0" width="10" height="5" rx="1" ry="1" fill="#ebedf0" />
<rect x="25.0" y="55.0" width="10" height="5" rx="1" ry="1" fill="#ebedf0" />
<rect x="37.5" y="55.0" width="10" height="5" rx="1" ry="1" fill="#ebedf0" />
<rect x="50.0" y="55.0" width="10" height="5" rx="1" ry="1" fill="#ebedf0" />
<rect x="62.5" y="55.0" width="10" height="5" rx="1" ry="1" fill="#ebedf0" />
<rect x="75.0" y="55.0" width="10" height="5" rx="1" ry="1" fill="#ebedf0" />
<rect x="87.5" y="55.0" width="10" height="5" rx="1" ry="1" fill="#ebedf0" />
<rect x="100.0" y="55.0" width="10" height="5" rx="1" ry="1" fill="#ebedf0" />
<rect x="112.5" y="55.0" width="10" height="5" rx="1" ry="1" fill="#ebedf0" />
<rect x="125.0" y="55.0" width="10" height="5" rx="1" ry="1" fill="#ebedf0" />
<rect x="137.5" y="55.0" width="10" height="5" rx="1" ry="1" fill="#ebedf0" />
<rect x="150.0" y="55.0" width="10" height="5" rx="1" ry="1" fill="#ebedf0" />
<rect x="162.5" y="55.0" width="10" height="5" rx="1" ry="1" fill="#ebedf0" />
<rect x="175.0" y="55.0" width="10" height="5" rx="1" ry="1" fill="#ebedf0" />
<rect x="187.5" y="55.0" width="10" height="5" rx="1" ry="1" fill="#ebedf0" />
<rect x="200.0" y="55.0" width="10" height="5" rx="1" ry="1" fill="#ebedf0" />
<rect x="212.5" y="55.0" width="10" height="5" rx="1" ry="1" fill="#ebedf0" />
<rect x="225.0" y="55.0" width="10" height="5" rx="1" ry="1" fill="#ebedf0" />
<rect x="237.5" y="55.0" width="10" height="5" rx="1" ry="1" fill="#ebedf0" />
<rect x="250.0" y="55.0" width="10" height="5" rx="1" ry="1" fill="#ebedf0" />
<rect x="262.5" y="55.0" width="10" height="5" rx="1" ry="1" fill="#ebedf0" />
<rect x="275.0" y="55.0" width="10" height="5" rx="1" ry="1" fill="#ebedf0" />
<rect x="287.5" y="55.0" width="10" height="5" rx="1" ry="1" fill="#ebedf0" />
<rect x="300.0" y="55.0" width="10" height="5" rx="1" ry="1" fill="#ebedf0" />
<rect x="312.5" y="55.0" width="10" height="5" rx="1" ry="1" fill="#ebedf0" />
<rect x="325.0" y="55.0" width="10" height="5" rx="1" ry="1" fill="#ebedf0" />
<rect x="337.5" y="55.0" width="10" height="5" rx="1" ry="1" fill="#ebedf0" />
<rect x="350.0" y="55.0" width="10" height="5" rx="1" ry="1" fill="#ebedf0" />
<rect x="362.5" y="55.0" width="10" height="5" rx="1" ry="1" fill="#ebedf0" />
<rect x="375.0" y="55.0" width="10" height="5" rx="1" ry="1" fill="#ebedf0" />
<rect x="387.5" y="55.0" width="10" height="5" rx="1" ry="1" fill="#ebedf0" />
<rect x="400.0" y="55.0" width="10" height="5" rx="1" ry="1" fill="#ebedf0" />
<rect x="412.5" y="55.0" width="10" height="5" rx="1" ry="1" fill="#ebedf0" />
<rect x="425.0" y="55.0" width="10" height="5" rx="1" ry="1" fill="#ebedf0" />
<rect x="437.5" y="55.0" width="10" height="5" rx="1" ry="1" fill="#ebedf0" />
<rect x="450.0" y="55.0" width="10" height="5" rx="1" ry="1" fill="#ebedf0" />
<rect x="462.5" y="55.0" width="10" height="5" rx="1" ry="1" fill="#ebedf0" />
<rect x="475.0" y="55.0" width="10" height="5" rx="1" ry="1" fill="#ebedf0" />
<rect x="487.5" y="55.0" width="10" height="5" rx="1" ry="1" fill="#ebedf0" />
<rect x="500.0" y="55.0" width="10" height="5" rx="1" ry="1" fill="#ebedf0" />
<rect x="512.5" y="55.0" width="10" height="5" rx="1" ry="1" fill="#ebedf0" />
<rect x="525.0" y="55.0" width="10" height="5" rx="1" ry="1" fill="#ebedf0" />
<rect x="537.5" y="55.0" width="10" height="5" rx="1" ry="1" fill="#ebedf0" />
<rect x="550.0" y="55.0" width="10" height="5" rx="1" ry="1" fill="#ebedf0" />
<rect x="562.5" y="55.0" width="10" height="5" rx="1" ry="1" fill="#ebedf0" />
<rect x="575.0" y="55.0" width="10" height="5" rx="1" ry="1" fill="#ebedf0" />
<rect x="587.5" y="55.0" width="10" height="5" rx="1" ry="1" fill="#ebedf0" />
<rect x="600.0" y="55.0" width="10" height="5" rx="1" ry="1" fill="#ebedf0" />
<rect x="612.5" y="55.0" width="10" height="5" rx="1" ry="1" fill="#ebedf0" />
<rect x="625.0" y="55.0" width="10" height="5" rx="1" ry="1" fill="#ebedf0" />
<rect x="637.5" y="55.0" width="10" height="5" rx="1" ry="1" fill="#ebedf0" />
<rect x="650.0" y="55.0" width="10" height="5" rx="1" ry="1" fill="#ebedf0" />
<g clip-path="url(#grid-clip-live-light)">
<g transform="translate(425.0 10.0)">
<animateTransform attributeName="transform" type="translate" additive="sum" dur="15.144s" repeatCount="indefinite" calcMode="linear" values="-25.0 -15.0;-25.0 -15.0;0.0 -15.0;0 0;0 0;0 67.0;0 67.0" keyTimes="0;0.011886;0.020669;0.036979;0.927362;0.986793;1" />
<rect x="0.0" y="0.0" width="10" height="5" rx="1" ry="1" fill="#bea26a" />
</g>
<g transform="translate(537.5 10.0)">
<animateTransform attributeName="transform" type="translate" additive="sum" dur="15.144s" repeatCount="indefinite" calcMode="linear" values="0.0 -30.0;0.0 -30.0;0.0 -15.0;0 0;0 0;0 67.0;0 67.0" keyTimes="0;0.042262;0.051045;0.067355;0.927362;0.986793;1" />
<rect x="0.0" y="0.0" width="10" height="5" rx="1" ry="1" fill="#d02632" />
<rect x="12.5" y="0.0" width="10" height="5" rx="1" ry="1" fill="#e0a0a6" />
<rect x="25.0" y="0.0" width="10" height="5" rx="1" ry="1" fill="#e0a0a6" />
<rect x="25.0" y="7.5" width="10" height="5" rx="1" ry="1" fill="#e0a0a6" />
</g>
<g transform="translate(575.0 10.0)">
<animateTransform attributeName="transform" type="translate" additive="sum" dur="15.144s" repeatCount="indefinite" calcMode="linear" values="-37.5 -22.5;-37.5 -22.5;0.0 -15.0;0 0;0 0;0 67.0;0 67.0" keyTimes="0;0.072638;0.081421;0.097731;0.927362;0.986793;1" />
<rect x="0.0" y="0.0" width="10" height="5" rx="1" ry="1" fill="#ccba95" />
<rect x="0.0" y="7.5" width="10" height="5" rx="1" ry="1" fill="#ccba95" />
<rect x="12.5" y="0.0" width="10" height="5" rx="1" ry="1" fill="#bea26a" />
</g>
<g transform="translate(612.5 10.0)">
<animateTransform attributeName="transform" type="translate" additive="sum" dur="15.144s" repeatCount="indefinite" calcMode="linear" values="25.0 -30.0;25.0 -30.0;0.0 -15.0;0 0;0 0;0 67.0;0 67.0" keyTimes="0;0.103014;0.111796;0.128107;0.927362;0.986793;1" />
<rect x="0.0" y="0.0" width="10" height="5" rx="1" ry="1" fill="#d9b095" />
<rect x="0.0" y="7.5" width="10" height="5" rx="1" ry="1" fill="#d9b095" />
</g>
<g transform="translate(637.5 10.0)">
<animateTransform attributeName="transform" type="translate" additive="sum" dur="15.144s" repeatCount="indefinite" calcMode="linear" values="-37.5 -30.0;-37.5 -30.0;0.0 -15.0;0 0;0 0;0 67.0;0 67.0" keyTimes="0;0.133390;0.142172;0.158483;0.927362;0.986793;1" />
<rect x="0.0" y="0.0" width="10" height="5" rx="1" ry="1" fill="#4099b6" />
<rect x="12.5" y="0.0" width="10" height="5" rx="1" ry="1" fill="#96c3d3" />
<rect x="12.5" y="7.5" width="10" height="5" rx="1" ry="1" fill="#6dafc5" />
</g>
<g transform="translate(450.0 25.0)">
<animateTransform attributeName="transform" type="translate" additive="sum" dur="15.144s" repeatCount="indefinite" calcMode="linear" values="37.5 -37.5;37.5 -37.5;0.0 -22.5;0 0;0 0;0 67.0;0 67.0" keyTimes="0;0.163766;0.174443;0.194273;0.927362;0.986793;1" />
<rect x="0.0" y="0.0" width="10" height="5" rx="1" ry="1" fill="#4099b6" />
</g>
<g transform="translate(487.5 25.0)">
<animateTransform attributeName="transform" type="translate" additive="sum" dur="15.144s" repeatCount="indefinite" calcMode="linear" values="0.0 -37.5;0.0 -37.5;0.0 -22.5;0 0;0 0;0 67.0;0 67.0" keyTimes="0;0.199556;0.210234;0.230064;0.927362;0.986793;1" />
<rect x="0.0" y="0.0" width="10" height="5" rx="1" ry="1" fill="#d6b595" />
</g>
<g transform="translate(525.0 10.0)">
<animateTransform attributeName="transform" type="translate" additive="sum" dur="15.144s" repeatCount="indefinite" calcMode="linear" values="-37.5 -30.0;-37.5 -30.0;0.0 -15.0;0 0;0 0;0 67.0;0 67.0" keyTimes="0;0.235347;0.244130;0.260440;0.927362;0.986793;1" />
<rect x="0.0" y="0.0" width="10" height="5" rx="1" ry="1" fill="#c3b1ea" />
<rect x="0.0" y="7.5" width="10" height="5" rx="1" ry="1" fill="#b095e6" />
<rect x="0.0" y="15.0" width="10" height="5" rx="1" ry="1" fill="#c3b1ea" />
<rect x="12.5" y="7.5" width="10" height="5" rx="1" ry="1" fill="#c3b1ea" />
</g>
<g transform="translate(487.5 32.5)">
<animateTransform attributeName="transform" type="translate" additive="sum" dur="15.144s" repeatCount="indefinite" calcMode="linear" values="37.5 -52.5;37.5 -52.5;0.0 -30.0;0 0;0 0;0 67.0;0 67.0" keyTimes="0;0.265723;0.280672;0.308434;0.927362;0.986793;1" />
<rect x="0.0" y="7.5" width="10" height="5" rx="1" ry="1" fill="#d6b595" />
<rect x="12.5" y="0.0" width="10" height="5" rx="1" ry="1" fill="#d6b595" />
<rect x="12.5" y="7.5" width="10" height="5" rx="1" ry="1" fill="#d6b595" />
</g>
<g transform="translate(575.0 25.0)">
<animateTransform attributeName="transform" type="translate" additive="sum" dur="15.144s" repeatCount="indefinite" calcMode="linear" values="37.5 -45.0;37.5 -45.0;0.0 -22.5;0 0;0 0;0 67.0;0 67.0" keyTimes="0;0.313717;0.326530;0.350326;0.927362;0.986793;1" />
<rect x="0.0" y="7.5" width="10" height="5" rx="1" ry="1" fill="#d9b095" />
<rect x="12.5" y="0.0" width="10" height="5" rx="1" ry="1" fill="#d9b095" />
<rect x="12.5" y="7.5" width="10" height="5" rx="1" ry="1" fill="#d9b095" />
<rect x="12.5" y="15.0" width="10" height="5" rx="1" ry="1" fill="#d9b095" />
</g>
<g transform="translate(637.5 17.5)">
<animateTransform attributeName="transform" type="translate" additive="sum" dur="15.144s" repeatCount="indefinite" calcMode="linear" values="12.5 -52.5;12.5 -52.5;0.0 -15.0;0 0;0 0;0 67.0;0 67.0" keyTimes="0;0.355609;0.370558;0.398320;0.927362;0.986793;1" />
<rect x="0.0" y="0.0" width="10" height="5" rx="1" ry="1" fill="#6ca3e4" />
<rect x="0.0" y="7.5" width="10" height="5" rx="1" ry="1" fill="#6ca3e4" />
<rect x="0.0" y="15.0" width="10" height="5" rx="1" ry="1" fill="#6ca3e4" />
<rect x="0.0" y="22.5" width="10" height="5" rx="1" ry="1" fill="#0e6cda" />
</g>
<g transform="translate(550.0 40.0)">
<animateTransform attributeName="transform" type="translate" additive="sum" dur="15.144s" repeatCount="indefinite" calcMode="linear" values="-25.0 -60.0;-25.0 -60.0;0.0 -37.5;0 0;0 0;0 67.0;0 67.0" keyTimes="0;0.403603;0.420687;0.452416;0.927362;0.986793;1" />
<rect x="0.0" y="0.0" width="10" height="5" rx="1" ry="1" fill="#9cc3aa" />
<rect x="0.0" y="7.5" width="10" height="5" rx="1" ry="1" fill="#9cc3aa" />
</g>
<g transform="translate(575.0 40.0)">
<animateTransform attributeName="transform" type="translate" additive="sum" dur="15.144s" repeatCount="indefinite" calcMode="linear" values="25.0 -60.0;25.0 -60.0;0.0 -37.5;0 0;0 0;0 67.0;0 67.0" keyTimes="0;0.457698;0.474783;0.506511;0.927362;0.986793;1" />
<rect x="0.0" y="0.0" width="10" height="5" rx="1" ry="1" fill="#9cc3aa" />
<rect x="0.0" y="7.5" width="10" height="5" rx="1" ry="1" fill="#9cc3aa" />
<rect x="12.5" y="7.5" width="10" height="5" rx="1" ry="1" fill="#9cc3aa" />
<rect x="25.0" y="7.5" width="10" height="5" rx="1" ry="1" fill="#9cc3aa" />
</g>
<g transform="translate(412.5 55.0)">
<animateTransform attributeName="transform" type="translate" additive="sum" dur="15.144s" repeatCount="indefinite" calcMode="linear" values="0.0 -60.0;0.0 -60.0;0.0 -52.5;0 0;0 0;0 67.0;0 67.0" keyTimes="0;0.511794;0.528878;0.560606;0.927362;0.986793;1" />
<rect x="0.0" y="0.0" width="10" height="5" rx="1" ry="1" fill="#d02632" />
</g>
<g transform="translate(487.5 47.5)">
<animateTransform attributeName="transform" type="translate" additive="sum" dur="15.144s" repeatCount="indefinite" calcMode="linear" values="-25.0 -67.5;-25.0 -67.5;0.0 -45.0;0 0;0 0;0 67.0;0 67.0" keyTimes="0;0.565889;0.585109;0.620804;0.927362;0.986793;1" />
<rect x="0.0" y="0.0" width="10" height="5" rx="1" ry="1" fill="#95bbe8" />
<rect x="0.0" y="7.5" width="10" height="5" rx="1" ry="1" fill="#95bbe8" />
</g>
<g transform="translate(512.5 47.5)">
<animateTransform attributeName="transform" type="translate" additive="sum" dur="15.144s" repeatCount="indefinite" calcMode="linear" values="-25.0 -60.0;-25.0 -60.0;0.0 -45.0;0 0;0 0;0 67.0;0 67.0" keyTimes="0;0.626086;0.643171;0.674899;0.927362;0.986793;1" />
<rect x="0.0" y="0.0" width="10" height="5" rx="1" ry="1" fill="#c3b1ea" />
<rect x="12.5" y="0.0" width="10" height="5" rx="1" ry="1" fill="#c3b1ea" />
<rect x="12.5" y="7.5" width="10" height="5" rx="1" ry="1" fill="#8453df" />
</g>
<g transform="translate(562.5 55.0)">
<animateTransform attributeName="transform" type="translate" additive="sum" dur="15.144s" repeatCount="indefinite" calcMode="linear" values="0.0 -67.5;0.0 -67.5;0.0 -52.5;0 0;0 0;0 67.0;0 67.0" keyTimes="0;0.680182;0.699402;0.735096;0.927362;0.986793;1" />
<rect x="0.0" y="0.0" width="10" height="5" rx="1" ry="1" fill="#95bbe8" />
</g>
<g transform="translate(625.0 47.5)">
<animateTransform attributeName="transform" type="translate" additive="sum" dur="15.144s" repeatCount="indefinite" calcMode="linear" values="0.0 -67.5;0.0 -67.5;0.0 -45.0;0 0;0 0;0 67.0;0 67.0" keyTimes="0;0.740379;0.759599;0.795293;0.927362;0.986793;1" />
<rect x="0.0" y="7.5" width="10" height="5" rx="1" ry="1" fill="#d02632" />
<rect x="12.5" y="0.0" width="10" height="5" rx="1" ry="1" fill="#db7b83" />
<rect x="12.5" y="7.5" width="10" height="5" rx="1" ry="1" fill="#db7b83" />
</g>
</g>
<metadata>{"username": "Treenixie", "active_cells": 46, "mode": "live-animation"}</metadata>
</svg>