<svg xmlns="http://www.w3.org/2000/svg" width="660.0" height="70.0" viewBox="0 0 660.0 70.0">
<rect x="0" y="0" width="660.0" height="70.0" rx="0" ry="0" fill="#ffffff" />
<defs>
<clipPath id="grid-clip-live-light"><rect x="0" y="10" width="660.0" height="50.0" rx="0" ry="0" /></clipPath>
</defs>
<rect x="0.0" y="10.0" width="10" height="5" rx="1" ry="1" fill="#ebedf0" />
<rect x="12.5" y="10.0" width="10" height="5" rx="1" ry="1" fill="#ebedf0" />
<rect x="25.0" y="10.0" width="10" height="5" rx="1" ry="1" fill="#ebedf0" />
<rect x="37.5" y="10.0" width="10" height="5" rx="1" ry="1" fill="#ebedf0" />
<rect x="50.0" y="10.0" width="10" height="5" rx="1" ry="1" fill="#ebedf0" />
<rect x="62.5" y="10.0" width="10" height="5" rx="1" ry="1" fill="#ebedf0" />
<rect x="75.0" y="10.0" width="10" height="5" rx="1" ry="1" fill="#ebedf0" />
<rect x="87.5" y="10.0" width="10" height="5" rx="1" ry="1" fill="#ebedf0" />
<rect x="100.0" y="10.0" width="10" height="5" rx="1" ry="1" fill="#ebedf0" />
<rect x="112.5" y="10.0" width="10" height="5" rx="1" ry="1" fill="#ebedf0" />
<rect x="125.0" y="10.0" width="10" height="5" rx="1" ry="1" fill="#ebedf0" />
<rect x="137.5" y="10.0" width="10" height="5" rx="1" ry="1" fill="#ebedf0" />
<rect x="150.0" y="10.0" width="10" height="5" rx="1" ry="1" fill="#ebedf0" />
<rect x="162.5" y="10.0" width="10" height="5" rx="1" ry="1" fill="#ebedf0" />
<rect x="175.0" y="10.0" width="10" height="5" rx="1" ry="1" fill="#ebedf0" />
<rect x="187.5" y="10.0" width="10" height="5" rx="1" ry="1" fill="#ebedf0" />
<rect x="200.0" y="10.0" width="10" height="5" rx="1" ry="1" fill="#ebedf0" />
<rect x="212.5" y="10.0" width="10" height="5" rx="1" ry="1" fill="#ebedf0" />
<rect x="225.0" y="10.0" width="10" height="5" rx="1" ry="1" fill="#ebedf0" />
<rect x="237.5" y="10.0" width="10" height="5" rx="1" ry="1" fill="#ebedf0" />
<rect x="250.0" y="10.0" width="10" height="5" rx="1" ry="1" fill="#ebedf0" />
<rect x="262.5" y="10.0" width="10" height="5" rx="1" ry="1" fill="#ebedf0" />
<rect x="275.0" y="10.0" width="10" height="5" rx="1" ry="1" fill="#ebedf0" />
<rect x="287.5" y="10.0" width="10" height="5" rx="1" ry="1" fill="#ebedf0" />
<rect x="300.0" y="10.0" width="10" height="5" rx="1" ry="1" fill="#ebedf0" />
<rect x="312.5" y="10.0" width="10" height="5" rx="1" ry="1" fill="#ebedf0" />
<rect x="325.0" y="10.0" width="10" height="5" rx="1" ry="1" fill="#ebedf0" />
<rect x="337.5" y="10.0" width="10" height="5" rx="1" ry="1" fill="#ebedf0" />
<rect x="350.0" y="10.0" width="10" height="5" rx="1" ry="1" fill="#ebedf0" />
<rect x="362.5" y="10.0" width="10" height="5" rx="1" ry="1" fill="#ebedf0" />
<rect x="375.0" y="10.0" width="10" height="5" rx="1" ry="1" fill="#ebedf0" />
<rect x="387.5" y="10.0" width="10" height="5" rx="1" ry="1" fill="#ebedf0" />
<rect x="400.0" y="10.0" width="10" height="5" rx="1" ry="1" fill="#ebedf0" />
<rect x="412.5" y="10.0" width="10" height="5" rx="1" ry="1" fill="#ebedf0" />
<rect x="425.0" y="10.0" width="10" height="5" rx="1" ry="1" fill="#ebedf0" />
<rect x="437.5" y="10.0" width="10" height="5" rx="1" ry="1" fill="#ebedf0" />
<rect x="450.0" y="10.0" width="10" height="5" rx="1" ry="1" fill="#ebedf0" />
<rect x="462.5" y="10.0" width="10" height="5" rx="1" ry="1" fill="#ebedf0" />
<rect x="475.0" y="10.0" width="10" height="5" rx="1" ry="1" fill="#ebedf0" />
<rect x="487.5" y="10.0" width="10" height="5" rx="1" ry="1" fill="#ebedf0" />
<rect x="500.0" y="10.0" width="10" height="5" rx="1" ry="1" fill="#ebedf0" />
<rect x="512.5" y="10.0" width="10" height="5" rx="1" ry="1" fill="#ebedf0" />
<rect x="525.0" y="10.0" width="10" height="5" rx="1" ry="1" fill="#ebedf0" />
<rect x="537.5" y="10.0" width="10" height="5" rx="1" ry="1" fill="#ebedf0" />
<rect x="550.0" y="10.0" width="10" height="5" rx="1" ry="1" fill="#ebedf0" />
<rect x="562.5" y="10.0" width="10" height="5" rx="1" ry="1" fill="#ebedf0" />
<rect x="575.0" y="10.0" width="10" height="5" rx="1" ry="1" fill="#ebedf0" />
<rect x="587.5" y="10.0" width="10" height="5" rx="1" ry="1" fill="#ebedf0" />
<rect x="600.0" y="10.0" width="10" height="5" rx="1" ry="1" fill="#ebedf0" />
<rect x="612.5" y="10.0" width="10" height="5" rx="1" ry="1" fill="#ebedf0" />
<rect x="625.0" y="10.0" width="10" height="5" rx="1" ry="1" fill="#ebedf0" />
<rect x="637.5" y="10.0" width="10" height="5" rx="1" ry="1" fill="#ebedf0" />
<rect x="650.0" y="10.0" width="10" height="5" rx="1" ry="1" fill="#ebedf0" />
<rect x="0.0" y="17.5" width="10" height="5" rx="1" ry="1" fill="#ebedf0" />
<rect x="12.5" y="17.5" width="10" height="5" rx="1" ry="1" fill="#ebedf0" />
<rect x="25.0" y="17.5" width="10" height="5" rx="1" ry="1" fill="#ebedf0" />
<rect x="37.5" y="17.5" width="10" height="5" rx="1" ry="1" fill="#ebedf0" />
<rect x="50.0" y="17.5" width="10" height="5" rx="1" ry="1" fill="#ebedf0" />
<rect x="62.5" y="17.5" width="10" height="5" rx="1" ry="1" fill="#ebedf0" />
<rect x="75.0" y="17.5" width="10" height="5" rx="1" ry="1" fill="#ebedf0" />
<rect x="87.5" y="17.5" width="10" height="5" rx="1" ry="1" fill="#ebedf0" />
<rect x="100.0" y="17.5" width="10" height="5" rx="1" ry="1" fill="#ebedf0" />
<rect x="112.5" y="17.5" width="10" height="5" rx="1" ry="1" fill="#ebedf0" />
<rect x="125.0" y="17.5" width="10" height="5" rx="1" ry="1" fill="#ebedf0" />
<rect x="137.5" y="17.5" width="10" height="5" rx="1" ry="1" fill="#ebedf0" />
<rect x="150.0" y="17.5" width="10" height="5" rx="1" ry="1" fill="#ebedf0" />
<rect x="162.5" y="17.5" width="10" height="5" rx="1" ry="1" fill="#ebedf0" />
<rect x="175.0" y="17.5" width="10" height="5" rx="1" ry="1" fill="#ebedf0" />
<rect x="187.5" y="17.5" width="10" height="5" rx="1" ry="1" fill="#ebedf0" />
<rect x="200.0" y="17.5" width="10" height="5" rx="1" ry="1" fill="#ebedf0" />
<rect x="212.5" y="17.5" width="10" height="5" rx="1" ry="1" fill="#ebedf0" />
<rect x="225.0" y="17.5" width="10" height="5" rx="1" ry="1" fill="#ebedf0" />
<rect x="237.5" y="17.5" width="10" height="5" rx="1" ry="1" fill="#ebedf0" />
<rect x="250.0" y="17.5" width="10" height="5" rx="1" ry="1" fill="#ebedf0" />
<rect x="262.5" y="17.5" width="10" height="5" rx="1" ry="1" fill="#ebedf0" />
<rect x="275.0" y="17.5" width="10" height="5" rx="1" ry="1" fill="#ebedf0" />
<rect x="287.5" y="17.5" width="10" height="5" rx="1" ry="1" fill="#ebedf0" />
<rect x="300.0" y="17.5" width="10" height="5" rx="1" ry="1" fill="#ebedf0" />
<rect x="312.5" y="17.5" width="10" height="5" rx="1" ry="1" fill="#ebedf0" />
<rect x="325.0" y="17.5" width="10" height="5" rx="1" ry="1" fill="#ebedf0" />
<rect x="337.5" y="17.5" width="10" height="5" rx="1" ry="1" fill="#ebedf0" />
<rect x="350.0" y="17.5" width="10" height="5" rx="1" ry="1" fill="#ebedf0" />
<rect x="362.5" y="17.5" width="10" height="5" rx="1" ry="1" fill="#ebedf0" />
<rect x="375.0" y="17.5" width="10" height="5" rx="1" ry="1" fill="#ebedf0" />
<rect x="387.5" y="17.5" width="10" height="5" rx="1" ry="1" fill="#ebedf0" />
<rect x="400.0" y="17.5" width="10" height="5" rx="1" ry="1" fill="#ebedf0" />
<rect x="412.5" y="17.5" width="10" height="5" rx="1" ry="1" fill="#ebedf0" />
<rect x="425.0" y="17.5" width="10" height="5" rx="1" ry="1" fill="#ebedf0" />
<rect x="437.5" y="17.5" width="10" height="5" rx="1" ry="1" fill="#ebedf0" />
<rect x="450.0" y="17.5" width="10" height="5" rx="1" ry="1" fill="#ebedf0" />
<rect x="462.5" y="17.5" width="10" height="5" rx="1" ry="1" fill="#ebedf0" />
<rect x="475.0" y="17.5" width="10" height="5" rx="1" ry="1" fill="#ebedf0" />
<rect x="487.5" y="17.5" width="10" height="5" rx="1" ry="1" fill="#ebedf0" />
<rect x="500.0" y="17.5" width="10" height="5" rx="1" ry="1" fill="#ebedf0" />
<rect x="512.5" y="17.5" width="10" height="5" rx="1" ry="1" fill="#ebedf0" />
<rect x="525.0" y="17.5" width="10" height="5" rx="1" ry="1" fill="#ebedf0" />
<rect x="537.5" y="17.5" width="10" height="5" rx="1" ry="1" fill="#ebedf0" />
<rect x="550.0" y="17.5" width="10" height="5" rx="1" ry="1" fill="#ebedf0" />
<rect x="562.5" y="17.5" width="10" height="5" rx="1" ry="1" fill="#ebedf0" />
<rect x="575.0" y="17.5" width="10" height="5" rx="1" ry="1" fill="#ebedf0" />
<rect x="587.5" y="17.5" width="10" height="5" rx="1" ry="1" fill="#ebedf0" />
<rect x="600.0" y="17.5" width="10" height="5" rx="1" ry="1" fill="#ebedf0" />
<rect x="612.5" y="17.5" width="10" height="5" rx="1" ry="1" fill="#ebedf0" />
<rect x="625.0" y="17.5" width="10" height="5" rx="1" ry="1" fill="#ebedf0" />
<rect x="637.5" y="17.5" width="10" height="5" rx="1" ry="1" fill="#ebedf0" />
<rect x="650.0" y="17.5" width="10" height="5" rx="1" ry="1" fill="#ebedf0" />
<rect x="0.0" y="25.0" width="10" height="5" rx="1" ry="1" fill="#ebedf0" />
<rect x="12.5" y="25.0" width="10" height="5" rx="1" ry="1" fill="#ebedf0" />
<rect x="25.0" y="25.0" width="10" height="5" rx="1" ry="1" fill="#ebedf0" />
<rect x="37.5" y="25.0" width="10" height="5" rx="1" ry="1" fill="#ebedf0" />
<rect x="50.0" y="25.0" width="10" height="5" rx="1" ry="1" fill="#ebedf0" />
<rect x="62.5" y="25.0" width="10" height="5" rx="1" ry="1" fill="#ebedf0" />
<rect x="75.0" y="25.0" width="10" height="5" rx="1" ry="1" fill="#ebedf0" />
<rect x="87.5" y="25.0" width="10" height="5" rx="1" ry="1" fill="#ebedf0" />
<rect x="100.0" y="25.0" width="10" height="5" rx="1" ry="1" fill="#ebedf0" />
<rect x="112.5" y="25.0" width="10" height="5" rx="1" ry="1" fill="#ebedf0" />
<rect x="125.0" y="25.0" width="10" height="5" rx="1" ry="1" fill="#ebedf0" />
<rect x="137.5" y="25.0" width="10" height="5" rx="1" ry="1" fill="#ebedf0" />
<rect x="150.0" y="25.0" width="10" height="5" rx="1" ry="1" fill="#ebedf0" />
<rect x="162.5" y="25.0" width="10" height="5" rx="1" ry="1" fill="#ebedf0" />
<rect x="175.0" y="25.0" width="10" height="5" rx="1" ry="1" fill="#ebedf0" />
<rect x="187.5" y="25.0" width="10" height="5" rx="1" ry="1" fill="#ebedf0" />
<rect x="200.0" y="25.0" width="10" height="5" rx="1" ry="1" fill="#ebedf0" />
<rect x="212.5" y="25.0" width="10" height="5" rx="1" ry="1" fill="#ebedf0" />
<rect x="225.0" y="25.0" width="10" height="5" rx="1" ry="1" fill="#ebedf0" />
<rect x="237.5" y="25.0" width="10" height="5" rx="1" ry="1" fill="#ebedf0" />
<rect x="250.0" y="25.0" width="10" height="5" rx="1" ry="1" fill="#ebedf0" />
<rect x="262.5" y="25.0" width="10" height="5" rx="1" ry="1" fill="#ebedf0" />
<rect x="275.0" y="25.0" width="10" height="5" rx="1" ry="1" fill="#ebedf0" />
<rect x="287.5" y="25.0" width="10" height="5" rx="1" ry="1" fill="#ebedf0" />
<rect x="300.0" y="25.0" width="10" height="5" rx="1" ry="1" fill="#ebedf0" />
<rect x="312.5" y="25.0" width="10" height="5" rx="1" ry="1" fill="#ebedf0" />
<rect x="325.0" y="25.0" width="10" height="5" rx="1" ry="1" fill="#ebedf0" />
<rect x="337.5" y="25.0" width="10" height="5" rx="1" ry="1" fill="#ebedf0" />
<rect x="350.0" y="25.0" width="10" height="5" rx="1" ry="1" fill="#ebedf0" />
<rect x="362.5" y="25.0" width="10" height="5" rx="1" ry="1" fill="#ebedf0" />
<rect x="375.0" y="25.0" width="10" height="5" rx="1" ry="1" fill="#ebedf0" />
<rect x="387.5" y="25.0" width="10" height="5" rx="1" ry="1" fill="#ebedf0" />
<rect x="400.0" y="25.0" width="10" height="5" rx="1" ry="1" fill="#ebedf0" />
<rect x="412.5" y="25.0" width="10" height="5" rx="1" ry="1" fill="#ebedf0" />
<rect x="425.0" y="25.0" width="10" height="5" rx="1" ry="1" fill="#ebedf0" />
<rect x="437.5" y="25.0" width="10" height="5" rx="1" ry="1" fill="#ebedf0" />
<rect x="450.0" y="25.0" width="10" height="5" rx="1" ry="1" fill="#ebedf0" />
<rect x="462.5" y="25.0" width="10" height="5" rx="1" ry="1" fill="#ebedf0" />
<rect x="475.0" y="25.0" width="10" height="5" rx="1" ry="1" fill="#ebedf0" />
<rect x="487.5" y="25.0" width="10" height="5" rx="1" ry="1" fill="#ebedf0" />
<rect x="500.0" y="25.0" width="10" height="5" rx="1" ry="1" fill="#ebedf0" />
<rect x="512.5" y="25.0" width="10" height="5" rx="1" ry="1" fill="#ebedf0" />
<rect x="525.0" y="25.0" width="10" height="5" rx="1" ry="1" fill="#ebedf0" />
<rect x="537.5" y="25.0" width="10" height="5" rx="1" ry="1" fill="#ebedf0" />
<rect x="550.0" y="25.0" width="10" height="5" rx="1" ry="1" fill="#ebedf0" />
<rect x="562.5" y="25.0" width="10" height="5" rx="1" ry="1" fill="#ebedf0" />
<rect x="575.0" y="25.0" width="10" height="5" rx="1" ry="1" fill="#ebedf0" />
<rect x="587.5" y="25.0" width="10" height="5" rx="1" ry="1" fill="#ebedf0" />
<rect x="600.0" y="25.0" width="10" height="5" rx="1" ry="1" fill="#ebedf0" />
<rect x="612.5" y="25.0" width="10" height="5" rx="1" ry="1" fill="#ebedf0" />
<rect x="625.0" y="25.0" width="10" height="5" rx="1" ry="1" fill="#ebedf0" />
<rect x="637.5" y="25.0" width="10" height="5" rx="1" ry="1" fill="#ebedf0" />
<rect x="650.0" y="25.0" width="10" height="5" rx="1" ry="1" fill="#ebedf0" />
<rect x="0.0" y="32.5" width="10" height="5" rx="1" ry="1" fill="#ebedf0" />
<rect x="12.5" y="32.5" width="10" height="5" rx="1" ry="1" fill="#ebedf0" />
<rect x="25.0" y="32.5" width="10" height="5" rx="1" ry="1" fill="#ebedf0" />
<rect x="37.5" y="32.5" width="10" height="5" rx="1" ry="1" fill="#ebedf0" />
<rect x="50.0" y="32.5" width="10" height="5" rx="1" ry="1" fill="#ebedf0" />
<rect x="62.5" y="32.5" width="10" height="5" rx="1" ry="1" fill="#ebedf0" />
<rect x="75.0" y="32.5" width="10" height="5" rx="1" ry="1" fill="#ebedf0" />
<rect x="87.5" y="32.5" width="10" height="5" rx="1" ry="1" fill="#ebedf0" />
<rect x="100.0" y="32.5" width="10" height="5" rx="1" ry="1" fill="#ebedf0" />
<rect x="112.5" y="32.5" width="10" height="5" rx="1" ry="1" fill="#ebedf0" />
<rect x="125.0" y="32.5" width="10" height="5" rx="1" ry="1" fill="#ebedf0" />
<rect x="137.5" y="32.5" width="10" height="5" rx="1" ry="1" fill="#ebedf0" />
<rect x="150.0" y="32.5" width="10" height="5" rx="1" ry="1" fill="#ebedf0" />
<rect x="162.5" y="32.5" width="10" height="5" rx="1" ry="1" fill="#ebedf0" />
<rect x="175.0" y="32.5" width="10" height="5" rx="1" ry="1" fill="#ebedf0" />
<rect x="187.5" y="32.5" width="10" height="5" rx="1" ry="1" fill="#ebedf0" />
<rect x="200.0" y="32.5" width="10" height="5" rx="1" ry="1" fill="#ebedf0" />
<rect x="212.5" y="32.5" width="10" height="5" rx="1" ry="1" fill="#ebedf0" />
<rect x="225.0" y="32.5" width="10" height="5" rx="1" ry="1" fill="#ebedf0" />
<rect x="237.5" y="32.5" width="10" height="5" rx="1" ry="1" fill="#ebedf0" />
<rect x="250.0" y="32.5" width="10" height="5" rx="1" ry="1" fill="#ebedf0" />
<rect x="262.5" y="32.5" width="10" height="5" rx="1" ry="1" fill="#ebedf0" />
<rect x="275.0" y="32.5" width="10" height="5" rx="1" ry="1" fill="#ebedf0" />
<rect x="287.5" y="32.5" width="10" height="5" rx="1" ry="1" fill="#ebedf0" />
<rect x="300.0" y="32.5" width="10" height="5" rx="1" ry="1" fill="#ebedf0" />
<rect x="312.5" y="32.5" width="10" height="5" rx="1" ry="1" fill="#ebedf0" />
<rect x="325.0" y="32.5" width="10" height="5" rx="1" ry="1" fill="#ebedf0" />
<rect x="337.5" y="32.5" width="10" height="5" rx="1" ry="1" fill="#ebedf0" />
<rect x="350.0" y="32.5" width="10" height="5" rx="1" ry="1" fill="#ebedf0" />
<rect x="362.5" y="32.5" width="10" height="5" rx="1" ry="1" fill="#ebedf0" />
<rect x="375.0" y="32.5" width="10" height="5" rx="1" ry="1" fill="#ebedf0" />
<rect x="387.5" y="32.5" width="10" height="5" rx="1" ry="1" fill="#ebedf0" />
<rect x="400.0" y="32.5" width="10" height="5" rx="1" ry="1" fill="#ebedf0" />
<rect x="412.5" y="32.5" width="10" height="5" rx="1" ry="1" fill="#ebedf0" />
<rect x="425.0" y="32.5" width="10" height="5" rx="1" ry="1" fill="#ebedf0" />
<rect x="437.5" y="32.5" width="10" height="5" rx="1" ry="1" fill="#ebedf0" />
<rect x="450.0" y="32.5" width="10" height="5" rx="1" ry="1" fill="#ebedf0" />
<rect x="462.5" y="32.5" width="10" height="5" rx="1" ry="1" fill="#ebedf0" />
<rect x="475.0" y="32.5" width="10" height="5" rx="1" ry="1" fill="#ebedf0" />
<rect x="487.5" y="32.5" width="10" height="5" rx="1" ry="1" fill="#ebedf0" />
<rect x="500.0" y="32.5" width="10" height="5" rx="1" ry="1" fill="#ebedf0" />
<rect x="512.5" y="32.5" width="10" height="5" rx="1" ry="1" fill="#ebedf0" />
<rect x="525.0" y="32.5" width="10" height="5" rx="1" ry="1" fill="#ebedf0" />
<rect x="537.5" y="32.5" width="10" height="5" rx="1" ry="1" fill="#ebedf0" />
<rect x="550.0" y="32.5" width="10" height="5" rx="1" ry="1" fill="#ebedf0" />
<rect x="562.5" y="32.5" width="10" height="5" rx="1" ry="1" fill="#ebedf0" />
<rect x="575.0" y="32.5" width="10" height="5" rx="1" ry="1" fill="#ebedf0" />
<rect x="587.5" y="32.5" width="10" height="5" rx="1" ry="1" fill="#ebedf0" />
<rect x="600.0" y="32.5" width="10" height="5" rx="1" ry="1" fill="#ebedf0" />
<rect x="612.5" y="32.5" width="10" height="5" rx="1" ry="1" fill="#ebedf0" />
<rect x="625.0" y="32.5" width="10" height="5" rx="1" ry="1" fill="#ebedf0" />
<rect x="637.5" y="32.5" width="10" height="5" rx="1" ry="1" fill="#ebedf0" />
<rect x="650.0" y="32.5" width="10" height="5" rx="1" ry="1" fill="#ebedf0" />
<rect x="0.0" y="40.0" width="10" height="5" rx="1" ry="1" fill="#ebedf0" />
<rect x="12.5" y="40.0" width="10" height="5" rx="1" ry="1" fill="#ebedf0" />
<rect x="25.0" y="40.0" width="10" height="5" rx="1" ry="1" fill="#ebedf0" />
<rect x="37.5" y="40.0" width="10" height="5" rx="1" ry="1" fill="#ebedf0" />
<rect x="50.0" y="40.0" width="10" height="5" rx="1" ry="1" fill="#ebedf0" />
<rect x="62.5" y="40.0" width="10" height="5" rx="1" ry="1" fill="#ebedf0" />
<rect x="75.0" y="40.0" width="10" height="5" rx="1" ry="1" fill="#ebedf0" />
<rect x="87.5" y="40.0" width="10" height="5" rx="1" ry="1" fill="#ebedf0" />
<rect x="100.0" y="40.0" width="10" height="5" rx="1" ry="1" fill="#ebedf0" />
<rect x="112.5" y="40.0" width="10" height="5" rx="1" ry="1" fill="#ebedf0" />
<rect x="125.0" y="40.0" width="10" height="5" rx="1" ry="1" fill="#ebedf0" />
<rect x="137.5" y="40.0" width="10" height="5" rx="1" ry="1" fill="#ebedf0" />
<rect x="150.0" y="40.0" width="10" height="5" rx="1" ry="1" fill="#ebedf0" />
<rect x="162.5" y="40.0" width="10" height="5" rx="1" ry="1" fill="#ebedf0" />
<rect x="175.0" y="40.0" width="10" height="5" rx="1" ry="1" fill="#ebedf0" />
<rect x="187.5" y="40.0" width="10" height="5" rx="1" ry="1" fill="#ebedf0" />
<rect x="200.0" y="40.0" width="10" height="5" rx="1" ry="1" fill="#ebedf0" />
<rect x="212.5" y="40.0" width="10" height="5" rx="1" ry="1" fill="#ebedf0" />
<rect x="225.0" y="40.0" width="10" height="5" rx="1" ry="1" fill="#ebedf0" />
<rect x="237.5" y="40.0" width="10" height="5" rx="1" ry="1" fill="#ebedf0" />
<rect x="250.0" y="40.0" width="10" height="5" rx="1" ry="1" fill="#ebedf0" />
<rect x="262.5" y="40.0" width="10" height="5" rx="1" ry="1" fill="#ebedf0" />
<rect x="275.0" y="40.0" width="10" height="5" rx="1" ry="1" fill="#ebedf0" />
<rect x="287.5" y="40.0" width="10" height="5" rx="1" ry="1" fill="#ebedf0" />
<rect x="300.0" y="40.0" width="10" height="5" rx="1" ry="1" fill="#ebedf0" />
<rect x="312.5" y="40.0" width="10" height="5" rx="1" ry="1" fill="#ebedf0" />
<rect x="325.0" y="40.0" width="10" height="5" rx="1" ry="1" fill="#ebedf0" />
<rect x="337.5" y="40.0" width="10" height="5" rx="1" ry="1" fill="#ebedf0" />
<rect x="350.0" y="40.0" width="10" height="5" rx="1" ry="1" fill="#ebedf0" />
<rect x="362.5" y="40.0" width="10" height="5" rx="1" ry="1" fill="#ebedf0" />
<rect x="375.0" y="40.0" width="10" height="5" rx="1" ry="1" fill="#ebedf0" />
<rect x="387.5" y="40.0" width="10" height="5" rx="1" ry="1" fill="#ebedf0" />
<rect x="400.0" y="40.0" width="10" height="5" rx="1" ry="1" fill="#ebedf0" />
<rect x="412.5" y="40.0" width="10" height="5" rx="1" ry="1" fill="#ebedf0" />
<rect x="425.0" y="40.0" width="10" height="5" rx="1" ry="1" fill="#ebedf0" />
<rect x="437.5" y="40.0" width="10" height="5" rx="1" ry="1" fill="#ebedf0" />
<rect x="450.0" y="40.0" width="10" height="5" rx="1" ry="1" fill="#ebedf0" />
<rect x="462.5" y="40.0" width="10" height="5" rx="1" ry="1" fill="#ebedf0" />
<rect x="475.0" y="40.0" width="10" height="5" rx="1" ry="1" fill="#ebedf0" />
<rect x="487.5" y="40.0" width="10" height="5" rx="1" ry="1" fill="#ebedf0" />
<rect x="500.0" y="40.0" width="10" height="5" rx="1" ry="1" fill="#ebedf0" />
<rect x="512.5" y="40.0" width="10" height="5" rx="1" ry="1" fill="#ebedf0" />
<rect x="525.0" y="40.0" width="10" height="5" rx="1" ry="1" fill="#ebedf0" />
<rect x="537.5" y="40.0" width="10" height="5" rx="1" ry="1" fill="#ebedf0" />
<rect x="550.0" y="40.0" width="10" height="5" rx="1" ry="1" fill="#ebedf0" />
<rect x="562.5" y="40.0" width="10" height="5" rx="1" ry="1" fill="#ebedf0" />
<rect x="575.0" y="40.0" width="10" height="5" rx="1" ry="1" fill="#ebedf0" />
<rect x="587.5" y="40.0" width="10" height="5" rx="1" ry="1" fill="#ebedf0" />
<rect x="600.0" y="40.0" width="10" height="5" rx="1" ry="1" fill="#ebedf0" />
<rect x="612.5" y="40.0" width="10" height="5" rx="1" ry="1" fill="#ebedf0" />
<rect x="625.0" y="40.0" width="10" height="5" rx="1" ry="1" fill="#ebedf0" />
<rect x="637.5" y="40.0" width="10" height="5" rx="1" ry="1" fill="#ebedf0" />
<rect x="650.0" y="40.0" width="10" height="5" rx="1" ry="1" fill="#ebedf0" />
<rect x="0.0" y="47.5" width="10" height="5" rx="1" ry="1" fill="#ebedf0" />
<rect x="12.5" y="47.5" width="10" height="5" rx="1" ry="1" fill="#ebedf0" />
<rect x="25.0" y="47.5" width="10" height="5" rx="1" ry="1" fill="#ebedf0" />
<rect x="37.5" y="47.5" width="10" height="5" rx="1" ry="1" fill="#ebedf0" />
<rect x="50.0" y="47.5" width="10" height="5" rx="1" ry="1" fill="#ebedf0" />
<rect x="62.5" y="47.5" width="10" height="5" rx="1" ry="1" fill="#ebedf0" />
<rect x="75.0" y="47.5" width="10" height="5" rx="1" ry="1" fill="#ebedf0" />
<rect x="87.5" y="47.5" width="10" height="5" rx="1" ry="1" fill="#ebedf0" />
<rect x="100.0" y="47.5" width="10" height="5" rx="1" ry="1" fill="#ebedf0" />
<rect x="112.5" y="47.5" width="10" height="5" rx="1" ry="1" fill="#ebedf0" />
<rect x="125.0" y="47.5" width="10" height="5" rx="1" ry="1" fill="#ebedf0" />
<rect x="137.5" y="47.5" width="10" height="5" rx="1" ry="1" fill="#ebedf0" />
<rect x="150.0" y="47.5" width="10" height="5" rx="1" ry="1" fill="#ebedf0" />
<rect x="162.5" y="47.5" width="10" height="5" rx="1" ry="1" fill="#ebedf0" />
<rect x="175.0" y="47.5" width="10" height="5" rx="1" ry="1" fill="#ebedf0" />
<rect x="187.5" y="47.5" width="10" height="5" rx="1" ry="1" fill="#ebedf0" />
<rect x="200.0" y="47.5" width="10" height="5" rx="1" ry="1" fill="#ebedf0" />
<rect x="212.5" y="47.5" width="10" height="5" rx="1" ry="1" fill="#ebedf0" />
<rect x="225.0" y="47.5" width="10" height="5" rx="1" ry="1" fill="#ebedf0" />
<rect x="237.5" y="47.5" width="10" height="5" rx="1" ry="1" fill="#ebedf0" />
<rect x="250.0" y="47.5" width="10" height="5" rx="1" ry="1" fill="#ebedf0" />
<rect x="262.5" y="47.5" width="10" height="5" rx="1" ry="1" fill="#ebedf0" />
<rect x="275.0" y="47.5" width="10" height="5" rx="1" ry="1" fill="#ebedf0" />
<rect x="287.5" y="47.5" width="10" height="5" rx="1" ry="1" fill="#ebedf0" />
<rect x="300.0" y="47.5" width="10" height="5" rx="1" ry="1" fill="#ebedf0" />
<rect x="312.5" y="47.5" width="10" height="5" rx="1" ry="1" fill="#ebedf0" />
<rect x="325.0" y="47.5" width="10" height="5" rx="1" ry="1" fill="#ebedf0" />
<rect x="337.5" y="47.5" width="10" height="5" rx="1" ry="1" fill="#ebedf0" />
<rect x="350.0" y="47.5" width="10" height="5" rx="1" ry="1" fill="#ebedf0" />
<rect x="362.5" y="47.5" width="10" height="5" rx="1" ry="1" fill="#ebedf0" />
<rect x="375.0" y="47.5" width="10" height="5" rx="1" ry="1" fill="#ebedf0" />
<rect x="387.5" y="47.5" width="10" height="5" rx="1" ry="1" fill="#ebedf0" />
<rect x="400.0" y="47.5" width="10" height="5" rx="1" ry="1" fill="#ebedf0" />
<rect x="412.5" y="47.5" width="10" height="5" rx="1" ry="1" fill="#ebedf0" />
<rect x="425.0" y="47.5" width="10" height="5" rx="1" ry="1" fill="#ebedf0" />
<rect x="437.5" y="47.5" width="10" height="5" rx="1" ry="1" fill="#ebedf0" />
<rect x="450.0" y="47.5" width="10" height="5" rx="1" ry="1" fill="#ebedf0" />
<rect x="462.5" y="47.5" width="10" height="5" rx="1" ry="1" fill="#ebedf0" />
<rect x="475.0" y="47.5" width="10" height="5" rx="1" ry="1" fill="#ebedf0" />
<rect x="487.5" y="47.5" width="10" height="5" rx="1" ry="1" fill="#ebedf0" />
<rect x="500.0" y="47.5" width="10" height="5" rx="1" ry="1" fill="#ebedf0" />
<rect x="512.5" y="47.5" width="10" height="5" rx="1" ry="1" fill="#ebedf0" />
<rect x="525.0" y="47.5" width="10" height="5" rx="1" ry="1" fill="#ebedf0" />
<rect x="537.5" y="47.5" width="10" height="5" rx="1" ry="1" fill="#ebedf0" />
<rect x="550.0" y="47.5" width="10" height="5" rx="1" ry="1" fill="#ebedf0" />
<rect x="562.5" y="47.5" width="10" height="5" rx="1" ry="1" fill="#ebedf0" />
<rect x="575.0" y="47.5" width="10" height="5" rx="1" ry="1" fill="#ebedf0" />
<rect x="587.5" y="47.5" width="10" height="5" rx="1" ry="1" fill="#ebedf0" />
<rect x="600.0" y="47.5" width="10" height="5" rx="1" ry="1" fill="#ebedf0" />
<rect x="612.5" y="47.5" width="10" height="5" rx="1" ry="1" fill="#ebedf0" />
<rect x="625.0" y="47.5" width="10" height="5" rx="1" ry="1" fill="#ebedf0" />
<rect x="637.5" y="47.5" width="10" height="5" rx="1" ry="1" fill="#ebedf0" />
<rect x="650.0" y="47.5" width="10" height="5" rx="1" ry="1" fill="#ebedf0" />
<rect x="0.0" y="55.0" width="10" height="5" rx="1" ry="1" fill="#ebedf0" />
<rect x="12.5" y="55.0" width="10" height="5" rx="1" ry="1" fill="#ebedf0" />
<rect x="25.0" y="55.0" width="10" height="5" rx="1" ry="1" fill="#ebedf0" />
<rect x="37.5" y="55.0" width="10" height="5" rx="1" ry="1" fill="#ebedf0" />
<rect x="50.0" y="55.0" width="10" height="5" rx="1" ry="1" fill="#ebedf0" />
<rect x="62.5" y="55.0" width="10" height="5" rx="1" ry="1" fill="#ebedf0" />
<rect x="75.0" y="55.0" width="10" height="5" rx="1" ry="1" fill="#ebedf0" />
<rect x="87.5" y="55.0" width="10" height="5" rx="1" ry="1" fill="#ebedf0" />
<rect x="100.0" y="55.0" width="10" height="5" rx="1" ry="1" fill="#ebedf0" />
<rect x="112.5" y="55.0" width="10" height="5" rx="1" ry="1" fill="#ebedf0" />
<rect x="125.0" y="55.0" width="10" height="5" rx="1" ry="1" fill="#ebedf0" />
<rect x="137.5" y="55.0" width="10" height="5" rx="1" ry="1" fill="#ebedf0" />
<rect x="150.0" y="55.0" width="10" height="5" rx="1" ry="1" fill="#ebedf0" />
<rect x="162.5" y="55.0" width="10" height="5" rx="1" ry="1" fill="#ebedf0" />
<rect x="175.0" y="55.0" width="10" height="5" rx="1" ry="1" fill="#ebedf0" />
<rect x="187.5" y="55.0" width="10" height="5" rx="1" ry="1" fill="#ebedf0" />
<rect x="200.0" y="55.0" width="10" height="5" rx="1" ry="1" fill="#ebedf0" />
<rect x="212.5" y="55.0" width="10" height="5" rx="1" ry="1" fill="#ebedf0" />
<rect x="225.0" y="55.0" width="10" height="5" rx="1" ry="1" fill="#ebedf0" />
<rect x="237.5" y="55.0" width="10" height="5" rx="1" ry="1" fill="#ebedf0" />
<rect x="250.0" y="55.0" width="10" height="5" rx="1" ry="1" fill="#ebedf0" />
<rect x="262.5" y="55.0" width="10" height="5" rx="1" ry="1" fill="#ebedf0" />
<rect x="275.0" y="55.0" width="10" height="5" rx="1" ry="1" fill="#ebedf0" />
<rect x="287.5" y="55.0" width="10" height="5" rx="1" ry="1" fill="#ebedf0" />
<rect x="300.0" y="55.0" width="10" height="5" rx="1" ry="1" fill="#ebedf0" />
<rect x="312.5" y="55.0" width="10" height="5" rx="1" ry="1" fill="#ebedf0" />
<rect x="325.0" y="55.0" width="10" height="5" rx="1" ry="1" fill="#ebedf0" />
<rect x="337.5" y="55.0" width="10" height="5" rx="1" ry="1" fill="#ebedf0" />
<rect x="350.0" y="55.0" width="10" height="5" rx="1" ry="1" fill="#ebedf0" />
<rect x="362.5" y="55.0" width="10" height="5" rx="1" ry="1" fill="#ebedf0" />
<rect x="375.0" y="55.0" width="10" height="5" rx="1" ry="1" fill="#ebedf0" />
<rect x="387.5" y="55.0" width="10" height="5" rx="1" ry="1" fill="#ebedf0" />
<rect x="400.0" y="55.0" width="10" height="5" rx="1" ry="1" fill="#ebedf0" />
<rect x="412.5" y="55.0" width="10" height="5" rx="1" ry="1" fill="#ebedf0" />
<rect x="425.0" y="55.0" width="10" height="5" rx="1" ry="1" fill="#ebedf0" />
<rect x="437.5" y="55.0" width="10" height="5" rx="1" ry="1" fill="#ebedf0" />
<rect x="450.0" y="55.0" width="10" height="5" rx="1" ry="1" fill="#ebedf0" />
<rect x="462.5" y="55.0" width="10" height="5" rx="1" ry="1" fill="#ebedf0" />
<rect x="475.0" y="55.0" width="10" height="5" rx="1" ry="1" fill="#ebedf0" />
<rect x="487.5" y="55.0" width="10" height="5" rx="1" ry="1" fill="#ebedf0" />
<rect x="500.0" y="55.0" width="10" height="5" rx="1" ry="1" fill="#ebedf0" />
<rect x="512.5" y="55.0" width="10" height="5" rx="1" ry="1" fill="#ebedf0" />
<rect x="525.0" y="55.0" width="10" height="5" rx="1" ry="1" fill="#ebedf0" />
<rect x="537.5" y="55.0" width="10" height="5" rx="1" ry="1" fill="#ebedf0" />
<rect x="550.0" y="55.0" width="10" height="5" rx="1" ry="1" fill="#ebedf0" />
<rect x="562.5" y="55.0" width="10" height="5" rx="1" ry="1" fill="#ebedf0" />
<rect x="575.0" y="55.0" width="10" height="5" rx="1" ry="1" fill="#ebedf0" />
<rect x="587.5" y="55.0" width="10" height="5" rx="1" ry="1" fill="#ebedf0" />
<rect x="600.0" y="55.0" width="10" height="5" rx="1" ry="1" fill="#ebedf0" />
<rect x="612.5" y="55.0" width="10" height="5" rx="1" ry="1" fill="#ebedf0" />
<rect x="625.0" y="55.0" width="10" height="5" rx="1" ry="1" fill="#ebedf0" />
<rect x="637.5" y="55.0" width="10" height="5" rx="1" ry="1" fill="#ebedf0" />
<rect x="650.0" y="55.0" width="10" height="5" rx="1" ry="1" fill="#ebedf0" />
<g clip-path="url(#grid-clip-live-light)">
<g transform="translate(275.0 10.0)">
<animateTransform attributeName="transform" type="translate" additive="sum" dur="23.769s" repeatCount="indefinite" calcMode="linear" values="-37.5 -22.5;-37.5 -22.5;0.0 -15.0;0 0;0 0;0 67.0;0 67.0" keyTimes="0;0.007573;0.013169;0.023560;0.953721;0.991586;1" />
<rect x="0.0" y="0.0" width="10" height="5" rx="1" ry="1" fill="#d1936a" />
</g>
<g transform="translate(575.0 10.0)">
<animateTransform attributeName="transform" type="translate" additive="sum" dur="23.769s" repeatCount="indefinite" calcMode="linear" values="0.0 -15.0;0.0 -15.0;0.0 -15.0;0 0;0 0;0 67.0;0 67.0" keyTimes="0;0.026926;0.032522;0.042913;0.953721;0.991586;1" />
<rect x="0.0" y="0.0" width="10" height="5" rx="1" ry="1" fill="#96c3d3" />
<rect x="12.5" y="0.0" width="10" height="5" rx="1" ry="1" fill="#6dafc5" />
</g>
<g transform="translate(387.5 10.0)">
<animateTransform attributeName="transform" type="translate" additive="sum" dur="23.769s" repeatCount="indefinite" calcMode="linear" values="0.0 -22.5;0.0 -22.5;0.0 -15.0;0 0;0 0;0 67.0;0 67.0" keyTimes="0;0.046279;0.051875;0.062267;0.953721;0.991586;1" />
<rect x="0.0" y="0.0" width="10" height="5" rx="1" ry="1" fill="#4099b6" />
<rect x="0.0" y="7.5" width="10" height="5" rx="1" ry="1" fill="#96c3d3" />
<rect x="12.5" y="0.0" width="10" height="5" rx="1" ry="1" fill="#96c3d3" />
</g>
<g transform="translate(412.5 10.0)">
<animateTransform attributeName="transform" type="translate" additive="sum" dur="23.769s" repeatCount="indefinite" calcMode="linear" values="-37.5 -30.0;-37.5 -30.0;0.0 -15.0;0 0;0 0;0 67.0;0 67.0" keyTimes="0;0.065632;0.071228;0.081620;0.953721;0.991586;1" />
<rect x="0.0" y="0.0" width="10" height="5" rx="1" ry="1" fill="#e0a0a6" />
<rect x="12.5" y="0.0" width="10" height="5" rx="1" ry="1" fill="#e0a0a6" />
<rect x="12.5" y="7.5" width="10" height="5" rx="1" ry="1" fill="#e0a0a6" />
<rect x="25.0" y="0.0" width="10" height="5" rx="1" ry="1" fill="#e0a0a6" />
</g>
<g transform="translate(462.5 10.0)">
<animateTransform attributeName="transform" type="translate" additive="sum" dur="23.769s" repeatCount="indefinite" calcMode="linear" values="-25.0 -30.0;-25.0 -30.0;0.0 -15.0;0 0;0 0;0 67.0;0 67.0" keyTimes="0;0.084985;0.090581;0.100973;0.953721;0.991586;1" />
<rect x="0.0" y="0.0" width="10" height="5" rx="1" ry="1" fill="#e0a0a6" />
<rect x="0.0" y="7.5" width="10" height="5" rx="1" ry="1" fill="#e0a0a6" />
</g>
<g transform="translate(512.5 10.0)">
<animateTransform attributeName="transform" type="translate" additive="sum" dur="23.769s" repeatCount="indefinite" calcMode="linear" values="37.5 -30.0;37.5 -30.0;0.0 -15.0;0 0;0 0;0 67.0;0 67.0" keyTimes="0;0.104338;0.109934;0.120326;0.953721;0.991586;1" />
<rect x="0.0" y="0.0" width="10" height="5" rx="1" ry="1" fill="#d6b595" />
<rect x="0.0" y="7.5" width="10" height="5" rx="1" ry="1" fill="#cc9a6a" />
<rect x="12.5" y="7.5" width="10" height="5" rx="1" ry="1" fill="#b45c05" />
<rect x="25.0" y="7.5" width="10" height="5" rx="1" ry="1" fill="#cc9a6a" />
</g>
<g transform="translate(525.0 10.0)">
<animateTransform attributeName="transform" type="translate" additive="sum" dur="23.769s" repeatCount="indefinite" calcMode="linear" values="25.0 -30.0;25.0 -30.0;0.0 -15.0;0 0;0 0;0 67.0;0 67.0" keyTimes="0;0.123692;0.129287;0.139679;0.953721;0.991586;1" />
<rect x="0.0" y="0.0" width="10" height="5" rx="1" ry="1" fill="#d6535d" />
<rect x="12.5" y="0.0" width="10" height="5" rx="1" ry="1" fill="#e0a0a6" />
<rect x="25.0" y="0.0" width="10" height="5" rx="1" ry="1" fill="#e0a0a6" />
<rect x="25.0" y="7.5" width="10" height="5" rx="1" ry="1" fill="#db7b83" />
</g>
<g transform="translate(300.0 25.0)">
<animateTransform attributeName="transform" type="translate" additive="sum" dur="23.769s" repeatCount="indefinite" calcMode="linear" values="-37.5 -37.5;-37.5 -37.5;0.0 -22.5;0 0;0 0;0 67.0;0 67.0" keyTimes="0;0.143045;0.149848;0.162482;0.953721;0.991586;1" />
<rect x="0.0" y="0.0" width="10" height="5" rx="1" ry="1" fill="#9cc3aa" />
</g>
<g transform="translate(375.0 10.0)">
<animateTransform attributeName="transform" type="translate" additive="sum" dur="23.769s" repeatCount="indefinite" calcMode="linear" values="0.0 -37.5;0.0 -37.5;0.0 -15.0;0 0;0 0;0 67.0;0 67.0" keyTimes="0;0.165848;0.172651;0.185285;0.953721;0.991586;1" />
<rect x="0.0" y="0.0" width="10" height="5" rx="1" ry="1" fill="#ccba95" />
<rect x="0.0" y="7.5" width="10" height="5" rx="1" ry="1" fill="#bea26a" />
<rect x="0.0" y="15.0" width="10" height="5" rx="1" ry="1" fill="#ccba95" />
</g>
<g transform="translate(487.5 10.0)">
<animateTransform attributeName="transform" type="translate" additive="sum" dur="23.769s" repeatCount="indefinite" calcMode="linear" values="-25.0 -37.5;-25.0 -37.5;0.0 -15.0;0 0;0 0;0 67.0;0 67.0" keyTimes="0;0.188651;0.195454;0.208088;0.953721;0.991586;1" />
<rect x="0.0" y="0.0" width="10" height="5" rx="1" ry="1" fill="#9b76e3" />
<rect x="12.5" y="0.0" width="10" height="5" rx="1" ry="1" fill="#c3b1ea" />
<rect x="12.5" y="7.5" width="10" height="5" rx="1" ry="1" fill="#b095e6" />
<rect x="12.5" y="15.0" width="10" height="5" rx="1" ry="1" fill="#9b76e3" />
</g>
<g transform="translate(562.5 17.5)">
<animateTransform attributeName="transform" type="translate" additive="sum" dur="23.769s" repeatCount="indefinite" calcMode="linear" values="-25.0 -37.5;-25.0 -37.5;0.0 -15.0;0 0;0 0;0 67.0;0 67.0" keyTimes="0;0.211454;0.218257;0.230891;0.953721;0.991586;1" />
<rect x="0.0" y="0.0" width="10" height="5" rx="1" ry="1" fill="#d9b095" />
<rect x="12.5" y="0.0" width="10" height="5" rx="1" ry="1" fill="#d1936a" />
<rect x="12.5" y="7.5" width="10" height="5" rx="1" ry="1" fill="#d9b095" />
<rect x="25.0" y="0.0" width="10" height="5" rx="1" ry="1" fill="#d1936a" />
</g>
<g transform="translate(612.5 10.0)">
<animateTransform attributeName="transform" type="translate" additive="sum" dur="23.769s" repeatCount="indefinite" calcMode="linear" values="0.0 -30.0;0.0 -30.0;0.0 -15.0;0 0;0 0;0 67.0;0 67.0" keyTimes="0;0.234257;0.239852;0.250244;0.953721;0.991586;1" />
<rect x="0.0" y="0.0" width="10" height="5" rx="1" ry="1" fill="#95bbe8" />
<rect x="0.0" y="7.5" width="10" height="5" rx="1" ry="1" fill="#6ca3e4" />
<rect x="0.0" y="15.0" width="10" height="5" rx="1" ry="1" fill="#95bbe8" />
<rect x="12.5" y="15.0" width="10" height="5" rx="1" ry="1" fill="#95bbe8" />
</g>
<g transform="translate(487.5 17.5)">
<animateTransform attributeName="transform" type="translate" additive="sum" dur="23.769s" repeatCount="indefinite" calcMode="linear" values="0.0 -37.5;0.0 -37.5;0.0 -15.0;0 0;0 0;0 67.0;0 67.0" keyTimes="0;0.253610;0.260413;0.273047;0.953721;0.991586;1" />
<rect x="0.0" y="0.0" width="10" height="5" rx="1" ry="1" fill="#9cc3aa" />
<rect x="0.0" y="7.5" width="10" height="5" rx="1" ry="1" fill="#76af88" />
<rect x="0.0" y="15.0" width="10" height="5" rx="1" ry="1" fill="#76af88" />
<rect x="12.5" y="15.0" width="10" height="5" rx="1" ry="1" fill="#9cc3aa" />
</g>
<g transform="translate(512.5 32.5)">
<animateTransform attributeName="transform" type="translate" additive="sum" dur="23.769s" repeatCount="indefinite" calcMode="linear" values="0.0 -37.5;0.0 -37.5;0.0 -30.0;0 0;0 0;0 67.0;0 67.0" keyTimes="0;0.276413;0.283216;0.295850;0.953721;0.991586;1" />
<rect x="0.0" y="0.0" width="10" height="5" rx="1" ry="1" fill="#ad873a" />
</g>
<g transform="translate(512.5 25.0)">
<animateTransform attributeName="transform" type="translate" additive="sum" dur="23.769s" repeatCount="indefinite" calcMode="linear" values="-25.0 -45.0;-25.0 -45.0;0.0 -22.5;0 0;0 0;0 67.0;0 67.0" keyTimes="0;0.299216;0.307379;0.322540;0.953721;0.991586;1" />
<rect x="0.0" y="0.0" width="10" height="5" rx="1" ry="1" fill="#0e6cda" />
<rect x="12.5" y="0.0" width="10" height="5" rx="1" ry="1" fill="#95bbe8" />
<rect x="25.0" y="0.0" width="10" height="5" rx="1" ry="1" fill="#95bbe8" />
<rect x="25.0" y="7.5" width="10" height="5" rx="1" ry="1" fill="#95bbe8" />
</g>
<g transform="translate(350.0 40.0)">
<animateTransform attributeName="transform" type="translate" additive="sum" dur="23.769s" repeatCount="indefinite" calcMode="linear" values="-37.5 -45.0;-37.5 -45.0;0.0 -37.5;0 0;0 0;0 67.0;0 67.0" keyTimes="0;0.325906;0.334070;0.349231;0.953721;0.991586;1" />
<rect x="0.0" y="0.0" width="10" height="5" rx="1" ry="1" fill="#ccba95" />
</g>
<g transform="translate(400.0 40.0)">
<animateTransform attributeName="transform" type="translate" additive="sum" dur="23.769s" repeatCount="indefinite" calcMode="linear" values="37.5 -45.0;37.5 -45.0;0.0 -37.5;0 0;0 0;0 67.0;0 67.0" keyTimes="0;0.352597;0.360760;0.375921;0.953721;0.991586;1" />
<rect x="0.0" y="0.0" width="10" height="5" rx="1" ry="1" fill="#96c3d3" />
</g>
<g transform="translate(425.0 25.0)">
<animateTransform attributeName="transform" type="translate" additive="sum" dur="23.769s" repeatCount="indefinite" calcMode="linear" values="0.0 -52.5;0.0 -52.5;0.0 -22.5;0 0;0 0;0 67.0;0 67.0" keyTimes="0;0.379287;0.388811;0.406499;0.953721;0.991586;1" />
<rect x="0.0" y="7.5" width="10" height="5" rx="1" ry="1" fill="#c3b1ea" />
<rect x="12.5" y="0.0" width="10" height="5" rx="1" ry="1" fill="#c3b1ea" />
<rect x="12.5" y="7.5" width="10" height="5" rx="1" ry="1" fill="#c3b1ea" />
<rect x="12.5" y="15.0" width="10" height="5" rx="1" ry="1" fill="#c3b1ea" />
</g>
<g transform="translate(500.0 32.5)">
<animateTransform attributeName="transform" type="translate" additive="sum" dur="23.769s" repeatCount="indefinite" calcMode="linear" values="0.0 -52.5;0.0 -52.5;0.0 -30.0;0 0;0 0;0 67.0;0 67.0" keyTimes="0;0.409865;0.419389;0.437077;0.953721;0.991586;1" />
<rect x="0.0" y="7.5" width="10" height="5" rx="1" ry="1" fill="#e0a0a6" />
<rect x="12.5" y="7.5" width="10" height="5" rx="1" ry="1" fill="#db7b83" />
<rect x="25.0" y="0.0" width="10" height="5" rx="1" ry="1" fill="#db7b83" />
<rect x="25.0" y="7.5" width="10" height="5" rx="1" ry="1" fill="#e0a0a6" />
</g>
<g transform="translate(537.5 25.0)">
<animateTransform attributeName="transform" type="translate" additive="sum" dur="23.769s" repeatCount="indefinite" calcMode="linear" values="0.0 -45.0;0.0 -45.0;0.0 -22.5;0 0;0 0;0 67.0;0 67.0" keyTimes="0;0.440443;0.448607;0.463768;0.953721;0.991586;1" />
<rect x="0.0" y="15.0" width="10" height="5" rx="1" ry="1" fill="#9b76e3" />
<rect x="12.5" y="0.0" width="10" height="5" rx="1" ry="1" fill="#c3b1ea" />
<rect x="12.5" y="7.5" width="10" height="5" rx="1" ry="1" fill="#c3b1ea" />
<rect x="12.5" y="15.0" width="10" height="5" rx="1" ry="1" fill="#c3b1ea" />
</g>
<g transform="translate(587.5 25.0)">
<animateTransform attributeName="transform" type="translate" additive="sum" dur="23.769s" repeatCount="indefinite" calcMode="linear" values="37.5 -45.0;37.5 -45.0;0.0 -22.5;0 0;0 0;0 67.0;0 67.0" keyTimes="0;0.467133;0.475297;0.490458;0.953721;0.991586;1" />
<rect x="0.0" y="0.0" width="10" height="5" rx="1" ry="1" fill="#cc9a6a" />
<rect x="0.0" y="7.5" width="10" height="5" rx="1" ry="1" fill="#cc9a6a" />
<rect x="0.0" y="15.0" width="10" height="5" rx="1" ry="1" fill="#cc9a6a" />
</g>
<g transform="translate(425.0 40.0)">
<animateTransform attributeName="transform" type="translate" additive="sum" dur="23.769s" repeatCount="indefinite" calcMode="linear" values="0.0 -52.5;0.0 -52.5;0.0 -37.5;0 0;0 0;0 67.0;0 67.0" keyTimes="0;0.493824;0.503348;0.521036;0.953721;0.991586;1" />
<rect x="0.0" y="0.0" width="10" height="5" rx="1" ry="1" fill="#d9b095" />
<rect x="0.0" y="7.5" width="10" height="5" rx="1" ry="1" fill="#d9b095" />
<rect x="12.5" y="7.5" width="10" height="5" rx="1" ry="1" fill="#d9b095" />
<rect x="25.0" y="7.5" width="10" height="5" rx="1" ry="1" fill="#d9b095" />
</g>
<g transform="translate(562.5 32.5)">
<animateTransform attributeName="transform" type="translate" additive="sum" dur="23.769s" repeatCount="indefinite" calcMode="linear" values="-25.0 -52.5;-25.0 -52.5;0.0 -30.0;0 0;0 0;0 67.0;0 67.0" keyTimes="0;0.524402;0.533926;0.551614;0.953721;0.991586;1" />
<rect x="0.0" y="0.0" width="10" height="5" rx="1" ry="1" fill="#ccba95" />
<rect x="12.5" y="0.0" width="10" height="5" rx="1" ry="1" fill="#ccba95" />
<rect x="12.5" y="7.5" width="10" height="5" rx="1" ry="1" fill="#bea26a" />
<rect x="12.5" y="15.0" width="10" height="5" rx="1" ry="1" fill="#bea26a" />
</g>
<g transform="translate(612.5 32.5)">
<animateTransform attributeName="transform" type="translate" additive="sum" dur="23.769s" repeatCount="indefinite" calcMode="linear" values="25.0 -52.5;25.0 -52.5;0.0 -30.0;0 0;0 0;0 67.0;0 67.0" keyTimes="0;0.554980;0.564504;0.582192;0.953721;0.991586;1" />
<rect x="0.0" y="0.0" width="10" height="5" rx="1" ry="1" fill="#9cc3aa" />
<rect x="12.5" y="0.0" width="10" height="5" rx="1" ry="1" fill="#76af88" />
<rect x="12.5" y="7.5" width="10" height="5" rx="1" ry="1" fill="#9cc3aa" />
<rect x="12.5" y="15.0" width="10" height="5" rx="1" ry="1" fill="#9cc3aa" />
</g>
<g transform="translate(650.0 40.0)">
<animateTransform attributeName="transform" type="translate" additive="sum" dur="23.769s" repeatCount="indefinite" calcMode="linear" values="-37.5 -60.0;-37.5 -60.0;0.0 -37.5;0 0;0 0;0 67.0;0 67.0" keyTimes="0;0.585558;0.596442;0.616657;0.953721;0.991586;1" />
<rect x="0.0" y="0.0" width="10" height="5" rx="1" ry="1" fill="#95bbe8" />
<rect x="0.0" y="7.5" width="10" height="5" rx="1" ry="1" fill="#95bbe8" />
</g>
<g transform="translate(262.5 55.0)">
<animateTransform attributeName="transform" type="translate" additive="sum" dur="23.769s" repeatCount="indefinite" calcMode="linear" values="-37.5 -60.0;-37.5 -60.0;0.0 -52.5;0 0;0 0;0 67.0;0 67.0" keyTimes="0;0.620023;0.630908;0.651122;0.953721;0.991586;1" />
<rect x="0.0" y="0.0" width="10" height="5" rx="1" ry="1" fill="#b45c05" />
</g>
<g transform="translate(362.5 47.5)">
<animateTransform attributeName="transform" type="translate" additive="sum" dur="23.769s" repeatCount="indefinite" calcMode="linear" values="0.0 -60.0;0.0 -60.0;0.0 -45.0;0 0;0 0;0 67.0;0 67.0" keyTimes="0;0.654488;0.665373;0.685588;0.953721;0.991586;1" />
<rect x="0.0" y="0.0" width="10" height="5" rx="1" ry="1" fill="#d6b595" />
<rect x="12.5" y="0.0" width="10" height="5" rx="1" ry="1" fill="#d6b595" />
<rect x="12.5" y="7.5" width="10" height="5" rx="1" ry="1" fill="#b45c05" />
</g>
<g transform="translate(475.0 40.0)">
<animateTransform attributeName="transform" type="translate" additive="sum" dur="23.769s" repeatCount="indefinite" calcMode="linear" values="37.5 -60.0;37.5 -60.0;0.0 -37.5;0 0;0 0;0 67.0;0 67.0" keyTimes="0;0.688954;0.699838;0.720053;0.953721;0.991586;1" />
<rect x="0.0" y="15.0" width="10" height="5" rx="1" ry="1" fill="#0e6cda" />
<rect x="12.5" y="0.0" width="10" height="5" rx="1" ry="1" fill="#0e6cda" />
<rect x="12.5" y="7.5" width="10" height="5" rx="1" ry="1" fill="#6ca3e4" />
<rect x="12.5" y="15.0" width="10" height="5" rx="1" ry="1" fill="#6ca3e4" />
</g>
<g transform="translate(500.0 47.5)">
<animateTransform attributeName="transform" type="translate" additive="sum" dur="23.769s" repeatCount="indefinite" calcMode="linear" values="25.0 -67.5;25.0 -67.5;0.0 -45.0;0 0;0 0;0 67.0;0 67.0" keyTimes="0;0.723419;0.735664;0.758406;0.953721;0.991586;1" />
<rect x="0.0" y="7.5" width="10" height="5" rx="1" ry="1" fill="#d9b095" />
<rect x="12.5" y="0.0" width="10" height="5" rx="1" ry="1" fill="#bd4f05" />
<rect x="12.5" y="7.5" width="10" height="5" rx="1" ry="1" fill="#d1936a" />
<rect x="25.0" y="7.5" width="10" height="5" rx="1" ry="1" fill="#d9b095" />
</g>
<g transform="translate(525.0 47.5)">
<animateTransform attributeName="transform" type="translate" additive="sum" dur="23.769s" repeatCount="indefinite" calcMode="linear" values="25.0 -67.5;25.0 -67.5;0.0 -45.0;0 0;0 0;0 67.0;0 67.0" keyTimes="0;0.761772;0.774017;0.796759;0.953721;0.991586;1" />
<rect x="0.0" y="0.0" width="10" height="5" rx="1" ry="1" fill="#96c3d3" />
<rect x="12.5" y="0.0" width="10" height="5" rx="1" ry="1" fill="#96c3d3" />
<rect x="12.5" y="7.5" width="10" height="5" rx="1" ry="1" fill="#96c3d3" />
<rect x="25.0" y="0.0" width="10" height="5" rx="1" ry="1" fill="#96c3d3" />
</g>
<g transform="translate(550.0 47.5)">
<animateTransform attributeName="transform" type="translate" additive="sum" dur="23.769s" repeatCount="indefinite" calcMode="linear" values="25.0 -67.5;25.0 -67.5;0.0 -45.0;0 0;0 0;0 67.0;0 67.0" keyTimes="0;0.800125;0.812370;0.835112;0.953721;0.991586;1" />
<rect x="0.0" y="7.5" width="10" height="5" rx="1" ry="1" fill="#9cc3aa" />
<rect x="12.5" y="0.0" width="10" height="5" rx="1" ry="1" fill="#9cc3aa" />
<rect x="12.5" y="7.5" width="10" height="5" rx="1" ry="1" fill="#4c9963" />
<rect x="25.0" y="7.5" width="10" height="5" rx="1" ry="1" fill="#76af88" />
</g>
<g transform="translate(600.0 47.5)">
<animateTransform attributeName="transform" type="translate" additive="sum" dur="23.769s" repeatCount="indefinite" calcMode="linear" values="0.0 -60.0;0.0 -60.0;0.0 -45.0;0 0;0 0;0 67.0;0 67.0" keyTimes="0;0.838477;0.849362;0.869577;0.953721;0.991586;1" />
<rect x="0.0" y="0.0" width="10" height="5" rx="1" ry="1" fill="#c3b1ea" />
<rect x="0.0" y="7.5" width="10" height="5" rx="1" ry="1" fill="#c3b1ea" />
</g>
</g>
<metadata>{"username": "Treenixie", "active_cells": 98, "mode": "live-animation"}</metadata>
</svg>