<svg xmlns="http://www.w3.org/2000/svg" width="660.0" height="70.0" viewBox="0 0 660.0 70.0">
<rect x="0" y="0" width="660.0" height="70.0" rx="0" ry="0" fill="#ffffff" />
<defs>
<clipPath id="grid-clip-live-light"><rect x="0" y="10" width="660.0" height="50.0" rx="0" ry="0" /></clipPath>
</defs>
<rect x="0.0" y="10.0" width="10" height="5" rx="1" ry="1" fill="#ebedf0" />
<rect x="12.5" y="10.0" width="10" height="5" rx="1" ry="1" fill="#ebedf0" />
<rect x="25.0" y="10.0" width="10" height="5" rx="1" ry="1" fill="#ebedf0" />
<rect x="37.5" y="10.0" width="10" height="5" rx="1" ry="1" fill="#ebedf0" />
<rect x="50.0" y="10.0" width="10" height="5" rx="1" ry="1" fill="#ebedf0" />
<rect x="62.5" y="10.0" width="10" height="5" rx="1" ry="1" fill="#ebedf0" />
<rect x="75.0" y="10.0" width="10" height="5" rx="1" ry="1" fill="#ebedf0" />
<rect x="87.5" y="10.0" width="10" height="5" rx="1" ry="1" fill="#ebedf0" />
<rect x="100.0" y="10.0" width="10" height="5" rx="1" ry="1" fill="#ebedf0" />
<rect x="112.5" y="10.0" width="10" height="5" rx="1" ry="1" fill="#ebedf0" />
<rect x="125.0" y="10.0" width="10" height="5" rx="1" ry="1" fill="#ebedf0" />
<rect x="137.5" y="10.0" width="10" height="5" rx="1" ry="1" fill="#ebedf0" />
<rect x="150.0" y="10.0" width="10" height="5" rx="1" ry="1" fill="#ebedf0" />
<rect x="162.5" y="10.0" width="10" height="5" rx="1" ry="1" fill="#ebedf0" />
<rect x="175.0" y="10.0" width="10" height="5" rx="1" ry="1" fill="#ebedf0" />
<rect x="187.5" y="10.0" width="10" height="5" rx="1" ry="1" fill="#ebedf0" />
<rect x="200.0" y="10.0" width="10" height="5" rx="1" ry="1" fill="#ebedf0" />
<rect x="212.5" y="10.0" width="10" height="5" rx="1" ry="1" fill="#ebedf0" />
<rect x="225.0" y="10.0" width="10" height="5" rx="1" ry="1" fill="#ebedf0" />
<rect x="237.5" y="10.0" width="10" height="5" rx="1" ry="1" fill="#ebedf0" />
<rect x="250.0" y="10.0" width="10" height="5" rx="1" ry="1" fill="#ebedf0" />
<rect x="262.5" y="10.0" width="10" height="5" rx="1" ry="1" fill="#ebedf0" />
<rect x="275.0" y="10.0" width="10" height="5" rx="1" ry="1" fill="#ebedf0" />
<rect x="287.5" y="10.0" width="10" height="5" rx="1" ry="1" fill="#ebedf0" />
<rect x="300.0" y="10.0" width="10" height="5" rx="1" ry="1" fill="#ebedf0" />
<rect x="312.5" y="10.0" width="10" height="5" rx="1" ry="1" fill="#ebedf0" />
<rect x="325.0" y="10.0" width="10" height="5" rx="1" ry="1" fill="#ebedf0" />
<rect x="337.5" y="10.0" width="10" height="5" rx="1" ry="1" fill="#ebedf0" />
<rect x="350.0" y="10.0" width="10" height="5" rx="1" ry="1" fill="#ebedf0" />
<rect x="362.5" y="10.0" width="10" height="5" rx="1" ry="1" fill="#ebedf0" />
<rect x="375.0" y="10.0" width="10" height="5" rx="1" ry="1" fill="#ebedf0" />
<rect x="387.5" y="10.0" width="10" height="5" rx="1" ry="1" fill="#ebedf0" />
<rect x="400.0" y="10.0" width="10" height="5" rx="1" ry="1" fill="#ebedf0" />
<rect x="412.5" y="10.0" width="10" height="5" rx="1" ry="1" fill="#ebedf0" />
<rect x="425.0" y="10.0" width="10" height="5" rx="1" ry="1" fill="#ebedf0" />
<rect x="437.5" y="10.0" width="10" height="5" rx="1" ry="1" fill="#ebedf0" />
<rect x="450.0" y="10.0" width="10" height="5" rx="1" ry="1" fill="#ebedf0" />
<rect x="462.5" y="10.0" width="10" height="5" rx="1" ry="1" fill="#ebedf0" />
<rect x="475.0" y="10.0" width="10" height="5" rx="1" ry="1" fill="#ebedf0" />
<rect x="487.5" y="10.0" width="10" height="5" rx="1" ry="1" fill="#ebedf0" />
<rect x="500.0" y="10.0" width="10" height="5" rx="1" ry="1" fill="#ebedf0" />
<rect x="512.5" y="10.0" width="10" height="5" rx="1" ry="1" fill="#ebedf0" />
<rect x="525.0" y="10.0" width="10" height="5" rx="1" ry="1" fill="#ebedf0" />
<rect x="537.5" y="10.0" width="10" height="5" rx="1" ry="1" fill="#ebedf0" />
<rect x="550.0" y="10.0" width="10" height="5" rx="1" ry="1" fill="#ebedf0" />
<rect x="562.5" y="10.0" width="10" height="5" rx="1" ry="1" fill="#ebedf0" />
<rect x="575.0" y="10.0" width="10" height="5" rx="1" ry="1" fill="#ebedf0" />
<rect x="587.5" y="10.0" width="10" height="5" rx="1" ry="1" fill="#ebedf0" />
<rect x="600.0" y="10.0" width="10" height="5" rx="1" ry="1" fill="#ebedf0" />
<rect x="612.5" y="10.0" width="10" height="5" rx="1" ry="1" fill="#ebedf0" />
<rect x="625.0" y="10.0" width="10" height="5" rx="1" ry="1" fill="#ebedf0" />
<rect x="637.5" y="10.0" width="10" height="5" rx="1" ry="1" fill="#ebedf0" />
<rect x="650.0" y="10.0" width="10" height="5" rx="1" ry="1" fill="#ebedf0" />
<rect x="0.0" y="17.5" width="10" height="5" rx="1" ry="1" fill="#ebedf0" />
<rect x="12.5" y="17.5" width="10" height="5" rx="1" ry="1" fill="#ebedf0" />
<rect x="25.0" y="17.5" width="10" height="5" rx="1" ry="1" fill="#ebedf0" />
<rect x="37.5" y="17.5" width="10" height="5" rx="1" ry="1" fill="#ebedf0" />
<rect x="50.0" y="17.5" width="10" height="5" rx="1" ry="1" fill="#ebedf0" />
<rect x="62.5" y="17.5" width="10" height="5" rx="1" ry="1" fill="#ebedf0" />
<rect x="75.0" y="17.5" width="10" height="5" rx="1" ry="1" fill="#ebedf0" />
<rect x="87.5" y="17.5" width="10" height="5" rx="1" ry="1" fill="#ebedf0" />
<rect x="100.0" y="17.5" width="10" height="5" rx="1" ry="1" fill="#ebedf0" />
<rect x="112.5" y="17.5" width="10" height="5" rx="1" ry="1" fill="#ebedf0" />
<rect x="125.0" y="17.5" width="10" height="5" rx="1" ry="1" fill="#ebedf0" />
<rect x="137.5" y="17.5" width="10" height="5" rx="1" ry="1" fill="#ebedf0" />
<rect x="150.0" y="17.5" width="10" height="5" rx="1" ry="1" fill="#ebedf0" />
<rect x="162.5" y="17.5" width="10" height="5" rx="1" ry="1" fill="#ebedf0" />
<rect x="175.0" y="17.5" width="10" height="5" rx="1" ry="1" fill="#ebedf0" />
<rect x="187.5" y="17.5" width="10" height="5" rx="1" ry="1" fill="#ebedf0" />
<rect x="200.0" y="17.5" width="10" height="5" rx="1" ry="1" fill="#ebedf0" />
<rect x="212.5" y="17.5" width="10" height="5" rx="1" ry="1" fill="#ebedf0" />
<rect x="225.0" y="17.5" width="10" height="5" rx="1" ry="1" fill="#ebedf0" />
<rect x="237.5" y="17.5" width="10" height="5" rx="1" ry="1" fill="#ebedf0" />
<rect x="250.0" y="17.5" width="10" height="5" rx="1" ry="1" fill="#ebedf0" />
<rect x="262.5" y="17.5" width="10" height="5" rx="1" ry="1" fill="#ebedf0" />
<rect x="275.0" y="17.5" width="10" height="5" rx="1" ry="1" fill="#ebedf0" />
<rect x="287.5" y="17.5" width="10" height="5" rx="1" ry="1" fill="#ebedf0" />
<rect x="300.0" y="17.5" width="10" height="5" rx="1" ry="1" fill="#ebedf0" />
<rect x="312.5" y="17.5" width="10" height="5" rx="1" ry="1" fill="#ebedf0" />
<rect x="325.0" y="17.5" width="10" height="5" rx="1" ry="1" fill="#ebedf0" />
<rect x="337.5" y="17.5" width="10" height="5" rx="1" ry="1" fill="#ebedf0" />
<rect x="350.0" y="17.5" width="10" height="5" rx="1" ry="1" fill="#ebedf0" />
<rect x="362.5" y="17.5" width="10" height="5" rx="1" ry="1" fill="#ebedf0" />
<rect x="375.0" y="17.5" width="10" height="5" rx="1" ry="1" fill="#ebedf0" />
<rect x="387.5" y="17.5" width="10" height="5" rx="1" ry="1" fill="#ebedf0" />
<rect x="400.0" y="17.5" width="10" height="5" rx="1" ry="1" fill="#ebedf0" />
<rect x="412.5" y="17.5" width="10" height="5" rx="1" ry="1" fill="#ebedf0" />
<rect x="425.0" y="17.5" width="10" height="5" rx="1" ry="1" fill="#ebedf0" />
<rect x="437.5" y="17.5" width="10" height="5" rx="1" ry="1" fill="#ebedf0" />
<rect x="450.0" y="17.5" width="10" height="5" rx="1" ry="1" fill="#ebedf0" />
<rect x="462.5" y="17.5" width="10" height="5" rx="1" ry="1" fill="#ebedf0" />
<rect x="475.0" y="17.5" width="10" height="5" rx="1" ry="1" fill="#ebedf0" />
<rect x="487.5" y="17.5" width="10" height="5" rx="1" ry="1" fill="#ebedf0" />
<rect x="500.0" y="17.5" width="10" height="5" rx="1" ry="1" fill="#ebedf0" />
<rect x="512.5" y="17.5" width="10" height="5" rx="1" ry="1" fill="#ebedf0" />
<rect x="525.0" y="17.5" width="10" height="5" rx="1" ry="1" fill="#ebedf0" />
<rect x="537.5" y="17.5" width="10" height="5" rx="1" ry="1" fill="#ebedf0" />
<rect x="550.0" y="17.5" width="10" height="5" rx="1" ry="1" fill="#ebedf0" />
<rect x="562.5" y="17.5" width="10" height="5" rx="1" ry="1" fill="#ebedf0" />
<rect x="575.0" y="17.5" width="10" height="5" rx="1" ry="1" fill="#ebedf0" />
<rect x="587.5" y="17.5" width="10" height="5" rx="1" ry="1" fill="#ebedf0" />
<rect x="600.0" y="17.5" width="10" height="5" rx="1" ry="1" fill="#ebedf0" />
<rect x="612.5" y="17.5" width="10" height="5" rx="1" ry="1" fill="#ebedf0" />
<rect x="625.0" y="17.5" width="10" height="5" rx="1" ry="1" fill="#ebedf0" />
<rect x="637.5" y="17.5" width="10" height="5" rx="1" ry="1" fill="#ebedf0" />
<rect x="650.0" y="17.5" width="10" height="5" rx="1" ry="1" fill="#ebedf0" />
<rect x="0.0" y="25.0" width="10" height="5" rx="1" ry="1" fill="#ebedf0" />
<rect x="12.5" y="25.0" width="10" height="5" rx="1" ry="1" fill="#ebedf0" />
<rect x="25.0" y="25.0" width="10" height="5" rx="1" ry="1" fill="#ebedf0" />
<rect x="37.5" y="25.0" width="10" height="5" rx="1" ry="1" fill="#ebedf0" />
<rect x="50.0" y="25.0" width="10" height="5" rx="1" ry="1" fill="#ebedf0" />
<rect x="62.5" y="25.0" width="10" height="5" rx="1" ry="1" fill="#ebedf0" />
<rect x="75.0" y="25.0" width="10" height="5" rx="1" ry="1" fill="#ebedf0" />
<rect x="87.5" y="25.0" width="10" height="5" rx="1" ry="1" fill="#ebedf0" />
<rect x="100.0" y="25.0" width="10" height="5" rx="1" ry="1" fill="#ebedf0" />
<rect x="112.5" y="25.0" width="10" height="5" rx="1" ry="1" fill="#ebedf0" />
<rect x="125.0" y="25.0" width="10" height="5" rx="1" ry="1" fill="#ebedf0" />
<rect x="137.5" y="25.0" width="10" height="5" rx="1" ry="1" fill="#ebedf0" />
<rect x="150.0" y="25.0" width="10" height="5" rx="1" ry="1" fill="#ebedf0" />
<rect x="162.5" y="25.0" width="10" height="5" rx="1" ry="1" fill="#ebedf0" />
<rect x="175.0" y="25.0" width="10" height="5" rx="1" ry="1" fill="#ebedf0" />
<rect x="187.5" y="25.0" width="10" height="5" rx="1" ry="1" fill="#ebedf0" />
<rect x="200.0" y="25.0" width="10" height="5" rx="1" ry="1" fill="#ebedf0" />
<rect x="212.5" y="25.0" width="10" height="5" rx="1" ry="1" fill="#ebedf0" />
<rect x="225.0" y="25.0" width="10" height="5" rx="1" ry="1" fill="#ebedf0" />
<rect x="237.5" y="25.0" width="10" height="5" rx="1" ry="1" fill="#ebedf0" />
<rect x="250.0" y="25.0" width="10" height="5" rx="1" ry="1" fill="#ebedf0" />
<rect x="262.5" y="25.0" width="10" height="5" rx="1" ry="1" fill="#ebedf0" />
<rect x="275.0" y="25.0" width="10" height="5" rx="1" ry="1" fill="#ebedf0" />
<rect x="287.5" y="25.0" width="10" height="5" rx="1" ry="1" fill="#ebedf0" />
<rect x="300.0" y="25.0" width="10" height="5" rx="1" ry="1" fill="#ebedf0" />
<rect x="312.5" y="25.0" width="10" height="5" rx="1" ry="1" fill="#ebedf0" />
<rect x="325.0" y="25.0" width="10" height="5" rx="1" ry="1" fill="#ebedf0" />
<rect x="337.5" y="25.0" width="10" height="5" rx="1" ry="1" fill="#ebedf0" />
<rect x="350.0" y="25.0" width="10" height="5" rx="1" ry="1" fill="#ebedf0" />
<rect x="362.5" y="25.0" width="10" height="5" rx="1" ry="1" fill="#ebedf0" />
<rect x="375.0" y="25.0" width="10" height="5" rx="1" ry="1" fill="#ebedf0" />
<rect x="387.5" y="25.0" width="10" height="5" rx="1" ry="1" fill="#ebedf0" />
<rect x="400.0" y="25.0" width="10" height="5" rx="1" ry="1" fill="#ebedf0" />
<rect x="412.5" y="25.0" width="10" height="5" rx="1" ry="1" fill="#ebedf0" />
<rect x="425.0" y="25.0" width="10" height="5" rx="1" ry="1" fill="#ebedf0" />
<rect x="437.5" y="25.0" width="10" height="5" rx="1" ry="1" fill="#ebedf0" />
<rect x="450.0" y="25.0" width="10" height="5" rx="1" ry="1" fill="#ebedf0" />
<rect x="462.5" y="25.0" width="10" height="5" rx="1" ry="1" fill="#ebedf0" />
<rect x="475.0" y="25.0" width="10" height="5" rx="1" ry="1" fill="#ebedf0" />
<rect x="487.5" y="25.0" width="10" height="5" rx="1" ry="1" fill="#ebedf0" />
<rect x="500.0" y="25.0" width="10" height="5" rx="1" ry="1" fill="#ebedf0" />
<rect x="512.5" y="25.0" width="10" height="5" rx="1" ry="1" fill="#ebedf0" />
<rect x="525.0" y="25.0" width="10" height="5" rx="1" ry="1" fill="#ebedf0" />
<rect x="537.5" y="25.0" width="10" height="5" rx="1" ry="1" fill="#ebedf0" />
<rect x="550.0" y="25.0" width="10" height="5" rx="1" ry="1" fill="#ebedf0" />
<rect x="562.5" y="25.0" width="10" height="5" rx="1" ry="1" fill="#ebedf0" />
<rect x="575.0" y="25.0" width="10" height="5" rx="1" ry="1" fill="#ebedf0" />
<rect x="587.5" y="25.0" width="10" height="5" rx="1" ry="1" fill="#ebedf0" />
<rect x="600.0" y="25.0" width="10" height="5" rx="1" ry="1" fill="#ebedf0" />
<rect x="612.5" y="25.0" width="10" height="5" rx="1" ry="1" fill="#ebedf0" />
<rect x="625.0" y="25.0" width="10" height="5" rx="1" ry="1" fill="#ebedf0" />
<rect x="637.5" y="25.0" width="10" height="5" rx="1" ry="1" fill="#ebedf0" />
<rect x="650.0" y="25.0" width="10" height="5" rx="1" ry="1" fill="#ebedf0" />
<rect x="0.0" y="32.5" width="10" height="5" rx="1" ry="1" fill="#ebedf0" />
<rect x="12.5" y="32.5" width="10" height="5" rx="1" ry="1" fill="#ebedf0" />
<rect x="25.0" y="32.5" width="10" height="5" rx="1" ry="1" fill="#ebedf0" />
<rect x="37.5" y="32.5" width="10" height="5" rx="1" ry="1" fill="#ebedf0" />
<rect x="50.0" y="32.5" width="10" height="5" rx="1" ry="1" fill="#ebedf0" />
<rect x="62.5" y="32.5" width="10" height="5" rx="1" ry="1" fill="#ebedf0" />
<rect x="75.0" y="32.5" width="10" height="5" rx="1" ry="1" fill="#ebedf0" />
<rect x="87.5" y="32.5" width="10" height="5" rx="1" ry="1" fill="#ebedf0" />
<rect x="100.0" y="32.5" width="10" height="5" rx="1" ry="1" fill="#ebedf0" />
<rect x="112.5" y="32.5" width="10" height="5" rx="1" ry="1" fill="#ebedf0" />
<rect x="125.0" y="32.5" width="10" height="5" rx="1" ry="1" fill="#ebedf0" />
<rect x="137.5" y="32.5" width="10" height="5" rx="1" ry="1" fill="#ebedf0" />
<rect x="150.0" y="32.5" width="10" height="5" rx="1" ry="1" fill="#ebedf0" />
<rect x="162.5" y="32.5" width="10" height="5" rx="1" ry="1" fill="#ebedf0" />
<rect x="175.0" y="32.5" width="10" height="5" rx="1" ry="1" fill="#ebedf0" />
<rect x="187.5" y="32.5" width="10" height="5" rx="1" ry="1" fill="#ebedf0" />
<rect x="200.0" y="32.5" width="10" height="5" rx="1" ry="1" fill="#ebedf0" />
<rect x="212.5" y="32.5" width="10" height="5" rx="1" ry="1" fill="#ebedf0" />
<rect x="225.0" y="32.5" width="10" height="5" rx="1" ry="1" fill="#ebedf0" />
<rect x="237.5" y="32.5" width="10" height="5" rx="1" ry="1" fill="#ebedf0" />
<rect x="250.0" y="32.5" width="10" height="5" rx="1" ry="1" fill="#ebedf0" />
<rect x="262.5" y="32.5" width="10" height="5" rx="1" ry="1" fill="#ebedf0" />
<rect x="275.0" y="32.5" width="10" height="5" rx="1" ry="1" fill="#ebedf0" />
<rect x="287.5" y="32.5" width="10" height="5" rx="1" ry="1" fill="#ebedf0" />
<rect x="300.0" y="32.5" width="10" height="5" rx="1" ry="1" fill="#ebedf0" />
<rect x="312.5" y="32.5" width="10" height="5" rx="1" ry="1" fill="#ebedf0" />
<rect x="325.0" y="32.5" width="10" height="5" rx="1" ry="1" fill="#ebedf0" />
<rect x="337.5" y="32.5" width="10" height="5" rx="1" ry="1" fill="#ebedf0" />
<rect x="350.0" y="32.5" width="10" height="5" rx="1" ry="1" fill="#ebedf0" />
<rect x="362.5" y="32.5" width="10" height="5" rx="1" ry="1" fill="#ebedf0" />
<rect x="375.0" y="32.5" width="10" height="5" rx="1" ry="1" fill="#ebedf0" />
<rect x="387.5" y="32.5" width="10" height="5" rx="1" ry="1" fill="#ebedf0" />
<rect x="400.0" y="32.5" width="10" height="5" rx="1" ry="1" fill="#ebedf0" />
<rect x="412.5" y="32.5" width="10" height="5" rx="1" ry="1" fill="#ebedf0" />
<rect x="425.0" y="32.5" width="10" height="5" rx="1" ry="1" fill="#ebedf0" />
<rect x="437.5" y="32.5" width="10" height="5" rx="1" ry="1" fill="#ebedf0" />
<rect x="450.0" y="32.5" width="10" height="5" rx="1" ry="1" fill="#ebedf0" />
<rect x="462.5" y="32.5" width="10" height="5" rx="1" ry="1" fill="#ebedf0" />
<rect x="475.0" y="32.5" width="10" height="5" rx="1" ry="1" fill="#ebedf0" />
<rect x="487.5" y="32.5" width="10" height="5" rx="1" ry="1" fill="#ebedf0" />
<rect x="500.0" y="32.5" width="10" height="5" rx="1" ry="1" fill="#ebedf0" />
<rect x="512.5" y="32.5" width="10" height="5" rx="1" ry="1" fill="#ebedf0" />
<rect x="525.0" y="32.5" width="10" height="5" rx="1" ry="1" fill="#ebedf0" />
<rect x="537.5" y="32.5" width="10" height="5" rx="1" ry="1" fill="#ebedf0" />
<rect x="550.0" y="32.5" width="10" height="5" rx="1" ry="1" fill="#ebedf0" />
<rect x="562.5" y="32.5" width="10" height="5" rx="1" ry="1" fill="#ebedf0" />
<rect x="575.0" y="32.5" width="10" height="5" rx="1" ry="1" fill="#ebedf0" />
<rect x="587.5" y="32.5" width="10" height="5" rx="1" ry="1" fill="#ebedf0" />
<rect x="600.0" y="32.5" width="10" height="5" rx="1" ry="1" fill="#ebedf0" />
<rect x="612.5" y="32.5" width="10" height="5" rx="1" ry="1" fill="#ebedf0" />
<rect x="625.0" y="32.5" width="10" height="5" rx="1" ry="1" fill="#ebedf0" />
<rect x="637.5" y="32.5" width="10" height="5" rx="1" ry="1" fill="#ebedf0" />
<rect x="650.0" y="32.5" width="10" height="5" rx="1" ry="1" fill="#ebedf0" />
<rect x="0.0" y="40.0" width="10" height="5" rx="1" ry="1" fill="#ebedf0" />
<rect x="12.5" y="40.0" width="10" height="5" rx="1" ry="1" fill="#ebedf0" />
<rect x="25.0" y="40.0" width="10" height="5" rx="1" ry="1" fill="#ebedf0" />
<rect x="37.5" y="40.0" width="10" height="5" rx="1" ry="1" fill="#ebedf0" />
<rect x="50.0" y="40.0" width="10" height="5" rx="1" ry="1" fill="#ebedf0" />
<rect x="62.5" y="40.0" width="10" height="5" rx="1" ry="1" fill="#ebedf0" />
<rect x="75.0" y="40.0" width="10" height="5" rx="1" ry="1" fill="#ebedf0" />
<rect x="87.5" y="40.0" width="10" height="5" rx="1" ry="1" fill="#ebedf0" />
<rect x="100.0" y="40.0" width="10" height="5" rx="1" ry="1" fill="#ebedf0" />
<rect x="112.5" y="40.0" width="10" height="5" rx="1" ry="1" fill="#ebedf0" />
<rect x="125.0" y="40.0" width="10" height="5" rx="1" ry="1" fill="#ebedf0" />
<rect x="137.5" y="40.0" width="10" height="5" rx="1" ry="1" fill="#ebedf0" />
<rect x="150.0" y="40.0" width="10" height="5" rx="1" ry="1" fill="#ebedf0" />
<rect x="162.5" y="40.0" width="10" height="5" rx="1" ry="1" fill="#ebedf0" />
<rect x="175.0" y="40.0" width="10" height="5" rx="1" ry="1" fill="#ebedf0" />
<rect x="187.5" y="40.0" width="10" height="5" rx="1" ry="1" fill="#ebedf0" />
<rect x="200.0" y="40.0" width="10" height="5" rx="1" ry="1" fill="#ebedf0" />
<rect x="212.5" y="40.0" width="10" height="5" rx="1" ry="1" fill="#ebedf0" />
<rect x="225.0" y="40.0" width="10" height="5" rx="1" ry="1" fill="#ebedf0" />
<rect x="237.5" y="40.0" width="10" height="5" rx="1" ry="1" fill="#ebedf0" />
<rect x="250.0" y="40.0" width="10" height="5" rx="1" ry="1" fill="#ebedf0" />
<rect x="262.5" y="40.0" width="10" height="5" rx="1" ry="1" fill="#ebedf0" />
<rect x="275.0" y="40.0" width="10" height="5" rx="1" ry="1" fill="#ebedf0" />
<rect x="287.5" y="40.0" width="10" height="5" rx="1" ry="1" fill="#ebedf0" />
<rect x="300.0" y="40.0" width="10" height="5" rx="1" ry="1" fill="#ebedf0" />
<rect x="312.5" y="40.0" width="10" height="5" rx="1" ry="1" fill="#ebedf0" />
<rect x="325.0" y="40.0" width="10" height="5" rx="1" ry="1" fill="#ebedf0" />
<rect x="337.5" y="40.0" width="10" height="5" rx="1" ry="1" fill="#ebedf0" />
<rect x="350.0" y="40.0" width="10" height="5" rx="1" ry="1" fill="#ebedf0" />
<rect x="362.5" y="40.0" width="10" height="5" rx="1" ry="1" fill="#ebedf0" />
<rect x="375.0" y="40.0" width="10" height="5" rx="1" ry="1" fill="#ebedf0" />
<rect x="387.5" y="40.0" width="10" height="5" rx="1" ry="1" fill="#ebedf0" />
<rect x="400.0" y="40.0" width="10" height="5" rx="1" ry="1" fill="#ebedf0" />
<rect x="412.5" y="40.0" width="10" height="5" rx="1" ry="1" fill="#ebedf0" />
<rect x="425.0" y="40.0" width="10" height="5" rx="1" ry="1" fill="#ebedf0" />
<rect x="437.5" y="40.0" width="10" height="5" rx="1" ry="1" fill="#ebedf0" />
<rect x="450.0" y="40.0" width="10" height="5" rx="1" ry="1" fill="#ebedf0" />
<rect x="462.5" y="40.0" width="10" height="5" rx="1" ry="1" fill="#ebedf0" />
<rect x="475.0" y="40.0" width="10" height="5" rx="1" ry="1" fill="#ebedf0" />
<rect x="487.5" y="40.0" width="10" height="5" rx="1" ry="1" fill="#ebedf0" />
<rect x="500.0" y="40.0" width="10" height="5" rx="1" ry="1" fill="#ebedf0" />
<rect x="512.5" y="40.0" width="10" height="5" rx="1" ry="1" fill="#ebedf0" />
<rect x="525.0" y="40.0" width="10" height="5" rx="1" ry="1" fill="#ebedf0" />
<rect x="537.5" y="40.0" width="10" height="5" rx="1" ry="1" fill="#ebedf0" />
<rect x="550.0" y="40.0" width="10" height="5" rx="1" ry="1" fill="#ebedf0" />
<rect x="562.5" y="40.0" width="10" height="5" rx="1" ry="1" fill="#ebedf0" />
<rect x="575.0" y="40.0" width="10" height="5" rx="1" ry="1" fill="#ebedf0" />
<rect x="587.5" y="40.0" width="10" height="5" rx="1" ry="1" fill="#ebedf0" />
<rect x="600.0" y="40.0" width="10" height="5" rx="1" ry="1" fill="#ebedf0" />
<rect x="612.5" y="40.0" width="10" height="5" rx="1" ry="1" fill="#ebedf0" />
<rect x="625.0" y="40.0" width="10" height="5" rx="1" ry="1" fill="#ebedf0" />
<rect x="637.5" y="40.0" width="10" height="5" rx="1" ry="1" fill="#ebedf0" />
<rect x="650.0" y="40.0" width="10" height="5" rx="1" ry="1" fill="#ebedf0" />
<rect x="0.0" y="47.5" width="10" height="5" rx="1" ry="1" fill="#ebedf0" />
<rect x="12.5" y="47.5" width="10" height="5" rx="1" ry="1" fill="#ebedf0" />
<rect x="25.0" y="47.5" width="10" height="5" rx="1" ry="1" fill="#ebedf0" />
<rect x="37.5" y="47.5" width="10" height="5" rx="1" ry="1" fill="#ebedf0" />
<rect x="50.0" y="47.5" width="10" height="5" rx="1" ry="1" fill="#ebedf0" />
<rect x="62.5" y="47.5" width="10" height="5" rx="1" ry="1" fill="#ebedf0" />
<rect x="75.0" y="47.5" width="10" height="5" rx="1" ry="1" fill="#ebedf0" />
<rect x="87.5" y="47.5" width="10" height="5" rx="1" ry="1" fill="#ebedf0" />
<rect x="100.0" y="47.5" width="10" height="5" rx="1" ry="1" fill="#ebedf0" />
<rect x="112.5" y="47.5" width="10" height="5" rx="1" ry="1" fill="#ebedf0" />
<rect x="125.0" y="47.5" width="10" height="5" rx="1" ry="1" fill="#ebedf0" />
<rect x="137.5" y="47.5" width="10" height="5" rx="1" ry="1" fill="#ebedf0" />
<rect x="150.0" y="47.5" width="10" height="5" rx="1" ry="1" fill="#ebedf0" />
<rect x="162.5" y="47.5" width="10" height="5" rx="1" ry="1" fill="#ebedf0" />
<rect x="175.0" y="47.5" width="10" height="5" rx="1" ry="1" fill="#ebedf0" />
<rect x="187.5" y="47.5" width="10" height="5" rx="1" ry="1" fill="#ebedf0" />
<rect x="200.0" y="47.5" width="10" height="5" rx="1" ry="1" fill="#ebedf0" />
<rect x="212.5" y="47.5" width="10" height="5" rx="1" ry="1" fill="#ebedf0" />
<rect x="225.0" y="47.5" width="10" height="5" rx="1" ry="1" fill="#ebedf0" />
<rect x="237.5" y="47.5" width="10" height="5" rx="1" ry="1" fill="#ebedf0" />
<rect x="250.0" y="47.5" width="10" height="5" rx="1" ry="1" fill="#ebedf0" />
<rect x="262.5" y="47.5" width="10" height="5" rx="1" ry="1" fill="#ebedf0" />
<rect x="275.0" y="47.5" width="10" height="5" rx="1" ry="1" fill="#ebedf0" />
<rect x="287.5" y="47.5" width="10" height="5" rx="1" ry="1" fill="#ebedf0" />
<rect x="300.0" y="47.5" width="10" height="5" rx="1" ry="1" fill="#ebedf0" />
<rect x="312.5" y="47.5" width="10" height="5" rx="1" ry="1" fill="#ebedf0" />
<rect x="325.0" y="47.5" width="10" height="5" rx="1" ry="1" fill="#ebedf0" />
<rect x="337.5" y="47.5" width="10" height="5" rx="1" ry="1" fill="#ebedf0" />
<rect x="350.0" y="47.5" width="10" height="5" rx="1" ry="1" fill="#ebedf0" />
<rect x="362.5" y="47.5" width="10" height="5" rx="1" ry="1" fill="#ebedf0" />
<rect x="375.0" y="47.5" width="10" height="5" rx="1" ry="1" fill="#ebedf0" />
<rect x="387.5" y="47.5" width="10" height="5" rx="1" ry="1" fill="#ebedf0" />
<rect x="400.0" y="47.5" width="10" height="5" rx="1" ry="1" fill="#ebedf0" />
<rect x="412.5" y="47.5" width="10" height="5" rx="1" ry="1" fill="#ebedf0" />
<rect x="425.0" y="47.5" width="10" height="5" rx="1" ry="1" fill="#ebedf0" />
<rect x="437.5" y="47.5" width="10" height="5" rx="1" ry="1" fill="#ebedf0" />
<rect x="450.0" y="47.5" width="10" height="5" rx="1" ry="1" fill="#ebedf0" />
<rect x="462.5" y="47.5" width="10" height="5" rx="1" ry="1" fill="#ebedf0" />
<rect x="475.0" y="47.5" width="10" height="5" rx="1" ry="1" fill="#ebedf0" />
<rect x="487.5" y="47.5" width="10" height="5" rx="1" ry="1" fill="#ebedf0" />
<rect x="500.0" y="47.5" width="10" height="5" rx="1" ry="1" fill="#ebedf0" />
<rect x="512.5" y="47.5" width="10" height="5" rx="1" ry="1" fill="#ebedf0" />
<rect x="525.0" y="47.5" width="10" height="5" rx="1" ry="1" fill="#ebedf0" />
<rect x="537.5" y="47.5" width="10" height="5" rx="1" ry="1" fill="#ebedf0" />
<rect x="550.0" y="47.5" width="10" height="5" rx="1" ry="1" fill="#ebedf0" />
<rect x="562.5" y="47.5" width="10" height="5" rx="1" ry="1" fill="#ebedf0" />
<rect x="575.0" y="47.5" width="10" height="5" rx="1" ry="1" fill="#ebedf0" />
<rect x="587.5" y="47.5" width="10" height="5" rx="1" ry="1" fill="#ebedf0" />
<rect x="600.0" y="47.5" width="10" height="5" rx="1" ry="1" fill="#ebedf0" />
<rect x="612.5" y="47.5" width="10" height="5" rx="1" ry="1" fill="#ebedf0" />
<rect x="625.0" y="47.5" width="10" height="5" rx="1" ry="1" fill="#ebedf0" />
<rect x="637.5" y="47.5" width="10" height="5" rx="1" ry="1" fill="#ebedf0" />
<rect x="650.0" y="47.5" width="10" height="5" rx="1" ry="1" fill="#ebedf0" />
<rect x="0.0" y="55.0" width="10" height="5" rx="1" ry="1" fill="#ebedf0" />
<rect x="12.5" y="55.0" width="10" height="5" rx="1" ry="1" fill="#ebedf0" />
<rect x="25.0" y="55.0" width="10" height="5" rx="1" ry="1" fill="#ebedf0" />
<rect x="37.5" y="55.0" width="10" height="5" rx="1" ry="1" fill="#ebedf0" />
<rect x="50.0" y="55.0" width="10" height="5" rx="1" ry="1" fill="#ebedf0" />
<rect x="62.5" y="55.0" width="10" height="5" rx="1" ry="1" fill="#ebedf0" />
<rect x="75.0" y="55.0" width="10" height="5" rx="1" ry="1" fill="#ebedf0" />
<rect x="87.5" y="55.0" width="10" height="5" rx="1" ry="1" fill="#ebedf0" />
<rect x="100.0" y="55.0" width="10" height="5" rx="1" ry="1" fill="#ebedf0" />
<rect x="112.5" y="55.0" width="10" height="5" rx="1" ry="1" fill="#ebedf0" />
<rect x="125.0" y="55.0" width="10" height="5" rx="1" ry="1" fill="#ebedf0" />
<rect x="137.5" y="55.0" width="10" height="5" rx="1" ry="1" fill="#ebedf0" />
<rect x="150.0" y="55.0" width="10" height="5" rx="1" ry="1" fill="#ebedf0" />
<rect x="162.5" y="55.0" width="10" height="5" rx="1" ry="1" fill="#ebedf0" />
<rect x="175.0" y="55.0" width="10" height="5" rx="1" ry="1" fill="#ebedf0" />
<rect x="187.5" y="55.0" width="10" height="5" rx="1" ry="1" fill="#ebedf0" />
<rect x="200.0" y="55.0" width="10" height="5" rx="1" ry="1" fill="#ebedf0" />
<rect x="212.5" y="55.0" width="10" height="5" rx="1" ry="1" fill="#ebedf0" />
<rect x="225.0" y="55.0" width="10" height="5" rx="1" ry="1" fill="#ebedf0" />
<rect x="237.5" y="55.0" width="10" height="5" rx="1" ry="1" fill="#ebedf0" />
<rect x="250.0" y="55.0" width="10" height="5" rx="1" ry="1" fill="#ebedf0" />
<rect x="262.5" y="55.0" width="10" height="5" rx="1" ry="1" fill="#ebedf0" />
<rect x="275.0" y="55.0" width="10" height="5" rx="1" ry="1" fill="#ebedf0" />
<rect x="287.5" y="55.0" width="10" height="5" rx="1" ry="1" fill="#ebedf0" />
<rect x="300.0" y="55.0" width="10" height="5" rx="1" ry="1" fill="#ebedf0" />
<rect x="312.5" y="55.0" width="10" height="5" rx="1" ry="1" fill="#ebedf0" />
<rect x="325.0" y="55.0" width="10" height="5" rx="1" ry="1" fill="#ebedf0" />
<rect x="337.5" y="55.0" width="10" height="5" rx="1" ry="1" fill="#ebedf0" />
<rect x="350.0" y="55.0" width="10" height="5" rx="1" ry="1" fill="#ebedf0" />
<rect x="362.5" y="55.0" width="10" height="5" rx="1" ry="1" fill="#ebedf0" />
<rect x="375.0" y="55.0" width="10" height="5" rx="1" ry="1" fill="#ebedf0" />
<rect x="387.5" y="55.0" width="10" height="5" rx="1" ry="1" fill="#ebedf0" />
<rect x="400.0" y="55.0" width="10" height="5" rx="1" ry="1" fill="#ebedf0" />
<rect x="412.5" y="55.0" width="10" height="5" rx="1" ry="1" fill="#ebedf0" />
<rect x="425.0" y="55.0" width="10" height="5" rx="1" ry="1" fill="#ebedf0" />
<rect x="437.5" y="55.0" width="10" height="5" rx="1" ry="1" fill="#ebedf0" />
<rect x="450.0" y="55.0" width="10" height="5" rx="1" ry="1" fill="#ebedf0" />
<rect x="462.5" y="55.0" width="10" height="5" rx="1" ry="1" fill="#ebedf0" />
<rect x="475.0" y="55.0" width="10" height="5" rx="1" ry="1" fill="#ebedf0" />
<rect x="487.5" y="55.0" width="10" height="5" rx="1" ry="1" fill="#ebedf0" />
<rect x="500.0" y="55.0" width="10" height="5" rx="1" ry="1" fill="#ebedf0" />
<rect x="512.5" y="55.0" width="10" height="5" rx="1" ry="1" fill="#ebedf0" />
<rect x="525.0" y="55.0" width="10" height="5" rx="1" ry="1" fill="#ebedf0" />
<rect x="537.5" y="55.0" width="10" height="5" rx="1" ry="1" fill="#ebedf0" />
<rect x="550.0" y="55.0" width="10" height="5" rx="1" ry="1" fill="#ebedf0" />
<rect x="562.5" y="55.0" width="10" height="5" rx="1" ry="1" fill="#ebedf0" />
<rect x="575.0" y="55.0" width="10" height="5" rx="1" ry="1" fill="#ebedf0" />
<rect x="587.5" y="55.0" width="10" height="5" rx="1" ry="1" fill="#ebedf0" />
<rect x="600.0" y="55.0" width="10" height="5" rx="1" ry="1" fill="#ebedf0" />
<rect x="612.5" y="55.0" width="10" height="5" rx="1" ry="1" fill="#ebedf0" />
<rect x="625.0" y="55.0" width="10" height="5" rx="1" ry="1" fill="#ebedf0" />
<rect x="637.5" y="55.0" width="10" height="5" rx="1" ry="1" fill="#ebedf0" />
<rect x="650.0" y="55.0" width="10" height="5" rx="1" ry="1" fill="#ebedf0" />
<g clip-path="url(#grid-clip-live-light)">
<g transform="translate(325.0 10.0)">
<animateTransform attributeName="transform" type="translate" additive="sum" dur="23.319s" repeatCount="indefinite" calcMode="linear" values="-37.5 -22.5;-37.5 -22.5;0.0 -15.0;0 0;0 0;0 67.0;0 67.0" keyTimes="0;0.007719;0.013422;0.024015;0.952829;0.991423;1" />
<rect x="0.0" y="0.0" width="10" height="5" rx="1" ry="1" fill="#b095e6" />
</g>
<g transform="translate(625.0 10.0)">
<animateTransform attributeName="transform" type="translate" additive="sum" dur="23.319s" repeatCount="indefinite" calcMode="linear" values="-25.0 -22.5;-25.0 -22.5;0.0 -15.0;0 0;0 0;0 67.0;0 67.0" keyTimes="0;0.027445;0.033149;0.043741;0.952829;0.991423;1" />
<rect x="0.0" y="0.0" width="10" height="5" rx="1" ry="1" fill="#ccba95" />
<rect x="12.5" y="0.0" width="10" height="5" rx="1" ry="1" fill="#bea26a" />
</g>
<g transform="translate(437.5 10.0)">
<animateTransform attributeName="transform" type="translate" additive="sum" dur="23.319s" repeatCount="indefinite" calcMode="linear" values="-25.0 -22.5;-25.0 -22.5;0.0 -15.0;0 0;0 0;0 67.0;0 67.0" keyTimes="0;0.047171;0.052875;0.063467;0.952829;0.991423;1" />
<rect x="0.0" y="0.0" width="10" height="5" rx="1" ry="1" fill="#4c9963" />
<rect x="12.5" y="0.0" width="10" height="5" rx="1" ry="1" fill="#9cc3aa" />
<rect x="25.0" y="0.0" width="10" height="5" rx="1" ry="1" fill="#9cc3aa" />
<rect x="25.0" y="7.5" width="10" height="5" rx="1" ry="1" fill="#9cc3aa" />
</g>
<g transform="translate(475.0 10.0)">
<animateTransform attributeName="transform" type="translate" additive="sum" dur="23.319s" repeatCount="indefinite" calcMode="linear" values="-25.0 -30.0;-25.0 -30.0;0.0 -15.0;0 0;0 0;0 67.0;0 67.0" keyTimes="0;0.066898;0.072601;0.083193;0.952829;0.991423;1" />
<rect x="0.0" y="0.0" width="10" height="5" rx="1" ry="1" fill="#d9b095" />
<rect x="0.0" y="7.5" width="10" height="5" rx="1" ry="1" fill="#d9b095" />
<rect x="12.5" y="0.0" width="10" height="5" rx="1" ry="1" fill="#d1936a" />
</g>
<g transform="translate(512.5 10.0)">
<animateTransform attributeName="transform" type="translate" additive="sum" dur="23.319s" repeatCount="indefinite" calcMode="linear" values="25.0 -22.5;25.0 -22.5;0.0 -15.0;0 0;0 0;0 67.0;0 67.0" keyTimes="0;0.086624;0.092327;0.102919;0.952829;0.991423;1" />
<rect x="0.0" y="0.0" width="10" height="5" rx="1" ry="1" fill="#e0a0a6" />
<rect x="0.0" y="7.5" width="10" height="5" rx="1" ry="1" fill="#e0a0a6" />
</g>
<g transform="translate(562.5 10.0)">
<animateTransform attributeName="transform" type="translate" additive="sum" dur="23.319s" repeatCount="indefinite" calcMode="linear" values="25.0 -22.5;25.0 -22.5;0.0 -15.0;0 0;0 0;0 67.0;0 67.0" keyTimes="0;0.106350;0.112054;0.122646;0.952829;0.991423;1" />
<rect x="0.0" y="0.0" width="10" height="5" rx="1" ry="1" fill="#d6b595" />
<rect x="0.0" y="7.5" width="10" height="5" rx="1" ry="1" fill="#cc9a6a" />
<rect x="12.5" y="7.5" width="10" height="5" rx="1" ry="1" fill="#b45c05" />
<rect x="25.0" y="7.5" width="10" height="5" rx="1" ry="1" fill="#cc9a6a" />
</g>
<g transform="translate(575.0 10.0)">
<animateTransform attributeName="transform" type="translate" additive="sum" dur="23.319s" repeatCount="indefinite" calcMode="linear" values="-37.5 -30.0;-37.5 -30.0;0.0 -15.0;0 0;0 0;0 67.0;0 67.0" keyTimes="0;0.126076;0.131780;0.142372;0.952829;0.991423;1" />
<rect x="0.0" y="0.0" width="10" height="5" rx="1" ry="1" fill="#d6535d" />
<rect x="12.5" y="0.0" width="10" height="5" rx="1" ry="1" fill="#e0a0a6" />
<rect x="25.0" y="0.0" width="10" height="5" rx="1" ry="1" fill="#e0a0a6" />
<rect x="25.0" y="7.5" width="10" height="5" rx="1" ry="1" fill="#db7b83" />
</g>
<g transform="translate(350.0 25.0)">
<animateTransform attributeName="transform" type="translate" additive="sum" dur="23.319s" repeatCount="indefinite" calcMode="linear" values="0.0 -37.5;0.0 -37.5;0.0 -22.5;0 0;0 0;0 67.0;0 67.0" keyTimes="0;0.145803;0.152737;0.165615;0.952829;0.991423;1" />
<rect x="0.0" y="0.0" width="10" height="5" rx="1" ry="1" fill="#c7733a" />
</g>
<g transform="translate(387.5 25.0)">
<animateTransform attributeName="transform" type="translate" additive="sum" dur="23.319s" repeatCount="indefinite" calcMode="linear" values="0.0 -30.0;0.0 -30.0;0.0 -22.5;0 0;0 0;0 67.0;0 67.0" keyTimes="0;0.169045;0.174749;0.185341;0.952829;0.991423;1" />
<rect x="0.0" y="0.0" width="10" height="5" rx="1" ry="1" fill="#9cc3aa" />
</g>
<g transform="translate(425.0 10.0)">
<animateTransform attributeName="transform" type="translate" additive="sum" dur="23.319s" repeatCount="indefinite" calcMode="linear" values="0.0 -37.5;0.0 -37.5;0.0 -15.0;0 0;0 0;0 67.0;0 67.0" keyTimes="0;0.188771;0.195706;0.208583;0.952829;0.991423;1" />
<rect x="0.0" y="0.0" width="10" height="5" rx="1" ry="1" fill="#e0a0a6" />
<rect x="0.0" y="7.5" width="10" height="5" rx="1" ry="1" fill="#db7b83" />
<rect x="0.0" y="15.0" width="10" height="5" rx="1" ry="1" fill="#e0a0a6" />
<rect x="12.5" y="7.5" width="10" height="5" rx="1" ry="1" fill="#e0a0a6" />
</g>
<g transform="translate(537.5 10.0)">
<animateTransform attributeName="transform" type="translate" additive="sum" dur="23.319s" repeatCount="indefinite" calcMode="linear" values="37.5 -37.5;37.5 -37.5;0.0 -15.0;0 0;0 0;0 67.0;0 67.0" keyTimes="0;0.212014;0.218948;0.231826;0.952829;0.991423;1" />
<rect x="0.0" y="0.0" width="10" height="5" rx="1" ry="1" fill="#9b76e3" />
<rect x="12.5" y="0.0" width="10" height="5" rx="1" ry="1" fill="#c3b1ea" />
<rect x="12.5" y="7.5" width="10" height="5" rx="1" ry="1" fill="#b095e6" />
<rect x="12.5" y="15.0" width="10" height="5" rx="1" ry="1" fill="#9b76e3" />
</g>
<g transform="translate(612.5 17.5)">
<animateTransform attributeName="transform" type="translate" additive="sum" dur="23.319s" repeatCount="indefinite" calcMode="linear" values="-25.0 -37.5;-25.0 -37.5;0.0 -15.0;0 0;0 0;0 67.0;0 67.0" keyTimes="0;0.235257;0.242191;0.255069;0.952829;0.991423;1" />
<rect x="0.0" y="0.0" width="10" height="5" rx="1" ry="1" fill="#d9b095" />
<rect x="12.5" y="0.0" width="10" height="5" rx="1" ry="1" fill="#d1936a" />
<rect x="12.5" y="7.5" width="10" height="5" rx="1" ry="1" fill="#d9b095" />
<rect x="25.0" y="0.0" width="10" height="5" rx="1" ry="1" fill="#d1936a" />
</g>
<g transform="translate(537.5 17.5)">
<animateTransform attributeName="transform" type="translate" additive="sum" dur="23.319s" repeatCount="indefinite" calcMode="linear" values="-37.5 -45.0;-37.5 -45.0;0.0 -15.0;0 0;0 0;0 67.0;0 67.0" keyTimes="0;0.258499;0.266820;0.282274;0.952829;0.991423;1" />
<rect x="0.0" y="0.0" width="10" height="5" rx="1" ry="1" fill="#9cc3aa" />
<rect x="0.0" y="7.5" width="10" height="5" rx="1" ry="1" fill="#76af88" />
<rect x="0.0" y="15.0" width="10" height="5" rx="1" ry="1" fill="#76af88" />
<rect x="12.5" y="15.0" width="10" height="5" rx="1" ry="1" fill="#9cc3aa" />
</g>
<g transform="translate(562.5 32.5)">
<animateTransform attributeName="transform" type="translate" additive="sum" dur="23.319s" repeatCount="indefinite" calcMode="linear" values="-37.5 -37.5;-37.5 -37.5;0.0 -30.0;0 0;0 0;0 67.0;0 67.0" keyTimes="0;0.285704;0.292639;0.305516;0.952829;0.991423;1" />
<rect x="0.0" y="0.0" width="10" height="5" rx="1" ry="1" fill="#ad873a" />
</g>
<g transform="translate(562.5 25.0)">
<animateTransform attributeName="transform" type="translate" additive="sum" dur="23.319s" repeatCount="indefinite" calcMode="linear" values="-25.0 -37.5;-25.0 -37.5;0.0 -22.5;0 0;0 0;0 67.0;0 67.0" keyTimes="0;0.308947;0.315881;0.328759;0.952829;0.991423;1" />
<rect x="0.0" y="0.0" width="10" height="5" rx="1" ry="1" fill="#0e6cda" />
<rect x="12.5" y="0.0" width="10" height="5" rx="1" ry="1" fill="#95bbe8" />
<rect x="25.0" y="0.0" width="10" height="5" rx="1" ry="1" fill="#95bbe8" />
<rect x="25.0" y="7.5" width="10" height="5" rx="1" ry="1" fill="#95bbe8" />
</g>
<g transform="translate(387.5 32.5)">
<animateTransform attributeName="transform" type="translate" additive="sum" dur="23.319s" repeatCount="indefinite" calcMode="linear" values="0.0 -45.0;0.0 -45.0;0.0 -30.0;0 0;0 0;0 67.0;0 67.0" keyTimes="0;0.332190;0.340511;0.355964;0.952829;0.991423;1" />
<rect x="0.0" y="7.5" width="10" height="5" rx="1" ry="1" fill="#9cc3aa" />
<rect x="12.5" y="0.0" width="10" height="5" rx="1" ry="1" fill="#9cc3aa" />
<rect x="12.5" y="7.5" width="10" height="5" rx="1" ry="1" fill="#9cc3aa" />
</g>
<g transform="translate(475.0 25.0)">
<animateTransform attributeName="transform" type="translate" additive="sum" dur="23.319s" repeatCount="indefinite" calcMode="linear" values="0.0 -45.0;0.0 -45.0;0.0 -22.5;0 0;0 0;0 67.0;0 67.0" keyTimes="0;0.359395;0.367716;0.383169;0.952829;0.991423;1" />
<rect x="0.0" y="7.5" width="10" height="5" rx="1" ry="1" fill="#95bbe8" />
<rect x="12.5" y="0.0" width="10" height="5" rx="1" ry="1" fill="#95bbe8" />
<rect x="12.5" y="7.5" width="10" height="5" rx="1" ry="1" fill="#95bbe8" />
<rect x="12.5" y="15.0" width="10" height="5" rx="1" ry="1" fill="#95bbe8" />
</g>
<g transform="translate(550.0 32.5)">
<animateTransform attributeName="transform" type="translate" additive="sum" dur="23.319s" repeatCount="indefinite" calcMode="linear" values="37.5 -45.0;37.5 -45.0;0.0 -30.0;0 0;0 0;0 67.0;0 67.0" keyTimes="0;0.386600;0.394921;0.410374;0.952829;0.991423;1" />
<rect x="0.0" y="7.5" width="10" height="5" rx="1" ry="1" fill="#e0a0a6" />
<rect x="12.5" y="7.5" width="10" height="5" rx="1" ry="1" fill="#db7b83" />
<rect x="25.0" y="0.0" width="10" height="5" rx="1" ry="1" fill="#db7b83" />
<rect x="25.0" y="7.5" width="10" height="5" rx="1" ry="1" fill="#e0a0a6" />
</g>
<g transform="translate(587.5 25.0)">
<animateTransform attributeName="transform" type="translate" additive="sum" dur="23.319s" repeatCount="indefinite" calcMode="linear" values="-37.5 -45.0;-37.5 -45.0;0.0 -22.5;0 0;0 0;0 67.0;0 67.0" keyTimes="0;0.413805;0.422126;0.437579;0.952829;0.991423;1" />
<rect x="0.0" y="15.0" width="10" height="5" rx="1" ry="1" fill="#9b76e3" />
<rect x="12.5" y="0.0" width="10" height="5" rx="1" ry="1" fill="#c3b1ea" />
<rect x="12.5" y="7.5" width="10" height="5" rx="1" ry="1" fill="#c3b1ea" />
<rect x="12.5" y="15.0" width="10" height="5" rx="1" ry="1" fill="#c3b1ea" />
</g>
<g transform="translate(637.5 25.0)">
<animateTransform attributeName="transform" type="translate" additive="sum" dur="23.319s" repeatCount="indefinite" calcMode="linear" values="-25.0 -45.0;-25.0 -45.0;0.0 -22.5;0 0;0 0;0 67.0;0 67.0" keyTimes="0;0.441010;0.449331;0.464784;0.952829;0.991423;1" />
<rect x="0.0" y="0.0" width="10" height="5" rx="1" ry="1" fill="#6dafc5" />
<rect x="0.0" y="7.5" width="10" height="5" rx="1" ry="1" fill="#6dafc5" />
<rect x="0.0" y="15.0" width="10" height="5" rx="1" ry="1" fill="#6dafc5" />
</g>
<g transform="translate(450.0 40.0)">
<animateTransform attributeName="transform" type="translate" additive="sum" dur="23.319s" repeatCount="indefinite" calcMode="linear" values="37.5 -60.0;37.5 -60.0;0.0 -37.5;0 0;0 0;0 67.0;0 67.0" keyTimes="0;0.468215;0.479310;0.499914;0.952829;0.991423;1" />
<rect x="0.0" y="0.0" width="10" height="5" rx="1" ry="1" fill="#95bbe8" />
<rect x="0.0" y="7.5" width="10" height="5" rx="1" ry="1" fill="#95bbe8" />
</g>
<g transform="translate(475.0 40.0)">
<animateTransform attributeName="transform" type="translate" additive="sum" dur="23.319s" repeatCount="indefinite" calcMode="linear" values="25.0 -60.0;25.0 -60.0;0.0 -37.5;0 0;0 0;0 67.0;0 67.0" keyTimes="0;0.503345;0.514440;0.535044;0.952829;0.991423;1" />
<rect x="0.0" y="0.0" width="10" height="5" rx="1" ry="1" fill="#c3b1ea" />
<rect x="0.0" y="7.5" width="10" height="5" rx="1" ry="1" fill="#c3b1ea" />
<rect x="12.5" y="7.5" width="10" height="5" rx="1" ry="1" fill="#c3b1ea" />
<rect x="25.0" y="7.5" width="10" height="5" rx="1" ry="1" fill="#c3b1ea" />
</g>
<g transform="translate(612.5 32.5)">
<animateTransform attributeName="transform" type="translate" additive="sum" dur="23.319s" repeatCount="indefinite" calcMode="linear" values="-37.5 -60.0;-37.5 -60.0;0.0 -30.0;0 0;0 0;0 67.0;0 67.0" keyTimes="0;0.538475;0.549569;0.570174;0.952829;0.991423;1" />
<rect x="0.0" y="0.0" width="10" height="5" rx="1" ry="1" fill="#ccba95" />
<rect x="12.5" y="0.0" width="10" height="5" rx="1" ry="1" fill="#ccba95" />
<rect x="12.5" y="7.5" width="10" height="5" rx="1" ry="1" fill="#bea26a" />
<rect x="12.5" y="15.0" width="10" height="5" rx="1" ry="1" fill="#bea26a" />
</g>
<g transform="translate(312.5 55.0)">
<animateTransform attributeName="transform" type="translate" additive="sum" dur="23.319s" repeatCount="indefinite" calcMode="linear" values="37.5 -67.5;37.5 -67.5;0.0 -52.5;0 0;0 0;0 67.0;0 67.0" keyTimes="0;0.573605;0.586086;0.609266;0.952829;0.991423;1" />
<rect x="0.0" y="0.0" width="10" height="5" rx="1" ry="1" fill="#9c6a05" />
</g>
<g transform="translate(387.5 47.5)">
<animateTransform attributeName="transform" type="translate" additive="sum" dur="23.319s" repeatCount="indefinite" calcMode="linear" values="-37.5 -60.0;-37.5 -60.0;0.0 -45.0;0 0;0 0;0 67.0;0 67.0" keyTimes="0;0.612697;0.623792;0.644396;0.952829;0.991423;1" />
<rect x="0.0" y="0.0" width="10" height="5" rx="1" ry="1" fill="#96c3d3" />
<rect x="0.0" y="7.5" width="10" height="5" rx="1" ry="1" fill="#96c3d3" />
</g>
<g transform="translate(412.5 47.5)">
<animateTransform attributeName="transform" type="translate" additive="sum" dur="23.319s" repeatCount="indefinite" calcMode="linear" values="37.5 -60.0;37.5 -60.0;0.0 -45.0;0 0;0 0;0 67.0;0 67.0" keyTimes="0;0.647827;0.658921;0.679526;0.952829;0.991423;1" />
<rect x="0.0" y="0.0" width="10" height="5" rx="1" ry="1" fill="#d6b595" />
<rect x="12.5" y="0.0" width="10" height="5" rx="1" ry="1" fill="#d6b595" />
<rect x="12.5" y="7.5" width="10" height="5" rx="1" ry="1" fill="#b45c05" />
</g>
<g transform="translate(462.5 55.0)">
<animateTransform attributeName="transform" type="translate" additive="sum" dur="23.319s" repeatCount="indefinite" calcMode="linear" values="0.0 -67.5;0.0 -67.5;0.0 -52.5;0 0;0 0;0 67.0;0 67.0" keyTimes="0;0.682957;0.695438;0.718618;0.952829;0.991423;1" />
<rect x="0.0" y="0.0" width="10" height="5" rx="1" ry="1" fill="#96c3d3" />
</g>
<g transform="translate(525.0 40.0)">
<animateTransform attributeName="transform" type="translate" additive="sum" dur="23.319s" repeatCount="indefinite" calcMode="linear" values="0.0 -67.5;0.0 -67.5;0.0 -37.5;0 0;0 0;0 67.0;0 67.0" keyTimes="0;0.722049;0.734530;0.757710;0.952829;0.991423;1" />
<rect x="0.0" y="15.0" width="10" height="5" rx="1" ry="1" fill="#0e6cda" />
<rect x="12.5" y="0.0" width="10" height="5" rx="1" ry="1" fill="#0e6cda" />
<rect x="12.5" y="7.5" width="10" height="5" rx="1" ry="1" fill="#6ca3e4" />
<rect x="12.5" y="15.0" width="10" height="5" rx="1" ry="1" fill="#6ca3e4" />
</g>
<g transform="translate(550.0 47.5)">
<animateTransform attributeName="transform" type="translate" additive="sum" dur="23.319s" repeatCount="indefinite" calcMode="linear" values="-37.5 -60.0;-37.5 -60.0;0.0 -45.0;0 0;0 0;0 67.0;0 67.0" keyTimes="0;0.761141;0.772236;0.792840;0.952829;0.991423;1" />
<rect x="0.0" y="7.5" width="10" height="5" rx="1" ry="1" fill="#d9b095" />
<rect x="12.5" y="0.0" width="10" height="5" rx="1" ry="1" fill="#bd4f05" />
<rect x="12.5" y="7.5" width="10" height="5" rx="1" ry="1" fill="#d1936a" />
<rect x="25.0" y="7.5" width="10" height="5" rx="1" ry="1" fill="#d9b095" />
</g>
<g transform="translate(575.0 47.5)">
<animateTransform attributeName="transform" type="translate" additive="sum" dur="23.319s" repeatCount="indefinite" calcMode="linear" values="25.0 -60.0;25.0 -60.0;0.0 -45.0;0 0;0 0;0 67.0;0 67.0" keyTimes="0;0.796271;0.807366;0.827970;0.952829;0.991423;1" />
<rect x="0.0" y="0.0" width="10" height="5" rx="1" ry="1" fill="#96c3d3" />
<rect x="12.5" y="0.0" width="10" height="5" rx="1" ry="1" fill="#96c3d3" />
<rect x="12.5" y="7.5" width="10" height="5" rx="1" ry="1" fill="#96c3d3" />
<rect x="25.0" y="0.0" width="10" height="5" rx="1" ry="1" fill="#96c3d3" />
</g>
<g transform="translate(600.0 47.5)">
<animateTransform attributeName="transform" type="translate" additive="sum" dur="23.319s" repeatCount="indefinite" calcMode="linear" values="-37.5 -67.5;-37.5 -67.5;0.0 -45.0;0 0;0 0;0 67.0;0 67.0" keyTimes="0;0.831401;0.843882;0.867062;0.952829;0.991423;1" />
<rect x="0.0" y="7.5" width="10" height="5" rx="1" ry="1" fill="#d6b595" />
<rect x="12.5" y="0.0" width="10" height="5" rx="1" ry="1" fill="#d6b595" />
<rect x="12.5" y="7.5" width="10" height="5" rx="1" ry="1" fill="#c07d3a" />
<rect x="25.0" y="7.5" width="10" height="5" rx="1" ry="1" fill="#cc9a6a" />
</g>
</g>
<metadata>{"username": "Treenixie", "active_cells": 94, "mode": "live-animation"}</metadata>
</svg>