<svg xmlns="http://www.w3.org/2000/svg" width="660.0" height="70.0" viewBox="0 0 660.0 70.0">
<rect x="0" y="0" width="660.0" height="70.0" rx="0" ry="0" fill="#0d1117" />
<defs>
<clipPath id="grid-clip-live-dark"><rect x="0" y="10" width="660.0" height="50.0" rx="0" ry="0" /></clipPath>
</defs>
<rect x="0.0" y="10.0" width="10" height="5" rx="1" ry="1" fill="#161b22" />
<rect x="12.5" y="10.0" width="10" height="5" rx="1" ry="1" fill="#161b22" />
<rect x="25.0" y="10.0" width="10" height="5" rx="1" ry="1" fill="#161b22" />
<rect x="37.5" y="10.0" width="10" height="5" rx="1" ry="1" fill="#161b22" />
<rect x="50.0" y="10.0" width="10" height="5" rx="1" ry="1" fill="#161b22" />
<rect x="62.5" y="10.0" width="10" height="5" rx="1" ry="1" fill="#161b22" />
<rect x="75.0" y="10.0" width="10" height="5" rx="1" ry="1" fill="#161b22" />
<rect x="87.5" y="10.0" width="10" height="5" rx="1" ry="1" fill="#161b22" />
<rect x="100.0" y="10.0" width="10" height="5" rx="1" ry="1" fill="#161b22" />
<rect x="112.5" y="10.0" width="10" height="5" rx="1" ry="1" fill="#161b22" />
<rect x="125.0" y="10.0" width="10" height="5" rx="1" ry="1" fill="#161b22" />
<rect x="137.5" y="10.0" width="10" height="5" rx="1" ry="1" fill="#161b22" />
<rect x="150.0" y="10.0" width="10" height="5" rx="1" ry="1" fill="#161b22" />
<rect x="162.5" y="10.0" width="10" height="5" rx="1" ry="1" fill="#161b22" />
<rect x="175.0" y="10.0" width="10" height="5" rx="1" ry="1" fill="#161b22" />
<rect x="187.5" y="10.0" width="10" height="5" rx="1" ry="1" fill="#161b22" />
<rect x="200.0" y="10.0" width="10" height="5" rx="1" ry="1" fill="#161b22" />
<rect x="212.5" y="10.0" width="10" height="5" rx="1" ry="1" fill="#161b22" />
<rect x="225.0" y="10.0" width="10" height="5" rx="1" ry="1" fill="#161b22" />
<rect x="237.5" y="10.0" width="10" height="5" rx="1" ry="1" fill="#161b22" />
<rect x="250.0" y="10.0" width="10" height="5" rx="1" ry="1" fill="#161b22" />
<rect x="262.5" y="10.0" width="10" height="5" rx="1" ry="1" fill="#161b22" />
<rect x="275.0" y="10.0" width="10" height="5" rx="1" ry="1" fill="#161b22" />
<rect x="287.5" y="10.0" width="10" height="5" rx="1" ry="1" fill="#161b22" />
<rect x="300.0" y="10.0" width="10" height="5" rx="1" ry="1" fill="#161b22" />
<rect x="312.5" y="10.0" width="10" height="5" rx="1" ry="1" fill="#161b22" />
<rect x="325.0" y="10.0" width="10" height="5" rx="1" ry="1" fill="#161b22" />
<rect x="337.5" y="10.0" width="10" height="5" rx="1" ry="1" fill="#161b22" />
<rect x="350.0" y="10.0" width="10" height="5" rx="1" ry="1" fill="#161b22" />
<rect x="362.5" y="10.0" width="10" height="5" rx="1" ry="1" fill="#161b22" />
<rect x="375.0" y="10.0" width="10" height="5" rx="1" ry="1" fill="#161b22" />
<rect x="387.5" y="10.0" width="10" height="5" rx="1" ry="1" fill="#161b22" />
<rect x="400.0" y="10.0" width="10" height="5" rx="1" ry="1" fill="#161b22" />
<rect x="412.5" y="10.0" width="10" height="5" rx="1" ry="1" fill="#161b22" />
<rect x="425.0" y="10.0" width="10" height="5" rx="1" ry="1" fill="#161b22" />
<rect x="437.5" y="10.0" width="10" height="5" rx="1" ry="1" fill="#161b22" />
<rect x="450.0" y="10.0" width="10" height="5" rx="1" ry="1" fill="#161b22" />
<rect x="462.5" y="10.0" width="10" height="5" rx="1" ry="1" fill="#161b22" />
<rect x="475.0" y="10.0" width="10" height="5" rx="1" ry="1" fill="#161b22" />
<rect x="487.5" y="10.0" width="10" height="5" rx="1" ry="1" fill="#161b22" />
<rect x="500.0" y="10.0" width="10" height="5" rx="1" ry="1" fill="#161b22" />
<rect x="512.5" y="10.0" width="10" height="5" rx="1" ry="1" fill="#161b22" />
<rect x="525.0" y="10.0" width="10" height="5" rx="1" ry="1" fill="#161b22" />
<rect x="537.5" y="10.0" width="10" height="5" rx="1" ry="1" fill="#161b22" />
<rect x="550.0" y="10.0" width="10" height="5" rx="1" ry="1" fill="#161b22" />
<rect x="562.5" y="10.0" width="10" height="5" rx="1" ry="1" fill="#161b22" />
<rect x="575.0" y="10.0" width="10" height="5" rx="1" ry="1" fill="#161b22" />
<rect x="587.5" y="10.0" width="10" height="5" rx="1" ry="1" fill="#161b22" />
<rect x="600.0" y="10.0" width="10" height="5" rx="1" ry="1" fill="#161b22" />
<rect x="612.5" y="10.0" width="10" height="5" rx="1" ry="1" fill="#161b22" />
<rect x="625.0" y="10.0" width="10" height="5" rx="1" ry="1" fill="#161b22" />
<rect x="637.5" y="10.0" width="10" height="5" rx="1" ry="1" fill="#161b22" />
<rect x="650.0" y="10.0" width="10" height="5" rx="1" ry="1" fill="#161b22" />
<rect x="0.0" y="17.5" width="10" height="5" rx="1" ry="1" fill="#161b22" />
<rect x="12.5" y="17.5" width="10" height="5" rx="1" ry="1" fill="#161b22" />
<rect x="25.0" y="17.5" width="10" height="5" rx="1" ry="1" fill="#161b22" />
<rect x="37.5" y="17.5" width="10" height="5" rx="1" ry="1" fill="#161b22" />
<rect x="50.0" y="17.5" width="10" height="5" rx="1" ry="1" fill="#161b22" />
<rect x="62.5" y="17.5" width="10" height="5" rx="1" ry="1" fill="#161b22" />
<rect x="75.0" y="17.5" width="10" height="5" rx="1" ry="1" fill="#161b22" />
<rect x="87.5" y="17.5" width="10" height="5" rx="1" ry="1" fill="#161b22" />
<rect x="100.0" y="17.5" width="10" height="5" rx="1" ry="1" fill="#161b22" />
<rect x="112.5" y="17.5" width="10" height="5" rx="1" ry="1" fill="#161b22" />
<rect x="125.0" y="17.5" width="10" height="5" rx="1" ry="1" fill="#161b22" />
<rect x="137.5" y="17.5" width="10" height="5" rx="1" ry="1" fill="#161b22" />
<rect x="150.0" y="17.5" width="10" height="5" rx="1" ry="1" fill="#161b22" />
<rect x="162.5" y="17.5" width="10" height="5" rx="1" ry="1" fill="#161b22" />
<rect x="175.0" y="17.5" width="10" height="5" rx="1" ry="1" fill="#161b22" />
<rect x="187.5" y="17.5" width="10" height="5" rx="1" ry="1" fill="#161b22" />
<rect x="200.0" y="17.5" width="10" height="5" rx="1" ry="1" fill="#161b22" />
<rect x="212.5" y="17.5" width="10" height="5" rx="1" ry="1" fill="#161b22" />
<rect x="225.0" y="17.5" width="10" height="5" rx="1" ry="1" fill="#161b22" />
<rect x="237.5" y="17.5" width="10" height="5" rx="1" ry="1" fill="#161b22" />
<rect x="250.0" y="17.5" width="10" height="5" rx="1" ry="1" fill="#161b22" />
<rect x="262.5" y="17.5" width="10" height="5" rx="1" ry="1" fill="#161b22" />
<rect x="275.0" y="17.5" width="10" height="5" rx="1" ry="1" fill="#161b22" />
<rect x="287.5" y="17.5" width="10" height="5" rx="1" ry="1" fill="#161b22" />
<rect x="300.0" y="17.5" width="10" height="5" rx="1" ry="1" fill="#161b22" />
<rect x="312.5" y="17.5" width="10" height="5" rx="1" ry="1" fill="#161b22" />
<rect x="325.0" y="17.5" width="10" height="5" rx="1" ry="1" fill="#161b22" />
<rect x="337.5" y="17.5" width="10" height="5" rx="1" ry="1" fill="#161b22" />
<rect x="350.0" y="17.5" width="10" height="5" rx="1" ry="1" fill="#161b22" />
<rect x="362.5" y="17.5" width="10" height="5" rx="1" ry="1" fill="#161b22" />
<rect x="375.0" y="17.5" width="10" height="5" rx="1" ry="1" fill="#161b22" />
<rect x="387.5" y="17.5" width="10" height="5" rx="1" ry="1" fill="#161b22" />
<rect x="400.0" y="17.5" width="10" height="5" rx="1" ry="1" fill="#161b22" />
<rect x="412.5" y="17.5" width="10" height="5" rx="1" ry="1" fill="#161b22" />
<rect x="425.0" y="17.5" width="10" height="5" rx="1" ry="1" fill="#161b22" />
<rect x="437.5" y="17.5" width="10" height="5" rx="1" ry="1" fill="#161b22" />
<rect x="450.0" y="17.5" width="10" height="5" rx="1" ry="1" fill="#161b22" />
<rect x="462.5" y="17.5" width="10" height="5" rx="1" ry="1" fill="#161b22" />
<rect x="475.0" y="17.5" width="10" height="5" rx="1" ry="1" fill="#161b22" />
<rect x="487.5" y="17.5" width="10" height="5" rx="1" ry="1" fill="#161b22" />
<rect x="500.0" y="17.5" width="10" height="5" rx="1" ry="1" fill="#161b22" />
<rect x="512.5" y="17.5" width="10" height="5" rx="1" ry="1" fill="#161b22" />
<rect x="525.0" y="17.5" width="10" height="5" rx="1" ry="1" fill="#161b22" />
<rect x="537.5" y="17.5" width="10" height="5" rx="1" ry="1" fill="#161b22" />
<rect x="550.0" y="17.5" width="10" height="5" rx="1" ry="1" fill="#161b22" />
<rect x="562.5" y="17.5" width="10" height="5" rx="1" ry="1" fill="#161b22" />
<rect x="575.0" y="17.5" width="10" height="5" rx="1" ry="1" fill="#161b22" />
<rect x="587.5" y="17.5" width="10" height="5" rx="1" ry="1" fill="#161b22" />
<rect x="600.0" y="17.5" width="10" height="5" rx="1" ry="1" fill="#161b22" />
<rect x="612.5" y="17.5" width="10" height="5" rx="1" ry="1" fill="#161b22" />
<rect x="625.0" y="17.5" width="10" height="5" rx="1" ry="1" fill="#161b22" />
<rect x="637.5" y="17.5" width="10" height="5" rx="1" ry="1" fill="#161b22" />
<rect x="650.0" y="17.5" width="10" height="5" rx="1" ry="1" fill="#161b22" />
<rect x="0.0" y="25.0" width="10" height="5" rx="1" ry="1" fill="#161b22" />
<rect x="12.5" y="25.0" width="10" height="5" rx="1" ry="1" fill="#161b22" />
<rect x="25.0" y="25.0" width="10" height="5" rx="1" ry="1" fill="#161b22" />
<rect x="37.5" y="25.0" width="10" height="5" rx="1" ry="1" fill="#161b22" />
<rect x="50.0" y="25.0" width="10" height="5" rx="1" ry="1" fill="#161b22" />
<rect x="62.5" y="25.0" width="10" height="5" rx="1" ry="1" fill="#161b22" />
<rect x="75.0" y="25.0" width="10" height="5" rx="1" ry="1" fill="#161b22" />
<rect x="87.5" y="25.0" width="10" height="5" rx="1" ry="1" fill="#161b22" />
<rect x="100.0" y="25.0" width="10" height="5" rx="1" ry="1" fill="#161b22" />
<rect x="112.5" y="25.0" width="10" height="5" rx="1" ry="1" fill="#161b22" />
<rect x="125.0" y="25.0" width="10" height="5" rx="1" ry="1" fill="#161b22" />
<rect x="137.5" y="25.0" width="10" height="5" rx="1" ry="1" fill="#161b22" />
<rect x="150.0" y="25.0" width="10" height="5" rx="1" ry="1" fill="#161b22" />
<rect x="162.5" y="25.0" width="10" height="5" rx="1" ry="1" fill="#161b22" />
<rect x="175.0" y="25.0" width="10" height="5" rx="1" ry="1" fill="#161b22" />
<rect x="187.5" y="25.0" width="10" height="5" rx="1" ry="1" fill="#161b22" />
<rect x="200.0" y="25.0" width="10" height="5" rx="1" ry="1" fill="#161b22" />
<rect x="212.5" y="25.0" width="10" height="5" rx="1" ry="1" fill="#161b22" />
<rect x="225.0" y="25.0" width="10" height="5" rx="1" ry="1" fill="#161b22" />
<rect x="237.5" y="25.0" width="10" height="5" rx="1" ry="1" fill="#161b22" />
<rect x="250.0" y="25.0" width="10" height="5" rx="1" ry="1" fill="#161b22" />
<rect x="262.5" y="25.0" width="10" height="5" rx="1" ry="1" fill="#161b22" />
<rect x="275.0" y="25.0" width="10" height="5" rx="1" ry="1" fill="#161b22" />
<rect x="287.5" y="25.0" width="10" height="5" rx="1" ry="1" fill="#161b22" />
<rect x="300.0" y="25.0" width="10" height="5" rx="1" ry="1" fill="#161b22" />
<rect x="312.5" y="25.0" width="10" height="5" rx="1" ry="1" fill="#161b22" />
<rect x="325.0" y="25.0" width="10" height="5" rx="1" ry="1" fill="#161b22" />
<rect x="337.5" y="25.0" width="10" height="5" rx="1" ry="1" fill="#161b22" />
<rect x="350.0" y="25.0" width="10" height="5" rx="1" ry="1" fill="#161b22" />
<rect x="362.5" y="25.0" width="10" height="5" rx="1" ry="1" fill="#161b22" />
<rect x="375.0" y="25.0" width="10" height="5" rx="1" ry="1" fill="#161b22" />
<rect x="387.5" y="25.0" width="10" height="5" rx="1" ry="1" fill="#161b22" />
<rect x="400.0" y="25.0" width="10" height="5" rx="1" ry="1" fill="#161b22" />
<rect x="412.5" y="25.0" width="10" height="5" rx="1" ry="1" fill="#161b22" />
<rect x="425.0" y="25.0" width="10" height="5" rx="1" ry="1" fill="#161b22" />
<rect x="437.5" y="25.0" width="10" height="5" rx="1" ry="1" fill="#161b22" />
<rect x="450.0" y="25.0" width="10" height="5" rx="1" ry="1" fill="#161b22" />
<rect x="462.5" y="25.0" width="10" height="5" rx="1" ry="1" fill="#161b22" />
<rect x="475.0" y="25.0" width="10" height="5" rx="1" ry="1" fill="#161b22" />
<rect x="487.5" y="25.0" width="10" height="5" rx="1" ry="1" fill="#161b22" />
<rect x="500.0" y="25.0" width="10" height="5" rx="1" ry="1" fill="#161b22" />
<rect x="512.5" y="25.0" width="10" height="5" rx="1" ry="1" fill="#161b22" />
<rect x="525.0" y="25.0" width="10" height="5" rx="1" ry="1" fill="#161b22" />
<rect x="537.5" y="25.0" width="10" height="5" rx="1" ry="1" fill="#161b22" />
<rect x="550.0" y="25.0" width="10" height="5" rx="1" ry="1" fill="#161b22" />
<rect x="562.5" y="25.0" width="10" height="5" rx="1" ry="1" fill="#161b22" />
<rect x="575.0" y="25.0" width="10" height="5" rx="1" ry="1" fill="#161b22" />
<rect x="587.5" y="25.0" width="10" height="5" rx="1" ry="1" fill="#161b22" />
<rect x="600.0" y="25.0" width="10" height="5" rx="1" ry="1" fill="#161b22" />
<rect x="612.5" y="25.0" width="10" height="5" rx="1" ry="1" fill="#161b22" />
<rect x="625.0" y="25.0" width="10" height="5" rx="1" ry="1" fill="#161b22" />
<rect x="637.5" y="25.0" width="10" height="5" rx="1" ry="1" fill="#161b22" />
<rect x="650.0" y="25.0" width="10" height="5" rx="1" ry="1" fill="#161b22" />
<rect x="0.0" y="32.5" width="10" height="5" rx="1" ry="1" fill="#161b22" />
<rect x="12.5" y="32.5" width="10" height="5" rx="1" ry="1" fill="#161b22" />
<rect x="25.0" y="32.5" width="10" height="5" rx="1" ry="1" fill="#161b22" />
<rect x="37.5" y="32.5" width="10" height="5" rx="1" ry="1" fill="#161b22" />
<rect x="50.0" y="32.5" width="10" height="5" rx="1" ry="1" fill="#161b22" />
<rect x="62.5" y="32.5" width="10" height="5" rx="1" ry="1" fill="#161b22" />
<rect x="75.0" y="32.5" width="10" height="5" rx="1" ry="1" fill="#161b22" />
<rect x="87.5" y="32.5" width="10" height="5" rx="1" ry="1" fill="#161b22" />
<rect x="100.0" y="32.5" width="10" height="5" rx="1" ry="1" fill="#161b22" />
<rect x="112.5" y="32.5" width="10" height="5" rx="1" ry="1" fill="#161b22" />
<rect x="125.0" y="32.5" width="10" height="5" rx="1" ry="1" fill="#161b22" />
<rect x="137.5" y="32.5" width="10" height="5" rx="1" ry="1" fill="#161b22" />
<rect x="150.0" y="32.5" width="10" height="5" rx="1" ry="1" fill="#161b22" />
<rect x="162.5" y="32.5" width="10" height="5" rx="1" ry="1" fill="#161b22" />
<rect x="175.0" y="32.5" width="10" height="5" rx="1" ry="1" fill="#161b22" />
<rect x="187.5" y="32.5" width="10" height="5" rx="1" ry="1" fill="#161b22" />
<rect x="200.0" y="32.5" width="10" height="5" rx="1" ry="1" fill="#161b22" />
<rect x="212.5" y="32.5" width="10" height="5" rx="1" ry="1" fill="#161b22" />
<rect x="225.0" y="32.5" width="10" height="5" rx="1" ry="1" fill="#161b22" />
<rect x="237.5" y="32.5" width="10" height="5" rx="1" ry="1" fill="#161b22" />
<rect x="250.0" y="32.5" width="10" height="5" rx="1" ry="1" fill="#161b22" />
<rect x="262.5" y="32.5" width="10" height="5" rx="1" ry="1" fill="#161b22" />
<rect x="275.0" y="32.5" width="10" height="5" rx="1" ry="1" fill="#161b22" />
<rect x="287.5" y="32.5" width="10" height="5" rx="1" ry="1" fill="#161b22" />
<rect x="300.0" y="32.5" width="10" height="5" rx="1" ry="1" fill="#161b22" />
<rect x="312.5" y="32.5" width="10" height="5" rx="1" ry="1" fill="#161b22" />
<rect x="325.0" y="32.5" width="10" height="5" rx="1" ry="1" fill="#161b22" />
<rect x="337.5" y="32.5" width="10" height="5" rx="1" ry="1" fill="#161b22" />
<rect x="350.0" y="32.5" width="10" height="5" rx="1" ry="1" fill="#161b22" />
<rect x="362.5" y="32.5" width="10" height="5" rx="1" ry="1" fill="#161b22" />
<rect x="375.0" y="32.5" width="10" height="5" rx="1" ry="1" fill="#161b22" />
<rect x="387.5" y="32.5" width="10" height="5" rx="1" ry="1" fill="#161b22" />
<rect x="400.0" y="32.5" width="10" height="5" rx="1" ry="1" fill="#161b22" />
<rect x="412.5" y="32.5" width="10" height="5" rx="1" ry="1" fill="#161b22" />
<rect x="425.0" y="32.5" width="10" height="5" rx="1" ry="1" fill="#161b22" />
<rect x="437.5" y="32.5" width="10" height="5" rx="1" ry="1" fill="#161b22" />
<rect x="450.0" y="32.5" width="10" height="5" rx="1" ry="1" fill="#161b22" />
<rect x="462.5" y="32.5" width="10" height="5" rx="1" ry="1" fill="#161b22" />
<rect x="475.0" y="32.5" width="10" height="5" rx="1" ry="1" fill="#161b22" />
<rect x="487.5" y="32.5" width="10" height="5" rx="1" ry="1" fill="#161b22" />
<rect x="500.0" y="32.5" width="10" height="5" rx="1" ry="1" fill="#161b22" />
<rect x="512.5" y="32.5" width="10" height="5" rx="1" ry="1" fill="#161b22" />
<rect x="525.0" y="32.5" width="10" height="5" rx="1" ry="1" fill="#161b22" />
<rect x="537.5" y="32.5" width="10" height="5" rx="1" ry="1" fill="#161b22" />
<rect x="550.0" y="32.5" width="10" height="5" rx="1" ry="1" fill="#161b22" />
<rect x="562.5" y="32.5" width="10" height="5" rx="1" ry="1" fill="#161b22" />
<rect x="575.0" y="32.5" width="10" height="5" rx="1" ry="1" fill="#161b22" />
<rect x="587.5" y="32.5" width="10" height="5" rx="1" ry="1" fill="#161b22" />
<rect x="600.0" y="32.5" width="10" height="5" rx="1" ry="1" fill="#161b22" />
<rect x="612.5" y="32.5" width="10" height="5" rx="1" ry="1" fill="#161b22" />
<rect x="625.0" y="32.5" width="10" height="5" rx="1" ry="1" fill="#161b22" />
<rect x="637.5" y="32.5" width="10" height="5" rx="1" ry="1" fill="#161b22" />
<rect x="650.0" y="32.5" width="10" height="5" rx="1" ry="1" fill="#161b22" />
<rect x="0.0" y="40.0" width="10" height="5" rx="1" ry="1" fill="#161b22" />
<rect x="12.5" y="40.0" width="10" height="5" rx="1" ry="1" fill="#161b22" />
<rect x="25.0" y="40.0" width="10" height="5" rx="1" ry="1" fill="#161b22" />
<rect x="37.5" y="40.0" width="10" height="5" rx="1" ry="1" fill="#161b22" />
<rect x="50.0" y="40.0" width="10" height="5" rx="1" ry="1" fill="#161b22" />
<rect x="62.5" y="40.0" width="10" height="5" rx="1" ry="1" fill="#161b22" />
<rect x="75.0" y="40.0" width="10" height="5" rx="1" ry="1" fill="#161b22" />
<rect x="87.5" y="40.0" width="10" height="5" rx="1" ry="1" fill="#161b22" />
<rect x="100.0" y="40.0" width="10" height="5" rx="1" ry="1" fill="#161b22" />
<rect x="112.5" y="40.0" width="10" height="5" rx="1" ry="1" fill="#161b22" />
<rect x="125.0" y="40.0" width="10" height="5" rx="1" ry="1" fill="#161b22" />
<rect x="137.5" y="40.0" width="10" height="5" rx="1" ry="1" fill="#161b22" />
<rect x="150.0" y="40.0" width="10" height="5" rx="1" ry="1" fill="#161b22" />
<rect x="162.5" y="40.0" width="10" height="5" rx="1" ry="1" fill="#161b22" />
<rect x="175.0" y="40.0" width="10" height="5" rx="1" ry="1" fill="#161b22" />
<rect x="187.5" y="40.0" width="10" height="5" rx="1" ry="1" fill="#161b22" />
<rect x="200.0" y="40.0" width="10" height="5" rx="1" ry="1" fill="#161b22" />
<rect x="212.5" y="40.0" width="10" height="5" rx="1" ry="1" fill="#161b22" />
<rect x="225.0" y="40.0" width="10" height="5" rx="1" ry="1" fill="#161b22" />
<rect x="237.5" y="40.0" width="10" height="5" rx="1" ry="1" fill="#161b22" />
<rect x="250.0" y="40.0" width="10" height="5" rx="1" ry="1" fill="#161b22" />
<rect x="262.5" y="40.0" width="10" height="5" rx="1" ry="1" fill="#161b22" />
<rect x="275.0" y="40.0" width="10" height="5" rx="1" ry="1" fill="#161b22" />
<rect x="287.5" y="40.0" width="10" height="5" rx="1" ry="1" fill="#161b22" />
<rect x="300.0" y="40.0" width="10" height="5" rx="1" ry="1" fill="#161b22" />
<rect x="312.5" y="40.0" width="10" height="5" rx="1" ry="1" fill="#161b22" />
<rect x="325.0" y="40.0" width="10" height="5" rx="1" ry="1" fill="#161b22" />
<rect x="337.5" y="40.0" width="10" height="5" rx="1" ry="1" fill="#161b22" />
<rect x="350.0" y="40.0" width="10" height="5" rx="1" ry="1" fill="#161b22" />
<rect x="362.5" y="40.0" width="10" height="5" rx="1" ry="1" fill="#161b22" />
<rect x="375.0" y="40.0" width="10" height="5" rx="1" ry="1" fill="#161b22" />
<rect x="387.5" y="40.0" width="10" height="5" rx="1" ry="1" fill="#161b22" />
<rect x="400.0" y="40.0" width="10" height="5" rx="1" ry="1" fill="#161b22" />
<rect x="412.5" y="40.0" width="10" height="5" rx="1" ry="1" fill="#161b22" />
<rect x="425.0" y="40.0" width="10" height="5" rx="1" ry="1" fill="#161b22" />
<rect x="437.5" y="40.0" width="10" height="5" rx="1" ry="1" fill="#161b22" />
<rect x="450.0" y="40.0" width="10" height="5" rx="1" ry="1" fill="#161b22" />
<rect x="462.5" y="40.0" width="10" height="5" rx="1" ry="1" fill="#161b22" />
<rect x="475.0" y="40.0" width="10" height="5" rx="1" ry="1" fill="#161b22" />
<rect x="487.5" y="40.0" width="10" height="5" rx="1" ry="1" fill="#161b22" />
<rect x="500.0" y="40.0" width="10" height="5" rx="1" ry="1" fill="#161b22" />
<rect x="512.5" y="40.0" width="10" height="5" rx="1" ry="1" fill="#161b22" />
<rect x="525.0" y="40.0" width="10" height="5" rx="1" ry="1" fill="#161b22" />
<rect x="537.5" y="40.0" width="10" height="5" rx="1" ry="1" fill="#161b22" />
<rect x="550.0" y="40.0" width="10" height="5" rx="1" ry="1" fill="#161b22" />
<rect x="562.5" y="40.0" width="10" height="5" rx="1" ry="1" fill="#161b22" />
<rect x="575.0" y="40.0" width="10" height="5" rx="1" ry="1" fill="#161b22" />
<rect x="587.5" y="40.0" width="10" height="5" rx="1" ry="1" fill="#161b22" />
<rect x="600.0" y="40.0" width="10" height="5" rx="1" ry="1" fill="#161b22" />
<rect x="612.5" y="40.0" width="10" height="5" rx="1" ry="1" fill="#161b22" />
<rect x="625.0" y="40.0" width="10" height="5" rx="1" ry="1" fill="#161b22" />
<rect x="637.5" y="40.0" width="10" height="5" rx="1" ry="1" fill="#161b22" />
<rect x="650.0" y="40.0" width="10" height="5" rx="1" ry="1" fill="#161b22" />
<rect x="0.0" y="47.5" width="10" height="5" rx="1" ry="1" fill="#161b22" />
<rect x="12.5" y="47.5" width="10" height="5" rx="1" ry="1" fill="#161b22" />
<rect x="25.0" y="47.5" width="10" height="5" rx="1" ry="1" fill="#161b22" />
<rect x="37.5" y="47.5" width="10" height="5" rx="1" ry="1" fill="#161b22" />
<rect x="50.0" y="47.5" width="10" height="5" rx="1" ry="1" fill="#161b22" />
<rect x="62.5" y="47.5" width="10" height="5" rx="1" ry="1" fill="#161b22" />
<rect x="75.0" y="47.5" width="10" height="5" rx="1" ry="1" fill="#161b22" />
<rect x="87.5" y="47.5" width="10" height="5" rx="1" ry="1" fill="#161b22" />
<rect x="100.0" y="47.5" width="10" height="5" rx="1" ry="1" fill="#161b22" />
<rect x="112.5" y="47.5" width="10" height="5" rx="1" ry="1" fill="#161b22" />
<rect x="125.0" y="47.5" width="10" height="5" rx="1" ry="1" fill="#161b22" />
<rect x="137.5" y="47.5" width="10" height="5" rx="1" ry="1" fill="#161b22" />
<rect x="150.0" y="47.5" width="10" height="5" rx="1" ry="1" fill="#161b22" />
<rect x="162.5" y="47.5" width="10" height="5" rx="1" ry="1" fill="#161b22" />
<rect x="175.0" y="47.5" width="10" height="5" rx="1" ry="1" fill="#161b22" />
<rect x="187.5" y="47.5" width="10" height="5" rx="1" ry="1" fill="#161b22" />
<rect x="200.0" y="47.5" width="10" height="5" rx="1" ry="1" fill="#161b22" />
<rect x="212.5" y="47.5" width="10" height="5" rx="1" ry="1" fill="#161b22" />
<rect x="225.0" y="47.5" width="10" height="5" rx="1" ry="1" fill="#161b22" />
<rect x="237.5" y="47.5" width="10" height="5" rx="1" ry="1" fill="#161b22" />
<rect x="250.0" y="47.5" width="10" height="5" rx="1" ry="1" fill="#161b22" />
<rect x="262.5" y="47.5" width="10" height="5" rx="1" ry="1" fill="#161b22" />
<rect x="275.0" y="47.5" width="10" height="5" rx="1" ry="1" fill="#161b22" />
<rect x="287.5" y="47.5" width="10" height="5" rx="1" ry="1" fill="#161b22" />
<rect x="300.0" y="47.5" width="10" height="5" rx="1" ry="1" fill="#161b22" />
<rect x="312.5" y="47.5" width="10" height="5" rx="1" ry="1" fill="#161b22" />
<rect x="325.0" y="47.5" width="10" height="5" rx="1" ry="1" fill="#161b22" />
<rect x="337.5" y="47.5" width="10" height="5" rx="1" ry="1" fill="#161b22" />
<rect x="350.0" y="47.5" width="10" height="5" rx="1" ry="1" fill="#161b22" />
<rect x="362.5" y="47.5" width="10" height="5" rx="1" ry="1" fill="#161b22" />
<rect x="375.0" y="47.5" width="10" height="5" rx="1" ry="1" fill="#161b22" />
<rect x="387.5" y="47.5" width="10" height="5" rx="1" ry="1" fill="#161b22" />
<rect x="400.0" y="47.5" width="10" height="5" rx="1" ry="1" fill="#161b22" />
<rect x="412.5" y="47.5" width="10" height="5" rx="1" ry="1" fill="#161b22" />
<rect x="425.0" y="47.5" width="10" height="5" rx="1" ry="1" fill="#161b22" />
<rect x="437.5" y="47.5" width="10" height="5" rx="1" ry="1" fill="#161b22" />
<rect x="450.0" y="47.5" width="10" height="5" rx="1" ry="1" fill="#161b22" />
<rect x="462.5" y="47.5" width="10" height="5" rx="1" ry="1" fill="#161b22" />
<rect x="475.0" y="47.5" width="10" height="5" rx="1" ry="1" fill="#161b22" />
<rect x="487.5" y="47.5" width="10" height="5" rx="1" ry="1" fill="#161b22" />
<rect x="500.0" y="47.5" width="10" height="5" rx="1" ry="1" fill="#161b22" />
<rect x="512.5" y="47.5" width="10" height="5" rx="1" ry="1" fill="#161b22" />
<rect x="525.0" y="47.5" width="10" height="5" rx="1" ry="1" fill="#161b22" />
<rect x="537.5" y="47.5" width="10" height="5" rx="1" ry="1" fill="#161b22" />
<rect x="550.0" y="47.5" width="10" height="5" rx="1" ry="1" fill="#161b22" />
<rect x="562.5" y="47.5" width="10" height="5" rx="1" ry="1" fill="#161b22" />
<rect x="575.0" y="47.5" width="10" height="5" rx="1" ry="1" fill="#161b22" />
<rect x="587.5" y="47.5" width="10" height="5" rx="1" ry="1" fill="#161b22" />
<rect x="600.0" y="47.5" width="10" height="5" rx="1" ry="1" fill="#161b22" />
<rect x="612.5" y="47.5" width="10" height="5" rx="1" ry="1" fill="#161b22" />
<rect x="625.0" y="47.5" width="10" height="5" rx="1" ry="1" fill="#161b22" />
<rect x="637.5" y="47.5" width="10" height="5" rx="1" ry="1" fill="#161b22" />
<rect x="650.0" y="47.5" width="10" height="5" rx="1" ry="1" fill="#161b22" />
<rect x="0.0" y="55.0" width="10" height="5" rx="1" ry="1" fill="#161b22" />
<rect x="12.5" y="55.0" width="10" height="5" rx="1" ry="1" fill="#161b22" />
<rect x="25.0" y="55.0" width="10" height="5" rx="1" ry="1" fill="#161b22" />
<rect x="37.5" y="55.0" width="10" height="5" rx="1" ry="1" fill="#161b22" />
<rect x="50.0" y="55.0" width="10" height="5" rx="1" ry="1" fill="#161b22" />
<rect x="62.5" y="55.0" width="10" height="5" rx="1" ry="1" fill="#161b22" />
<rect x="75.0" y="55.0" width="10" height="5" rx="1" ry="1" fill="#161b22" />
<rect x="87.5" y="55.0" width="10" height="5" rx="1" ry="1" fill="#161b22" />
<rect x="100.0" y="55.0" width="10" height="5" rx="1" ry="1" fill="#161b22" />
<rect x="112.5" y="55.0" width="10" height="5" rx="1" ry="1" fill="#161b22" />
<rect x="125.0" y="55.0" width="10" height="5" rx="1" ry="1" fill="#161b22" />
<rect x="137.5" y="55.0" width="10" height="5" rx="1" ry="1" fill="#161b22" />
<rect x="150.0" y="55.0" width="10" height="5" rx="1" ry="1" fill="#161b22" />
<rect x="162.5" y="55.0" width="10" height="5" rx="1" ry="1" fill="#161b22" />
<rect x="175.0" y="55.0" width="10" height="5" rx="1" ry="1" fill="#161b22" />
<rect x="187.5" y="55.0" width="10" height="5" rx="1" ry="1" fill="#161b22" />
<rect x="200.0" y="55.0" width="10" height="5" rx="1" ry="1" fill="#161b22" />
<rect x="212.5" y="55.0" width="10" height="5" rx="1" ry="1" fill="#161b22" />
<rect x="225.0" y="55.0" width="10" height="5" rx="1" ry="1" fill="#161b22" />
<rect x="237.5" y="55.0" width="10" height="5" rx="1" ry="1" fill="#161b22" />
<rect x="250.0" y="55.0" width="10" height="5" rx="1" ry="1" fill="#161b22" />
<rect x="262.5" y="55.0" width="10" height="5" rx="1" ry="1" fill="#161b22" />
<rect x="275.0" y="55.0" width="10" height="5" rx="1" ry="1" fill="#161b22" />
<rect x="287.5" y="55.0" width="10" height="5" rx="1" ry="1" fill="#161b22" />
<rect x="300.0" y="55.0" width="10" height="5" rx="1" ry="1" fill="#161b22" />
<rect x="312.5" y="55.0" width="10" height="5" rx="1" ry="1" fill="#161b22" />
<rect x="325.0" y="55.0" width="10" height="5" rx="1" ry="1" fill="#161b22" />
<rect x="337.5" y="55.0" width="10" height="5" rx="1" ry="1" fill="#161b22" />
<rect x="350.0" y="55.0" width="10" height="5" rx="1" ry="1" fill="#161b22" />
<rect x="362.5" y="55.0" width="10" height="5" rx="1" ry="1" fill="#161b22" />
<rect x="375.0" y="55.0" width="10" height="5" rx="1" ry="1" fill="#161b22" />
<rect x="387.5" y="55.0" width="10" height="5" rx="1" ry="1" fill="#161b22" />
<rect x="400.0" y="55.0" width="10" height="5" rx="1" ry="1" fill="#161b22" />
<rect x="412.5" y="55.0" width="10" height="5" rx="1" ry="1" fill="#161b22" />
<rect x="425.0" y="55.0" width="10" height="5" rx="1" ry="1" fill="#161b22" />
<rect x="437.5" y="55.0" width="10" height="5" rx="1" ry="1" fill="#161b22" />
<rect x="450.0" y="55.0" width="10" height="5" rx="1" ry="1" fill="#161b22" />
<rect x="462.5" y="55.0" width="10" height="5" rx="1" ry="1" fill="#161b22" />
<rect x="475.0" y="55.0" width="10" height="5" rx="1" ry="1" fill="#161b22" />
<rect x="487.5" y="55.0" width="10" height="5" rx="1" ry="1" fill="#161b22" />
<rect x="500.0" y="55.0" width="10" height="5" rx="1" ry="1" fill="#161b22" />
<rect x="512.5" y="55.0" width="10" height="5" rx="1" ry="1" fill="#161b22" />
<rect x="525.0" y="55.0" width="10" height="5" rx="1" ry="1" fill="#161b22" />
<rect x="537.5" y="55.0" width="10" height="5" rx="1" ry="1" fill="#161b22" />
<rect x="550.0" y="55.0" width="10" height="5" rx="1" ry="1" fill="#161b22" />
<rect x="562.5" y="55.0" width="10" height="5" rx="1" ry="1" fill="#161b22" />
<rect x="575.0" y="55.0" width="10" height="5" rx="1" ry="1" fill="#161b22" />
<rect x="587.5" y="55.0" width="10" height="5" rx="1" ry="1" fill="#161b22" />
<rect x="600.0" y="55.0" width="10" height="5" rx="1" ry="1" fill="#161b22" />
<rect x="612.5" y="55.0" width="10" height="5" rx="1" ry="1" fill="#161b22" />
<rect x="625.0" y="55.0" width="10" height="5" rx="1" ry="1" fill="#161b22" />
<rect x="637.5" y="55.0" width="10" height="5" rx="1" ry="1" fill="#161b22" />
<rect x="650.0" y="55.0" width="10" height="5" rx="1" ry="1" fill="#161b22" />
<g clip-path="url(#grid-clip-live-dark)">
<g transform="translate(412.5 10.0)">
<animateTransform attributeName="transform" type="translate" additive="sum" dur="16.688s" repeatCount="indefinite" calcMode="linear" values="-25.0 -15.0;-25.0 -15.0;0.0 -15.0;0 0;0 0;0 67.0;0 67.0" keyTimes="0;0.010786;0.018756;0.033558;0.934083;0.988015;1" />
<rect x="0.0" y="0.0" width="10" height="5" rx="1" ry="1" fill="#98514f" />
</g>
<g transform="translate(525.0 10.0)">
<animateTransform attributeName="transform" type="translate" additive="sum" dur="16.688s" repeatCount="indefinite" calcMode="linear" values="0.0 -22.5;0.0 -22.5;0.0 -15.0;0 0;0 0;0 67.0;0 67.0" keyTimes="0;0.038352;0.046322;0.061123;0.934083;0.988015;1" />
<rect x="0.0" y="0.0" width="10" height="5" rx="1" ry="1" fill="#8bd78a" />
<rect x="12.5" y="0.0" width="10" height="5" rx="1" ry="1" fill="#43644a" />
<rect x="25.0" y="0.0" width="10" height="5" rx="1" ry="1" fill="#43644a" />
<rect x="25.0" y="7.5" width="10" height="5" rx="1" ry="1" fill="#43644a" />
</g>
<g transform="translate(562.5 10.0)">
<animateTransform attributeName="transform" type="translate" additive="sum" dur="16.688s" repeatCount="indefinite" calcMode="linear" values="-37.5 -22.5;-37.5 -22.5;0.0 -15.0;0 0;0 0;0 67.0;0 67.0" keyTimes="0;0.065917;0.073887;0.088689;0.934083;0.988015;1" />
<rect x="0.0" y="0.0" width="10" height="5" rx="1" ry="1" fill="#3c5a76" />
<rect x="0.0" y="7.5" width="10" height="5" rx="1" ry="1" fill="#3c5a76" />
<rect x="12.5" y="0.0" width="10" height="5" rx="1" ry="1" fill="#4d779e" />
</g>
<g transform="translate(600.0 10.0)">
<animateTransform attributeName="transform" type="translate" additive="sum" dur="16.688s" repeatCount="indefinite" calcMode="linear" values="0.0 -30.0;0.0 -30.0;0.0 -15.0;0 0;0 0;0 67.0;0 67.0" keyTimes="0;0.093483;0.101453;0.116254;0.934083;0.988015;1" />
<rect x="0.0" y="0.0" width="10" height="5" rx="1" ry="1" fill="#2e6169" />
<rect x="0.0" y="7.5" width="10" height="5" rx="1" ry="1" fill="#2e6169" />
</g>
<g transform="translate(650.0 10.0)">
<animateTransform attributeName="transform" type="translate" additive="sum" dur="16.688s" repeatCount="indefinite" calcMode="linear" values="0.0 -22.5;0.0 -22.5;0.0 -15.0;0 0;0 0;0 67.0;0 67.0" keyTimes="0;0.121048;0.129018;0.143819;0.934083;0.988015;1" />
<rect x="0.0" y="0.0" width="10" height="5" rx="1" ry="1" fill="#64552e" />
<rect x="0.0" y="7.5" width="10" height="5" rx="1" ry="1" fill="#897033" />
</g>
<g transform="translate(437.5 25.0)">
<animateTransform attributeName="transform" type="translate" additive="sum" dur="16.688s" repeatCount="indefinite" calcMode="linear" values="0.0 -30.0;0.0 -30.0;0.0 -22.5;0 0;0 0;0 67.0;0 67.0" keyTimes="0;0.148613;0.156583;0.171385;0.934083;0.988015;1" />
<rect x="0.0" y="0.0" width="10" height="5" rx="1" ry="1" fill="#6198ca" />
</g>
<g transform="translate(475.0 25.0)">
<animateTransform attributeName="transform" type="translate" additive="sum" dur="16.688s" repeatCount="indefinite" calcMode="linear" values="0.0 -37.5;0.0 -37.5;0.0 -22.5;0 0;0 0;0 67.0;0 67.0" keyTimes="0;0.176179;0.185869;0.203864;0.934083;0.988015;1" />
<rect x="0.0" y="0.0" width="10" height="5" rx="1" ry="1" fill="#5d5176" />
</g>
<g transform="translate(512.5 10.0)">
<animateTransform attributeName="transform" type="translate" additive="sum" dur="16.688s" repeatCount="indefinite" calcMode="linear" values="-37.5 -37.5;-37.5 -37.5;0.0 -15.0;0 0;0 0;0 67.0;0 67.0" keyTimes="0;0.208658;0.218348;0.236343;0.934083;0.988015;1" />
<rect x="0.0" y="0.0" width="10" height="5" rx="1" ry="1" fill="#2e6169" />
<rect x="0.0" y="7.5" width="10" height="5" rx="1" ry="1" fill="#3a838b" />
<rect x="0.0" y="15.0" width="10" height="5" rx="1" ry="1" fill="#2e6169" />
<rect x="12.5" y="7.5" width="10" height="5" rx="1" ry="1" fill="#2e6169" />
</g>
<g transform="translate(625.0 10.0)">
<animateTransform attributeName="transform" type="translate" additive="sum" dur="16.688s" repeatCount="indefinite" calcMode="linear" values="-37.5 -30.0;-37.5 -30.0;0.0 -15.0;0 0;0 0;0 67.0;0 67.0" keyTimes="0;0.241137;0.249107;0.263909;0.934083;0.988015;1" />
<rect x="0.0" y="0.0" width="10" height="5" rx="1" ry="1" fill="#6198ca" />
<rect x="12.5" y="0.0" width="10" height="5" rx="1" ry="1" fill="#3c5a76" />
<rect x="12.5" y="7.5" width="10" height="5" rx="1" ry="1" fill="#4d779e" />
<rect x="12.5" y="15.0" width="10" height="5" rx="1" ry="1" fill="#6198ca" />
</g>
<g transform="translate(625.0 17.5)">
<animateTransform attributeName="transform" type="translate" additive="sum" dur="16.688s" repeatCount="indefinite" calcMode="linear" values="-37.5 -37.5;-37.5 -37.5;0.0 -15.0;0 0;0 0;0 67.0;0 67.0" keyTimes="0;0.268703;0.278392;0.296388;0.934083;0.988015;1" />
<rect x="0.0" y="0.0" width="10" height="5" rx="1" ry="1" fill="#7f6a9e" />
<rect x="0.0" y="7.5" width="10" height="5" rx="1" ry="1" fill="#7f6a9e" />
<rect x="0.0" y="15.0" width="10" height="5" rx="1" ry="1" fill="#7f6a9e" />
<rect x="12.5" y="15.0" width="10" height="5" rx="1" ry="1" fill="#5d5176" />
</g>
<g transform="translate(475.0 32.5)">
<animateTransform attributeName="transform" type="translate" additive="sum" dur="16.688s" repeatCount="indefinite" calcMode="linear" values="0.0 -52.5;0.0 -52.5;0.0 -30.0;0 0;0 0;0 67.0;0 67.0" keyTimes="0;0.301182;0.314747;0.339941;0.934083;0.988015;1" />
<rect x="0.0" y="7.5" width="10" height="5" rx="1" ry="1" fill="#5d5176" />
<rect x="12.5" y="0.0" width="10" height="5" rx="1" ry="1" fill="#5d5176" />
<rect x="12.5" y="7.5" width="10" height="5" rx="1" ry="1" fill="#5d5176" />
</g>
<g transform="translate(562.5 25.0)">
<animateTransform attributeName="transform" type="translate" additive="sum" dur="16.688s" repeatCount="indefinite" calcMode="linear" values="-25.0 -45.0;-25.0 -45.0;0.0 -22.5;0 0;0 0;0 67.0;0 67.0" keyTimes="0;0.344735;0.356363;0.377957;0.934083;0.988015;1" />
<rect x="0.0" y="7.5" width="10" height="5" rx="1" ry="1" fill="#6a5e3a" />
<rect x="12.5" y="0.0" width="10" height="5" rx="1" ry="1" fill="#6a5e3a" />
<rect x="12.5" y="7.5" width="10" height="5" rx="1" ry="1" fill="#6a5e3a" />
<rect x="12.5" y="15.0" width="10" height="5" rx="1" ry="1" fill="#6a5e3a" />
</g>
<g transform="translate(637.5 25.0)">
<animateTransform attributeName="transform" type="translate" additive="sum" dur="16.688s" repeatCount="indefinite" calcMode="linear" values="0.0 -52.5;0.0 -52.5;0.0 -22.5;0 0;0 0;0 67.0;0 67.0" keyTimes="0;0.382751;0.396317;0.421511;0.934083;0.988015;1" />
<rect x="0.0" y="15.0" width="10" height="5" rx="1" ry="1" fill="#6f3f40" />
<rect x="12.5" y="0.0" width="10" height="5" rx="1" ry="1" fill="#fa7970" />
<rect x="12.5" y="7.5" width="10" height="5" rx="1" ry="1" fill="#c7645f" />
<rect x="12.5" y="15.0" width="10" height="5" rx="1" ry="1" fill="#6f3f40" />
</g>
<g transform="translate(537.5 40.0)">
<animateTransform attributeName="transform" type="translate" additive="sum" dur="16.688s" repeatCount="indefinite" calcMode="linear" values="37.5 -52.5;37.5 -52.5;0.0 -37.5;0 0;0 0;0 67.0;0 67.0" keyTimes="0;0.426305;0.439870;0.465064;0.934083;0.988015;1" />
<rect x="0.0" y="0.0" width="10" height="5" rx="1" ry="1" fill="#6a5e3a" />
<rect x="0.0" y="7.5" width="10" height="5" rx="1" ry="1" fill="#6a5e3a" />
</g>
<g transform="translate(562.5 40.0)">
<animateTransform attributeName="transform" type="translate" additive="sum" dur="16.688s" repeatCount="indefinite" calcMode="linear" values="0.0 -52.5;0.0 -52.5;0.0 -37.5;0 0;0 0;0 67.0;0 67.0" keyTimes="0;0.469858;0.483424;0.508617;0.934083;0.988015;1" />
<rect x="0.0" y="0.0" width="10" height="5" rx="1" ry="1" fill="#6f3f40" />
<rect x="0.0" y="7.5" width="10" height="5" rx="1" ry="1" fill="#6f3f40" />
<rect x="12.5" y="7.5" width="10" height="5" rx="1" ry="1" fill="#6f3f40" />
<rect x="25.0" y="7.5" width="10" height="5" rx="1" ry="1" fill="#6f3f40" />
</g>
<g transform="translate(400.0 55.0)">
<animateTransform attributeName="transform" type="translate" additive="sum" dur="16.688s" repeatCount="indefinite" calcMode="linear" values="0.0 -60.0;0.0 -60.0;0.0 -52.5;0 0;0 0;0 67.0;0 67.0" keyTimes="0;0.513411;0.528915;0.557708;0.934083;0.988015;1" />
<rect x="0.0" y="0.0" width="10" height="5" rx="1" ry="1" fill="#faa356" />
</g>
<g transform="translate(475.0 47.5)">
<animateTransform attributeName="transform" type="translate" additive="sum" dur="16.688s" repeatCount="indefinite" calcMode="linear" values="-25.0 -60.0;-25.0 -60.0;0.0 -45.0;0 0;0 0;0 67.0;0 67.0" keyTimes="0;0.562501;0.578005;0.606798;0.934083;0.988015;1" />
<rect x="0.0" y="0.0" width="10" height="5" rx="1" ry="1" fill="#6f5036" />
<rect x="0.0" y="7.5" width="10" height="5" rx="1" ry="1" fill="#6f5036" />
</g>
<g transform="translate(500.0 47.5)">
<animateTransform attributeName="transform" type="translate" additive="sum" dur="16.688s" repeatCount="indefinite" calcMode="linear" values="0.0 -67.5;0.0 -67.5;0.0 -45.0;0 0;0 0;0 67.0;0 67.0" keyTimes="0;0.611592;0.629034;0.661425;0.934083;0.988015;1" />
<rect x="0.0" y="0.0" width="10" height="5" rx="1" ry="1" fill="#64552e" />
<rect x="12.5" y="0.0" width="10" height="5" rx="1" ry="1" fill="#64552e" />
<rect x="12.5" y="7.5" width="10" height="5" rx="1" ry="1" fill="#dfb040" />
</g>
<g transform="translate(550.0 55.0)">
<animateTransform attributeName="transform" type="translate" additive="sum" dur="16.688s" repeatCount="indefinite" calcMode="linear" values="0.0 -60.0;0.0 -60.0;0.0 -52.5;0 0;0 0;0 67.0;0 67.0" keyTimes="0;0.666219;0.681723;0.710516;0.934083;0.988015;1" />
<rect x="0.0" y="0.0" width="10" height="5" rx="1" ry="1" fill="#43644a" />
</g>
<g transform="translate(612.5 40.0)">
<animateTransform attributeName="transform" type="translate" additive="sum" dur="16.688s" repeatCount="indefinite" calcMode="linear" values="25.0 -60.0;25.0 -60.0;0.0 -37.5;0 0;0 0;0 67.0;0 67.0" keyTimes="0;0.715310;0.730813;0.759606;0.934083;0.988015;1" />
<rect x="0.0" y="15.0" width="10" height="5" rx="1" ry="1" fill="#faa356" />
<rect x="12.5" y="0.0" width="10" height="5" rx="1" ry="1" fill="#faa356" />
<rect x="12.5" y="7.5" width="10" height="5" rx="1" ry="1" fill="#986940" />
<rect x="12.5" y="15.0" width="10" height="5" rx="1" ry="1" fill="#986940" />
</g>
<g transform="translate(637.5 55.0)">
<animateTransform attributeName="transform" type="translate" additive="sum" dur="16.688s" repeatCount="indefinite" calcMode="linear" values="12.5 -67.5;12.5 -67.5;0.0 -52.5;0 0;0 0;0 67.0;0 67.0" keyTimes="0;0.764400;0.781842;0.814233;0.934083;0.988015;1" />
<rect x="0.0" y="0.0" width="10" height="5" rx="1" ry="1" fill="#43644a" />
</g>
</g>
<metadata>{"username": "Treenixie", "active_cells": 55, "mode": "live-animation"}</metadata>
</svg>