<svg xmlns="http://www.w3.org/2000/svg" width="660.0" height="70.0" viewBox="0 0 660.0 70.0">
<rect x="0" y="0" width="660.0" height="70.0" rx="0" ry="0" fill="#0d1117" />
<defs>
<clipPath id="grid-clip-live-dark"><rect x="0" y="10" width="660.0" height="50.0" rx="0" ry="0" /></clipPath>
</defs>
<rect x="0.0" y="10.0" width="10" height="5" rx="1" ry="1" fill="#161b22" />
<rect x="12.5" y="10.0" width="10" height="5" rx="1" ry="1" fill="#161b22" />
<rect x="25.0" y="10.0" width="10" height="5" rx="1" ry="1" fill="#161b22" />
<rect x="37.5" y="10.0" width="10" height="5" rx="1" ry="1" fill="#161b22" />
<rect x="50.0" y="10.0" width="10" height="5" rx="1" ry="1" fill="#161b22" />
<rect x="62.5" y="10.0" width="10" height="5" rx="1" ry="1" fill="#161b22" />
<rect x="75.0" y="10.0" width="10" height="5" rx="1" ry="1" fill="#161b22" />
<rect x="87.5" y="10.0" width="10" height="5" rx="1" ry="1" fill="#161b22" />
<rect x="100.0" y="10.0" width="10" height="5" rx="1" ry="1" fill="#161b22" />
<rect x="112.5" y="10.0" width="10" height="5" rx="1" ry="1" fill="#161b22" />
<rect x="125.0" y="10.0" width="10" height="5" rx="1" ry="1" fill="#161b22" />
<rect x="137.5" y="10.0" width="10" height="5" rx="1" ry="1" fill="#161b22" />
<rect x="150.0" y="10.0" width="10" height="5" rx="1" ry="1" fill="#161b22" />
<rect x="162.5" y="10.0" width="10" height="5" rx="1" ry="1" fill="#161b22" />
<rect x="175.0" y="10.0" width="10" height="5" rx="1" ry="1" fill="#161b22" />
<rect x="187.5" y="10.0" width="10" height="5" rx="1" ry="1" fill="#161b22" />
<rect x="200.0" y="10.0" width="10" height="5" rx="1" ry="1" fill="#161b22" />
<rect x="212.5" y="10.0" width="10" height="5" rx="1" ry="1" fill="#161b22" />
<rect x="225.0" y="10.0" width="10" height="5" rx="1" ry="1" fill="#161b22" />
<rect x="237.5" y="10.0" width="10" height="5" rx="1" ry="1" fill="#161b22" />
<rect x="250.0" y="10.0" width="10" height="5" rx="1" ry="1" fill="#161b22" />
<rect x="262.5" y="10.0" width="10" height="5" rx="1" ry="1" fill="#161b22" />
<rect x="275.0" y="10.0" width="10" height="5" rx="1" ry="1" fill="#161b22" />
<rect x="287.5" y="10.0" width="10" height="5" rx="1" ry="1" fill="#161b22" />
<rect x="300.0" y="10.0" width="10" height="5" rx="1" ry="1" fill="#161b22" />
<rect x="312.5" y="10.0" width="10" height="5" rx="1" ry="1" fill="#161b22" />
<rect x="325.0" y="10.0" width="10" height="5" rx="1" ry="1" fill="#161b22" />
<rect x="337.5" y="10.0" width="10" height="5" rx="1" ry="1" fill="#161b22" />
<rect x="350.0" y="10.0" width="10" height="5" rx="1" ry="1" fill="#161b22" />
<rect x="362.5" y="10.0" width="10" height="5" rx="1" ry="1" fill="#161b22" />
<rect x="375.0" y="10.0" width="10" height="5" rx="1" ry="1" fill="#161b22" />
<rect x="387.5" y="10.0" width="10" height="5" rx="1" ry="1" fill="#161b22" />
<rect x="400.0" y="10.0" width="10" height="5" rx="1" ry="1" fill="#161b22" />
<rect x="412.5" y="10.0" width="10" height="5" rx="1" ry="1" fill="#161b22" />
<rect x="425.0" y="10.0" width="10" height="5" rx="1" ry="1" fill="#161b22" />
<rect x="437.5" y="10.0" width="10" height="5" rx="1" ry="1" fill="#161b22" />
<rect x="450.0" y="10.0" width="10" height="5" rx="1" ry="1" fill="#161b22" />
<rect x="462.5" y="10.0" width="10" height="5" rx="1" ry="1" fill="#161b22" />
<rect x="475.0" y="10.0" width="10" height="5" rx="1" ry="1" fill="#161b22" />
<rect x="487.5" y="10.0" width="10" height="5" rx="1" ry="1" fill="#161b22" />
<rect x="500.0" y="10.0" width="10" height="5" rx="1" ry="1" fill="#161b22" />
<rect x="512.5" y="10.0" width="10" height="5" rx="1" ry="1" fill="#161b22" />
<rect x="525.0" y="10.0" width="10" height="5" rx="1" ry="1" fill="#161b22" />
<rect x="537.5" y="10.0" width="10" height="5" rx="1" ry="1" fill="#161b22" />
<rect x="550.0" y="10.0" width="10" height="5" rx="1" ry="1" fill="#161b22" />
<rect x="562.5" y="10.0" width="10" height="5" rx="1" ry="1" fill="#161b22" />
<rect x="575.0" y="10.0" width="10" height="5" rx="1" ry="1" fill="#161b22" />
<rect x="587.5" y="10.0" width="10" height="5" rx="1" ry="1" fill="#161b22" />
<rect x="600.0" y="10.0" width="10" height="5" rx="1" ry="1" fill="#161b22" />
<rect x="612.5" y="10.0" width="10" height="5" rx="1" ry="1" fill="#161b22" />
<rect x="625.0" y="10.0" width="10" height="5" rx="1" ry="1" fill="#161b22" />
<rect x="637.5" y="10.0" width="10" height="5" rx="1" ry="1" fill="#161b22" />
<rect x="650.0" y="10.0" width="10" height="5" rx="1" ry="1" fill="#161b22" />
<rect x="0.0" y="17.5" width="10" height="5" rx="1" ry="1" fill="#161b22" />
<rect x="12.5" y="17.5" width="10" height="5" rx="1" ry="1" fill="#161b22" />
<rect x="25.0" y="17.5" width="10" height="5" rx="1" ry="1" fill="#161b22" />
<rect x="37.5" y="17.5" width="10" height="5" rx="1" ry="1" fill="#161b22" />
<rect x="50.0" y="17.5" width="10" height="5" rx="1" ry="1" fill="#161b22" />
<rect x="62.5" y="17.5" width="10" height="5" rx="1" ry="1" fill="#161b22" />
<rect x="75.0" y="17.5" width="10" height="5" rx="1" ry="1" fill="#161b22" />
<rect x="87.5" y="17.5" width="10" height="5" rx="1" ry="1" fill="#161b22" />
<rect x="100.0" y="17.5" width="10" height="5" rx="1" ry="1" fill="#161b22" />
<rect x="112.5" y="17.5" width="10" height="5" rx="1" ry="1" fill="#161b22" />
<rect x="125.0" y="17.5" width="10" height="5" rx="1" ry="1" fill="#161b22" />
<rect x="137.5" y="17.5" width="10" height="5" rx="1" ry="1" fill="#161b22" />
<rect x="150.0" y="17.5" width="10" height="5" rx="1" ry="1" fill="#161b22" />
<rect x="162.5" y="17.5" width="10" height="5" rx="1" ry="1" fill="#161b22" />
<rect x="175.0" y="17.5" width="10" height="5" rx="1" ry="1" fill="#161b22" />
<rect x="187.5" y="17.5" width="10" height="5" rx="1" ry="1" fill="#161b22" />
<rect x="200.0" y="17.5" width="10" height="5" rx="1" ry="1" fill="#161b22" />
<rect x="212.5" y="17.5" width="10" height="5" rx="1" ry="1" fill="#161b22" />
<rect x="225.0" y="17.5" width="10" height="5" rx="1" ry="1" fill="#161b22" />
<rect x="237.5" y="17.5" width="10" height="5" rx="1" ry="1" fill="#161b22" />
<rect x="250.0" y="17.5" width="10" height="5" rx="1" ry="1" fill="#161b22" />
<rect x="262.5" y="17.5" width="10" height="5" rx="1" ry="1" fill="#161b22" />
<rect x="275.0" y="17.5" width="10" height="5" rx="1" ry="1" fill="#161b22" />
<rect x="287.5" y="17.5" width="10" height="5" rx="1" ry="1" fill="#161b22" />
<rect x="300.0" y="17.5" width="10" height="5" rx="1" ry="1" fill="#161b22" />
<rect x="312.5" y="17.5" width="10" height="5" rx="1" ry="1" fill="#161b22" />
<rect x="325.0" y="17.5" width="10" height="5" rx="1" ry="1" fill="#161b22" />
<rect x="337.5" y="17.5" width="10" height="5" rx="1" ry="1" fill="#161b22" />
<rect x="350.0" y="17.5" width="10" height="5" rx="1" ry="1" fill="#161b22" />
<rect x="362.5" y="17.5" width="10" height="5" rx="1" ry="1" fill="#161b22" />
<rect x="375.0" y="17.5" width="10" height="5" rx="1" ry="1" fill="#161b22" />
<rect x="387.5" y="17.5" width="10" height="5" rx="1" ry="1" fill="#161b22" />
<rect x="400.0" y="17.5" width="10" height="5" rx="1" ry="1" fill="#161b22" />
<rect x="412.5" y="17.5" width="10" height="5" rx="1" ry="1" fill="#161b22" />
<rect x="425.0" y="17.5" width="10" height="5" rx="1" ry="1" fill="#161b22" />
<rect x="437.5" y="17.5" width="10" height="5" rx="1" ry="1" fill="#161b22" />
<rect x="450.0" y="17.5" width="10" height="5" rx="1" ry="1" fill="#161b22" />
<rect x="462.5" y="17.5" width="10" height="5" rx="1" ry="1" fill="#161b22" />
<rect x="475.0" y="17.5" width="10" height="5" rx="1" ry="1" fill="#161b22" />
<rect x="487.5" y="17.5" width="10" height="5" rx="1" ry="1" fill="#161b22" />
<rect x="500.0" y="17.5" width="10" height="5" rx="1" ry="1" fill="#161b22" />
<rect x="512.5" y="17.5" width="10" height="5" rx="1" ry="1" fill="#161b22" />
<rect x="525.0" y="17.5" width="10" height="5" rx="1" ry="1" fill="#161b22" />
<rect x="537.5" y="17.5" width="10" height="5" rx="1" ry="1" fill="#161b22" />
<rect x="550.0" y="17.5" width="10" height="5" rx="1" ry="1" fill="#161b22" />
<rect x="562.5" y="17.5" width="10" height="5" rx="1" ry="1" fill="#161b22" />
<rect x="575.0" y="17.5" width="10" height="5" rx="1" ry="1" fill="#161b22" />
<rect x="587.5" y="17.5" width="10" height="5" rx="1" ry="1" fill="#161b22" />
<rect x="600.0" y="17.5" width="10" height="5" rx="1" ry="1" fill="#161b22" />
<rect x="612.5" y="17.5" width="10" height="5" rx="1" ry="1" fill="#161b22" />
<rect x="625.0" y="17.5" width="10" height="5" rx="1" ry="1" fill="#161b22" />
<rect x="637.5" y="17.5" width="10" height="5" rx="1" ry="1" fill="#161b22" />
<rect x="650.0" y="17.5" width="10" height="5" rx="1" ry="1" fill="#161b22" />
<rect x="0.0" y="25.0" width="10" height="5" rx="1" ry="1" fill="#161b22" />
<rect x="12.5" y="25.0" width="10" height="5" rx="1" ry="1" fill="#161b22" />
<rect x="25.0" y="25.0" width="10" height="5" rx="1" ry="1" fill="#161b22" />
<rect x="37.5" y="25.0" width="10" height="5" rx="1" ry="1" fill="#161b22" />
<rect x="50.0" y="25.0" width="10" height="5" rx="1" ry="1" fill="#161b22" />
<rect x="62.5" y="25.0" width="10" height="5" rx="1" ry="1" fill="#161b22" />
<rect x="75.0" y="25.0" width="10" height="5" rx="1" ry="1" fill="#161b22" />
<rect x="87.5" y="25.0" width="10" height="5" rx="1" ry="1" fill="#161b22" />
<rect x="100.0" y="25.0" width="10" height="5" rx="1" ry="1" fill="#161b22" />
<rect x="112.5" y="25.0" width="10" height="5" rx="1" ry="1" fill="#161b22" />
<rect x="125.0" y="25.0" width="10" height="5" rx="1" ry="1" fill="#161b22" />
<rect x="137.5" y="25.0" width="10" height="5" rx="1" ry="1" fill="#161b22" />
<rect x="150.0" y="25.0" width="10" height="5" rx="1" ry="1" fill="#161b22" />
<rect x="162.5" y="25.0" width="10" height="5" rx="1" ry="1" fill="#161b22" />
<rect x="175.0" y="25.0" width="10" height="5" rx="1" ry="1" fill="#161b22" />
<rect x="187.5" y="25.0" width="10" height="5" rx="1" ry="1" fill="#161b22" />
<rect x="200.0" y="25.0" width="10" height="5" rx="1" ry="1" fill="#161b22" />
<rect x="212.5" y="25.0" width="10" height="5" rx="1" ry="1" fill="#161b22" />
<rect x="225.0" y="25.0" width="10" height="5" rx="1" ry="1" fill="#161b22" />
<rect x="237.5" y="25.0" width="10" height="5" rx="1" ry="1" fill="#161b22" />
<rect x="250.0" y="25.0" width="10" height="5" rx="1" ry="1" fill="#161b22" />
<rect x="262.5" y="25.0" width="10" height="5" rx="1" ry="1" fill="#161b22" />
<rect x="275.0" y="25.0" width="10" height="5" rx="1" ry="1" fill="#161b22" />
<rect x="287.5" y="25.0" width="10" height="5" rx="1" ry="1" fill="#161b22" />
<rect x="300.0" y="25.0" width="10" height="5" rx="1" ry="1" fill="#161b22" />
<rect x="312.5" y="25.0" width="10" height="5" rx="1" ry="1" fill="#161b22" />
<rect x="325.0" y="25.0" width="10" height="5" rx="1" ry="1" fill="#161b22" />
<rect x="337.5" y="25.0" width="10" height="5" rx="1" ry="1" fill="#161b22" />
<rect x="350.0" y="25.0" width="10" height="5" rx="1" ry="1" fill="#161b22" />
<rect x="362.5" y="25.0" width="10" height="5" rx="1" ry="1" fill="#161b22" />
<rect x="375.0" y="25.0" width="10" height="5" rx="1" ry="1" fill="#161b22" />
<rect x="387.5" y="25.0" width="10" height="5" rx="1" ry="1" fill="#161b22" />
<rect x="400.0" y="25.0" width="10" height="5" rx="1" ry="1" fill="#161b22" />
<rect x="412.5" y="25.0" width="10" height="5" rx="1" ry="1" fill="#161b22" />
<rect x="425.0" y="25.0" width="10" height="5" rx="1" ry="1" fill="#161b22" />
<rect x="437.5" y="25.0" width="10" height="5" rx="1" ry="1" fill="#161b22" />
<rect x="450.0" y="25.0" width="10" height="5" rx="1" ry="1" fill="#161b22" />
<rect x="462.5" y="25.0" width="10" height="5" rx="1" ry="1" fill="#161b22" />
<rect x="475.0" y="25.0" width="10" height="5" rx="1" ry="1" fill="#161b22" />
<rect x="487.5" y="25.0" width="10" height="5" rx="1" ry="1" fill="#161b22" />
<rect x="500.0" y="25.0" width="10" height="5" rx="1" ry="1" fill="#161b22" />
<rect x="512.5" y="25.0" width="10" height="5" rx="1" ry="1" fill="#161b22" />
<rect x="525.0" y="25.0" width="10" height="5" rx="1" ry="1" fill="#161b22" />
<rect x="537.5" y="25.0" width="10" height="5" rx="1" ry="1" fill="#161b22" />
<rect x="550.0" y="25.0" width="10" height="5" rx="1" ry="1" fill="#161b22" />
<rect x="562.5" y="25.0" width="10" height="5" rx="1" ry="1" fill="#161b22" />
<rect x="575.0" y="25.0" width="10" height="5" rx="1" ry="1" fill="#161b22" />
<rect x="587.5" y="25.0" width="10" height="5" rx="1" ry="1" fill="#161b22" />
<rect x="600.0" y="25.0" width="10" height="5" rx="1" ry="1" fill="#161b22" />
<rect x="612.5" y="25.0" width="10" height="5" rx="1" ry="1" fill="#161b22" />
<rect x="625.0" y="25.0" width="10" height="5" rx="1" ry="1" fill="#161b22" />
<rect x="637.5" y="25.0" width="10" height="5" rx="1" ry="1" fill="#161b22" />
<rect x="650.0" y="25.0" width="10" height="5" rx="1" ry="1" fill="#161b22" />
<rect x="0.0" y="32.5" width="10" height="5" rx="1" ry="1" fill="#161b22" />
<rect x="12.5" y="32.5" width="10" height="5" rx="1" ry="1" fill="#161b22" />
<rect x="25.0" y="32.5" width="10" height="5" rx="1" ry="1" fill="#161b22" />
<rect x="37.5" y="32.5" width="10" height="5" rx="1" ry="1" fill="#161b22" />
<rect x="50.0" y="32.5" width="10" height="5" rx="1" ry="1" fill="#161b22" />
<rect x="62.5" y="32.5" width="10" height="5" rx="1" ry="1" fill="#161b22" />
<rect x="75.0" y="32.5" width="10" height="5" rx="1" ry="1" fill="#161b22" />
<rect x="87.5" y="32.5" width="10" height="5" rx="1" ry="1" fill="#161b22" />
<rect x="100.0" y="32.5" width="10" height="5" rx="1" ry="1" fill="#161b22" />
<rect x="112.5" y="32.5" width="10" height="5" rx="1" ry="1" fill="#161b22" />
<rect x="125.0" y="32.5" width="10" height="5" rx="1" ry="1" fill="#161b22" />
<rect x="137.5" y="32.5" width="10" height="5" rx="1" ry="1" fill="#161b22" />
<rect x="150.0" y="32.5" width="10" height="5" rx="1" ry="1" fill="#161b22" />
<rect x="162.5" y="32.5" width="10" height="5" rx="1" ry="1" fill="#161b22" />
<rect x="175.0" y="32.5" width="10" height="5" rx="1" ry="1" fill="#161b22" />
<rect x="187.5" y="32.5" width="10" height="5" rx="1" ry="1" fill="#161b22" />
<rect x="200.0" y="32.5" width="10" height="5" rx="1" ry="1" fill="#161b22" />
<rect x="212.5" y="32.5" width="10" height="5" rx="1" ry="1" fill="#161b22" />
<rect x="225.0" y="32.5" width="10" height="5" rx="1" ry="1" fill="#161b22" />
<rect x="237.5" y="32.5" width="10" height="5" rx="1" ry="1" fill="#161b22" />
<rect x="250.0" y="32.5" width="10" height="5" rx="1" ry="1" fill="#161b22" />
<rect x="262.5" y="32.5" width="10" height="5" rx="1" ry="1" fill="#161b22" />
<rect x="275.0" y="32.5" width="10" height="5" rx="1" ry="1" fill="#161b22" />
<rect x="287.5" y="32.5" width="10" height="5" rx="1" ry="1" fill="#161b22" />
<rect x="300.0" y="32.5" width="10" height="5" rx="1" ry="1" fill="#161b22" />
<rect x="312.5" y="32.5" width="10" height="5" rx="1" ry="1" fill="#161b22" />
<rect x="325.0" y="32.5" width="10" height="5" rx="1" ry="1" fill="#161b22" />
<rect x="337.5" y="32.5" width="10" height="5" rx="1" ry="1" fill="#161b22" />
<rect x="350.0" y="32.5" width="10" height="5" rx="1" ry="1" fill="#161b22" />
<rect x="362.5" y="32.5" width="10" height="5" rx="1" ry="1" fill="#161b22" />
<rect x="375.0" y="32.5" width="10" height="5" rx="1" ry="1" fill="#161b22" />
<rect x="387.5" y="32.5" width="10" height="5" rx="1" ry="1" fill="#161b22" />
<rect x="400.0" y="32.5" width="10" height="5" rx="1" ry="1" fill="#161b22" />
<rect x="412.5" y="32.5" width="10" height="5" rx="1" ry="1" fill="#161b22" />
<rect x="425.0" y="32.5" width="10" height="5" rx="1" ry="1" fill="#161b22" />
<rect x="437.5" y="32.5" width="10" height="5" rx="1" ry="1" fill="#161b22" />
<rect x="450.0" y="32.5" width="10" height="5" rx="1" ry="1" fill="#161b22" />
<rect x="462.5" y="32.5" width="10" height="5" rx="1" ry="1" fill="#161b22" />
<rect x="475.0" y="32.5" width="10" height="5" rx="1" ry="1" fill="#161b22" />
<rect x="487.5" y="32.5" width="10" height="5" rx="1" ry="1" fill="#161b22" />
<rect x="500.0" y="32.5" width="10" height="5" rx="1" ry="1" fill="#161b22" />
<rect x="512.5" y="32.5" width="10" height="5" rx="1" ry="1" fill="#161b22" />
<rect x="525.0" y="32.5" width="10" height="5" rx="1" ry="1" fill="#161b22" />
<rect x="537.5" y="32.5" width="10" height="5" rx="1" ry="1" fill="#161b22" />
<rect x="550.0" y="32.5" width="10" height="5" rx="1" ry="1" fill="#161b22" />
<rect x="562.5" y="32.5" width="10" height="5" rx="1" ry="1" fill="#161b22" />
<rect x="575.0" y="32.5" width="10" height="5" rx="1" ry="1" fill="#161b22" />
<rect x="587.5" y="32.5" width="10" height="5" rx="1" ry="1" fill="#161b22" />
<rect x="600.0" y="32.5" width="10" height="5" rx="1" ry="1" fill="#161b22" />
<rect x="612.5" y="32.5" width="10" height="5" rx="1" ry="1" fill="#161b22" />
<rect x="625.0" y="32.5" width="10" height="5" rx="1" ry="1" fill="#161b22" />
<rect x="637.5" y="32.5" width="10" height="5" rx="1" ry="1" fill="#161b22" />
<rect x="650.0" y="32.5" width="10" height="5" rx="1" ry="1" fill="#161b22" />
<rect x="0.0" y="40.0" width="10" height="5" rx="1" ry="1" fill="#161b22" />
<rect x="12.5" y="40.0" width="10" height="5" rx="1" ry="1" fill="#161b22" />
<rect x="25.0" y="40.0" width="10" height="5" rx="1" ry="1" fill="#161b22" />
<rect x="37.5" y="40.0" width="10" height="5" rx="1" ry="1" fill="#161b22" />
<rect x="50.0" y="40.0" width="10" height="5" rx="1" ry="1" fill="#161b22" />
<rect x="62.5" y="40.0" width="10" height="5" rx="1" ry="1" fill="#161b22" />
<rect x="75.0" y="40.0" width="10" height="5" rx="1" ry="1" fill="#161b22" />
<rect x="87.5" y="40.0" width="10" height="5" rx="1" ry="1" fill="#161b22" />
<rect x="100.0" y="40.0" width="10" height="5" rx="1" ry="1" fill="#161b22" />
<rect x="112.5" y="40.0" width="10" height="5" rx="1" ry="1" fill="#161b22" />
<rect x="125.0" y="40.0" width="10" height="5" rx="1" ry="1" fill="#161b22" />
<rect x="137.5" y="40.0" width="10" height="5" rx="1" ry="1" fill="#161b22" />
<rect x="150.0" y="40.0" width="10" height="5" rx="1" ry="1" fill="#161b22" />
<rect x="162.5" y="40.0" width="10" height="5" rx="1" ry="1" fill="#161b22" />
<rect x="175.0" y="40.0" width="10" height="5" rx="1" ry="1" fill="#161b22" />
<rect x="187.5" y="40.0" width="10" height="5" rx="1" ry="1" fill="#161b22" />
<rect x="200.0" y="40.0" width="10" height="5" rx="1" ry="1" fill="#161b22" />
<rect x="212.5" y="40.0" width="10" height="5" rx="1" ry="1" fill="#161b22" />
<rect x="225.0" y="40.0" width="10" height="5" rx="1" ry="1" fill="#161b22" />
<rect x="237.5" y="40.0" width="10" height="5" rx="1" ry="1" fill="#161b22" />
<rect x="250.0" y="40.0" width="10" height="5" rx="1" ry="1" fill="#161b22" />
<rect x="262.5" y="40.0" width="10" height="5" rx="1" ry="1" fill="#161b22" />
<rect x="275.0" y="40.0" width="10" height="5" rx="1" ry="1" fill="#161b22" />
<rect x="287.5" y="40.0" width="10" height="5" rx="1" ry="1" fill="#161b22" />
<rect x="300.0" y="40.0" width="10" height="5" rx="1" ry="1" fill="#161b22" />
<rect x="312.5" y="40.0" width="10" height="5" rx="1" ry="1" fill="#161b22" />
<rect x="325.0" y="40.0" width="10" height="5" rx="1" ry="1" fill="#161b22" />
<rect x="337.5" y="40.0" width="10" height="5" rx="1" ry="1" fill="#161b22" />
<rect x="350.0" y="40.0" width="10" height="5" rx="1" ry="1" fill="#161b22" />
<rect x="362.5" y="40.0" width="10" height="5" rx="1" ry="1" fill="#161b22" />
<rect x="375.0" y="40.0" width="10" height="5" rx="1" ry="1" fill="#161b22" />
<rect x="387.5" y="40.0" width="10" height="5" rx="1" ry="1" fill="#161b22" />
<rect x="400.0" y="40.0" width="10" height="5" rx="1" ry="1" fill="#161b22" />
<rect x="412.5" y="40.0" width="10" height="5" rx="1" ry="1" fill="#161b22" />
<rect x="425.0" y="40.0" width="10" height="5" rx="1" ry="1" fill="#161b22" />
<rect x="437.5" y="40.0" width="10" height="5" rx="1" ry="1" fill="#161b22" />
<rect x="450.0" y="40.0" width="10" height="5" rx="1" ry="1" fill="#161b22" />
<rect x="462.5" y="40.0" width="10" height="5" rx="1" ry="1" fill="#161b22" />
<rect x="475.0" y="40.0" width="10" height="5" rx="1" ry="1" fill="#161b22" />
<rect x="487.5" y="40.0" width="10" height="5" rx="1" ry="1" fill="#161b22" />
<rect x="500.0" y="40.0" width="10" height="5" rx="1" ry="1" fill="#161b22" />
<rect x="512.5" y="40.0" width="10" height="5" rx="1" ry="1" fill="#161b22" />
<rect x="525.0" y="40.0" width="10" height="5" rx="1" ry="1" fill="#161b22" />
<rect x="537.5" y="40.0" width="10" height="5" rx="1" ry="1" fill="#161b22" />
<rect x="550.0" y="40.0" width="10" height="5" rx="1" ry="1" fill="#161b22" />
<rect x="562.5" y="40.0" width="10" height="5" rx="1" ry="1" fill="#161b22" />
<rect x="575.0" y="40.0" width="10" height="5" rx="1" ry="1" fill="#161b22" />
<rect x="587.5" y="40.0" width="10" height="5" rx="1" ry="1" fill="#161b22" />
<rect x="600.0" y="40.0" width="10" height="5" rx="1" ry="1" fill="#161b22" />
<rect x="612.5" y="40.0" width="10" height="5" rx="1" ry="1" fill="#161b22" />
<rect x="625.0" y="40.0" width="10" height="5" rx="1" ry="1" fill="#161b22" />
<rect x="637.5" y="40.0" width="10" height="5" rx="1" ry="1" fill="#161b22" />
<rect x="650.0" y="40.0" width="10" height="5" rx="1" ry="1" fill="#161b22" />
<rect x="0.0" y="47.5" width="10" height="5" rx="1" ry="1" fill="#161b22" />
<rect x="12.5" y="47.5" width="10" height="5" rx="1" ry="1" fill="#161b22" />
<rect x="25.0" y="47.5" width="10" height="5" rx="1" ry="1" fill="#161b22" />
<rect x="37.5" y="47.5" width="10" height="5" rx="1" ry="1" fill="#161b22" />
<rect x="50.0" y="47.5" width="10" height="5" rx="1" ry="1" fill="#161b22" />
<rect x="62.5" y="47.5" width="10" height="5" rx="1" ry="1" fill="#161b22" />
<rect x="75.0" y="47.5" width="10" height="5" rx="1" ry="1" fill="#161b22" />
<rect x="87.5" y="47.5" width="10" height="5" rx="1" ry="1" fill="#161b22" />
<rect x="100.0" y="47.5" width="10" height="5" rx="1" ry="1" fill="#161b22" />
<rect x="112.5" y="47.5" width="10" height="5" rx="1" ry="1" fill="#161b22" />
<rect x="125.0" y="47.5" width="10" height="5" rx="1" ry="1" fill="#161b22" />
<rect x="137.5" y="47.5" width="10" height="5" rx="1" ry="1" fill="#161b22" />
<rect x="150.0" y="47.5" width="10" height="5" rx="1" ry="1" fill="#161b22" />
<rect x="162.5" y="47.5" width="10" height="5" rx="1" ry="1" fill="#161b22" />
<rect x="175.0" y="47.5" width="10" height="5" rx="1" ry="1" fill="#161b22" />
<rect x="187.5" y="47.5" width="10" height="5" rx="1" ry="1" fill="#161b22" />
<rect x="200.0" y="47.5" width="10" height="5" rx="1" ry="1" fill="#161b22" />
<rect x="212.5" y="47.5" width="10" height="5" rx="1" ry="1" fill="#161b22" />
<rect x="225.0" y="47.5" width="10" height="5" rx="1" ry="1" fill="#161b22" />
<rect x="237.5" y="47.5" width="10" height="5" rx="1" ry="1" fill="#161b22" />
<rect x="250.0" y="47.5" width="10" height="5" rx="1" ry="1" fill="#161b22" />
<rect x="262.5" y="47.5" width="10" height="5" rx="1" ry="1" fill="#161b22" />
<rect x="275.0" y="47.5" width="10" height="5" rx="1" ry="1" fill="#161b22" />
<rect x="287.5" y="47.5" width="10" height="5" rx="1" ry="1" fill="#161b22" />
<rect x="300.0" y="47.5" width="10" height="5" rx="1" ry="1" fill="#161b22" />
<rect x="312.5" y="47.5" width="10" height="5" rx="1" ry="1" fill="#161b22" />
<rect x="325.0" y="47.5" width="10" height="5" rx="1" ry="1" fill="#161b22" />
<rect x="337.5" y="47.5" width="10" height="5" rx="1" ry="1" fill="#161b22" />
<rect x="350.0" y="47.5" width="10" height="5" rx="1" ry="1" fill="#161b22" />
<rect x="362.5" y="47.5" width="10" height="5" rx="1" ry="1" fill="#161b22" />
<rect x="375.0" y="47.5" width="10" height="5" rx="1" ry="1" fill="#161b22" />
<rect x="387.5" y="47.5" width="10" height="5" rx="1" ry="1" fill="#161b22" />
<rect x="400.0" y="47.5" width="10" height="5" rx="1" ry="1" fill="#161b22" />
<rect x="412.5" y="47.5" width="10" height="5" rx="1" ry="1" fill="#161b22" />
<rect x="425.0" y="47.5" width="10" height="5" rx="1" ry="1" fill="#161b22" />
<rect x="437.5" y="47.5" width="10" height="5" rx="1" ry="1" fill="#161b22" />
<rect x="450.0" y="47.5" width="10" height="5" rx="1" ry="1" fill="#161b22" />
<rect x="462.5" y="47.5" width="10" height="5" rx="1" ry="1" fill="#161b22" />
<rect x="475.0" y="47.5" width="10" height="5" rx="1" ry="1" fill="#161b22" />
<rect x="487.5" y="47.5" width="10" height="5" rx="1" ry="1" fill="#161b22" />
<rect x="500.0" y="47.5" width="10" height="5" rx="1" ry="1" fill="#161b22" />
<rect x="512.5" y="47.5" width="10" height="5" rx="1" ry="1" fill="#161b22" />
<rect x="525.0" y="47.5" width="10" height="5" rx="1" ry="1" fill="#161b22" />
<rect x="537.5" y="47.5" width="10" height="5" rx="1" ry="1" fill="#161b22" />
<rect x="550.0" y="47.5" width="10" height="5" rx="1" ry="1" fill="#161b22" />
<rect x="562.5" y="47.5" width="10" height="5" rx="1" ry="1" fill="#161b22" />
<rect x="575.0" y="47.5" width="10" height="5" rx="1" ry="1" fill="#161b22" />
<rect x="587.5" y="47.5" width="10" height="5" rx="1" ry="1" fill="#161b22" />
<rect x="600.0" y="47.5" width="10" height="5" rx="1" ry="1" fill="#161b22" />
<rect x="612.5" y="47.5" width="10" height="5" rx="1" ry="1" fill="#161b22" />
<rect x="625.0" y="47.5" width="10" height="5" rx="1" ry="1" fill="#161b22" />
<rect x="637.5" y="47.5" width="10" height="5" rx="1" ry="1" fill="#161b22" />
<rect x="650.0" y="47.5" width="10" height="5" rx="1" ry="1" fill="#161b22" />
<rect x="0.0" y="55.0" width="10" height="5" rx="1" ry="1" fill="#161b22" />
<rect x="12.5" y="55.0" width="10" height="5" rx="1" ry="1" fill="#161b22" />
<rect x="25.0" y="55.0" width="10" height="5" rx="1" ry="1" fill="#161b22" />
<rect x="37.5" y="55.0" width="10" height="5" rx="1" ry="1" fill="#161b22" />
<rect x="50.0" y="55.0" width="10" height="5" rx="1" ry="1" fill="#161b22" />
<rect x="62.5" y="55.0" width="10" height="5" rx="1" ry="1" fill="#161b22" />
<rect x="75.0" y="55.0" width="10" height="5" rx="1" ry="1" fill="#161b22" />
<rect x="87.5" y="55.0" width="10" height="5" rx="1" ry="1" fill="#161b22" />
<rect x="100.0" y="55.0" width="10" height="5" rx="1" ry="1" fill="#161b22" />
<rect x="112.5" y="55.0" width="10" height="5" rx="1" ry="1" fill="#161b22" />
<rect x="125.0" y="55.0" width="10" height="5" rx="1" ry="1" fill="#161b22" />
<rect x="137.5" y="55.0" width="10" height="5" rx="1" ry="1" fill="#161b22" />
<rect x="150.0" y="55.0" width="10" height="5" rx="1" ry="1" fill="#161b22" />
<rect x="162.5" y="55.0" width="10" height="5" rx="1" ry="1" fill="#161b22" />
<rect x="175.0" y="55.0" width="10" height="5" rx="1" ry="1" fill="#161b22" />
<rect x="187.5" y="55.0" width="10" height="5" rx="1" ry="1" fill="#161b22" />
<rect x="200.0" y="55.0" width="10" height="5" rx="1" ry="1" fill="#161b22" />
<rect x="212.5" y="55.0" width="10" height="5" rx="1" ry="1" fill="#161b22" />
<rect x="225.0" y="55.0" width="10" height="5" rx="1" ry="1" fill="#161b22" />
<rect x="237.5" y="55.0" width="10" height="5" rx="1" ry="1" fill="#161b22" />
<rect x="250.0" y="55.0" width="10" height="5" rx="1" ry="1" fill="#161b22" />
<rect x="262.5" y="55.0" width="10" height="5" rx="1" ry="1" fill="#161b22" />
<rect x="275.0" y="55.0" width="10" height="5" rx="1" ry="1" fill="#161b22" />
<rect x="287.5" y="55.0" width="10" height="5" rx="1" ry="1" fill="#161b22" />
<rect x="300.0" y="55.0" width="10" height="5" rx="1" ry="1" fill="#161b22" />
<rect x="312.5" y="55.0" width="10" height="5" rx="1" ry="1" fill="#161b22" />
<rect x="325.0" y="55.0" width="10" height="5" rx="1" ry="1" fill="#161b22" />
<rect x="337.5" y="55.0" width="10" height="5" rx="1" ry="1" fill="#161b22" />
<rect x="350.0" y="55.0" width="10" height="5" rx="1" ry="1" fill="#161b22" />
<rect x="362.5" y="55.0" width="10" height="5" rx="1" ry="1" fill="#161b22" />
<rect x="375.0" y="55.0" width="10" height="5" rx="1" ry="1" fill="#161b22" />
<rect x="387.5" y="55.0" width="10" height="5" rx="1" ry="1" fill="#161b22" />
<rect x="400.0" y="55.0" width="10" height="5" rx="1" ry="1" fill="#161b22" />
<rect x="412.5" y="55.0" width="10" height="5" rx="1" ry="1" fill="#161b22" />
<rect x="425.0" y="55.0" width="10" height="5" rx="1" ry="1" fill="#161b22" />
<rect x="437.5" y="55.0" width="10" height="5" rx="1" ry="1" fill="#161b22" />
<rect x="450.0" y="55.0" width="10" height="5" rx="1" ry="1" fill="#161b22" />
<rect x="462.5" y="55.0" width="10" height="5" rx="1" ry="1" fill="#161b22" />
<rect x="475.0" y="55.0" width="10" height="5" rx="1" ry="1" fill="#161b22" />
<rect x="487.5" y="55.0" width="10" height="5" rx="1" ry="1" fill="#161b22" />
<rect x="500.0" y="55.0" width="10" height="5" rx="1" ry="1" fill="#161b22" />
<rect x="512.5" y="55.0" width="10" height="5" rx="1" ry="1" fill="#161b22" />
<rect x="525.0" y="55.0" width="10" height="5" rx="1" ry="1" fill="#161b22" />
<rect x="537.5" y="55.0" width="10" height="5" rx="1" ry="1" fill="#161b22" />
<rect x="550.0" y="55.0" width="10" height="5" rx="1" ry="1" fill="#161b22" />
<rect x="562.5" y="55.0" width="10" height="5" rx="1" ry="1" fill="#161b22" />
<rect x="575.0" y="55.0" width="10" height="5" rx="1" ry="1" fill="#161b22" />
<rect x="587.5" y="55.0" width="10" height="5" rx="1" ry="1" fill="#161b22" />
<rect x="600.0" y="55.0" width="10" height="5" rx="1" ry="1" fill="#161b22" />
<rect x="612.5" y="55.0" width="10" height="5" rx="1" ry="1" fill="#161b22" />
<rect x="625.0" y="55.0" width="10" height="5" rx="1" ry="1" fill="#161b22" />
<rect x="637.5" y="55.0" width="10" height="5" rx="1" ry="1" fill="#161b22" />
<rect x="650.0" y="55.0" width="10" height="5" rx="1" ry="1" fill="#161b22" />
<g clip-path="url(#grid-clip-live-dark)">
<g transform="translate(375.0 10.0)">
<animateTransform attributeName="transform" type="translate" additive="sum" dur="20.137s" repeatCount="indefinite" calcMode="linear" values="0.0 -22.5;0.0 -22.5;0.0 -15.0;0 0;0 0;0 67.0;0 67.0" keyTimes="0;0.008939;0.015544;0.027810;0.945374;0.990068;1" />
<rect x="0.0" y="0.0" width="10" height="5" rx="1" ry="1" fill="#897033" />
</g>
<g transform="translate(487.5 10.0)">
<animateTransform attributeName="transform" type="translate" additive="sum" dur="20.137s" repeatCount="indefinite" calcMode="linear" values="-37.5 -30.0;-37.5 -30.0;0.0 -15.0;0 0;0 0;0 67.0;0 67.0" keyTimes="0;0.031783;0.038387;0.050654;0.945374;0.990068;1" />
<rect x="0.0" y="0.0" width="10" height="5" rx="1" ry="1" fill="#6198ca" />
<rect x="12.5" y="0.0" width="10" height="5" rx="1" ry="1" fill="#3c5a76" />
<rect x="25.0" y="0.0" width="10" height="5" rx="1" ry="1" fill="#3c5a76" />
<rect x="25.0" y="7.5" width="10" height="5" rx="1" ry="1" fill="#3c5a76" />
</g>
<g transform="translate(525.0 10.0)">
<animateTransform attributeName="transform" type="translate" additive="sum" dur="20.137s" repeatCount="indefinite" calcMode="linear" values="25.0 -30.0;25.0 -30.0;0.0 -15.0;0 0;0 0;0 67.0;0 67.0" keyTimes="0;0.054626;0.061231;0.073497;0.945374;0.990068;1" />
<rect x="0.0" y="0.0" width="10" height="5" rx="1" ry="1" fill="#6a5e3a" />
<rect x="0.0" y="7.5" width="10" height="5" rx="1" ry="1" fill="#6a5e3a" />
<rect x="12.5" y="0.0" width="10" height="5" rx="1" ry="1" fill="#917e45" />
</g>
<g transform="translate(562.5 10.0)">
<animateTransform attributeName="transform" type="translate" additive="sum" dur="20.137s" repeatCount="indefinite" calcMode="linear" values="0.0 -22.5;0.0 -22.5;0.0 -15.0;0 0;0 0;0 67.0;0 67.0" keyTimes="0;0.077470;0.084075;0.096341;0.945374;0.990068;1" />
<rect x="0.0" y="0.0" width="10" height="5" rx="1" ry="1" fill="#6f5036" />
<rect x="0.0" y="7.5" width="10" height="5" rx="1" ry="1" fill="#6f5036" />
</g>
<g transform="translate(612.5 10.0)">
<animateTransform attributeName="transform" type="translate" additive="sum" dur="20.137s" repeatCount="indefinite" calcMode="linear" values="12.5 -30.0;12.5 -30.0;0.0 -15.0;0 0;0 0;0 67.0;0 67.0" keyTimes="0;0.100314;0.106919;0.119185;0.945374;0.990068;1" />
<rect x="0.0" y="0.0" width="10" height="5" rx="1" ry="1" fill="#43644a" />
<rect x="0.0" y="7.5" width="10" height="5" rx="1" ry="1" fill="#59875d" />
<rect x="12.5" y="7.5" width="10" height="5" rx="1" ry="1" fill="#8bd78a" />
<rect x="25.0" y="7.5" width="10" height="5" rx="1" ry="1" fill="#59875d" />
</g>
<g transform="translate(625.0 10.0)">
<animateTransform attributeName="transform" type="translate" additive="sum" dur="20.137s" repeatCount="indefinite" calcMode="linear" values="0.0 -30.0;0.0 -30.0;0.0 -15.0;0 0;0 0;0 67.0;0 67.0" keyTimes="0;0.123158;0.129762;0.142029;0.945374;0.990068;1" />
<rect x="0.0" y="0.0" width="10" height="5" rx="1" ry="1" fill="#a586ca" />
<rect x="12.5" y="0.0" width="10" height="5" rx="1" ry="1" fill="#5d5176" />
<rect x="25.0" y="0.0" width="10" height="5" rx="1" ry="1" fill="#5d5176" />
<rect x="25.0" y="7.5" width="10" height="5" rx="1" ry="1" fill="#7f6a9e" />
</g>
<g transform="translate(400.0 25.0)">
<animateTransform attributeName="transform" type="translate" additive="sum" dur="20.137s" repeatCount="indefinite" calcMode="linear" values="-37.5 -30.0;-37.5 -30.0;0.0 -22.5;0 0;0 0;0 67.0;0 67.0" keyTimes="0;0.146001;0.152606;0.164872;0.945374;0.990068;1" />
<rect x="0.0" y="0.0" width="10" height="5" rx="1" ry="1" fill="#47a8b0" />
</g>
<g transform="translate(437.5 25.0)">
<animateTransform attributeName="transform" type="translate" additive="sum" dur="20.137s" repeatCount="indefinite" calcMode="linear" values="-25.0 -37.5;-25.0 -37.5;0.0 -22.5;0 0;0 0;0 67.0;0 67.0" keyTimes="0;0.168845;0.176875;0.191788;0.945374;0.990068;1" />
<rect x="0.0" y="0.0" width="10" height="5" rx="1" ry="1" fill="#6a5e3a" />
</g>
<g transform="translate(475.0 10.0)">
<animateTransform attributeName="transform" type="translate" additive="sum" dur="20.137s" repeatCount="indefinite" calcMode="linear" values="37.5 -37.5;37.5 -37.5;0.0 -15.0;0 0;0 0;0 67.0;0 67.0" keyTimes="0;0.195761;0.203791;0.218704;0.945374;0.990068;1" />
<rect x="0.0" y="0.0" width="10" height="5" rx="1" ry="1" fill="#43644a" />
<rect x="0.0" y="7.5" width="10" height="5" rx="1" ry="1" fill="#59875d" />
<rect x="0.0" y="15.0" width="10" height="5" rx="1" ry="1" fill="#43644a" />
<rect x="12.5" y="7.5" width="10" height="5" rx="1" ry="1" fill="#43644a" />
</g>
<g transform="translate(587.5 10.0)">
<animateTransform attributeName="transform" type="translate" additive="sum" dur="20.137s" repeatCount="indefinite" calcMode="linear" values="25.0 -37.5;25.0 -37.5;0.0 -15.0;0 0;0 0;0 67.0;0 67.0" keyTimes="0;0.222677;0.230707;0.245620;0.945374;0.990068;1" />
<rect x="0.0" y="0.0" width="10" height="5" rx="1" ry="1" fill="#b28f3a" />
<rect x="12.5" y="0.0" width="10" height="5" rx="1" ry="1" fill="#64552e" />
<rect x="12.5" y="7.5" width="10" height="5" rx="1" ry="1" fill="#897033" />
<rect x="12.5" y="15.0" width="10" height="5" rx="1" ry="1" fill="#b28f3a" />
</g>
<g transform="translate(587.5 17.5)">
<animateTransform attributeName="transform" type="translate" additive="sum" dur="20.137s" repeatCount="indefinite" calcMode="linear" values="-37.5 -45.0;-37.5 -45.0;0.0 -15.0;0 0;0 0;0 67.0;0 67.0" keyTimes="0;0.249593;0.259229;0.277124;0.945374;0.990068;1" />
<rect x="0.0" y="0.0" width="10" height="5" rx="1" ry="1" fill="#5d5176" />
<rect x="0.0" y="7.5" width="10" height="5" rx="1" ry="1" fill="#7f6a9e" />
<rect x="0.0" y="15.0" width="10" height="5" rx="1" ry="1" fill="#7f6a9e" />
<rect x="12.5" y="15.0" width="10" height="5" rx="1" ry="1" fill="#5d5176" />
</g>
<g transform="translate(612.5 32.5)">
<animateTransform attributeName="transform" type="translate" additive="sum" dur="20.137s" repeatCount="indefinite" calcMode="linear" values="0.0 -45.0;0.0 -45.0;0.0 -30.0;0 0;0 0;0 67.0;0 67.0" keyTimes="0;0.281097;0.290733;0.308629;0.945374;0.990068;1" />
<rect x="0.0" y="0.0" width="10" height="5" rx="1" ry="1" fill="#c7854a" />
</g>
<g transform="translate(612.5 25.0)">
<animateTransform attributeName="transform" type="translate" additive="sum" dur="20.137s" repeatCount="indefinite" calcMode="linear" values="-25.0 -37.5;-25.0 -37.5;0.0 -22.5;0 0;0 0;0 67.0;0 67.0" keyTimes="0;0.312602;0.320632;0.335545;0.945374;0.990068;1" />
<rect x="0.0" y="0.0" width="10" height="5" rx="1" ry="1" fill="#fa7970" />
<rect x="12.5" y="0.0" width="10" height="5" rx="1" ry="1" fill="#6f3f40" />
<rect x="25.0" y="0.0" width="10" height="5" rx="1" ry="1" fill="#6f3f40" />
<rect x="25.0" y="7.5" width="10" height="5" rx="1" ry="1" fill="#6f3f40" />
</g>
<g transform="translate(437.5 32.5)">
<animateTransform attributeName="transform" type="translate" additive="sum" dur="20.137s" repeatCount="indefinite" calcMode="linear" values="-25.0 -45.0;-25.0 -45.0;0.0 -30.0;0 0;0 0;0 67.0;0 67.0" keyTimes="0;0.339518;0.349154;0.367049;0.945374;0.990068;1" />
<rect x="0.0" y="7.5" width="10" height="5" rx="1" ry="1" fill="#6f3f40" />
<rect x="12.5" y="0.0" width="10" height="5" rx="1" ry="1" fill="#6f3f40" />
<rect x="12.5" y="7.5" width="10" height="5" rx="1" ry="1" fill="#6f3f40" />
</g>
<g transform="translate(525.0 25.0)">
<animateTransform attributeName="transform" type="translate" additive="sum" dur="20.137s" repeatCount="indefinite" calcMode="linear" values="0.0 -52.5;0.0 -52.5;0.0 -22.5;0 0;0 0;0 67.0;0 67.0" keyTimes="0;0.371022;0.382264;0.403143;0.945374;0.990068;1" />
<rect x="0.0" y="7.5" width="10" height="5" rx="1" ry="1" fill="#64552e" />
<rect x="12.5" y="0.0" width="10" height="5" rx="1" ry="1" fill="#64552e" />
<rect x="12.5" y="7.5" width="10" height="5" rx="1" ry="1" fill="#64552e" />
<rect x="12.5" y="15.0" width="10" height="5" rx="1" ry="1" fill="#64552e" />
</g>
<g transform="translate(600.0 32.5)">
<animateTransform attributeName="transform" type="translate" additive="sum" dur="20.137s" repeatCount="indefinite" calcMode="linear" values="-25.0 -45.0;-25.0 -45.0;0.0 -30.0;0 0;0 0;0 67.0;0 67.0" keyTimes="0;0.407115;0.416751;0.434647;0.945374;0.990068;1" />
<rect x="0.0" y="7.5" width="10" height="5" rx="1" ry="1" fill="#3c5a76" />
<rect x="12.5" y="7.5" width="10" height="5" rx="1" ry="1" fill="#4d779e" />
<rect x="25.0" y="0.0" width="10" height="5" rx="1" ry="1" fill="#4d779e" />
<rect x="25.0" y="7.5" width="10" height="5" rx="1" ry="1" fill="#3c5a76" />
</g>
<g transform="translate(500.0 40.0)">
<animateTransform attributeName="transform" type="translate" additive="sum" dur="20.137s" repeatCount="indefinite" calcMode="linear" values="0.0 -60.0;0.0 -60.0;0.0 -37.5;0 0;0 0;0 67.0;0 67.0" keyTimes="0;0.438620;0.451468;0.475329;0.945374;0.990068;1" />
<rect x="0.0" y="0.0" width="10" height="5" rx="1" ry="1" fill="#43644a" />
<rect x="0.0" y="7.5" width="10" height="5" rx="1" ry="1" fill="#43644a" />
</g>
<g transform="translate(525.0 40.0)">
<animateTransform attributeName="transform" type="translate" additive="sum" dur="20.137s" repeatCount="indefinite" calcMode="linear" values="37.5 -52.5;37.5 -52.5;0.0 -37.5;0 0;0 0;0 67.0;0 67.0" keyTimes="0;0.479302;0.490544;0.511422;0.945374;0.990068;1" />
<rect x="0.0" y="0.0" width="10" height="5" rx="1" ry="1" fill="#2e6169" />
<rect x="0.0" y="7.5" width="10" height="5" rx="1" ry="1" fill="#2e6169" />
<rect x="12.5" y="7.5" width="10" height="5" rx="1" ry="1" fill="#2e6169" />
<rect x="25.0" y="7.5" width="10" height="5" rx="1" ry="1" fill="#2e6169" />
</g>
<g transform="translate(650.0 25.0)">
<animateTransform attributeName="transform" type="translate" additive="sum" dur="20.137s" repeatCount="indefinite" calcMode="linear" values="0.0 -52.5;0.0 -52.5;0.0 -22.5;0 0;0 0;0 67.0;0 67.0" keyTimes="0;0.515395;0.526637;0.547515;0.945374;0.990068;1" />
<rect x="0.0" y="0.0" width="10" height="5" rx="1" ry="1" fill="#2e6169" />
<rect x="0.0" y="7.5" width="10" height="5" rx="1" ry="1" fill="#2e6169" />
<rect x="0.0" y="15.0" width="10" height="5" rx="1" ry="1" fill="#2e6169" />
<rect x="0.0" y="22.5" width="10" height="5" rx="1" ry="1" fill="#2e6169" />
</g>
<g transform="translate(362.5 55.0)">
<animateTransform attributeName="transform" type="translate" additive="sum" dur="20.137s" repeatCount="indefinite" calcMode="linear" values="0.0 -60.0;0.0 -60.0;0.0 -52.5;0 0;0 0;0 67.0;0 67.0" keyTimes="0;0.551488;0.564336;0.588197;0.945374;0.990068;1" />
<rect x="0.0" y="0.0" width="10" height="5" rx="1" ry="1" fill="#fa7970" />
</g>
<g transform="translate(437.5 47.5)">
<animateTransform attributeName="transform" type="translate" additive="sum" dur="20.137s" repeatCount="indefinite" calcMode="linear" values="37.5 -60.0;37.5 -60.0;0.0 -45.0;0 0;0 0;0 67.0;0 67.0" keyTimes="0;0.592170;0.605018;0.628878;0.945374;0.990068;1" />
<rect x="0.0" y="0.0" width="10" height="5" rx="1" ry="1" fill="#3c5a76" />
<rect x="0.0" y="7.5" width="10" height="5" rx="1" ry="1" fill="#3c5a76" />
</g>
<g transform="translate(462.5 47.5)">
<animateTransform attributeName="transform" type="translate" additive="sum" dur="20.137s" repeatCount="indefinite" calcMode="linear" values="-37.5 -60.0;-37.5 -60.0;0.0 -45.0;0 0;0 0;0 67.0;0 67.0" keyTimes="0;0.632851;0.645699;0.669560;0.945374;0.990068;1" />
<rect x="0.0" y="0.0" width="10" height="5" rx="1" ry="1" fill="#5d5176" />
<rect x="12.5" y="0.0" width="10" height="5" rx="1" ry="1" fill="#5d5176" />
<rect x="12.5" y="7.5" width="10" height="5" rx="1" ry="1" fill="#cea5fb" />
</g>
<g transform="translate(512.5 55.0)">
<animateTransform attributeName="transform" type="translate" additive="sum" dur="20.137s" repeatCount="indefinite" calcMode="linear" values="37.5 -67.5;37.5 -67.5;0.0 -52.5;0 0;0 0;0 67.0;0 67.0" keyTimes="0;0.673533;0.687987;0.714831;0.945374;0.990068;1" />
<rect x="0.0" y="0.0" width="10" height="5" rx="1" ry="1" fill="#3c5a76" />
</g>
<g transform="translate(575.0 40.0)">
<animateTransform attributeName="transform" type="translate" additive="sum" dur="20.137s" repeatCount="indefinite" calcMode="linear" values="37.5 -67.5;37.5 -67.5;0.0 -37.5;0 0;0 0;0 67.0;0 67.0" keyTimes="0;0.718803;0.733258;0.760101;0.945374;0.990068;1" />
<rect x="0.0" y="15.0" width="10" height="5" rx="1" ry="1" fill="#eec85f" />
<rect x="12.5" y="0.0" width="10" height="5" rx="1" ry="1" fill="#eec85f" />
<rect x="12.5" y="7.5" width="10" height="5" rx="1" ry="1" fill="#917e45" />
<rect x="12.5" y="15.0" width="10" height="5" rx="1" ry="1" fill="#917e45" />
</g>
<g transform="translate(600.0 47.5)">
<animateTransform attributeName="transform" type="translate" additive="sum" dur="20.137s" repeatCount="indefinite" calcMode="linear" values="-37.5 -67.5;-37.5 -67.5;0.0 -45.0;0 0;0 0;0 67.0;0 67.0" keyTimes="0;0.764074;0.778528;0.805371;0.945374;0.990068;1" />
<rect x="0.0" y="7.5" width="10" height="5" rx="1" ry="1" fill="#6f3f40" />
<rect x="12.5" y="0.0" width="10" height="5" rx="1" ry="1" fill="#fa7970" />
<rect x="12.5" y="7.5" width="10" height="5" rx="1" ry="1" fill="#98514f" />
<rect x="25.0" y="7.5" width="10" height="5" rx="1" ry="1" fill="#6f3f40" />
</g>
<g transform="translate(625.0 40.0)">
<animateTransform attributeName="transform" type="translate" additive="sum" dur="20.137s" repeatCount="indefinite" calcMode="linear" values="-25.0 -60.0;-25.0 -60.0;0.0 -37.5;0 0;0 0;0 67.0;0 67.0" keyTimes="0;0.809344;0.822192;0.846053;0.945374;0.990068;1" />
<rect x="0.0" y="7.5" width="10" height="5" rx="1" ry="1" fill="#6f5036" />
<rect x="12.5" y="0.0" width="10" height="5" rx="1" ry="1" fill="#c7854a" />
<rect x="12.5" y="7.5" width="10" height="5" rx="1" ry="1" fill="#6f5036" />
<rect x="12.5" y="15.0" width="10" height="5" rx="1" ry="1" fill="#6f5036" />
</g>
</g>
<metadata>{"username": "Treenixie", "active_cells": 77, "mode": "live-animation"}</metadata>
</svg>