<svg xmlns="http://www.w3.org/2000/svg" width="660.0" height="70.0" viewBox="0 0 660.0 70.0">
<rect x="0" y="0" width="660.0" height="70.0" rx="0" ry="0" fill="#ffffff" />
<defs>
<clipPath id="grid-clip-live-light"><rect x="0" y="10" width="660.0" height="50.0" rx="0" ry="0" /></clipPath>
</defs>
<rect x="0.0" y="10.0" width="10" height="5" rx="1" ry="1" fill="#ebedf0" />
<rect x="12.5" y="10.0" width="10" height="5" rx="1" ry="1" fill="#ebedf0" />
<rect x="25.0" y="10.0" width="10" height="5" rx="1" ry="1" fill="#ebedf0" />
<rect x="37.5" y="10.0" width="10" height="5" rx="1" ry="1" fill="#ebedf0" />
<rect x="50.0" y="10.0" width="10" height="5" rx="1" ry="1" fill="#ebedf0" />
<rect x="62.5" y="10.0" width="10" height="5" rx="1" ry="1" fill="#ebedf0" />
<rect x="75.0" y="10.0" width="10" height="5" rx="1" ry="1" fill="#ebedf0" />
<rect x="87.5" y="10.0" width="10" height="5" rx="1" ry="1" fill="#ebedf0" />
<rect x="100.0" y="10.0" width="10" height="5" rx="1" ry="1" fill="#ebedf0" />
<rect x="112.5" y="10.0" width="10" height="5" rx="1" ry="1" fill="#ebedf0" />
<rect x="125.0" y="10.0" width="10" height="5" rx="1" ry="1" fill="#ebedf0" />
<rect x="137.5" y="10.0" width="10" height="5" rx="1" ry="1" fill="#ebedf0" />
<rect x="150.0" y="10.0" width="10" height="5" rx="1" ry="1" fill="#ebedf0" />
<rect x="162.5" y="10.0" width="10" height="5" rx="1" ry="1" fill="#ebedf0" />
<rect x="175.0" y="10.0" width="10" height="5" rx="1" ry="1" fill="#ebedf0" />
<rect x="187.5" y="10.0" width="10" height="5" rx="1" ry="1" fill="#ebedf0" />
<rect x="200.0" y="10.0" width="10" height="5" rx="1" ry="1" fill="#ebedf0" />
<rect x="212.5" y="10.0" width="10" height="5" rx="1" ry="1" fill="#ebedf0" />
<rect x="225.0" y="10.0" width="10" height="5" rx="1" ry="1" fill="#ebedf0" />
<rect x="237.5" y="10.0" width="10" height="5" rx="1" ry="1" fill="#ebedf0" />
<rect x="250.0" y="10.0" width="10" height="5" rx="1" ry="1" fill="#ebedf0" />
<rect x="262.5" y="10.0" width="10" height="5" rx="1" ry="1" fill="#ebedf0" />
<rect x="275.0" y="10.0" width="10" height="5" rx="1" ry="1" fill="#ebedf0" />
<rect x="287.5" y="10.0" width="10" height="5" rx="1" ry="1" fill="#ebedf0" />
<rect x="300.0" y="10.0" width="10" height="5" rx="1" ry="1" fill="#ebedf0" />
<rect x="312.5" y="10.0" width="10" height="5" rx="1" ry="1" fill="#ebedf0" />
<rect x="325.0" y="10.0" width="10" height="5" rx="1" ry="1" fill="#ebedf0" />
<rect x="337.5" y="10.0" width="10" height="5" rx="1" ry="1" fill="#ebedf0" />
<rect x="350.0" y="10.0" width="10" height="5" rx="1" ry="1" fill="#ebedf0" />
<rect x="362.5" y="10.0" width="10" height="5" rx="1" ry="1" fill="#ebedf0" />
<rect x="375.0" y="10.0" width="10" height="5" rx="1" ry="1" fill="#ebedf0" />
<rect x="387.5" y="10.0" width="10" height="5" rx="1" ry="1" fill="#ebedf0" />
<rect x="400.0" y="10.0" width="10" height="5" rx="1" ry="1" fill="#ebedf0" />
<rect x="412.5" y="10.0" width="10" height="5" rx="1" ry="1" fill="#ebedf0" />
<rect x="425.0" y="10.0" width="10" height="5" rx="1" ry="1" fill="#ebedf0" />
<rect x="437.5" y="10.0" width="10" height="5" rx="1" ry="1" fill="#ebedf0" />
<rect x="450.0" y="10.0" width="10" height="5" rx="1" ry="1" fill="#ebedf0" />
<rect x="462.5" y="10.0" width="10" height="5" rx="1" ry="1" fill="#ebedf0" />
<rect x="475.0" y="10.0" width="10" height="5" rx="1" ry="1" fill="#ebedf0" />
<rect x="487.5" y="10.0" width="10" height="5" rx="1" ry="1" fill="#ebedf0" />
<rect x="500.0" y="10.0" width="10" height="5" rx="1" ry="1" fill="#ebedf0" />
<rect x="512.5" y="10.0" width="10" height="5" rx="1" ry="1" fill="#ebedf0" />
<rect x="525.0" y="10.0" width="10" height="5" rx="1" ry="1" fill="#ebedf0" />
<rect x="537.5" y="10.0" width="10" height="5" rx="1" ry="1" fill="#ebedf0" />
<rect x="550.0" y="10.0" width="10" height="5" rx="1" ry="1" fill="#ebedf0" />
<rect x="562.5" y="10.0" width="10" height="5" rx="1" ry="1" fill="#ebedf0" />
<rect x="575.0" y="10.0" width="10" height="5" rx="1" ry="1" fill="#ebedf0" />
<rect x="587.5" y="10.0" width="10" height="5" rx="1" ry="1" fill="#ebedf0" />
<rect x="600.0" y="10.0" width="10" height="5" rx="1" ry="1" fill="#ebedf0" />
<rect x="612.5" y="10.0" width="10" height="5" rx="1" ry="1" fill="#ebedf0" />
<rect x="625.0" y="10.0" width="10" height="5" rx="1" ry="1" fill="#ebedf0" />
<rect x="637.5" y="10.0" width="10" height="5" rx="1" ry="1" fill="#ebedf0" />
<rect x="650.0" y="10.0" width="10" height="5" rx="1" ry="1" fill="#ebedf0" />
<rect x="0.0" y="17.5" width="10" height="5" rx="1" ry="1" fill="#ebedf0" />
<rect x="12.5" y="17.5" width="10" height="5" rx="1" ry="1" fill="#ebedf0" />
<rect x="25.0" y="17.5" width="10" height="5" rx="1" ry="1" fill="#ebedf0" />
<rect x="37.5" y="17.5" width="10" height="5" rx="1" ry="1" fill="#ebedf0" />
<rect x="50.0" y="17.5" width="10" height="5" rx="1" ry="1" fill="#ebedf0" />
<rect x="62.5" y="17.5" width="10" height="5" rx="1" ry="1" fill="#ebedf0" />
<rect x="75.0" y="17.5" width="10" height="5" rx="1" ry="1" fill="#ebedf0" />
<rect x="87.5" y="17.5" width="10" height="5" rx="1" ry="1" fill="#ebedf0" />
<rect x="100.0" y="17.5" width="10" height="5" rx="1" ry="1" fill="#ebedf0" />
<rect x="112.5" y="17.5" width="10" height="5" rx="1" ry="1" fill="#ebedf0" />
<rect x="125.0" y="17.5" width="10" height="5" rx="1" ry="1" fill="#ebedf0" />
<rect x="137.5" y="17.5" width="10" height="5" rx="1" ry="1" fill="#ebedf0" />
<rect x="150.0" y="17.5" width="10" height="5" rx="1" ry="1" fill="#ebedf0" />
<rect x="162.5" y="17.5" width="10" height="5" rx="1" ry="1" fill="#ebedf0" />
<rect x="175.0" y="17.5" width="10" height="5" rx="1" ry="1" fill="#ebedf0" />
<rect x="187.5" y="17.5" width="10" height="5" rx="1" ry="1" fill="#ebedf0" />
<rect x="200.0" y="17.5" width="10" height="5" rx="1" ry="1" fill="#ebedf0" />
<rect x="212.5" y="17.5" width="10" height="5" rx="1" ry="1" fill="#ebedf0" />
<rect x="225.0" y="17.5" width="10" height="5" rx="1" ry="1" fill="#ebedf0" />
<rect x="237.5" y="17.5" width="10" height="5" rx="1" ry="1" fill="#ebedf0" />
<rect x="250.0" y="17.5" width="10" height="5" rx="1" ry="1" fill="#ebedf0" />
<rect x="262.5" y="17.5" width="10" height="5" rx="1" ry="1" fill="#ebedf0" />
<rect x="275.0" y="17.5" width="10" height="5" rx="1" ry="1" fill="#ebedf0" />
<rect x="287.5" y="17.5" width="10" height="5" rx="1" ry="1" fill="#ebedf0" />
<rect x="300.0" y="17.5" width="10" height="5" rx="1" ry="1" fill="#ebedf0" />
<rect x="312.5" y="17.5" width="10" height="5" rx="1" ry="1" fill="#ebedf0" />
<rect x="325.0" y="17.5" width="10" height="5" rx="1" ry="1" fill="#ebedf0" />
<rect x="337.5" y="17.5" width="10" height="5" rx="1" ry="1" fill="#ebedf0" />
<rect x="350.0" y="17.5" width="10" height="5" rx="1" ry="1" fill="#ebedf0" />
<rect x="362.5" y="17.5" width="10" height="5" rx="1" ry="1" fill="#ebedf0" />
<rect x="375.0" y="17.5" width="10" height="5" rx="1" ry="1" fill="#ebedf0" />
<rect x="387.5" y="17.5" width="10" height="5" rx="1" ry="1" fill="#ebedf0" />
<rect x="400.0" y="17.5" width="10" height="5" rx="1" ry="1" fill="#ebedf0" />
<rect x="412.5" y="17.5" width="10" height="5" rx="1" ry="1" fill="#ebedf0" />
<rect x="425.0" y="17.5" width="10" height="5" rx="1" ry="1" fill="#ebedf0" />
<rect x="437.5" y="17.5" width="10" height="5" rx="1" ry="1" fill="#ebedf0" />
<rect x="450.0" y="17.5" width="10" height="5" rx="1" ry="1" fill="#ebedf0" />
<rect x="462.5" y="17.5" width="10" height="5" rx="1" ry="1" fill="#ebedf0" />
<rect x="475.0" y="17.5" width="10" height="5" rx="1" ry="1" fill="#ebedf0" />
<rect x="487.5" y="17.5" width="10" height="5" rx="1" ry="1" fill="#ebedf0" />
<rect x="500.0" y="17.5" width="10" height="5" rx="1" ry="1" fill="#ebedf0" />
<rect x="512.5" y="17.5" width="10" height="5" rx="1" ry="1" fill="#ebedf0" />
<rect x="525.0" y="17.5" width="10" height="5" rx="1" ry="1" fill="#ebedf0" />
<rect x="537.5" y="17.5" width="10" height="5" rx="1" ry="1" fill="#ebedf0" />
<rect x="550.0" y="17.5" width="10" height="5" rx="1" ry="1" fill="#ebedf0" />
<rect x="562.5" y="17.5" width="10" height="5" rx="1" ry="1" fill="#ebedf0" />
<rect x="575.0" y="17.5" width="10" height="5" rx="1" ry="1" fill="#ebedf0" />
<rect x="587.5" y="17.5" width="10" height="5" rx="1" ry="1" fill="#ebedf0" />
<rect x="600.0" y="17.5" width="10" height="5" rx="1" ry="1" fill="#ebedf0" />
<rect x="612.5" y="17.5" width="10" height="5" rx="1" ry="1" fill="#ebedf0" />
<rect x="625.0" y="17.5" width="10" height="5" rx="1" ry="1" fill="#ebedf0" />
<rect x="637.5" y="17.5" width="10" height="5" rx="1" ry="1" fill="#ebedf0" />
<rect x="650.0" y="17.5" width="10" height="5" rx="1" ry="1" fill="#ebedf0" />
<rect x="0.0" y="25.0" width="10" height="5" rx="1" ry="1" fill="#ebedf0" />
<rect x="12.5" y="25.0" width="10" height="5" rx="1" ry="1" fill="#ebedf0" />
<rect x="25.0" y="25.0" width="10" height="5" rx="1" ry="1" fill="#ebedf0" />
<rect x="37.5" y="25.0" width="10" height="5" rx="1" ry="1" fill="#ebedf0" />
<rect x="50.0" y="25.0" width="10" height="5" rx="1" ry="1" fill="#ebedf0" />
<rect x="62.5" y="25.0" width="10" height="5" rx="1" ry="1" fill="#ebedf0" />
<rect x="75.0" y="25.0" width="10" height="5" rx="1" ry="1" fill="#ebedf0" />
<rect x="87.5" y="25.0" width="10" height="5" rx="1" ry="1" fill="#ebedf0" />
<rect x="100.0" y="25.0" width="10" height="5" rx="1" ry="1" fill="#ebedf0" />
<rect x="112.5" y="25.0" width="10" height="5" rx="1" ry="1" fill="#ebedf0" />
<rect x="125.0" y="25.0" width="10" height="5" rx="1" ry="1" fill="#ebedf0" />
<rect x="137.5" y="25.0" width="10" height="5" rx="1" ry="1" fill="#ebedf0" />
<rect x="150.0" y="25.0" width="10" height="5" rx="1" ry="1" fill="#ebedf0" />
<rect x="162.5" y="25.0" width="10" height="5" rx="1" ry="1" fill="#ebedf0" />
<rect x="175.0" y="25.0" width="10" height="5" rx="1" ry="1" fill="#ebedf0" />
<rect x="187.5" y="25.0" width="10" height="5" rx="1" ry="1" fill="#ebedf0" />
<rect x="200.0" y="25.0" width="10" height="5" rx="1" ry="1" fill="#ebedf0" />
<rect x="212.5" y="25.0" width="10" height="5" rx="1" ry="1" fill="#ebedf0" />
<rect x="225.0" y="25.0" width="10" height="5" rx="1" ry="1" fill="#ebedf0" />
<rect x="237.5" y="25.0" width="10" height="5" rx="1" ry="1" fill="#ebedf0" />
<rect x="250.0" y="25.0" width="10" height="5" rx="1" ry="1" fill="#ebedf0" />
<rect x="262.5" y="25.0" width="10" height="5" rx="1" ry="1" fill="#ebedf0" />
<rect x="275.0" y="25.0" width="10" height="5" rx="1" ry="1" fill="#ebedf0" />
<rect x="287.5" y="25.0" width="10" height="5" rx="1" ry="1" fill="#ebedf0" />
<rect x="300.0" y="25.0" width="10" height="5" rx="1" ry="1" fill="#ebedf0" />
<rect x="312.5" y="25.0" width="10" height="5" rx="1" ry="1" fill="#ebedf0" />
<rect x="325.0" y="25.0" width="10" height="5" rx="1" ry="1" fill="#ebedf0" />
<rect x="337.5" y="25.0" width="10" height="5" rx="1" ry="1" fill="#ebedf0" />
<rect x="350.0" y="25.0" width="10" height="5" rx="1" ry="1" fill="#ebedf0" />
<rect x="362.5" y="25.0" width="10" height="5" rx="1" ry="1" fill="#ebedf0" />
<rect x="375.0" y="25.0" width="10" height="5" rx="1" ry="1" fill="#ebedf0" />
<rect x="387.5" y="25.0" width="10" height="5" rx="1" ry="1" fill="#ebedf0" />
<rect x="400.0" y="25.0" width="10" height="5" rx="1" ry="1" fill="#ebedf0" />
<rect x="412.5" y="25.0" width="10" height="5" rx="1" ry="1" fill="#ebedf0" />
<rect x="425.0" y="25.0" width="10" height="5" rx="1" ry="1" fill="#ebedf0" />
<rect x="437.5" y="25.0" width="10" height="5" rx="1" ry="1" fill="#ebedf0" />
<rect x="450.0" y="25.0" width="10" height="5" rx="1" ry="1" fill="#ebedf0" />
<rect x="462.5" y="25.0" width="10" height="5" rx="1" ry="1" fill="#ebedf0" />
<rect x="475.0" y="25.0" width="10" height="5" rx="1" ry="1" fill="#ebedf0" />
<rect x="487.5" y="25.0" width="10" height="5" rx="1" ry="1" fill="#ebedf0" />
<rect x="500.0" y="25.0" width="10" height="5" rx="1" ry="1" fill="#ebedf0" />
<rect x="512.5" y="25.0" width="10" height="5" rx="1" ry="1" fill="#ebedf0" />
<rect x="525.0" y="25.0" width="10" height="5" rx="1" ry="1" fill="#ebedf0" />
<rect x="537.5" y="25.0" width="10" height="5" rx="1" ry="1" fill="#ebedf0" />
<rect x="550.0" y="25.0" width="10" height="5" rx="1" ry="1" fill="#ebedf0" />
<rect x="562.5" y="25.0" width="10" height="5" rx="1" ry="1" fill="#ebedf0" />
<rect x="575.0" y="25.0" width="10" height="5" rx="1" ry="1" fill="#ebedf0" />
<rect x="587.5" y="25.0" width="10" height="5" rx="1" ry="1" fill="#ebedf0" />
<rect x="600.0" y="25.0" width="10" height="5" rx="1" ry="1" fill="#ebedf0" />
<rect x="612.5" y="25.0" width="10" height="5" rx="1" ry="1" fill="#ebedf0" />
<rect x="625.0" y="25.0" width="10" height="5" rx="1" ry="1" fill="#ebedf0" />
<rect x="637.5" y="25.0" width="10" height="5" rx="1" ry="1" fill="#ebedf0" />
<rect x="650.0" y="25.0" width="10" height="5" rx="1" ry="1" fill="#ebedf0" />
<rect x="0.0" y="32.5" width="10" height="5" rx="1" ry="1" fill="#ebedf0" />
<rect x="12.5" y="32.5" width="10" height="5" rx="1" ry="1" fill="#ebedf0" />
<rect x="25.0" y="32.5" width="10" height="5" rx="1" ry="1" fill="#ebedf0" />
<rect x="37.5" y="32.5" width="10" height="5" rx="1" ry="1" fill="#ebedf0" />
<rect x="50.0" y="32.5" width="10" height="5" rx="1" ry="1" fill="#ebedf0" />
<rect x="62.5" y="32.5" width="10" height="5" rx="1" ry="1" fill="#ebedf0" />
<rect x="75.0" y="32.5" width="10" height="5" rx="1" ry="1" fill="#ebedf0" />
<rect x="87.5" y="32.5" width="10" height="5" rx="1" ry="1" fill="#ebedf0" />
<rect x="100.0" y="32.5" width="10" height="5" rx="1" ry="1" fill="#ebedf0" />
<rect x="112.5" y="32.5" width="10" height="5" rx="1" ry="1" fill="#ebedf0" />
<rect x="125.0" y="32.5" width="10" height="5" rx="1" ry="1" fill="#ebedf0" />
<rect x="137.5" y="32.5" width="10" height="5" rx="1" ry="1" fill="#ebedf0" />
<rect x="150.0" y="32.5" width="10" height="5" rx="1" ry="1" fill="#ebedf0" />
<rect x="162.5" y="32.5" width="10" height="5" rx="1" ry="1" fill="#ebedf0" />
<rect x="175.0" y="32.5" width="10" height="5" rx="1" ry="1" fill="#ebedf0" />
<rect x="187.5" y="32.5" width="10" height="5" rx="1" ry="1" fill="#ebedf0" />
<rect x="200.0" y="32.5" width="10" height="5" rx="1" ry="1" fill="#ebedf0" />
<rect x="212.5" y="32.5" width="10" height="5" rx="1" ry="1" fill="#ebedf0" />
<rect x="225.0" y="32.5" width="10" height="5" rx="1" ry="1" fill="#ebedf0" />
<rect x="237.5" y="32.5" width="10" height="5" rx="1" ry="1" fill="#ebedf0" />
<rect x="250.0" y="32.5" width="10" height="5" rx="1" ry="1" fill="#ebedf0" />
<rect x="262.5" y="32.5" width="10" height="5" rx="1" ry="1" fill="#ebedf0" />
<rect x="275.0" y="32.5" width="10" height="5" rx="1" ry="1" fill="#ebedf0" />
<rect x="287.5" y="32.5" width="10" height="5" rx="1" ry="1" fill="#ebedf0" />
<rect x="300.0" y="32.5" width="10" height="5" rx="1" ry="1" fill="#ebedf0" />
<rect x="312.5" y="32.5" width="10" height="5" rx="1" ry="1" fill="#ebedf0" />
<rect x="325.0" y="32.5" width="10" height="5" rx="1" ry="1" fill="#ebedf0" />
<rect x="337.5" y="32.5" width="10" height="5" rx="1" ry="1" fill="#ebedf0" />
<rect x="350.0" y="32.5" width="10" height="5" rx="1" ry="1" fill="#ebedf0" />
<rect x="362.5" y="32.5" width="10" height="5" rx="1" ry="1" fill="#ebedf0" />
<rect x="375.0" y="32.5" width="10" height="5" rx="1" ry="1" fill="#ebedf0" />
<rect x="387.5" y="32.5" width="10" height="5" rx="1" ry="1" fill="#ebedf0" />
<rect x="400.0" y="32.5" width="10" height="5" rx="1" ry="1" fill="#ebedf0" />
<rect x="412.5" y="32.5" width="10" height="5" rx="1" ry="1" fill="#ebedf0" />
<rect x="425.0" y="32.5" width="10" height="5" rx="1" ry="1" fill="#ebedf0" />
<rect x="437.5" y="32.5" width="10" height="5" rx="1" ry="1" fill="#ebedf0" />
<rect x="450.0" y="32.5" width="10" height="5" rx="1" ry="1" fill="#ebedf0" />
<rect x="462.5" y="32.5" width="10" height="5" rx="1" ry="1" fill="#ebedf0" />
<rect x="475.0" y="32.5" width="10" height="5" rx="1" ry="1" fill="#ebedf0" />
<rect x="487.5" y="32.5" width="10" height="5" rx="1" ry="1" fill="#ebedf0" />
<rect x="500.0" y="32.5" width="10" height="5" rx="1" ry="1" fill="#ebedf0" />
<rect x="512.5" y="32.5" width="10" height="5" rx="1" ry="1" fill="#ebedf0" />
<rect x="525.0" y="32.5" width="10" height="5" rx="1" ry="1" fill="#ebedf0" />
<rect x="537.5" y="32.5" width="10" height="5" rx="1" ry="1" fill="#ebedf0" />
<rect x="550.0" y="32.5" width="10" height="5" rx="1" ry="1" fill="#ebedf0" />
<rect x="562.5" y="32.5" width="10" height="5" rx="1" ry="1" fill="#ebedf0" />
<rect x="575.0" y="32.5" width="10" height="5" rx="1" ry="1" fill="#ebedf0" />
<rect x="587.5" y="32.5" width="10" height="5" rx="1" ry="1" fill="#ebedf0" />
<rect x="600.0" y="32.5" width="10" height="5" rx="1" ry="1" fill="#ebedf0" />
<rect x="612.5" y="32.5" width="10" height="5" rx="1" ry="1" fill="#ebedf0" />
<rect x="625.0" y="32.5" width="10" height="5" rx="1" ry="1" fill="#ebedf0" />
<rect x="637.5" y="32.5" width="10" height="5" rx="1" ry="1" fill="#ebedf0" />
<rect x="650.0" y="32.5" width="10" height="5" rx="1" ry="1" fill="#ebedf0" />
<rect x="0.0" y="40.0" width="10" height="5" rx="1" ry="1" fill="#ebedf0" />
<rect x="12.5" y="40.0" width="10" height="5" rx="1" ry="1" fill="#ebedf0" />
<rect x="25.0" y="40.0" width="10" height="5" rx="1" ry="1" fill="#ebedf0" />
<rect x="37.5" y="40.0" width="10" height="5" rx="1" ry="1" fill="#ebedf0" />
<rect x="50.0" y="40.0" width="10" height="5" rx="1" ry="1" fill="#ebedf0" />
<rect x="62.5" y="40.0" width="10" height="5" rx="1" ry="1" fill="#ebedf0" />
<rect x="75.0" y="40.0" width="10" height="5" rx="1" ry="1" fill="#ebedf0" />
<rect x="87.5" y="40.0" width="10" height="5" rx="1" ry="1" fill="#ebedf0" />
<rect x="100.0" y="40.0" width="10" height="5" rx="1" ry="1" fill="#ebedf0" />
<rect x="112.5" y="40.0" width="10" height="5" rx="1" ry="1" fill="#ebedf0" />
<rect x="125.0" y="40.0" width="10" height="5" rx="1" ry="1" fill="#ebedf0" />
<rect x="137.5" y="40.0" width="10" height="5" rx="1" ry="1" fill="#ebedf0" />
<rect x="150.0" y="40.0" width="10" height="5" rx="1" ry="1" fill="#ebedf0" />
<rect x="162.5" y="40.0" width="10" height="5" rx="1" ry="1" fill="#ebedf0" />
<rect x="175.0" y="40.0" width="10" height="5" rx="1" ry="1" fill="#ebedf0" />
<rect x="187.5" y="40.0" width="10" height="5" rx="1" ry="1" fill="#ebedf0" />
<rect x="200.0" y="40.0" width="10" height="5" rx="1" ry="1" fill="#ebedf0" />
<rect x="212.5" y="40.0" width="10" height="5" rx="1" ry="1" fill="#ebedf0" />
<rect x="225.0" y="40.0" width="10" height="5" rx="1" ry="1" fill="#ebedf0" />
<rect x="237.5" y="40.0" width="10" height="5" rx="1" ry="1" fill="#ebedf0" />
<rect x="250.0" y="40.0" width="10" height="5" rx="1" ry="1" fill="#ebedf0" />
<rect x="262.5" y="40.0" width="10" height="5" rx="1" ry="1" fill="#ebedf0" />
<rect x="275.0" y="40.0" width="10" height="5" rx="1" ry="1" fill="#ebedf0" />
<rect x="287.5" y="40.0" width="10" height="5" rx="1" ry="1" fill="#ebedf0" />
<rect x="300.0" y="40.0" width="10" height="5" rx="1" ry="1" fill="#ebedf0" />
<rect x="312.5" y="40.0" width="10" height="5" rx="1" ry="1" fill="#ebedf0" />
<rect x="325.0" y="40.0" width="10" height="5" rx="1" ry="1" fill="#ebedf0" />
<rect x="337.5" y="40.0" width="10" height="5" rx="1" ry="1" fill="#ebedf0" />
<rect x="350.0" y="40.0" width="10" height="5" rx="1" ry="1" fill="#ebedf0" />
<rect x="362.5" y="40.0" width="10" height="5" rx="1" ry="1" fill="#ebedf0" />
<rect x="375.0" y="40.0" width="10" height="5" rx="1" ry="1" fill="#ebedf0" />
<rect x="387.5" y="40.0" width="10" height="5" rx="1" ry="1" fill="#ebedf0" />
<rect x="400.0" y="40.0" width="10" height="5" rx="1" ry="1" fill="#ebedf0" />
<rect x="412.5" y="40.0" width="10" height="5" rx="1" ry="1" fill="#ebedf0" />
<rect x="425.0" y="40.0" width="10" height="5" rx="1" ry="1" fill="#ebedf0" />
<rect x="437.5" y="40.0" width="10" height="5" rx="1" ry="1" fill="#ebedf0" />
<rect x="450.0" y="40.0" width="10" height="5" rx="1" ry="1" fill="#ebedf0" />
<rect x="462.5" y="40.0" width="10" height="5" rx="1" ry="1" fill="#ebedf0" />
<rect x="475.0" y="40.0" width="10" height="5" rx="1" ry="1" fill="#ebedf0" />
<rect x="487.5" y="40.0" width="10" height="5" rx="1" ry="1" fill="#ebedf0" />
<rect x="500.0" y="40.0" width="10" height="5" rx="1" ry="1" fill="#ebedf0" />
<rect x="512.5" y="40.0" width="10" height="5" rx="1" ry="1" fill="#ebedf0" />
<rect x="525.0" y="40.0" width="10" height="5" rx="1" ry="1" fill="#ebedf0" />
<rect x="537.5" y="40.0" width="10" height="5" rx="1" ry="1" fill="#ebedf0" />
<rect x="550.0" y="40.0" width="10" height="5" rx="1" ry="1" fill="#ebedf0" />
<rect x="562.5" y="40.0" width="10" height="5" rx="1" ry="1" fill="#ebedf0" />
<rect x="575.0" y="40.0" width="10" height="5" rx="1" ry="1" fill="#ebedf0" />
<rect x="587.5" y="40.0" width="10" height="5" rx="1" ry="1" fill="#ebedf0" />
<rect x="600.0" y="40.0" width="10" height="5" rx="1" ry="1" fill="#ebedf0" />
<rect x="612.5" y="40.0" width="10" height="5" rx="1" ry="1" fill="#ebedf0" />
<rect x="625.0" y="40.0" width="10" height="5" rx="1" ry="1" fill="#ebedf0" />
<rect x="637.5" y="40.0" width="10" height="5" rx="1" ry="1" fill="#ebedf0" />
<rect x="650.0" y="40.0" width="10" height="5" rx="1" ry="1" fill="#ebedf0" />
<rect x="0.0" y="47.5" width="10" height="5" rx="1" ry="1" fill="#ebedf0" />
<rect x="12.5" y="47.5" width="10" height="5" rx="1" ry="1" fill="#ebedf0" />
<rect x="25.0" y="47.5" width="10" height="5" rx="1" ry="1" fill="#ebedf0" />
<rect x="37.5" y="47.5" width="10" height="5" rx="1" ry="1" fill="#ebedf0" />
<rect x="50.0" y="47.5" width="10" height="5" rx="1" ry="1" fill="#ebedf0" />
<rect x="62.5" y="47.5" width="10" height="5" rx="1" ry="1" fill="#ebedf0" />
<rect x="75.0" y="47.5" width="10" height="5" rx="1" ry="1" fill="#ebedf0" />
<rect x="87.5" y="47.5" width="10" height="5" rx="1" ry="1" fill="#ebedf0" />
<rect x="100.0" y="47.5" width="10" height="5" rx="1" ry="1" fill="#ebedf0" />
<rect x="112.5" y="47.5" width="10" height="5" rx="1" ry="1" fill="#ebedf0" />
<rect x="125.0" y="47.5" width="10" height="5" rx="1" ry="1" fill="#ebedf0" />
<rect x="137.5" y="47.5" width="10" height="5" rx="1" ry="1" fill="#ebedf0" />
<rect x="150.0" y="47.5" width="10" height="5" rx="1" ry="1" fill="#ebedf0" />
<rect x="162.5" y="47.5" width="10" height="5" rx="1" ry="1" fill="#ebedf0" />
<rect x="175.0" y="47.5" width="10" height="5" rx="1" ry="1" fill="#ebedf0" />
<rect x="187.5" y="47.5" width="10" height="5" rx="1" ry="1" fill="#ebedf0" />
<rect x="200.0" y="47.5" width="10" height="5" rx="1" ry="1" fill="#ebedf0" />
<rect x="212.5" y="47.5" width="10" height="5" rx="1" ry="1" fill="#ebedf0" />
<rect x="225.0" y="47.5" width="10" height="5" rx="1" ry="1" fill="#ebedf0" />
<rect x="237.5" y="47.5" width="10" height="5" rx="1" ry="1" fill="#ebedf0" />
<rect x="250.0" y="47.5" width="10" height="5" rx="1" ry="1" fill="#ebedf0" />
<rect x="262.5" y="47.5" width="10" height="5" rx="1" ry="1" fill="#ebedf0" />
<rect x="275.0" y="47.5" width="10" height="5" rx="1" ry="1" fill="#ebedf0" />
<rect x="287.5" y="47.5" width="10" height="5" rx="1" ry="1" fill="#ebedf0" />
<rect x="300.0" y="47.5" width="10" height="5" rx="1" ry="1" fill="#ebedf0" />
<rect x="312.5" y="47.5" width="10" height="5" rx="1" ry="1" fill="#ebedf0" />
<rect x="325.0" y="47.5" width="10" height="5" rx="1" ry="1" fill="#ebedf0" />
<rect x="337.5" y="47.5" width="10" height="5" rx="1" ry="1" fill="#ebedf0" />
<rect x="350.0" y="47.5" width="10" height="5" rx="1" ry="1" fill="#ebedf0" />
<rect x="362.5" y="47.5" width="10" height="5" rx="1" ry="1" fill="#ebedf0" />
<rect x="375.0" y="47.5" width="10" height="5" rx="1" ry="1" fill="#ebedf0" />
<rect x="387.5" y="47.5" width="10" height="5" rx="1" ry="1" fill="#ebedf0" />
<rect x="400.0" y="47.5" width="10" height="5" rx="1" ry="1" fill="#ebedf0" />
<rect x="412.5" y="47.5" width="10" height="5" rx="1" ry="1" fill="#ebedf0" />
<rect x="425.0" y="47.5" width="10" height="5" rx="1" ry="1" fill="#ebedf0" />
<rect x="437.5" y="47.5" width="10" height="5" rx="1" ry="1" fill="#ebedf0" />
<rect x="450.0" y="47.5" width="10" height="5" rx="1" ry="1" fill="#ebedf0" />
<rect x="462.5" y="47.5" width="10" height="5" rx="1" ry="1" fill="#ebedf0" />
<rect x="475.0" y="47.5" width="10" height="5" rx="1" ry="1" fill="#ebedf0" />
<rect x="487.5" y="47.5" width="10" height="5" rx="1" ry="1" fill="#ebedf0" />
<rect x="500.0" y="47.5" width="10" height="5" rx="1" ry="1" fill="#ebedf0" />
<rect x="512.5" y="47.5" width="10" height="5" rx="1" ry="1" fill="#ebedf0" />
<rect x="525.0" y="47.5" width="10" height="5" rx="1" ry="1" fill="#ebedf0" />
<rect x="537.5" y="47.5" width="10" height="5" rx="1" ry="1" fill="#ebedf0" />
<rect x="550.0" y="47.5" width="10" height="5" rx="1" ry="1" fill="#ebedf0" />
<rect x="562.5" y="47.5" width="10" height="5" rx="1" ry="1" fill="#ebedf0" />
<rect x="575.0" y="47.5" width="10" height="5" rx="1" ry="1" fill="#ebedf0" />
<rect x="587.5" y="47.5" width="10" height="5" rx="1" ry="1" fill="#ebedf0" />
<rect x="600.0" y="47.5" width="10" height="5" rx="1" ry="1" fill="#ebedf0" />
<rect x="612.5" y="47.5" width="10" height="5" rx="1" ry="1" fill="#ebedf0" />
<rect x="625.0" y="47.5" width="10" height="5" rx="1" ry="1" fill="#ebedf0" />
<rect x="637.5" y="47.5" width="10" height="5" rx="1" ry="1" fill="#ebedf0" />
<rect x="650.0" y="47.5" width="10" height="5" rx="1" ry="1" fill="#ebedf0" />
<rect x="0.0" y="55.0" width="10" height="5" rx="1" ry="1" fill="#ebedf0" />
<rect x="12.5" y="55.0" width="10" height="5" rx="1" ry="1" fill="#ebedf0" />
<rect x="25.0" y="55.0" width="10" height="5" rx="1" ry="1" fill="#ebedf0" />
<rect x="37.5" y="55.0" width="10" height="5" rx="1" ry="1" fill="#ebedf0" />
<rect x="50.0" y="55.0" width="10" height="5" rx="1" ry="1" fill="#ebedf0" />
<rect x="62.5" y="55.0" width="10" height="5" rx="1" ry="1" fill="#ebedf0" />
<rect x="75.0" y="55.0" width="10" height="5" rx="1" ry="1" fill="#ebedf0" />
<rect x="87.5" y="55.0" width="10" height="5" rx="1" ry="1" fill="#ebedf0" />
<rect x="100.0" y="55.0" width="10" height="5" rx="1" ry="1" fill="#ebedf0" />
<rect x="112.5" y="55.0" width="10" height="5" rx="1" ry="1" fill="#ebedf0" />
<rect x="125.0" y="55.0" width="10" height="5" rx="1" ry="1" fill="#ebedf0" />
<rect x="137.5" y="55.0" width="10" height="5" rx="1" ry="1" fill="#ebedf0" />
<rect x="150.0" y="55.0" width="10" height="5" rx="1" ry="1" fill="#ebedf0" />
<rect x="162.5" y="55.0" width="10" height="5" rx="1" ry="1" fill="#ebedf0" />
<rect x="175.0" y="55.0" width="10" height="5" rx="1" ry="1" fill="#ebedf0" />
<rect x="187.5" y="55.0" width="10" height="5" rx="1" ry="1" fill="#ebedf0" />
<rect x="200.0" y="55.0" width="10" height="5" rx="1" ry="1" fill="#ebedf0" />
<rect x="212.5" y="55.0" width="10" height="5" rx="1" ry="1" fill="#ebedf0" />
<rect x="225.0" y="55.0" width="10" height="5" rx="1" ry="1" fill="#ebedf0" />
<rect x="237.5" y="55.0" width="10" height="5" rx="1" ry="1" fill="#ebedf0" />
<rect x="250.0" y="55.0" width="10" height="5" rx="1" ry="1" fill="#ebedf0" />
<rect x="262.5" y="55.0" width="10" height="5" rx="1" ry="1" fill="#ebedf0" />
<rect x="275.0" y="55.0" width="10" height="5" rx="1" ry="1" fill="#ebedf0" />
<rect x="287.5" y="55.0" width="10" height="5" rx="1" ry="1" fill="#ebedf0" />
<rect x="300.0" y="55.0" width="10" height="5" rx="1" ry="1" fill="#ebedf0" />
<rect x="312.5" y="55.0" width="10" height="5" rx="1" ry="1" fill="#ebedf0" />
<rect x="325.0" y="55.0" width="10" height="5" rx="1" ry="1" fill="#ebedf0" />
<rect x="337.5" y="55.0" width="10" height="5" rx="1" ry="1" fill="#ebedf0" />
<rect x="350.0" y="55.0" width="10" height="5" rx="1" ry="1" fill="#ebedf0" />
<rect x="362.5" y="55.0" width="10" height="5" rx="1" ry="1" fill="#ebedf0" />
<rect x="375.0" y="55.0" width="10" height="5" rx="1" ry="1" fill="#ebedf0" />
<rect x="387.5" y="55.0" width="10" height="5" rx="1" ry="1" fill="#ebedf0" />
<rect x="400.0" y="55.0" width="10" height="5" rx="1" ry="1" fill="#ebedf0" />
<rect x="412.5" y="55.0" width="10" height="5" rx="1" ry="1" fill="#ebedf0" />
<rect x="425.0" y="55.0" width="10" height="5" rx="1" ry="1" fill="#ebedf0" />
<rect x="437.5" y="55.0" width="10" height="5" rx="1" ry="1" fill="#ebedf0" />
<rect x="450.0" y="55.0" width="10" height="5" rx="1" ry="1" fill="#ebedf0" />
<rect x="462.5" y="55.0" width="10" height="5" rx="1" ry="1" fill="#ebedf0" />
<rect x="475.0" y="55.0" width="10" height="5" rx="1" ry="1" fill="#ebedf0" />
<rect x="487.5" y="55.0" width="10" height="5" rx="1" ry="1" fill="#ebedf0" />
<rect x="500.0" y="55.0" width="10" height="5" rx="1" ry="1" fill="#ebedf0" />
<rect x="512.5" y="55.0" width="10" height="5" rx="1" ry="1" fill="#ebedf0" />
<rect x="525.0" y="55.0" width="10" height="5" rx="1" ry="1" fill="#ebedf0" />
<rect x="537.5" y="55.0" width="10" height="5" rx="1" ry="1" fill="#ebedf0" />
<rect x="550.0" y="55.0" width="10" height="5" rx="1" ry="1" fill="#ebedf0" />
<rect x="562.5" y="55.0" width="10" height="5" rx="1" ry="1" fill="#ebedf0" />
<rect x="575.0" y="55.0" width="10" height="5" rx="1" ry="1" fill="#ebedf0" />
<rect x="587.5" y="55.0" width="10" height="5" rx="1" ry="1" fill="#ebedf0" />
<rect x="600.0" y="55.0" width="10" height="5" rx="1" ry="1" fill="#ebedf0" />
<rect x="612.5" y="55.0" width="10" height="5" rx="1" ry="1" fill="#ebedf0" />
<rect x="625.0" y="55.0" width="10" height="5" rx="1" ry="1" fill="#ebedf0" />
<rect x="637.5" y="55.0" width="10" height="5" rx="1" ry="1" fill="#ebedf0" />
<rect x="650.0" y="55.0" width="10" height="5" rx="1" ry="1" fill="#ebedf0" />
<g clip-path="url(#grid-clip-live-light)">
<g transform="translate(362.5 10.0)">
<animateTransform attributeName="transform" type="translate" additive="sum" dur="21.057s" repeatCount="indefinite" calcMode="linear" values="0.0 -15.0;0.0 -15.0;0.0 -15.0;0 0;0 0;0 67.0;0 67.0" keyTimes="0;0.008548;0.014865;0.026595;0.947760;0.990502;1" />
<rect x="0.0" y="0.0" width="10" height="5" rx="1" ry="1" fill="#cc9a6a" />
</g>
<g transform="translate(475.0 10.0)">
<animateTransform attributeName="transform" type="translate" additive="sum" dur="21.057s" repeatCount="indefinite" calcMode="linear" values="0.0 -22.5;0.0 -22.5;0.0 -15.0;0 0;0 0;0 67.0;0 67.0" keyTimes="0;0.030394;0.036710;0.048440;0.947760;0.990502;1" />
<rect x="0.0" y="0.0" width="10" height="5" rx="1" ry="1" fill="#c7733a" />
<rect x="12.5" y="0.0" width="10" height="5" rx="1" ry="1" fill="#d9b095" />
<rect x="25.0" y="0.0" width="10" height="5" rx="1" ry="1" fill="#d9b095" />
<rect x="25.0" y="7.5" width="10" height="5" rx="1" ry="1" fill="#d9b095" />
</g>
<g transform="translate(512.5 10.0)">
<animateTransform attributeName="transform" type="translate" additive="sum" dur="21.057s" repeatCount="indefinite" calcMode="linear" values="37.5 -22.5;37.5 -22.5;0.0 -15.0;0 0;0 0;0 67.0;0 67.0" keyTimes="0;0.052240;0.058556;0.070286;0.947760;0.990502;1" />
<rect x="0.0" y="0.0" width="10" height="5" rx="1" ry="1" fill="#e0a0a6" />
<rect x="0.0" y="7.5" width="10" height="5" rx="1" ry="1" fill="#e0a0a6" />
<rect x="12.5" y="0.0" width="10" height="5" rx="1" ry="1" fill="#db7b83" />
</g>
<g transform="translate(550.0 10.0)">
<animateTransform attributeName="transform" type="translate" additive="sum" dur="21.057s" repeatCount="indefinite" calcMode="linear" values="25.0 -22.5;25.0 -22.5;0.0 -15.0;0 0;0 0;0 67.0;0 67.0" keyTimes="0;0.074085;0.080402;0.092132;0.947760;0.990502;1" />
<rect x="0.0" y="0.0" width="10" height="5" rx="1" ry="1" fill="#ccba95" />
<rect x="0.0" y="7.5" width="10" height="5" rx="1" ry="1" fill="#ccba95" />
</g>
<g transform="translate(600.0 10.0)">
<animateTransform attributeName="transform" type="translate" additive="sum" dur="21.057s" repeatCount="indefinite" calcMode="linear" values="25.0 -30.0;25.0 -30.0;0.0 -15.0;0 0;0 0;0 67.0;0 67.0" keyTimes="0;0.095931;0.102247;0.113977;0.947760;0.990502;1" />
<rect x="0.0" y="0.0" width="10" height="5" rx="1" ry="1" fill="#ccba95" />
<rect x="0.0" y="7.5" width="10" height="5" rx="1" ry="1" fill="#bea26a" />
<rect x="12.5" y="7.5" width="10" height="5" rx="1" ry="1" fill="#9c6a05" />
<rect x="25.0" y="7.5" width="10" height="5" rx="1" ry="1" fill="#bea26a" />
</g>
<g transform="translate(612.5 10.0)">
<animateTransform attributeName="transform" type="translate" additive="sum" dur="21.057s" repeatCount="indefinite" calcMode="linear" values="0.0 -30.0;0.0 -30.0;0.0 -15.0;0 0;0 0;0 67.0;0 67.0" keyTimes="0;0.117777;0.124093;0.135823;0.947760;0.990502;1" />
<rect x="0.0" y="0.0" width="10" height="5" rx="1" ry="1" fill="#4099b6" />
<rect x="12.5" y="0.0" width="10" height="5" rx="1" ry="1" fill="#96c3d3" />
<rect x="25.0" y="0.0" width="10" height="5" rx="1" ry="1" fill="#96c3d3" />
<rect x="25.0" y="7.5" width="10" height="5" rx="1" ry="1" fill="#6dafc5" />
</g>
<g transform="translate(650.0 17.5)">
<animateTransform attributeName="transform" type="translate" additive="sum" dur="21.057s" repeatCount="indefinite" calcMode="linear" values="0.0 -30.0;0.0 -30.0;0.0 -15.0;0 0;0 0;0 67.0;0 67.0" keyTimes="0;0.139622;0.145939;0.157669;0.947760;0.990502;1" />
<rect x="0.0" y="0.0" width="10" height="5" rx="1" ry="1" fill="#d9b095" />
</g>
<g transform="translate(387.5 25.0)">
<animateTransform attributeName="transform" type="translate" additive="sum" dur="21.057s" repeatCount="indefinite" calcMode="linear" values="-25.0 -37.5;-25.0 -37.5;0.0 -22.5;0 0;0 0;0 67.0;0 67.0" keyTimes="0;0.161468;0.169147;0.183409;0.947760;0.990502;1" />
<rect x="0.0" y="0.0" width="10" height="5" rx="1" ry="1" fill="#d6535d" />
</g>
<g transform="translate(425.0 25.0)">
<animateTransform attributeName="transform" type="translate" additive="sum" dur="21.057s" repeatCount="indefinite" calcMode="linear" values="-37.5 -37.5;-37.5 -37.5;0.0 -22.5;0 0;0 0;0 67.0;0 67.0" keyTimes="0;0.187208;0.194887;0.209149;0.947760;0.990502;1" />
<rect x="0.0" y="0.0" width="10" height="5" rx="1" ry="1" fill="#95bbe8" />
</g>
<g transform="translate(462.5 10.0)">
<animateTransform attributeName="transform" type="translate" additive="sum" dur="21.057s" repeatCount="indefinite" calcMode="linear" values="25.0 -30.0;25.0 -30.0;0.0 -15.0;0 0;0 0;0 67.0;0 67.0" keyTimes="0;0.212948;0.219264;0.230994;0.947760;0.990502;1" />
<rect x="0.0" y="0.0" width="10" height="5" rx="1" ry="1" fill="#9cc3aa" />
<rect x="0.0" y="7.5" width="10" height="5" rx="1" ry="1" fill="#76af88" />
<rect x="0.0" y="15.0" width="10" height="5" rx="1" ry="1" fill="#9cc3aa" />
<rect x="12.5" y="7.5" width="10" height="5" rx="1" ry="1" fill="#9cc3aa" />
</g>
<g transform="translate(575.0 10.0)">
<animateTransform attributeName="transform" type="translate" additive="sum" dur="21.057s" repeatCount="indefinite" calcMode="linear" values="25.0 -30.0;25.0 -30.0;0.0 -15.0;0 0;0 0;0 67.0;0 67.0" keyTimes="0;0.234794;0.241110;0.252840;0.947760;0.990502;1" />
<rect x="0.0" y="0.0" width="10" height="5" rx="1" ry="1" fill="#c07d3a" />
<rect x="12.5" y="0.0" width="10" height="5" rx="1" ry="1" fill="#d6b595" />
<rect x="12.5" y="7.5" width="10" height="5" rx="1" ry="1" fill="#cc9a6a" />
<rect x="12.5" y="15.0" width="10" height="5" rx="1" ry="1" fill="#c07d3a" />
</g>
<g transform="translate(575.0 17.5)">
<animateTransform attributeName="transform" type="translate" additive="sum" dur="21.057s" repeatCount="indefinite" calcMode="linear" values="37.5 -45.0;37.5 -45.0;0.0 -15.0;0 0;0 0;0 67.0;0 67.0" keyTimes="0;0.256639;0.265854;0.282968;0.947760;0.990502;1" />
<rect x="0.0" y="0.0" width="10" height="5" rx="1" ry="1" fill="#d9b095" />
<rect x="0.0" y="7.5" width="10" height="5" rx="1" ry="1" fill="#d1936a" />
<rect x="0.0" y="15.0" width="10" height="5" rx="1" ry="1" fill="#d1936a" />
<rect x="12.5" y="15.0" width="10" height="5" rx="1" ry="1" fill="#d9b095" />
</g>
<g transform="translate(600.0 32.5)">
<animateTransform attributeName="transform" type="translate" additive="sum" dur="21.057s" repeatCount="indefinite" calcMode="linear" values="37.5 -37.5;37.5 -37.5;0.0 -30.0;0 0;0 0;0 67.0;0 67.0" keyTimes="0;0.286767;0.294446;0.308708;0.947760;0.990502;1" />
<rect x="0.0" y="0.0" width="10" height="5" rx="1" ry="1" fill="#9b76e3" />
</g>
<g transform="translate(600.0 25.0)">
<animateTransform attributeName="transform" type="translate" additive="sum" dur="21.057s" repeatCount="indefinite" calcMode="linear" values="25.0 -37.5;25.0 -37.5;0.0 -22.5;0 0;0 0;0 67.0;0 67.0" keyTimes="0;0.312507;0.320186;0.334448;0.947760;0.990502;1" />
<rect x="0.0" y="0.0" width="10" height="5" rx="1" ry="1" fill="#d02632" />
<rect x="12.5" y="0.0" width="10" height="5" rx="1" ry="1" fill="#e0a0a6" />
<rect x="25.0" y="0.0" width="10" height="5" rx="1" ry="1" fill="#e0a0a6" />
<rect x="25.0" y="7.5" width="10" height="5" rx="1" ry="1" fill="#e0a0a6" />
</g>
<g transform="translate(425.0 32.5)">
<animateTransform attributeName="transform" type="translate" additive="sum" dur="21.057s" repeatCount="indefinite" calcMode="linear" values="-25.0 -45.0;-25.0 -45.0;0.0 -30.0;0 0;0 0;0 67.0;0 67.0" keyTimes="0;0.338247;0.347462;0.364576;0.947760;0.990502;1" />
<rect x="0.0" y="7.5" width="10" height="5" rx="1" ry="1" fill="#95bbe8" />
<rect x="12.5" y="0.0" width="10" height="5" rx="1" ry="1" fill="#95bbe8" />
<rect x="12.5" y="7.5" width="10" height="5" rx="1" ry="1" fill="#95bbe8" />
</g>
<g transform="translate(512.5 25.0)">
<animateTransform attributeName="transform" type="translate" additive="sum" dur="21.057s" repeatCount="indefinite" calcMode="linear" values="-37.5 -52.5;-37.5 -52.5;0.0 -22.5;0 0;0 0;0 67.0;0 67.0" keyTimes="0;0.368375;0.379126;0.399092;0.947760;0.990502;1" />
<rect x="0.0" y="7.5" width="10" height="5" rx="1" ry="1" fill="#96c3d3" />
<rect x="12.5" y="0.0" width="10" height="5" rx="1" ry="1" fill="#96c3d3" />
<rect x="12.5" y="7.5" width="10" height="5" rx="1" ry="1" fill="#96c3d3" />
<rect x="12.5" y="15.0" width="10" height="5" rx="1" ry="1" fill="#96c3d3" />
</g>
<g transform="translate(587.5 32.5)">
<animateTransform attributeName="transform" type="translate" additive="sum" dur="21.057s" repeatCount="indefinite" calcMode="linear" values="25.0 -45.0;25.0 -45.0;0.0 -30.0;0 0;0 0;0 67.0;0 67.0" keyTimes="0;0.402891;0.412106;0.429220;0.947760;0.990502;1" />
<rect x="0.0" y="7.5" width="10" height="5" rx="1" ry="1" fill="#95bbe8" />
<rect x="12.5" y="7.5" width="10" height="5" rx="1" ry="1" fill="#6ca3e4" />
<rect x="25.0" y="0.0" width="10" height="5" rx="1" ry="1" fill="#6ca3e4" />
<rect x="25.0" y="7.5" width="10" height="5" rx="1" ry="1" fill="#95bbe8" />
</g>
<g transform="translate(637.5 25.0)">
<animateTransform attributeName="transform" type="translate" additive="sum" dur="21.057s" repeatCount="indefinite" calcMode="linear" values="-25.0 -45.0;-25.0 -45.0;0.0 -22.5;0 0;0 0;0 67.0;0 67.0" keyTimes="0;0.433019;0.442234;0.459348;0.947760;0.990502;1" />
<rect x="0.0" y="0.0" width="10" height="5" rx="1" ry="1" fill="#95bbe8" />
<rect x="0.0" y="7.5" width="10" height="5" rx="1" ry="1" fill="#95bbe8" />
<rect x="0.0" y="15.0" width="10" height="5" rx="1" ry="1" fill="#95bbe8" />
<rect x="12.5" y="7.5" width="10" height="5" rx="1" ry="1" fill="#95bbe8" />
</g>
<g transform="translate(487.5 40.0)">
<animateTransform attributeName="transform" type="translate" additive="sum" dur="21.057s" repeatCount="indefinite" calcMode="linear" values="0.0 -60.0;0.0 -60.0;0.0 -37.5;0 0;0 0;0 67.0;0 67.0" keyTimes="0;0.463147;0.475434;0.498252;0.947760;0.990502;1" />
<rect x="0.0" y="0.0" width="10" height="5" rx="1" ry="1" fill="#96c3d3" />
<rect x="0.0" y="7.5" width="10" height="5" rx="1" ry="1" fill="#96c3d3" />
</g>
<g transform="translate(512.5 40.0)">
<animateTransform attributeName="transform" type="translate" additive="sum" dur="21.057s" repeatCount="indefinite" calcMode="linear" values="-37.5 -52.5;-37.5 -52.5;0.0 -37.5;0 0;0 0;0 67.0;0 67.0" keyTimes="0;0.502052;0.512803;0.532769;0.947760;0.990502;1" />
<rect x="0.0" y="0.0" width="10" height="5" rx="1" ry="1" fill="#d6b595" />
<rect x="0.0" y="7.5" width="10" height="5" rx="1" ry="1" fill="#d6b595" />
<rect x="12.5" y="7.5" width="10" height="5" rx="1" ry="1" fill="#d6b595" />
<rect x="25.0" y="7.5" width="10" height="5" rx="1" ry="1" fill="#d6b595" />
</g>
<g transform="translate(612.5 40.0)">
<animateTransform attributeName="transform" type="translate" additive="sum" dur="21.057s" repeatCount="indefinite" calcMode="linear" values="12.5 -52.5;12.5 -52.5;0.0 -37.5;0 0;0 0;0 67.0;0 67.0" keyTimes="0;0.536568;0.547319;0.567285;0.947760;0.990502;1" />
<rect x="0.0" y="7.5" width="10" height="5" rx="1" ry="1" fill="#c3b1ea" />
<rect x="12.5" y="0.0" width="10" height="5" rx="1" ry="1" fill="#9b76e3" />
<rect x="12.5" y="7.5" width="10" height="5" rx="1" ry="1" fill="#c3b1ea" />
<rect x="25.0" y="7.5" width="10" height="5" rx="1" ry="1" fill="#c3b1ea" />
</g>
<g transform="translate(350.0 55.0)">
<animateTransform attributeName="transform" type="translate" additive="sum" dur="21.057s" repeatCount="indefinite" calcMode="linear" values="-25.0 -67.5;-25.0 -67.5;0.0 -52.5;0 0;0 0;0 67.0;0 67.0" keyTimes="0;0.571084;0.584907;0.610577;0.947760;0.990502;1" />
<rect x="0.0" y="0.0" width="10" height="5" rx="1" ry="1" fill="#8453df" />
</g>
<g transform="translate(425.0 47.5)">
<animateTransform attributeName="transform" type="translate" additive="sum" dur="21.057s" repeatCount="indefinite" calcMode="linear" values="-25.0 -67.5;-25.0 -67.5;0.0 -45.0;0 0;0 0;0 67.0;0 67.0" keyTimes="0;0.614376;0.628199;0.653870;0.947760;0.990502;1" />
<rect x="0.0" y="0.0" width="10" height="5" rx="1" ry="1" fill="#c3b1ea" />
<rect x="0.0" y="7.5" width="10" height="5" rx="1" ry="1" fill="#c3b1ea" />
</g>
<g transform="translate(450.0 47.5)">
<animateTransform attributeName="transform" type="translate" additive="sum" dur="21.057s" repeatCount="indefinite" calcMode="linear" values="-37.5 -60.0;-37.5 -60.0;0.0 -45.0;0 0;0 0;0 67.0;0 67.0" keyTimes="0;0.657669;0.669956;0.692774;0.947760;0.990502;1" />
<rect x="0.0" y="0.0" width="10" height="5" rx="1" ry="1" fill="#9cc3aa" />
<rect x="12.5" y="0.0" width="10" height="5" rx="1" ry="1" fill="#9cc3aa" />
<rect x="12.5" y="7.5" width="10" height="5" rx="1" ry="1" fill="#1e813b" />
</g>
<g transform="translate(500.0 55.0)">
<animateTransform attributeName="transform" type="translate" additive="sum" dur="21.057s" repeatCount="indefinite" calcMode="linear" values="25.0 -60.0;25.0 -60.0;0.0 -52.5;0 0;0 0;0 67.0;0 67.0" keyTimes="0;0.696573;0.708860;0.731678;0.947760;0.990502;1" />
<rect x="0.0" y="0.0" width="10" height="5" rx="1" ry="1" fill="#d9b095" />
</g>
<g transform="translate(562.5 40.0)">
<animateTransform attributeName="transform" type="translate" additive="sum" dur="21.057s" repeatCount="indefinite" calcMode="linear" values="37.5 -67.5;37.5 -67.5;0.0 -37.5;0 0;0 0;0 67.0;0 67.0" keyTimes="0;0.735477;0.749300;0.774971;0.947760;0.990502;1" />
<rect x="0.0" y="15.0" width="10" height="5" rx="1" ry="1" fill="#d02632" />
<rect x="12.5" y="0.0" width="10" height="5" rx="1" ry="1" fill="#d02632" />
<rect x="12.5" y="7.5" width="10" height="5" rx="1" ry="1" fill="#db7b83" />
<rect x="12.5" y="15.0" width="10" height="5" rx="1" ry="1" fill="#db7b83" />
</g>
<g transform="translate(587.5 47.5)">
<animateTransform attributeName="transform" type="translate" additive="sum" dur="21.057s" repeatCount="indefinite" calcMode="linear" values="0.0 -60.0;0.0 -60.0;0.0 -45.0;0 0;0 0;0 67.0;0 67.0" keyTimes="0;0.778770;0.791057;0.813875;0.947760;0.990502;1" />
<rect x="0.0" y="7.5" width="10" height="5" rx="1" ry="1" fill="#9cc3aa" />
<rect x="12.5" y="0.0" width="10" height="5" rx="1" ry="1" fill="#1e813b" />
<rect x="12.5" y="7.5" width="10" height="5" rx="1" ry="1" fill="#76af88" />
<rect x="25.0" y="7.5" width="10" height="5" rx="1" ry="1" fill="#9cc3aa" />
</g>
<g transform="translate(625.0 55.0)">
<animateTransform attributeName="transform" type="translate" additive="sum" dur="21.057s" repeatCount="indefinite" calcMode="linear" values="12.5 -60.0;12.5 -60.0;0.0 -52.5;0 0;0 0;0 67.0;0 67.0" keyTimes="0;0.817674;0.829961;0.852779;0.947760;0.990502;1" />
<rect x="0.0" y="0.0" width="10" height="5" rx="1" ry="1" fill="#ccba95" />
<rect x="12.5" y="0.0" width="10" height="5" rx="1" ry="1" fill="#ccba95" />
</g>
</g>
<metadata>{"username": "Treenixie", "active_cells": 80, "mode": "live-animation"}</metadata>
</svg>