<svg xmlns="http://www.w3.org/2000/svg" width="660.0" height="70.0" viewBox="0 0 660.0 70.0">
<rect x="0" y="0" width="660.0" height="70.0" rx="0" ry="0" fill="#0d1117" />
<defs>
<clipPath id="grid-clip-live-dark"><rect x="0" y="10" width="660.0" height="50.0" rx="0" ry="0" /></clipPath>
</defs>
<rect x="0.0" y="10.0" width="10" height="5" rx="1" ry="1" fill="#161b22" />
<rect x="12.5" y="10.0" width="10" height="5" rx="1" ry="1" fill="#161b22" />
<rect x="25.0" y="10.0" width="10" height="5" rx="1" ry="1" fill="#161b22" />
<rect x="37.5" y="10.0" width="10" height="5" rx="1" ry="1" fill="#161b22" />
<rect x="50.0" y="10.0" width="10" height="5" rx="1" ry="1" fill="#161b22" />
<rect x="62.5" y="10.0" width="10" height="5" rx="1" ry="1" fill="#161b22" />
<rect x="75.0" y="10.0" width="10" height="5" rx="1" ry="1" fill="#161b22" />
<rect x="87.5" y="10.0" width="10" height="5" rx="1" ry="1" fill="#161b22" />
<rect x="100.0" y="10.0" width="10" height="5" rx="1" ry="1" fill="#161b22" />
<rect x="112.5" y="10.0" width="10" height="5" rx="1" ry="1" fill="#161b22" />
<rect x="125.0" y="10.0" width="10" height="5" rx="1" ry="1" fill="#161b22" />
<rect x="137.5" y="10.0" width="10" height="5" rx="1" ry="1" fill="#161b22" />
<rect x="150.0" y="10.0" width="10" height="5" rx="1" ry="1" fill="#161b22" />
<rect x="162.5" y="10.0" width="10" height="5" rx="1" ry="1" fill="#161b22" />
<rect x="175.0" y="10.0" width="10" height="5" rx="1" ry="1" fill="#161b22" />
<rect x="187.5" y="10.0" width="10" height="5" rx="1" ry="1" fill="#161b22" />
<rect x="200.0" y="10.0" width="10" height="5" rx="1" ry="1" fill="#161b22" />
<rect x="212.5" y="10.0" width="10" height="5" rx="1" ry="1" fill="#161b22" />
<rect x="225.0" y="10.0" width="10" height="5" rx="1" ry="1" fill="#161b22" />
<rect x="237.5" y="10.0" width="10" height="5" rx="1" ry="1" fill="#161b22" />
<rect x="250.0" y="10.0" width="10" height="5" rx="1" ry="1" fill="#161b22" />
<rect x="262.5" y="10.0" width="10" height="5" rx="1" ry="1" fill="#161b22" />
<rect x="275.0" y="10.0" width="10" height="5" rx="1" ry="1" fill="#161b22" />
<rect x="287.5" y="10.0" width="10" height="5" rx="1" ry="1" fill="#161b22" />
<rect x="300.0" y="10.0" width="10" height="5" rx="1" ry="1" fill="#161b22" />
<rect x="312.5" y="10.0" width="10" height="5" rx="1" ry="1" fill="#161b22" />
<rect x="325.0" y="10.0" width="10" height="5" rx="1" ry="1" fill="#161b22" />
<rect x="337.5" y="10.0" width="10" height="5" rx="1" ry="1" fill="#161b22" />
<rect x="350.0" y="10.0" width="10" height="5" rx="1" ry="1" fill="#161b22" />
<rect x="362.5" y="10.0" width="10" height="5" rx="1" ry="1" fill="#161b22" />
<rect x="375.0" y="10.0" width="10" height="5" rx="1" ry="1" fill="#161b22" />
<rect x="387.5" y="10.0" width="10" height="5" rx="1" ry="1" fill="#161b22" />
<rect x="400.0" y="10.0" width="10" height="5" rx="1" ry="1" fill="#161b22" />
<rect x="412.5" y="10.0" width="10" height="5" rx="1" ry="1" fill="#161b22" />
<rect x="425.0" y="10.0" width="10" height="5" rx="1" ry="1" fill="#161b22" />
<rect x="437.5" y="10.0" width="10" height="5" rx="1" ry="1" fill="#161b22" />
<rect x="450.0" y="10.0" width="10" height="5" rx="1" ry="1" fill="#161b22" />
<rect x="462.5" y="10.0" width="10" height="5" rx="1" ry="1" fill="#161b22" />
<rect x="475.0" y="10.0" width="10" height="5" rx="1" ry="1" fill="#161b22" />
<rect x="487.5" y="10.0" width="10" height="5" rx="1" ry="1" fill="#161b22" />
<rect x="500.0" y="10.0" width="10" height="5" rx="1" ry="1" fill="#161b22" />
<rect x="512.5" y="10.0" width="10" height="5" rx="1" ry="1" fill="#161b22" />
<rect x="525.0" y="10.0" width="10" height="5" rx="1" ry="1" fill="#161b22" />
<rect x="537.5" y="10.0" width="10" height="5" rx="1" ry="1" fill="#161b22" />
<rect x="550.0" y="10.0" width="10" height="5" rx="1" ry="1" fill="#161b22" />
<rect x="562.5" y="10.0" width="10" height="5" rx="1" ry="1" fill="#161b22" />
<rect x="575.0" y="10.0" width="10" height="5" rx="1" ry="1" fill="#161b22" />
<rect x="587.5" y="10.0" width="10" height="5" rx="1" ry="1" fill="#161b22" />
<rect x="600.0" y="10.0" width="10" height="5" rx="1" ry="1" fill="#161b22" />
<rect x="612.5" y="10.0" width="10" height="5" rx="1" ry="1" fill="#161b22" />
<rect x="625.0" y="10.0" width="10" height="5" rx="1" ry="1" fill="#161b22" />
<rect x="637.5" y="10.0" width="10" height="5" rx="1" ry="1" fill="#161b22" />
<rect x="650.0" y="10.0" width="10" height="5" rx="1" ry="1" fill="#161b22" />
<rect x="0.0" y="17.5" width="10" height="5" rx="1" ry="1" fill="#161b22" />
<rect x="12.5" y="17.5" width="10" height="5" rx="1" ry="1" fill="#161b22" />
<rect x="25.0" y="17.5" width="10" height="5" rx="1" ry="1" fill="#161b22" />
<rect x="37.5" y="17.5" width="10" height="5" rx="1" ry="1" fill="#161b22" />
<rect x="50.0" y="17.5" width="10" height="5" rx="1" ry="1" fill="#161b22" />
<rect x="62.5" y="17.5" width="10" height="5" rx="1" ry="1" fill="#161b22" />
<rect x="75.0" y="17.5" width="10" height="5" rx="1" ry="1" fill="#161b22" />
<rect x="87.5" y="17.5" width="10" height="5" rx="1" ry="1" fill="#161b22" />
<rect x="100.0" y="17.5" width="10" height="5" rx="1" ry="1" fill="#161b22" />
<rect x="112.5" y="17.5" width="10" height="5" rx="1" ry="1" fill="#161b22" />
<rect x="125.0" y="17.5" width="10" height="5" rx="1" ry="1" fill="#161b22" />
<rect x="137.5" y="17.5" width="10" height="5" rx="1" ry="1" fill="#161b22" />
<rect x="150.0" y="17.5" width="10" height="5" rx="1" ry="1" fill="#161b22" />
<rect x="162.5" y="17.5" width="10" height="5" rx="1" ry="1" fill="#161b22" />
<rect x="175.0" y="17.5" width="10" height="5" rx="1" ry="1" fill="#161b22" />
<rect x="187.5" y="17.5" width="10" height="5" rx="1" ry="1" fill="#161b22" />
<rect x="200.0" y="17.5" width="10" height="5" rx="1" ry="1" fill="#161b22" />
<rect x="212.5" y="17.5" width="10" height="5" rx="1" ry="1" fill="#161b22" />
<rect x="225.0" y="17.5" width="10" height="5" rx="1" ry="1" fill="#161b22" />
<rect x="237.5" y="17.5" width="10" height="5" rx="1" ry="1" fill="#161b22" />
<rect x="250.0" y="17.5" width="10" height="5" rx="1" ry="1" fill="#161b22" />
<rect x="262.5" y="17.5" width="10" height="5" rx="1" ry="1" fill="#161b22" />
<rect x="275.0" y="17.5" width="10" height="5" rx="1" ry="1" fill="#161b22" />
<rect x="287.5" y="17.5" width="10" height="5" rx="1" ry="1" fill="#161b22" />
<rect x="300.0" y="17.5" width="10" height="5" rx="1" ry="1" fill="#161b22" />
<rect x="312.5" y="17.5" width="10" height="5" rx="1" ry="1" fill="#161b22" />
<rect x="325.0" y="17.5" width="10" height="5" rx="1" ry="1" fill="#161b22" />
<rect x="337.5" y="17.5" width="10" height="5" rx="1" ry="1" fill="#161b22" />
<rect x="350.0" y="17.5" width="10" height="5" rx="1" ry="1" fill="#161b22" />
<rect x="362.5" y="17.5" width="10" height="5" rx="1" ry="1" fill="#161b22" />
<rect x="375.0" y="17.5" width="10" height="5" rx="1" ry="1" fill="#161b22" />
<rect x="387.5" y="17.5" width="10" height="5" rx="1" ry="1" fill="#161b22" />
<rect x="400.0" y="17.5" width="10" height="5" rx="1" ry="1" fill="#161b22" />
<rect x="412.5" y="17.5" width="10" height="5" rx="1" ry="1" fill="#161b22" />
<rect x="425.0" y="17.5" width="10" height="5" rx="1" ry="1" fill="#161b22" />
<rect x="437.5" y="17.5" width="10" height="5" rx="1" ry="1" fill="#161b22" />
<rect x="450.0" y="17.5" width="10" height="5" rx="1" ry="1" fill="#161b22" />
<rect x="462.5" y="17.5" width="10" height="5" rx="1" ry="1" fill="#161b22" />
<rect x="475.0" y="17.5" width="10" height="5" rx="1" ry="1" fill="#161b22" />
<rect x="487.5" y="17.5" width="10" height="5" rx="1" ry="1" fill="#161b22" />
<rect x="500.0" y="17.5" width="10" height="5" rx="1" ry="1" fill="#161b22" />
<rect x="512.5" y="17.5" width="10" height="5" rx="1" ry="1" fill="#161b22" />
<rect x="525.0" y="17.5" width="10" height="5" rx="1" ry="1" fill="#161b22" />
<rect x="537.5" y="17.5" width="10" height="5" rx="1" ry="1" fill="#161b22" />
<rect x="550.0" y="17.5" width="10" height="5" rx="1" ry="1" fill="#161b22" />
<rect x="562.5" y="17.5" width="10" height="5" rx="1" ry="1" fill="#161b22" />
<rect x="575.0" y="17.5" width="10" height="5" rx="1" ry="1" fill="#161b22" />
<rect x="587.5" y="17.5" width="10" height="5" rx="1" ry="1" fill="#161b22" />
<rect x="600.0" y="17.5" width="10" height="5" rx="1" ry="1" fill="#161b22" />
<rect x="612.5" y="17.5" width="10" height="5" rx="1" ry="1" fill="#161b22" />
<rect x="625.0" y="17.5" width="10" height="5" rx="1" ry="1" fill="#161b22" />
<rect x="637.5" y="17.5" width="10" height="5" rx="1" ry="1" fill="#161b22" />
<rect x="650.0" y="17.5" width="10" height="5" rx="1" ry="1" fill="#161b22" />
<rect x="0.0" y="25.0" width="10" height="5" rx="1" ry="1" fill="#161b22" />
<rect x="12.5" y="25.0" width="10" height="5" rx="1" ry="1" fill="#161b22" />
<rect x="25.0" y="25.0" width="10" height="5" rx="1" ry="1" fill="#161b22" />
<rect x="37.5" y="25.0" width="10" height="5" rx="1" ry="1" fill="#161b22" />
<rect x="50.0" y="25.0" width="10" height="5" rx="1" ry="1" fill="#161b22" />
<rect x="62.5" y="25.0" width="10" height="5" rx="1" ry="1" fill="#161b22" />
<rect x="75.0" y="25.0" width="10" height="5" rx="1" ry="1" fill="#161b22" />
<rect x="87.5" y="25.0" width="10" height="5" rx="1" ry="1" fill="#161b22" />
<rect x="100.0" y="25.0" width="10" height="5" rx="1" ry="1" fill="#161b22" />
<rect x="112.5" y="25.0" width="10" height="5" rx="1" ry="1" fill="#161b22" />
<rect x="125.0" y="25.0" width="10" height="5" rx="1" ry="1" fill="#161b22" />
<rect x="137.5" y="25.0" width="10" height="5" rx="1" ry="1" fill="#161b22" />
<rect x="150.0" y="25.0" width="10" height="5" rx="1" ry="1" fill="#161b22" />
<rect x="162.5" y="25.0" width="10" height="5" rx="1" ry="1" fill="#161b22" />
<rect x="175.0" y="25.0" width="10" height="5" rx="1" ry="1" fill="#161b22" />
<rect x="187.5" y="25.0" width="10" height="5" rx="1" ry="1" fill="#161b22" />
<rect x="200.0" y="25.0" width="10" height="5" rx="1" ry="1" fill="#161b22" />
<rect x="212.5" y="25.0" width="10" height="5" rx="1" ry="1" fill="#161b22" />
<rect x="225.0" y="25.0" width="10" height="5" rx="1" ry="1" fill="#161b22" />
<rect x="237.5" y="25.0" width="10" height="5" rx="1" ry="1" fill="#161b22" />
<rect x="250.0" y="25.0" width="10" height="5" rx="1" ry="1" fill="#161b22" />
<rect x="262.5" y="25.0" width="10" height="5" rx="1" ry="1" fill="#161b22" />
<rect x="275.0" y="25.0" width="10" height="5" rx="1" ry="1" fill="#161b22" />
<rect x="287.5" y="25.0" width="10" height="5" rx="1" ry="1" fill="#161b22" />
<rect x="300.0" y="25.0" width="10" height="5" rx="1" ry="1" fill="#161b22" />
<rect x="312.5" y="25.0" width="10" height="5" rx="1" ry="1" fill="#161b22" />
<rect x="325.0" y="25.0" width="10" height="5" rx="1" ry="1" fill="#161b22" />
<rect x="337.5" y="25.0" width="10" height="5" rx="1" ry="1" fill="#161b22" />
<rect x="350.0" y="25.0" width="10" height="5" rx="1" ry="1" fill="#161b22" />
<rect x="362.5" y="25.0" width="10" height="5" rx="1" ry="1" fill="#161b22" />
<rect x="375.0" y="25.0" width="10" height="5" rx="1" ry="1" fill="#161b22" />
<rect x="387.5" y="25.0" width="10" height="5" rx="1" ry="1" fill="#161b22" />
<rect x="400.0" y="25.0" width="10" height="5" rx="1" ry="1" fill="#161b22" />
<rect x="412.5" y="25.0" width="10" height="5" rx="1" ry="1" fill="#161b22" />
<rect x="425.0" y="25.0" width="10" height="5" rx="1" ry="1" fill="#161b22" />
<rect x="437.5" y="25.0" width="10" height="5" rx="1" ry="1" fill="#161b22" />
<rect x="450.0" y="25.0" width="10" height="5" rx="1" ry="1" fill="#161b22" />
<rect x="462.5" y="25.0" width="10" height="5" rx="1" ry="1" fill="#161b22" />
<rect x="475.0" y="25.0" width="10" height="5" rx="1" ry="1" fill="#161b22" />
<rect x="487.5" y="25.0" width="10" height="5" rx="1" ry="1" fill="#161b22" />
<rect x="500.0" y="25.0" width="10" height="5" rx="1" ry="1" fill="#161b22" />
<rect x="512.5" y="25.0" width="10" height="5" rx="1" ry="1" fill="#161b22" />
<rect x="525.0" y="25.0" width="10" height="5" rx="1" ry="1" fill="#161b22" />
<rect x="537.5" y="25.0" width="10" height="5" rx="1" ry="1" fill="#161b22" />
<rect x="550.0" y="25.0" width="10" height="5" rx="1" ry="1" fill="#161b22" />
<rect x="562.5" y="25.0" width="10" height="5" rx="1" ry="1" fill="#161b22" />
<rect x="575.0" y="25.0" width="10" height="5" rx="1" ry="1" fill="#161b22" />
<rect x="587.5" y="25.0" width="10" height="5" rx="1" ry="1" fill="#161b22" />
<rect x="600.0" y="25.0" width="10" height="5" rx="1" ry="1" fill="#161b22" />
<rect x="612.5" y="25.0" width="10" height="5" rx="1" ry="1" fill="#161b22" />
<rect x="625.0" y="25.0" width="10" height="5" rx="1" ry="1" fill="#161b22" />
<rect x="637.5" y="25.0" width="10" height="5" rx="1" ry="1" fill="#161b22" />
<rect x="650.0" y="25.0" width="10" height="5" rx="1" ry="1" fill="#161b22" />
<rect x="0.0" y="32.5" width="10" height="5" rx="1" ry="1" fill="#161b22" />
<rect x="12.5" y="32.5" width="10" height="5" rx="1" ry="1" fill="#161b22" />
<rect x="25.0" y="32.5" width="10" height="5" rx="1" ry="1" fill="#161b22" />
<rect x="37.5" y="32.5" width="10" height="5" rx="1" ry="1" fill="#161b22" />
<rect x="50.0" y="32.5" width="10" height="5" rx="1" ry="1" fill="#161b22" />
<rect x="62.5" y="32.5" width="10" height="5" rx="1" ry="1" fill="#161b22" />
<rect x="75.0" y="32.5" width="10" height="5" rx="1" ry="1" fill="#161b22" />
<rect x="87.5" y="32.5" width="10" height="5" rx="1" ry="1" fill="#161b22" />
<rect x="100.0" y="32.5" width="10" height="5" rx="1" ry="1" fill="#161b22" />
<rect x="112.5" y="32.5" width="10" height="5" rx="1" ry="1" fill="#161b22" />
<rect x="125.0" y="32.5" width="10" height="5" rx="1" ry="1" fill="#161b22" />
<rect x="137.5" y="32.5" width="10" height="5" rx="1" ry="1" fill="#161b22" />
<rect x="150.0" y="32.5" width="10" height="5" rx="1" ry="1" fill="#161b22" />
<rect x="162.5" y="32.5" width="10" height="5" rx="1" ry="1" fill="#161b22" />
<rect x="175.0" y="32.5" width="10" height="5" rx="1" ry="1" fill="#161b22" />
<rect x="187.5" y="32.5" width="10" height="5" rx="1" ry="1" fill="#161b22" />
<rect x="200.0" y="32.5" width="10" height="5" rx="1" ry="1" fill="#161b22" />
<rect x="212.5" y="32.5" width="10" height="5" rx="1" ry="1" fill="#161b22" />
<rect x="225.0" y="32.5" width="10" height="5" rx="1" ry="1" fill="#161b22" />
<rect x="237.5" y="32.5" width="10" height="5" rx="1" ry="1" fill="#161b22" />
<rect x="250.0" y="32.5" width="10" height="5" rx="1" ry="1" fill="#161b22" />
<rect x="262.5" y="32.5" width="10" height="5" rx="1" ry="1" fill="#161b22" />
<rect x="275.0" y="32.5" width="10" height="5" rx="1" ry="1" fill="#161b22" />
<rect x="287.5" y="32.5" width="10" height="5" rx="1" ry="1" fill="#161b22" />
<rect x="300.0" y="32.5" width="10" height="5" rx="1" ry="1" fill="#161b22" />
<rect x="312.5" y="32.5" width="10" height="5" rx="1" ry="1" fill="#161b22" />
<rect x="325.0" y="32.5" width="10" height="5" rx="1" ry="1" fill="#161b22" />
<rect x="337.5" y="32.5" width="10" height="5" rx="1" ry="1" fill="#161b22" />
<rect x="350.0" y="32.5" width="10" height="5" rx="1" ry="1" fill="#161b22" />
<rect x="362.5" y="32.5" width="10" height="5" rx="1" ry="1" fill="#161b22" />
<rect x="375.0" y="32.5" width="10" height="5" rx="1" ry="1" fill="#161b22" />
<rect x="387.5" y="32.5" width="10" height="5" rx="1" ry="1" fill="#161b22" />
<rect x="400.0" y="32.5" width="10" height="5" rx="1" ry="1" fill="#161b22" />
<rect x="412.5" y="32.5" width="10" height="5" rx="1" ry="1" fill="#161b22" />
<rect x="425.0" y="32.5" width="10" height="5" rx="1" ry="1" fill="#161b22" />
<rect x="437.5" y="32.5" width="10" height="5" rx="1" ry="1" fill="#161b22" />
<rect x="450.0" y="32.5" width="10" height="5" rx="1" ry="1" fill="#161b22" />
<rect x="462.5" y="32.5" width="10" height="5" rx="1" ry="1" fill="#161b22" />
<rect x="475.0" y="32.5" width="10" height="5" rx="1" ry="1" fill="#161b22" />
<rect x="487.5" y="32.5" width="10" height="5" rx="1" ry="1" fill="#161b22" />
<rect x="500.0" y="32.5" width="10" height="5" rx="1" ry="1" fill="#161b22" />
<rect x="512.5" y="32.5" width="10" height="5" rx="1" ry="1" fill="#161b22" />
<rect x="525.0" y="32.5" width="10" height="5" rx="1" ry="1" fill="#161b22" />
<rect x="537.5" y="32.5" width="10" height="5" rx="1" ry="1" fill="#161b22" />
<rect x="550.0" y="32.5" width="10" height="5" rx="1" ry="1" fill="#161b22" />
<rect x="562.5" y="32.5" width="10" height="5" rx="1" ry="1" fill="#161b22" />
<rect x="575.0" y="32.5" width="10" height="5" rx="1" ry="1" fill="#161b22" />
<rect x="587.5" y="32.5" width="10" height="5" rx="1" ry="1" fill="#161b22" />
<rect x="600.0" y="32.5" width="10" height="5" rx="1" ry="1" fill="#161b22" />
<rect x="612.5" y="32.5" width="10" height="5" rx="1" ry="1" fill="#161b22" />
<rect x="625.0" y="32.5" width="10" height="5" rx="1" ry="1" fill="#161b22" />
<rect x="637.5" y="32.5" width="10" height="5" rx="1" ry="1" fill="#161b22" />
<rect x="650.0" y="32.5" width="10" height="5" rx="1" ry="1" fill="#161b22" />
<rect x="0.0" y="40.0" width="10" height="5" rx="1" ry="1" fill="#161b22" />
<rect x="12.5" y="40.0" width="10" height="5" rx="1" ry="1" fill="#161b22" />
<rect x="25.0" y="40.0" width="10" height="5" rx="1" ry="1" fill="#161b22" />
<rect x="37.5" y="40.0" width="10" height="5" rx="1" ry="1" fill="#161b22" />
<rect x="50.0" y="40.0" width="10" height="5" rx="1" ry="1" fill="#161b22" />
<rect x="62.5" y="40.0" width="10" height="5" rx="1" ry="1" fill="#161b22" />
<rect x="75.0" y="40.0" width="10" height="5" rx="1" ry="1" fill="#161b22" />
<rect x="87.5" y="40.0" width="10" height="5" rx="1" ry="1" fill="#161b22" />
<rect x="100.0" y="40.0" width="10" height="5" rx="1" ry="1" fill="#161b22" />
<rect x="112.5" y="40.0" width="10" height="5" rx="1" ry="1" fill="#161b22" />
<rect x="125.0" y="40.0" width="10" height="5" rx="1" ry="1" fill="#161b22" />
<rect x="137.5" y="40.0" width="10" height="5" rx="1" ry="1" fill="#161b22" />
<rect x="150.0" y="40.0" width="10" height="5" rx="1" ry="1" fill="#161b22" />
<rect x="162.5" y="40.0" width="10" height="5" rx="1" ry="1" fill="#161b22" />
<rect x="175.0" y="40.0" width="10" height="5" rx="1" ry="1" fill="#161b22" />
<rect x="187.5" y="40.0" width="10" height="5" rx="1" ry="1" fill="#161b22" />
<rect x="200.0" y="40.0" width="10" height="5" rx="1" ry="1" fill="#161b22" />
<rect x="212.5" y="40.0" width="10" height="5" rx="1" ry="1" fill="#161b22" />
<rect x="225.0" y="40.0" width="10" height="5" rx="1" ry="1" fill="#161b22" />
<rect x="237.5" y="40.0" width="10" height="5" rx="1" ry="1" fill="#161b22" />
<rect x="250.0" y="40.0" width="10" height="5" rx="1" ry="1" fill="#161b22" />
<rect x="262.5" y="40.0" width="10" height="5" rx="1" ry="1" fill="#161b22" />
<rect x="275.0" y="40.0" width="10" height="5" rx="1" ry="1" fill="#161b22" />
<rect x="287.5" y="40.0" width="10" height="5" rx="1" ry="1" fill="#161b22" />
<rect x="300.0" y="40.0" width="10" height="5" rx="1" ry="1" fill="#161b22" />
<rect x="312.5" y="40.0" width="10" height="5" rx="1" ry="1" fill="#161b22" />
<rect x="325.0" y="40.0" width="10" height="5" rx="1" ry="1" fill="#161b22" />
<rect x="337.5" y="40.0" width="10" height="5" rx="1" ry="1" fill="#161b22" />
<rect x="350.0" y="40.0" width="10" height="5" rx="1" ry="1" fill="#161b22" />
<rect x="362.5" y="40.0" width="10" height="5" rx="1" ry="1" fill="#161b22" />
<rect x="375.0" y="40.0" width="10" height="5" rx="1" ry="1" fill="#161b22" />
<rect x="387.5" y="40.0" width="10" height="5" rx="1" ry="1" fill="#161b22" />
<rect x="400.0" y="40.0" width="10" height="5" rx="1" ry="1" fill="#161b22" />
<rect x="412.5" y="40.0" width="10" height="5" rx="1" ry="1" fill="#161b22" />
<rect x="425.0" y="40.0" width="10" height="5" rx="1" ry="1" fill="#161b22" />
<rect x="437.5" y="40.0" width="10" height="5" rx="1" ry="1" fill="#161b22" />
<rect x="450.0" y="40.0" width="10" height="5" rx="1" ry="1" fill="#161b22" />
<rect x="462.5" y="40.0" width="10" height="5" rx="1" ry="1" fill="#161b22" />
<rect x="475.0" y="40.0" width="10" height="5" rx="1" ry="1" fill="#161b22" />
<rect x="487.5" y="40.0" width="10" height="5" rx="1" ry="1" fill="#161b22" />
<rect x="500.0" y="40.0" width="10" height="5" rx="1" ry="1" fill="#161b22" />
<rect x="512.5" y="40.0" width="10" height="5" rx="1" ry="1" fill="#161b22" />
<rect x="525.0" y="40.0" width="10" height="5" rx="1" ry="1" fill="#161b22" />
<rect x="537.5" y="40.0" width="10" height="5" rx="1" ry="1" fill="#161b22" />
<rect x="550.0" y="40.0" width="10" height="5" rx="1" ry="1" fill="#161b22" />
<rect x="562.5" y="40.0" width="10" height="5" rx="1" ry="1" fill="#161b22" />
<rect x="575.0" y="40.0" width="10" height="5" rx="1" ry="1" fill="#161b22" />
<rect x="587.5" y="40.0" width="10" height="5" rx="1" ry="1" fill="#161b22" />
<rect x="600.0" y="40.0" width="10" height="5" rx="1" ry="1" fill="#161b22" />
<rect x="612.5" y="40.0" width="10" height="5" rx="1" ry="1" fill="#161b22" />
<rect x="625.0" y="40.0" width="10" height="5" rx="1" ry="1" fill="#161b22" />
<rect x="637.5" y="40.0" width="10" height="5" rx="1" ry="1" fill="#161b22" />
<rect x="650.0" y="40.0" width="10" height="5" rx="1" ry="1" fill="#161b22" />
<rect x="0.0" y="47.5" width="10" height="5" rx="1" ry="1" fill="#161b22" />
<rect x="12.5" y="47.5" width="10" height="5" rx="1" ry="1" fill="#161b22" />
<rect x="25.0" y="47.5" width="10" height="5" rx="1" ry="1" fill="#161b22" />
<rect x="37.5" y="47.5" width="10" height="5" rx="1" ry="1" fill="#161b22" />
<rect x="50.0" y="47.5" width="10" height="5" rx="1" ry="1" fill="#161b22" />
<rect x="62.5" y="47.5" width="10" height="5" rx="1" ry="1" fill="#161b22" />
<rect x="75.0" y="47.5" width="10" height="5" rx="1" ry="1" fill="#161b22" />
<rect x="87.5" y="47.5" width="10" height="5" rx="1" ry="1" fill="#161b22" />
<rect x="100.0" y="47.5" width="10" height="5" rx="1" ry="1" fill="#161b22" />
<rect x="112.5" y="47.5" width="10" height="5" rx="1" ry="1" fill="#161b22" />
<rect x="125.0" y="47.5" width="10" height="5" rx="1" ry="1" fill="#161b22" />
<rect x="137.5" y="47.5" width="10" height="5" rx="1" ry="1" fill="#161b22" />
<rect x="150.0" y="47.5" width="10" height="5" rx="1" ry="1" fill="#161b22" />
<rect x="162.5" y="47.5" width="10" height="5" rx="1" ry="1" fill="#161b22" />
<rect x="175.0" y="47.5" width="10" height="5" rx="1" ry="1" fill="#161b22" />
<rect x="187.5" y="47.5" width="10" height="5" rx="1" ry="1" fill="#161b22" />
<rect x="200.0" y="47.5" width="10" height="5" rx="1" ry="1" fill="#161b22" />
<rect x="212.5" y="47.5" width="10" height="5" rx="1" ry="1" fill="#161b22" />
<rect x="225.0" y="47.5" width="10" height="5" rx="1" ry="1" fill="#161b22" />
<rect x="237.5" y="47.5" width="10" height="5" rx="1" ry="1" fill="#161b22" />
<rect x="250.0" y="47.5" width="10" height="5" rx="1" ry="1" fill="#161b22" />
<rect x="262.5" y="47.5" width="10" height="5" rx="1" ry="1" fill="#161b22" />
<rect x="275.0" y="47.5" width="10" height="5" rx="1" ry="1" fill="#161b22" />
<rect x="287.5" y="47.5" width="10" height="5" rx="1" ry="1" fill="#161b22" />
<rect x="300.0" y="47.5" width="10" height="5" rx="1" ry="1" fill="#161b22" />
<rect x="312.5" y="47.5" width="10" height="5" rx="1" ry="1" fill="#161b22" />
<rect x="325.0" y="47.5" width="10" height="5" rx="1" ry="1" fill="#161b22" />
<rect x="337.5" y="47.5" width="10" height="5" rx="1" ry="1" fill="#161b22" />
<rect x="350.0" y="47.5" width="10" height="5" rx="1" ry="1" fill="#161b22" />
<rect x="362.5" y="47.5" width="10" height="5" rx="1" ry="1" fill="#161b22" />
<rect x="375.0" y="47.5" width="10" height="5" rx="1" ry="1" fill="#161b22" />
<rect x="387.5" y="47.5" width="10" height="5" rx="1" ry="1" fill="#161b22" />
<rect x="400.0" y="47.5" width="10" height="5" rx="1" ry="1" fill="#161b22" />
<rect x="412.5" y="47.5" width="10" height="5" rx="1" ry="1" fill="#161b22" />
<rect x="425.0" y="47.5" width="10" height="5" rx="1" ry="1" fill="#161b22" />
<rect x="437.5" y="47.5" width="10" height="5" rx="1" ry="1" fill="#161b22" />
<rect x="450.0" y="47.5" width="10" height="5" rx="1" ry="1" fill="#161b22" />
<rect x="462.5" y="47.5" width="10" height="5" rx="1" ry="1" fill="#161b22" />
<rect x="475.0" y="47.5" width="10" height="5" rx="1" ry="1" fill="#161b22" />
<rect x="487.5" y="47.5" width="10" height="5" rx="1" ry="1" fill="#161b22" />
<rect x="500.0" y="47.5" width="10" height="5" rx="1" ry="1" fill="#161b22" />
<rect x="512.5" y="47.5" width="10" height="5" rx="1" ry="1" fill="#161b22" />
<rect x="525.0" y="47.5" width="10" height="5" rx="1" ry="1" fill="#161b22" />
<rect x="537.5" y="47.5" width="10" height="5" rx="1" ry="1" fill="#161b22" />
<rect x="550.0" y="47.5" width="10" height="5" rx="1" ry="1" fill="#161b22" />
<rect x="562.5" y="47.5" width="10" height="5" rx="1" ry="1" fill="#161b22" />
<rect x="575.0" y="47.5" width="10" height="5" rx="1" ry="1" fill="#161b22" />
<rect x="587.5" y="47.5" width="10" height="5" rx="1" ry="1" fill="#161b22" />
<rect x="600.0" y="47.5" width="10" height="5" rx="1" ry="1" fill="#161b22" />
<rect x="612.5" y="47.5" width="10" height="5" rx="1" ry="1" fill="#161b22" />
<rect x="625.0" y="47.5" width="10" height="5" rx="1" ry="1" fill="#161b22" />
<rect x="637.5" y="47.5" width="10" height="5" rx="1" ry="1" fill="#161b22" />
<rect x="650.0" y="47.5" width="10" height="5" rx="1" ry="1" fill="#161b22" />
<rect x="0.0" y="55.0" width="10" height="5" rx="1" ry="1" fill="#161b22" />
<rect x="12.5" y="55.0" width="10" height="5" rx="1" ry="1" fill="#161b22" />
<rect x="25.0" y="55.0" width="10" height="5" rx="1" ry="1" fill="#161b22" />
<rect x="37.5" y="55.0" width="10" height="5" rx="1" ry="1" fill="#161b22" />
<rect x="50.0" y="55.0" width="10" height="5" rx="1" ry="1" fill="#161b22" />
<rect x="62.5" y="55.0" width="10" height="5" rx="1" ry="1" fill="#161b22" />
<rect x="75.0" y="55.0" width="10" height="5" rx="1" ry="1" fill="#161b22" />
<rect x="87.5" y="55.0" width="10" height="5" rx="1" ry="1" fill="#161b22" />
<rect x="100.0" y="55.0" width="10" height="5" rx="1" ry="1" fill="#161b22" />
<rect x="112.5" y="55.0" width="10" height="5" rx="1" ry="1" fill="#161b22" />
<rect x="125.0" y="55.0" width="10" height="5" rx="1" ry="1" fill="#161b22" />
<rect x="137.5" y="55.0" width="10" height="5" rx="1" ry="1" fill="#161b22" />
<rect x="150.0" y="55.0" width="10" height="5" rx="1" ry="1" fill="#161b22" />
<rect x="162.5" y="55.0" width="10" height="5" rx="1" ry="1" fill="#161b22" />
<rect x="175.0" y="55.0" width="10" height="5" rx="1" ry="1" fill="#161b22" />
<rect x="187.5" y="55.0" width="10" height="5" rx="1" ry="1" fill="#161b22" />
<rect x="200.0" y="55.0" width="10" height="5" rx="1" ry="1" fill="#161b22" />
<rect x="212.5" y="55.0" width="10" height="5" rx="1" ry="1" fill="#161b22" />
<rect x="225.0" y="55.0" width="10" height="5" rx="1" ry="1" fill="#161b22" />
<rect x="237.5" y="55.0" width="10" height="5" rx="1" ry="1" fill="#161b22" />
<rect x="250.0" y="55.0" width="10" height="5" rx="1" ry="1" fill="#161b22" />
<rect x="262.5" y="55.0" width="10" height="5" rx="1" ry="1" fill="#161b22" />
<rect x="275.0" y="55.0" width="10" height="5" rx="1" ry="1" fill="#161b22" />
<rect x="287.5" y="55.0" width="10" height="5" rx="1" ry="1" fill="#161b22" />
<rect x="300.0" y="55.0" width="10" height="5" rx="1" ry="1" fill="#161b22" />
<rect x="312.5" y="55.0" width="10" height="5" rx="1" ry="1" fill="#161b22" />
<rect x="325.0" y="55.0" width="10" height="5" rx="1" ry="1" fill="#161b22" />
<rect x="337.5" y="55.0" width="10" height="5" rx="1" ry="1" fill="#161b22" />
<rect x="350.0" y="55.0" width="10" height="5" rx="1" ry="1" fill="#161b22" />
<rect x="362.5" y="55.0" width="10" height="5" rx="1" ry="1" fill="#161b22" />
<rect x="375.0" y="55.0" width="10" height="5" rx="1" ry="1" fill="#161b22" />
<rect x="387.5" y="55.0" width="10" height="5" rx="1" ry="1" fill="#161b22" />
<rect x="400.0" y="55.0" width="10" height="5" rx="1" ry="1" fill="#161b22" />
<rect x="412.5" y="55.0" width="10" height="5" rx="1" ry="1" fill="#161b22" />
<rect x="425.0" y="55.0" width="10" height="5" rx="1" ry="1" fill="#161b22" />
<rect x="437.5" y="55.0" width="10" height="5" rx="1" ry="1" fill="#161b22" />
<rect x="450.0" y="55.0" width="10" height="5" rx="1" ry="1" fill="#161b22" />
<rect x="462.5" y="55.0" width="10" height="5" rx="1" ry="1" fill="#161b22" />
<rect x="475.0" y="55.0" width="10" height="5" rx="1" ry="1" fill="#161b22" />
<rect x="487.5" y="55.0" width="10" height="5" rx="1" ry="1" fill="#161b22" />
<rect x="500.0" y="55.0" width="10" height="5" rx="1" ry="1" fill="#161b22" />
<rect x="512.5" y="55.0" width="10" height="5" rx="1" ry="1" fill="#161b22" />
<rect x="525.0" y="55.0" width="10" height="5" rx="1" ry="1" fill="#161b22" />
<rect x="537.5" y="55.0" width="10" height="5" rx="1" ry="1" fill="#161b22" />
<rect x="550.0" y="55.0" width="10" height="5" rx="1" ry="1" fill="#161b22" />
<rect x="562.5" y="55.0" width="10" height="5" rx="1" ry="1" fill="#161b22" />
<rect x="575.0" y="55.0" width="10" height="5" rx="1" ry="1" fill="#161b22" />
<rect x="587.5" y="55.0" width="10" height="5" rx="1" ry="1" fill="#161b22" />
<rect x="600.0" y="55.0" width="10" height="5" rx="1" ry="1" fill="#161b22" />
<rect x="612.5" y="55.0" width="10" height="5" rx="1" ry="1" fill="#161b22" />
<rect x="625.0" y="55.0" width="10" height="5" rx="1" ry="1" fill="#161b22" />
<rect x="637.5" y="55.0" width="10" height="5" rx="1" ry="1" fill="#161b22" />
<rect x="650.0" y="55.0" width="10" height="5" rx="1" ry="1" fill="#161b22" />
<g clip-path="url(#grid-clip-live-dark)">
<g transform="translate(437.5 10.0)">
<animateTransform attributeName="transform" type="translate" additive="sum" dur="14.150s" repeatCount="indefinite" calcMode="linear" values="-37.5 -15.0;-37.5 -15.0;0.0 -15.0;0 0;0 0;0 67.0;0 67.0" keyTimes="0;0.012721;0.022120;0.039576;0.922261;0.985866;1" />
<rect x="0.0" y="0.0" width="10" height="5" rx="1" ry="1" fill="#59875d" />
</g>
<g transform="translate(550.0 10.0)">
<animateTransform attributeName="transform" type="translate" additive="sum" dur="14.150s" repeatCount="indefinite" calcMode="linear" values="-25.0 -30.0;-25.0 -30.0;0.0 -15.0;0 0;0 0;0 67.0;0 67.0" keyTimes="0;0.045230;0.054629;0.072085;0.922261;0.985866;1" />
<rect x="0.0" y="0.0" width="10" height="5" rx="1" ry="1" fill="#fa7970" />
<rect x="12.5" y="0.0" width="10" height="5" rx="1" ry="1" fill="#6f3f40" />
<rect x="25.0" y="0.0" width="10" height="5" rx="1" ry="1" fill="#6f3f40" />
<rect x="25.0" y="7.5" width="10" height="5" rx="1" ry="1" fill="#6f3f40" />
</g>
<g transform="translate(587.5 10.0)">
<animateTransform attributeName="transform" type="translate" additive="sum" dur="14.150s" repeatCount="indefinite" calcMode="linear" values="-25.0 -30.0;-25.0 -30.0;0.0 -15.0;0 0;0 0;0 67.0;0 67.0" keyTimes="0;0.077739;0.087138;0.104594;0.922261;0.985866;1" />
<rect x="0.0" y="0.0" width="10" height="5" rx="1" ry="1" fill="#2e6169" />
<rect x="0.0" y="7.5" width="10" height="5" rx="1" ry="1" fill="#2e6169" />
<rect x="12.5" y="0.0" width="10" height="5" rx="1" ry="1" fill="#3a838b" />
</g>
<g transform="translate(625.0 10.0)">
<animateTransform attributeName="transform" type="translate" additive="sum" dur="14.150s" repeatCount="indefinite" calcMode="linear" values="25.0 -30.0;25.0 -30.0;0.0 -15.0;0 0;0 0;0 67.0;0 67.0" keyTimes="0;0.110247;0.119647;0.137102;0.922261;0.985866;1" />
<rect x="0.0" y="0.0" width="10" height="5" rx="1" ry="1" fill="#5d5176" />
<rect x="0.0" y="7.5" width="10" height="5" rx="1" ry="1" fill="#5d5176" />
</g>
<g transform="translate(462.5 25.0)">
<animateTransform attributeName="transform" type="translate" additive="sum" dur="14.150s" repeatCount="indefinite" calcMode="linear" values="25.0 -30.0;25.0 -30.0;0.0 -22.5;0 0;0 0;0 67.0;0 67.0" keyTimes="0;0.142756;0.152155;0.169611;0.922261;0.985866;1" />
<rect x="0.0" y="0.0" width="10" height="5" rx="1" ry="1" fill="#b28f3a" />
</g>
<g transform="translate(500.0 25.0)">
<animateTransform attributeName="transform" type="translate" additive="sum" dur="14.150s" repeatCount="indefinite" calcMode="linear" values="-37.5 -30.0;-37.5 -30.0;0.0 -22.5;0 0;0 0;0 67.0;0 67.0" keyTimes="0;0.175265;0.184664;0.202120;0.922261;0.985866;1" />
<rect x="0.0" y="0.0" width="10" height="5" rx="1" ry="1" fill="#2e6169" />
</g>
<g transform="translate(537.5 10.0)">
<animateTransform attributeName="transform" type="translate" additive="sum" dur="14.150s" repeatCount="indefinite" calcMode="linear" values="-37.5 -30.0;-37.5 -30.0;0.0 -15.0;0 0;0 0;0 67.0;0 67.0" keyTimes="0;0.207774;0.217173;0.234629;0.922261;0.985866;1" />
<rect x="0.0" y="0.0" width="10" height="5" rx="1" ry="1" fill="#3c5a76" />
<rect x="0.0" y="7.5" width="10" height="5" rx="1" ry="1" fill="#4d779e" />
<rect x="0.0" y="15.0" width="10" height="5" rx="1" ry="1" fill="#3c5a76" />
<rect x="12.5" y="7.5" width="10" height="5" rx="1" ry="1" fill="#3c5a76" />
</g>
<g transform="translate(650.0 10.0)">
<animateTransform attributeName="transform" type="translate" additive="sum" dur="14.150s" repeatCount="indefinite" calcMode="linear" values="-37.5 -37.5;-37.5 -37.5;0.0 -15.0;0 0;0 0;0 67.0;0 67.0" keyTimes="0;0.240283;0.251710;0.272933;0.922261;0.985866;1" />
<rect x="0.0" y="0.0" width="10" height="5" rx="1" ry="1" fill="#a586ca" />
<rect x="0.0" y="7.5" width="10" height="5" rx="1" ry="1" fill="#7f6a9e" />
<rect x="0.0" y="15.0" width="10" height="5" rx="1" ry="1" fill="#7f6a9e" />
<rect x="0.0" y="22.5" width="10" height="5" rx="1" ry="1" fill="#7f6a9e" />
</g>
<g transform="translate(500.0 32.5)">
<animateTransform attributeName="transform" type="translate" additive="sum" dur="14.150s" repeatCount="indefinite" calcMode="linear" values="-25.0 -52.5;-25.0 -52.5;0.0 -30.0;0 0;0 0;0 67.0;0 67.0" keyTimes="0;0.278587;0.294585;0.324297;0.922261;0.985866;1" />
<rect x="0.0" y="7.5" width="10" height="5" rx="1" ry="1" fill="#6a5e3a" />
<rect x="12.5" y="0.0" width="10" height="5" rx="1" ry="1" fill="#6a5e3a" />
<rect x="12.5" y="7.5" width="10" height="5" rx="1" ry="1" fill="#6a5e3a" />
</g>
<g transform="translate(587.5 25.0)">
<animateTransform attributeName="transform" type="translate" additive="sum" dur="14.150s" repeatCount="indefinite" calcMode="linear" values="-25.0 -52.5;-25.0 -52.5;0.0 -22.5;0 0;0 0;0 67.0;0 67.0" keyTimes="0;0.329951;0.345949;0.375661;0.922261;0.985866;1" />
<rect x="0.0" y="7.5" width="10" height="5" rx="1" ry="1" fill="#6f5036" />
<rect x="12.5" y="0.0" width="10" height="5" rx="1" ry="1" fill="#6f5036" />
<rect x="12.5" y="7.5" width="10" height="5" rx="1" ry="1" fill="#6f5036" />
<rect x="12.5" y="15.0" width="10" height="5" rx="1" ry="1" fill="#6f5036" />
</g>
<g transform="translate(562.5 40.0)">
<animateTransform attributeName="transform" type="translate" additive="sum" dur="14.150s" repeatCount="indefinite" calcMode="linear" values="-25.0 -52.5;-25.0 -52.5;0.0 -37.5;0 0;0 0;0 67.0;0 67.0" keyTimes="0;0.381314;0.397313;0.427025;0.922261;0.985866;1" />
<rect x="0.0" y="0.0" width="10" height="5" rx="1" ry="1" fill="#6f5036" />
<rect x="0.0" y="7.5" width="10" height="5" rx="1" ry="1" fill="#6f5036" />
</g>
<g transform="translate(587.5 40.0)">
<animateTransform attributeName="transform" type="translate" additive="sum" dur="14.150s" repeatCount="indefinite" calcMode="linear" values="0.0 -60.0;0.0 -60.0;0.0 -37.5;0 0;0 0;0 67.0;0 67.0" keyTimes="0;0.432678;0.450963;0.484919;0.922261;0.985866;1" />
<rect x="0.0" y="0.0" width="10" height="5" rx="1" ry="1" fill="#43644a" />
<rect x="0.0" y="7.5" width="10" height="5" rx="1" ry="1" fill="#43644a" />
<rect x="12.5" y="7.5" width="10" height="5" rx="1" ry="1" fill="#43644a" />
<rect x="25.0" y="7.5" width="10" height="5" rx="1" ry="1" fill="#43644a" />
</g>
<g transform="translate(425.0 55.0)">
<animateTransform attributeName="transform" type="translate" additive="sum" dur="14.150s" repeatCount="indefinite" calcMode="linear" values="-25.0 -60.0;-25.0 -60.0;0.0 -52.5;0 0;0 0;0 67.0;0 67.0" keyTimes="0;0.490572;0.508857;0.542813;0.922261;0.985866;1" />
<rect x="0.0" y="0.0" width="10" height="5" rx="1" ry="1" fill="#eec85f" />
</g>
<g transform="translate(500.0 47.5)">
<animateTransform attributeName="transform" type="translate" additive="sum" dur="14.150s" repeatCount="indefinite" calcMode="linear" values="37.5 -67.5;37.5 -67.5;0.0 -45.0;0 0;0 0;0 67.0;0 67.0" keyTimes="0;0.548466;0.569036;0.607237;0.922261;0.985866;1" />
<rect x="0.0" y="0.0" width="10" height="5" rx="1" ry="1" fill="#6f3f40" />
<rect x="0.0" y="7.5" width="10" height="5" rx="1" ry="1" fill="#6f3f40" />
</g>
<g transform="translate(525.0 47.5)">
<animateTransform attributeName="transform" type="translate" additive="sum" dur="14.150s" repeatCount="indefinite" calcMode="linear" values="37.5 -60.0;37.5 -60.0;0.0 -45.0;0 0;0 0;0 67.0;0 67.0" keyTimes="0;0.612890;0.631175;0.665131;0.922261;0.985866;1" />
<rect x="0.0" y="0.0" width="10" height="5" rx="1" ry="1" fill="#3c5a76" />
<rect x="12.5" y="0.0" width="10" height="5" rx="1" ry="1" fill="#3c5a76" />
<rect x="12.5" y="7.5" width="10" height="5" rx="1" ry="1" fill="#77bdfb" />
</g>
<g transform="translate(575.0 55.0)">
<animateTransform attributeName="transform" type="translate" additive="sum" dur="14.150s" repeatCount="indefinite" calcMode="linear" values="37.5 -60.0;37.5 -60.0;0.0 -52.5;0 0;0 0;0 67.0;0 67.0" keyTimes="0;0.670784;0.689069;0.723025;0.922261;0.985866;1" />
<rect x="0.0" y="0.0" width="10" height="5" rx="1" ry="1" fill="#6f3f40" />
</g>
<g transform="translate(637.5 40.0)">
<animateTransform attributeName="transform" type="translate" additive="sum" dur="14.150s" repeatCount="indefinite" calcMode="linear" values="0.0 -60.0;0.0 -60.0;0.0 -37.5;0 0;0 0;0 67.0;0 67.0" keyTimes="0;0.728678;0.746963;0.780919;0.922261;0.985866;1" />
<rect x="0.0" y="15.0" width="10" height="5" rx="1" ry="1" fill="#dfb040" />
<rect x="12.5" y="0.0" width="10" height="5" rx="1" ry="1" fill="#dfb040" />
<rect x="12.5" y="7.5" width="10" height="5" rx="1" ry="1" fill="#897033" />
<rect x="12.5" y="15.0" width="10" height="5" rx="1" ry="1" fill="#64552e" />
</g>
</g>
<metadata>{"username": "Treenixie", "active_cells": 44, "mode": "live-animation"}</metadata>
</svg>